<svg width="545" height="263" viewBox="0 0 545 263" fill="none" xmlns="http://www.w3.org/2000/svg">
<path d="M230.318 201.802C217.429 202.643 204.384 200.059 192.679 199.094C199.808 205.663 215.748 213.975 229.383 216.87C296.785 231.16 328.322 173.534 322.313 125.185C322.064 123.286 321.535 121.449 321.005 118.865C312.818 129.263 303.198 133.964 291.274 133.808C294.107 147.195 292.115 159.088 285.048 169.58C271.443 189.785 252.608 200.339 230.318 201.802Z" fill="#6CBDAA"/>
<path d="M368.481 135.49C363.905 120.017 368.761 99.2513 383.051 90.3474C381.525 91.3125 380.031 95.0484 379.128 96.6361C377.696 99.189 376.544 101.898 375.735 104.7C374.116 110.335 373.805 116.343 374.988 122.072C377.852 136.237 389.744 148.846 404.594 149.966C423.959 151.43 442.202 133.186 441.299 113.821C440.459 96.0758 424.176 80.883 406.618 79.8557C404.999 79.7623 403.38 79.7934 401.761 79.949C398.337 57.3779 385.915 36.3011 367.827 22.3536C349.74 8.40622 326.204 1.74386 303.477 4.14108C297.002 4.82599 290.557 6.22694 284.051 5.91561C276.267 5.54202 268.858 2.74008 261.2 1.24571C241.617 -2.61473 220.136 2.55332 205.348 15.9715C190.561 29.3897 183.369 51.058 188.444 70.3913C191.121 64.4139 195.231 58.81 200.274 54.6071C206.127 49.7192 213.069 47.789 220.603 47.7579C220.198 47.9136 197.69 57.5647 194.857 83.2803C193.798 91.4681 195.137 99.9674 198.095 107.719C202.08 118.18 209.147 127.738 218.891 133.31C228.635 138.883 241.151 139.973 251.113 134.774C255.814 132.314 259.83 128.609 264.811 126.741C275.147 122.912 286.915 128.018 297.624 125.372C314.467 121.2 321.004 98.9711 315.058 82.6576C309.579 67.6206 295.974 55.8524 280.346 52.5524C273.746 51.1514 266.617 51.2448 260.546 54.1401C257.806 55.4477 255.316 57.409 253.385 59.744C253.385 59.744 236.761 78.3924 265.62 93.3361C266.243 93.7408 266.834 94.0522 267.301 94.1767C267.301 94.1767 253.79 94.6125 246.1 86.3312C243.267 83.4359 241.182 79.7934 240.403 75.8084C238.317 65.3167 244.201 54.2023 253.23 48.4739C262.258 42.7455 273.777 41.8739 284.175 44.3333C300.706 48.2561 314.996 60.5534 321.378 76.3065C324.865 84.9303 326.048 94.3012 327.2 103.548C329.722 123.784 332.212 144.612 327.013 164.35C320.693 188.384 302.761 208.869 280.19 219.268C257.619 229.697 230.877 230.164 207.559 221.603C188.319 214.536 171.757 201.864 153.918 191.778C136.079 181.659 115.439 173.907 95.3585 178.11C78.0179 181.722 63.8217 193.614 48.9405 203.172C40.8773 208.34 32.129 212.823 22.7271 215.065C18.1507 216.154 13.4497 216.684 8.74877 216.372C6.41386 216.217 4.11017 215.843 1.83752 215.22C0.87242 214.971 0.0629001 214.349 0.000635769 215.594C-0.0304964 216.341 1.09036 217.649 1.46395 218.271C8.1885 228.639 21.015 233.775 33.0008 234.211C46.6679 234.678 59.9613 230.102 72.85 225.556C85.7698 221.011 99.0321 216.435 112.699 216.87C140.438 217.804 162.822 238.726 188.101 250.245C213.038 261.608 241.306 263.725 268.578 261.39C297.593 258.868 326.795 251.179 350.642 234.398C375.455 216.933 392.857 190.19 399.426 160.676C385.074 159.524 372.653 149.157 368.574 135.396L368.481 135.49Z" fill="#6CBDAA"/>
<path d="M152.205 91.4678C151.987 86.7357 151.022 82.0035 148.998 77.7383C147.908 75.4656 146.507 73.3486 144.795 71.4807C144.39 70.9826 143.737 70.391 143.052 69.7684C142.616 69.3948 142.149 69.0212 141.682 68.6787C140.001 67.3711 138.382 66.2504 138.382 66.2504C140.032 69.3014 141.184 75.092 141.184 75.092C141.589 77.8628 141.744 80.6648 141.433 83.4667C141.028 86.9847 139.845 90.4716 137.728 93.3358C134.459 97.7255 128.638 100.247 123.158 99.5623C135.673 95.266 134.802 81.2563 134.771 81.2874C134.989 73.193 132.156 65.7211 126.583 59.121C120.014 51.3379 108.993 45.0802 98.2214 44.5198L98.3149 44.4575C97.163 44.4575 96.0734 44.4575 95.0149 44.5198C94.9526 44.5198 94.8592 44.5198 94.797 44.5198C73.3158 45.6094 71.8526 60.7399 71.8837 60.7399C71.7281 61.5805 71.6346 62.4211 71.6346 63.2928C71.6346 65.4721 72.1327 67.5268 73.0044 69.3636C73.129 69.7372 73.2535 70.1108 73.4403 70.4844C75.1215 74.0958 78.764 76.493 82.6244 77.5515C85.5508 78.361 88.6328 78.4232 91.6526 78.2676C94.0498 78.143 96.6961 77.5515 99.1555 77.5826L97.163 76.96C97.0074 76.8977 96.8516 76.8666 96.696 76.8043L96.3224 76.6798C96.3224 76.6798 88.8196 74.8741 88.5705 66.3438C88.2903 57.8134 98.0969 57.5955 100.93 58.187L100.992 58.2181C103.638 58.5917 106.222 59.4634 108.339 61.0823C112.791 64.4447 114.753 70.4222 114.379 75.9949C114.161 79.0148 113.321 82.0346 111.422 84.4007C109.554 86.7357 106.814 88.1989 103.95 89.1329C93.1158 92.682 86.5158 87.2649 76.7092 84.2139C67.2139 81.2563 56.9713 81.0695 47.2269 82.7195C33.2486 85.0856 20.142 90.9385 7.40894 97.1339C12.0788 95.982 18.5231 96.667 23.3486 96.3868C27.8005 96.1377 32.2525 95.7018 36.7044 95.9198C53.4224 96.6981 69.8912 98.9708 85.5818 105.011C93.4893 108.03 100.93 112.264 108.838 115.284C117.866 118.74 128.42 119.176 137.604 115.938C140.592 114.88 143.394 113.354 145.791 111.268C149.465 108.062 152.018 103.423 152.08 98.5349C152.329 96.1688 152.392 93.8027 152.267 91.4367L152.205 91.4678Z" fill="#6CBDAA"/>
<path d="M544.875 235.301C544.657 230.569 543.692 225.837 541.669 221.572C540.579 219.299 539.178 217.182 537.466 215.314C537.061 214.816 536.407 214.225 535.722 213.602C535.287 213.228 534.82 212.855 534.353 212.512C532.672 211.205 531.053 210.084 531.053 210.084C532.703 213.135 533.855 218.926 533.855 218.926C534.259 221.696 534.415 224.498 534.104 227.3C533.699 230.818 532.516 234.305 530.399 237.169C527.13 241.559 521.308 244.081 515.829 243.396C528.344 239.1 527.472 225.09 527.441 225.121C527.659 217.027 524.826 209.555 519.254 202.954C512.685 195.171 501.664 188.914 490.892 188.353L490.986 188.291C489.834 188.291 488.744 188.291 487.686 188.353C487.623 188.353 487.53 188.353 487.468 188.353C465.986 189.443 464.523 204.573 464.554 204.573C464.399 205.414 464.305 206.255 464.305 207.126C464.305 209.306 464.803 211.36 465.675 213.197C465.8 213.571 465.924 213.944 466.111 214.318C467.792 217.929 471.434 220.327 475.295 221.385C478.221 222.194 481.303 222.257 484.323 222.101C486.72 221.977 489.367 221.385 491.826 221.416L489.834 220.794C489.678 220.731 489.522 220.7 489.367 220.638L488.993 220.513C488.993 220.513 481.49 218.708 481.241 210.177C480.961 201.647 490.768 201.429 493.601 202.021L493.663 202.052C496.309 202.425 498.893 203.297 501.01 204.916C505.462 208.278 507.423 214.256 507.05 219.828C506.832 222.848 505.991 225.868 504.092 228.234C502.224 230.569 499.485 232.032 496.62 232.966C485.786 236.516 479.186 231.098 469.38 228.047C459.885 225.09 449.642 224.903 439.898 226.553C425.919 228.919 412.813 234.772 400.08 240.967C404.749 239.816 411.194 240.5 416.019 240.22C420.471 239.971 424.923 239.535 429.375 239.753C446.093 240.532 462.562 242.804 478.252 248.844C486.16 251.864 493.601 256.098 501.508 259.118C510.537 262.574 521.09 263.009 530.274 259.772C533.263 258.713 536.065 257.188 538.462 255.102C542.136 251.895 544.689 247.256 544.751 242.368C545 240.002 545.062 237.636 544.938 235.27L544.875 235.301Z" fill="#6CBDAA"/>
</svg>
