<svg width="630" height="761" viewBox="0 0 630 761" fill="none" xmlns="http://www.w3.org/2000/svg">
<g opacity="0.3">
<path d="M4.44189 354.884C8.06662 349.821 13.4174 346.542 19.5162 345.506C30.3904 343.722 40.9194 349.764 44.8893 359.89L112.378 348.843C112.666 347.865 112.954 346.887 113.357 345.909L96.4987 339.522C86.2574 343.607 38.3878 358.739 4.55698 302.469L4.03918 301.548L4.95968 301.088C5.4775 300.8 18.1353 294.471 36.3741 294.932C53.1169 295.334 77.7997 301.836 100.411 330.546L118.305 337.278C118.707 336.76 119.11 336.243 119.513 335.782L71.6434 277.325C61.9199 282.331 50.0675 279.857 43.1057 271.399C34.9932 261.503 36.4317 246.831 46.3853 238.718C56.2814 230.606 70.9529 232.044 79.0654 241.998C86.0272 250.513 86.0847 262.654 79.2955 271.169L127.338 329.799C127.338 329.799 127.453 329.683 127.568 329.683L124.518 310.927C100.814 283.137 99.3179 257.648 102.252 241.135C105.417 223.184 114.162 212.022 114.507 211.561L115.14 210.756L115.888 211.446C164.391 255.749 140.053 299.649 134.069 308.913L137.004 326.692C138.039 326.519 139.017 326.461 140.053 326.404L164.218 262.423C155.07 256.497 151.215 244.99 155.07 234.691C157.256 228.88 161.571 224.277 167.21 221.745C172.848 219.214 179.177 218.983 184.988 221.17C196.956 225.715 203.054 239.121 198.509 251.089C194.654 261.388 184.125 267.487 173.366 265.818L150.294 326.922C155.99 327.9 160.19 329.568 161.111 329.914L171.295 330.431L170.604 331.755V331.87L171.122 331.41L168.13 336.3C168.13 336.3 162.78 345.218 164.391 350.339C165.829 354.769 164.448 361.041 161.341 366.046C172.158 379.913 189.303 403.273 205.644 431.005C227.565 468.346 241.661 502.235 247.76 532.557C249.658 523.581 251.729 514.548 254.088 505.515C260.245 481.925 268.012 458.105 277.045 434.572C286.999 408.796 298.966 382.272 312.66 355.805C325.72 330.547 340.622 304.885 356.962 279.397C348.101 271.284 342.693 257.993 344.592 248.557C346.375 239.409 335.616 225.37 335.501 225.197L330.611 218.868C324.339 219.386 299.254 220.422 269.968 207.994C262.489 204.83 255.584 201.09 249.198 196.947C208.06 170.365 187.923 125.89 178.084 90.9075L176.358 84.8086L180.903 89.2965C181.306 89.6992 223.134 130.608 261.626 136.764C300.98 143.035 327.216 155.751 344.879 202.068L348.044 212.137C350.863 210.698 356.789 207.879 364.384 205.693L313.12 105.522C294.939 110.412 275.837 101.955 267.206 85.0963C257.138 65.4764 264.963 41.3112 284.582 31.2423C294.076 26.4092 304.892 25.4887 315.076 28.8258C325.26 32.1054 333.545 39.1247 338.378 48.6182C347.008 65.4764 342.636 85.9018 328.079 97.8118L381.702 202.643C383.428 202.528 385.212 202.528 386.995 202.643L388.549 171.689C376.466 157.074 326.411 86.5347 400.919 1.3809L402.127 0L403.393 1.26581C404.141 2.01378 421.171 19.3898 430.032 49.4813C438.202 77.1563 440.561 121.057 405.349 173.185L403.681 205.808C403.681 205.808 403.968 205.923 404.083 205.98L474.967 96.3734C461.676 83.0825 459.433 62.3119 469.731 46.4319C481.699 27.9052 506.497 22.6119 525.023 34.5794C543.549 46.547 548.843 71.3452 536.875 89.8719C526.577 105.752 506.727 112.196 489.121 105.522L418.467 214.783C419.33 215.531 420.078 216.337 420.826 217.085L450.112 202.125C483.252 148.616 524.217 132.736 552.813 128.882C583.882 124.681 606.781 133.082 607.759 133.427L609.428 134.06L608.68 135.728C561.616 238.546 476.693 221.86 458.454 216.855L430.837 231.009C431.643 232.62 432.391 234.231 433.024 235.842L550.626 241.768C555.517 223.644 572.375 211.274 591.246 212.252C601.89 212.77 611.729 217.43 618.863 225.37C626.055 233.31 629.68 243.552 629.162 254.196C628.069 276.232 609.197 293.205 587.219 292.112C568.29 291.134 552.813 277.153 549.763 258.626L437.569 252.93C438.777 261.33 438.49 268.235 438.202 271.111L450.284 269.673C499.707 266.796 522.031 285.553 543.895 318.867C565.298 351.432 619.726 372.836 620.302 373.066L626.228 375.367L619.957 376.288C560.695 385.091 520.305 371.8 493.896 354.712C486.762 350.109 480.663 345.218 475.485 340.443C450.975 317.773 441.942 293.263 440.446 288.833H440.216C439.871 288.775 431.873 287.855 419.561 284.057C412.311 283.539 406.788 284.46 403.623 286.704C396.028 292.112 381.99 292.745 371.116 288.315C359.263 306.784 348.159 325.426 337.975 343.895C323.534 370.189 310.703 396.656 299.887 422.547C289.933 446.367 281.418 470.36 274.629 493.777C268.472 515.008 263.524 536.297 260.072 557.01C256.908 575.709 254.836 594.236 253.916 612.072C253.11 627.837 253.11 643.314 253.916 658.216C254.664 670.874 256.045 683.417 258.001 695.5C259.612 705.338 261.626 714.659 263.927 723.29C264.905 726.857 265.826 730.137 266.746 733.013C267.552 735.603 268.415 738.019 269.335 740.666C269.738 741.816 270.256 742.967 270.716 744.06L273.535 750.965H273.248C273.593 753.842 272.845 757.524 268.53 759.595C265.135 761.206 262.258 760.458 260.187 759.135C258.864 758.272 257.886 757.179 257.31 756.258L256.447 753.784L254.779 749.526C252.88 744.578 251.039 739.17 249.255 733.013C246.724 724.268 244.595 715.177 242.811 705.856C240.625 694.291 238.957 682.036 237.921 669.436C236.655 654.649 236.252 639.114 236.655 623.234C237 610.806 237.863 597.976 239.244 585.03C239.187 584.57 239.187 584.052 239.244 583.534C240.855 573.177 240.855 562.303 239.705 551.313C238.036 541.993 235.85 532.384 233.088 522.775C229.751 511.038 225.493 499.071 220.545 487.218C215.079 474.157 208.635 460.866 201.328 447.748C193.388 433.537 184.298 419.095 174.229 404.826C167.21 394.872 159.558 384.803 151.503 374.907C145.519 378.187 137.349 378.704 132.631 376.058C130.675 374.965 127.395 374.792 123.253 375.54C116.406 378.532 111.861 379.568 111.631 379.625L110.25 379.97L111.746 369.959C111.515 368.981 110.652 364.55 110.825 358.797L46.4428 369.326C45.925 380.2 37.87 389.291 26.9958 391.075C14.338 393.146 2.3706 384.573 0.299323 371.915C-0.678781 365.816 0.759645 359.66 4.38438 354.597L4.44189 354.884Z" fill="#005683"/>
<path d="M329.517 473.927C329.517 473.927 338.205 446.77 353.107 420.418C373.302 384.803 394.935 367.14 417.317 367.888C417.317 367.888 423.07 367.6 426.12 370.822C427.558 372.375 428.191 374.389 427.961 376.806C427.731 379.222 426.752 381.006 425.026 382.157C421.287 384.688 415.476 383.02 415.245 382.962C415.015 382.905 384.004 376.863 331.992 474.963L329.575 473.927H329.517Z" fill="#005683"/>
<path d="M364.441 577.32C364.441 577.32 369.159 577.895 371.172 580.887C372.151 582.326 372.381 584.052 371.805 586.008C371.287 587.907 370.194 589.23 368.698 589.921C365.304 591.416 360.874 589.288 360.701 589.173C360.528 589.115 336.306 579.852 280.554 651.887L278.713 650.736C278.713 650.736 289.53 629.966 305.294 610.806C326.64 584.857 346.547 573.58 364.498 577.32H364.441Z" fill="#005683"/>
<path d="M129.063 521.567C147.532 520.589 165.656 534.858 182.974 564.029C195.747 585.548 203.284 607.642 203.342 607.872L201.328 608.735C156.796 528.414 131.25 533.88 131.02 533.937C130.79 533.995 126.072 535.491 122.907 533.42C121.469 532.499 120.606 531.003 120.376 529.047C120.146 527.033 120.606 525.364 121.814 524.041C124.288 521.337 128.891 521.51 129.063 521.51V521.567Z" fill="#005683"/>
<path d="M158.292 489.75C149.719 487.736 144.426 479.106 146.497 470.533C148.511 461.96 157.141 456.667 165.714 458.738C174.287 460.752 179.58 469.382 177.509 477.955C175.495 486.528 166.865 491.821 158.292 489.75Z" fill="#005683"/>
<path d="M326.124 528.471C325.275 522.653 329.303 517.25 335.12 516.401C340.937 515.553 346.34 519.58 347.189 525.397C348.038 531.214 344.01 536.618 338.193 537.467C332.376 538.315 326.973 534.288 326.124 528.471Z" fill="#005683"/>
</g>
</svg>
