<svg width="707" height="567" viewBox="0 0 707 567" fill="none" xmlns="http://www.w3.org/2000/svg">
<path d="M357.318 317.53H349.502C349.502 317.111 346.271 275.307 284.675 221.156C219.849 164.18 228.968 109.296 229.385 106.994L230.062 103.332L233.71 103.803C278.578 109.453 314.222 143.932 336.734 203.42C345.228 225.865 350.387 248.049 353.41 264.53C356.432 248.049 361.591 225.865 370.086 203.42C392.598 143.932 428.242 109.506 473.11 103.803L476.757 103.332L477.435 106.994C477.852 109.296 486.971 164.18 422.145 221.156C360.549 275.307 357.318 317.111 357.318 317.53ZM350.179 292.207C351.482 295.189 352.524 297.962 353.41 300.473C354.296 297.962 355.338 295.189 356.641 292.207H350.179ZM470.087 112.226C377.902 127.818 359.507 271.645 357.475 290.271C365.76 271.907 382.644 245.485 416.986 215.296C468.784 169.778 470.765 125.254 470.087 112.226ZM289.834 215.296C324.123 245.433 341.007 271.854 349.345 290.219C347.365 271.54 328.918 127.818 236.785 112.226C236.107 125.202 238.088 169.726 289.886 215.296H289.834Z" fill="#E1E8EA" fill-opacity="0.4"/>
<path d="M353.463 208.704L350.857 206.402C348.981 204.728 305.468 165.122 319.069 97.5767C332.253 32.0198 349.398 3.71472 350.127 2.56368L351.691 0L354.557 0.83712C358.309 1.98816 375.61 36.9902 387.804 97.5767C401.405 165.122 357.892 204.78 356.016 206.402L353.41 208.704H353.463ZM353.463 12.8707C347.887 24.1195 336.37 51.2735 326.782 99.094C315.942 152.879 344.552 188.352 353.515 197.926C362.478 188.404 391.087 152.984 380.248 99.094C370.711 51.7967 359.091 24.2765 353.515 12.8707H353.463Z" fill="#E1E8EA" fill-opacity="0.4"/>
<path d="M476.818 600.79L473.17 600.319C428.302 594.668 392.658 560.189 370.146 500.701C361.652 478.256 356.493 456.073 353.47 439.592C350.448 456.073 345.289 478.256 336.795 500.701C314.283 560.189 278.639 594.616 233.771 600.319L230.123 600.79L229.446 597.127C229.029 594.825 219.909 539.941 284.736 482.965C346.331 428.814 349.562 387.01 349.562 386.592H357.379C357.379 387.01 360.61 428.814 422.205 482.965C487.032 539.941 477.912 594.825 477.495 597.127L476.818 600.79ZM357.587 413.955C359.62 432.633 378.015 576.356 470.148 591.947C470.825 578.972 468.845 534.448 417.046 488.877C382.757 458.741 365.873 432.319 357.535 413.955H357.587ZM349.406 413.955C341.12 432.319 324.236 458.741 289.895 488.929C238.096 534.448 236.116 578.972 236.793 592C328.978 576.408 347.373 432.633 349.406 414.007V413.955ZM350.292 411.967H356.753C355.451 408.985 354.408 406.212 353.523 403.7C352.637 406.212 351.594 408.985 350.292 411.967Z" fill="#E1E8EA" fill-opacity="0.4"/>
<path d="M353.408 706.999L350.125 701.611C349.395 700.407 332.251 671.997 319.067 606.597C305.361 538.477 350.49 498.086 350.907 497.72L353.512 495.522L356.066 497.772C357.942 499.446 401.455 539.052 387.854 606.597C374.565 672.625 357.473 700.512 356.795 701.663L353.46 706.999H353.408ZM353.408 506.248C344.445 515.77 315.836 551.138 326.675 605.08C336.315 652.901 347.78 680.055 353.356 691.303C358.932 679.95 370.553 652.482 380.089 605.08C390.928 551.243 362.319 515.822 353.356 506.248H353.408Z" fill="#E1E8EA" fill-opacity="0.4"/>
<path d="M588.138 475.798C569.795 475.798 527.48 469.572 483.863 419.607C429.928 357.764 388.291 354.521 387.874 354.521V346.673C388.291 346.673 429.928 343.429 483.863 281.587C540.612 216.501 595.277 225.657 597.57 226.075L601.218 226.755L600.749 230.418C595.121 275.465 560.779 311.252 501.529 333.854C479.173 342.382 457.078 347.562 440.663 350.597C457.078 353.631 479.173 358.811 501.529 367.339C560.779 389.941 595.069 425.728 600.749 470.776L601.218 474.438L597.57 475.118C597.049 475.223 593.662 475.798 588.138 475.798ZM415.076 354.73C433.367 363.049 459.683 380 489.752 414.479C535.297 466.695 579.435 468.474 592.411 467.846C576.882 375.292 433.628 356.77 415.076 354.782V354.73ZM404.862 350.649C407.364 351.538 410.126 352.585 413.096 353.893V347.457C410.126 348.765 407.364 349.812 404.862 350.701V350.649ZM588.867 233.4C572.661 233.4 531.597 238.737 489.7 286.766C459.683 321.193 433.367 338.145 415.076 346.516C433.732 344.475 576.83 326.006 592.359 233.505C591.369 233.452 590.222 233.4 588.867 233.4Z" fill="#E1E8EA" fill-opacity="0.4"/>
<path d="M581.256 387.743C529.614 387.743 499.962 354.781 498.555 353.159L496.314 350.595L498.555 347.979C498.972 347.508 538.942 302.252 606.999 316.012C672.763 329.353 700.539 346.462 701.685 347.195L707 350.543L701.685 353.839C700.539 354.572 672.503 371.733 606.999 385.022C597.932 386.853 589.333 387.638 581.308 387.638L581.256 387.743ZM506.997 350.595C516.534 359.594 551.865 388.318 605.436 377.435C652.492 367.913 679.903 356.194 691.263 350.595C679.903 344.997 652.492 333.33 605.436 323.755C551.813 312.873 516.534 341.596 506.997 350.595Z" fill="#E1E8EA" fill-opacity="0.4"/>
<path d="M118.808 475.798C113.233 475.798 109.897 475.223 109.376 475.118L105.729 474.438L106.198 470.776C111.826 425.728 146.167 389.941 205.417 367.339C227.773 358.811 249.868 353.631 266.283 350.597C249.868 347.562 227.773 342.382 205.417 333.854C146.167 311.252 111.878 275.465 106.198 230.418L105.729 226.755L109.376 226.075C111.669 225.657 166.334 216.501 223.083 281.587C277.018 343.429 318.655 346.673 319.072 346.673V354.521C318.655 354.521 277.018 357.764 223.083 419.607C179.518 469.572 137.204 475.798 118.861 475.798H118.808ZM114.535 467.741C127.511 468.421 171.858 466.433 217.195 414.427C247.211 380 273.527 363.049 291.818 354.678C273.162 356.718 130.064 375.187 114.535 467.689V467.741ZM293.798 347.353V353.788C296.769 352.48 299.53 351.434 302.032 350.544C299.53 349.655 296.769 348.608 293.798 347.3V347.353ZM114.535 233.452C130.064 326.006 273.318 344.528 291.87 346.516C273.579 338.197 247.263 321.245 217.195 286.766C171.649 234.551 127.511 232.72 114.535 233.4V233.452Z" fill="#E1E8EA" fill-opacity="0.4"/>
<path d="M125.64 387.743C117.615 387.743 109.017 386.958 99.9495 385.127C34.185 371.786 6.40969 354.625 5.26324 353.944L0 350.596L5.26324 347.247C6.40969 346.515 34.1329 329.406 99.9495 316.065C167.277 302.409 206.726 346.096 208.341 347.98L210.634 350.596L208.341 353.212C206.934 354.834 177.231 387.795 125.64 387.795V387.743ZM15.6334 350.596C26.9937 356.194 54.4042 367.862 101.461 377.436C154.979 388.319 190.363 359.595 199.899 350.596C190.415 341.597 155.135 312.873 101.461 323.756C54.4042 333.278 26.9937 344.945 15.6334 350.596Z" fill="#E1E8EA" fill-opacity="0.4"/>
<path d="M353.468 375.656C340.544 375.656 330.018 365.088 330.018 352.112C330.018 339.137 340.544 328.568 353.468 328.568C366.391 328.568 376.918 339.137 376.918 352.112C376.918 365.088 366.391 375.656 353.468 375.656ZM353.468 336.364C344.817 336.364 337.834 343.427 337.834 352.06C337.834 360.693 344.869 367.756 353.468 367.756C362.066 367.756 369.101 360.693 369.101 352.06C369.101 343.427 362.066 336.364 353.468 336.364Z" fill="#E1E8EA" fill-opacity="0.4"/>
</svg>
