<svg width="504" height="470" viewBox="0 0 504 470" fill="none" xmlns="http://www.w3.org/2000/svg">
<g opacity="0.3">
<path d="M136.74 266.649C170.113 260.869 190.449 244.119 191.293 243.401L203.359 232.474L192.769 223.656C155.262 196.147 128.049 199.565 93.79 214.669C60.2906 229.478 6.37085 218.551 5.86456 218.424L0 217.201L4.4722 221.167C46.705 258.379 85.4361 268.463 114.97 268.463C122.944 268.463 130.243 267.746 136.782 266.607L136.74 266.649Z" fill="#005683"/>
<path d="M497.597 218.846C497.049 218.973 443.171 229.901 409.672 215.091C375.371 199.945 348.2 196.569 310.608 224.12L300.103 232.854L312.127 243.739H312.169C313.013 244.499 333.349 261.249 366.722 267.029C374.232 268.337 381.573 268.927 388.745 268.927C434.775 268.927 473.422 244.119 499.032 221.589L503.504 217.623L497.639 218.846H497.597Z" fill="#005683"/>
<path d="M432.707 298.377C417.308 289.475 397.9 292.597 386.045 305.718L285.546 247.705C288.078 242.811 289.512 237.242 289.512 231.377C289.512 227.495 288.88 223.783 287.74 220.281L384.906 164.166C396.761 177.288 416.169 180.41 431.568 171.508C449.499 161.129 455.701 138.092 445.322 120.161C440.302 111.469 432.201 105.267 422.497 102.651C412.794 100.036 402.668 101.386 393.976 106.406C378.577 115.309 371.573 133.662 376.974 150.454L279.598 206.695C279.134 206.231 278.669 205.767 278.205 205.345L294.407 177.288C311.367 171.887 386.931 141.805 371.573 36.5799L371.32 34.8922L369.675 35.2719C368.746 35.4829 346.386 40.5037 323.982 59.7429C303.393 77.421 279.133 110.879 280.315 169.989L264.536 197.371C263.607 197.076 262.679 196.865 261.751 196.654V74.3411C279.007 70.6282 291.411 55.3972 291.411 37.5924C291.411 16.8765 274.535 0 253.819 0C233.104 0 216.227 16.8765 216.227 37.5924C216.227 55.3972 228.631 70.6282 245.887 74.3411V196.611C244.875 196.822 243.862 197.118 242.892 197.413L227.323 170.495C228.505 111.385 204.245 77.8851 183.656 60.2492C161.295 41.0521 138.934 35.9892 137.964 35.7782L136.318 35.3985L136.065 37.0862C120.75 142.269 196.271 172.436 213.232 177.836L229.264 205.598C228.505 206.315 227.788 207.075 227.112 207.834L127.754 150.454C133.196 133.662 126.192 115.267 110.751 106.406C102.059 101.386 91.9335 100.078 82.2296 102.651C72.5258 105.267 64.4253 111.469 59.4046 120.161C49.0257 138.134 55.2278 161.171 73.1588 171.508C88.5584 180.41 107.966 177.288 119.822 164.166L219.518 221.757C218.674 224.837 218.168 228.044 218.168 231.377C218.168 237.157 219.56 242.558 222.007 247.41L120.961 305.76C109.105 292.639 89.6974 289.517 74.2978 298.419C56.3668 308.798 50.1649 331.835 60.5438 349.766C65.5645 358.457 73.665 364.659 83.3689 367.275C93.0727 369.891 103.199 368.541 111.89 363.52C127.289 354.618 134.293 336.265 128.892 319.473L232.302 259.772C232.302 259.772 232.639 260.025 232.808 260.152L214.371 292.09C197.41 297.491 121.889 327.658 137.204 432.841L137.457 434.528L139.103 434.148C140.031 433.938 162.392 428.917 184.795 409.678C205.384 391.999 229.644 358.542 228.463 299.432L246.984 267.324V395.586C229.728 399.298 217.324 414.53 217.324 432.334C217.324 453.05 234.201 469.927 254.916 469.927C275.632 469.927 292.508 453.05 292.508 432.334C292.508 414.53 280.104 399.298 262.848 395.586V272.134L278.585 299.432C277.404 358.542 301.663 391.999 322.252 409.678C344.613 428.875 366.974 433.938 367.945 434.148L369.59 434.528L369.844 432.841C385.201 327.615 309.637 297.533 292.677 292.133L274.45 260.531C274.661 260.363 274.872 260.194 275.125 260.025L378.155 319.515C372.712 336.307 379.716 354.66 395.158 363.562C403.849 368.583 413.975 369.891 423.679 367.317C433.383 364.702 441.483 358.499 446.504 349.808C456.883 331.835 450.681 308.798 432.75 298.461L432.707 298.377Z" fill="#005683"/>
</g>
</svg>
