<svg width="607" height="350" viewBox="0 0 607 350" fill="none" xmlns="http://www.w3.org/2000/svg">
<path d="M245.453 -70.4477C301.509 -21.4192 303.478 16.1256 303.478 16.1256C303.478 16.1256 305.493 -21.3723 361.502 -70.4477C417.558 -119.523 408.888 -166.958 408.888 -166.958C315.898 -155.24 303.478 -6.13876 303.478 -6.13876C303.478 -6.13876 291.104 -155.287 198.115 -166.958C198.115 -166.958 189.444 -119.523 245.453 -70.4477Z" fill="#E1E8EA" fill-opacity="0.4"/>
<path d="M361.504 163.445C305.447 114.417 303.479 76.8719 303.479 76.8719C303.479 76.8719 301.464 114.37 245.454 163.445C189.398 212.521 198.069 259.956 198.069 259.956C291.058 248.238 303.479 99.1363 303.479 99.1363C303.479 99.1363 315.853 248.284 408.842 259.956C408.842 259.956 417.513 212.521 361.504 163.445Z" fill="#E1E8EA" fill-opacity="0.4"/>
<path d="M303.482 176.289C303.482 176.289 265.002 210.272 276.673 268.112C288.343 325.859 303.388 349.858 303.482 349.998C303.482 349.998 318.621 325.859 330.292 268.112C341.962 210.272 303.576 176.383 303.482 176.289Z" fill="#E1E8EA" fill-opacity="0.4"/>
<path d="M356.119 45.1861C356.119 45.1861 505.258 32.8118 516.928 -60.183C516.928 -60.183 469.496 -68.8544 420.424 -12.8419C371.398 43.2175 333.855 45.1861 333.855 45.1861C333.855 45.1861 371.351 47.2017 420.424 103.214C469.496 159.274 516.928 150.602 516.928 150.602C505.211 57.6073 356.119 45.1861 356.119 45.1861Z" fill="#E1E8EA" fill-opacity="0.4"/>
<path d="M607 45.1868C607 45.1868 582.862 30.047 525.118 18.3758C467.281 6.70455 433.395 45.093 433.301 45.1868C433.301 45.1868 467.281 83.669 525.118 71.9978C582.862 60.3266 606.859 45.2805 607 45.1868Z" fill="#E1E8EA" fill-opacity="0.4"/>
<path d="M273.123 45.1862C273.123 45.1862 235.627 43.1707 186.554 -12.8418C137.482 -68.9013 90.0498 -60.2299 90.0498 -60.2299C101.767 32.765 250.86 45.1862 250.86 45.1862C250.86 45.1862 101.72 57.5605 90.0498 150.555C90.0498 150.555 137.482 159.227 186.554 103.214C235.58 47.1549 273.123 45.1862 273.123 45.1862Z" fill="#E1E8EA" fill-opacity="0.4"/>
<path d="M173.699 45.1864C173.699 45.1864 139.719 6.70415 81.8813 18.3754C24.1379 30.0466 0.140609 45.0926 0 45.1864C0 45.1864 24.1379 60.3262 81.8813 71.9974C139.719 83.6686 173.605 45.2801 173.699 45.1864Z" fill="#E1E8EA" fill-opacity="0.4"/>
<path d="M286.338 46.4978C286.338 55.9654 294.025 63.6519 303.492 63.6519C312.96 63.6519 320.646 55.9654 320.646 46.4978C320.646 37.0303 312.96 29.3438 303.492 29.3438C294.025 29.3438 286.338 37.0303 286.338 46.4978Z" fill="#E1E8EA" fill-opacity="0.4"/>
</svg>
