<svg width="607" height="607" viewBox="0 0 607 607" fill="none" xmlns="http://www.w3.org/2000/svg">
<path d="M245.453 186.552C301.509 235.581 303.478 273.126 303.478 273.126C303.478 273.126 305.493 235.628 361.502 186.552C417.558 137.477 408.888 90.042 408.888 90.042C315.898 101.76 303.478 250.861 303.478 250.861C303.478 250.861 291.104 101.713 198.115 90.042C198.115 90.042 189.444 137.477 245.453 186.552Z" fill="#E1E8EA" fill-opacity="0.4"/>
<path d="M303.478 173.709C303.478 173.709 341.958 139.727 330.287 81.8861C318.617 24.1393 303.571 0.140617 303.478 0C303.478 0 288.339 24.1393 276.668 81.8861C264.998 139.727 303.384 173.615 303.478 173.709Z" fill="#E1E8EA" fill-opacity="0.4"/>
<path d="M361.504 420.445C305.447 371.417 303.479 333.872 303.479 333.872C303.479 333.872 301.464 371.37 245.454 420.445C189.398 469.521 198.069 516.956 198.069 516.956C291.058 505.238 303.479 356.136 303.479 356.136C303.479 356.136 315.853 505.284 408.842 516.956C408.842 516.956 417.513 469.521 361.504 420.445Z" fill="#E1E8EA" fill-opacity="0.4"/>
<path d="M303.482 433.289C303.482 433.289 265.002 467.272 276.673 525.112C288.343 582.859 303.388 606.858 303.482 606.998C303.482 606.998 318.621 582.859 330.292 525.112C341.962 467.272 303.576 433.383 303.482 433.289Z" fill="#E1E8EA" fill-opacity="0.4"/>
<path d="M356.119 302.186C356.119 302.186 505.258 289.812 516.928 196.817C516.928 196.817 469.496 188.146 420.424 244.158C371.398 300.218 333.855 302.186 333.855 302.186C333.855 302.186 371.351 304.202 420.424 360.214C469.496 416.274 516.928 407.602 516.928 407.602C505.211 314.607 356.119 302.186 356.119 302.186Z" fill="#E1E8EA" fill-opacity="0.4"/>
<path d="M607 302.187C607 302.187 582.862 287.047 525.118 275.376C467.281 263.705 433.395 302.093 433.301 302.187C433.301 302.187 467.281 340.669 525.118 328.998C582.862 317.327 606.859 302.281 607 302.187Z" fill="#E1E8EA" fill-opacity="0.4"/>
<path d="M273.123 302.186C273.123 302.186 235.627 300.171 186.554 244.158C137.482 188.099 90.0498 196.77 90.0498 196.77C101.767 289.765 250.86 302.186 250.86 302.186C250.86 302.186 101.72 314.561 90.0498 407.555C90.0498 407.555 137.482 416.227 186.554 360.214C235.58 304.155 273.123 302.186 273.123 302.186Z" fill="#E1E8EA" fill-opacity="0.4"/>
<path d="M173.699 302.186C173.699 302.186 139.719 263.704 81.8813 275.375C24.1379 287.047 0.140609 302.093 0 302.186C0 302.186 24.1379 317.326 81.8813 328.997C139.719 340.669 173.605 302.28 173.699 302.186Z" fill="#E1E8EA" fill-opacity="0.4"/>
<path d="M286.338 303.498C286.338 312.965 294.025 320.652 303.492 320.652C312.96 320.652 320.646 312.965 320.646 303.498C320.646 294.03 312.96 286.344 303.492 286.344C294.025 286.344 286.338 294.03 286.338 303.498Z" fill="#E1E8EA" fill-opacity="0.4"/>
</svg>
