<svg width="557" height="309" viewBox="0 0 557 309" fill="none" xmlns="http://www.w3.org/2000/svg">
<path d="M186.887 237.349C171.728 238.338 156.386 235.299 142.618 234.164C151.003 241.89 169.751 251.666 185.789 255.072C265.062 271.879 302.154 204.101 295.087 147.236C294.795 145.002 294.172 142.842 293.549 139.803C283.919 152.033 272.605 157.562 258.581 157.379C261.913 173.124 259.57 187.111 251.258 199.451C235.257 223.215 213.104 235.628 186.887 237.349Z" fill="#6CBDAA"/>
<path d="M349.388 159.356C344.005 141.157 349.717 116.734 366.524 106.262C364.73 107.397 362.972 111.791 361.911 113.658C360.226 116.661 358.871 119.847 357.919 123.142C356.015 129.77 355.649 136.837 357.041 143.574C360.409 160.235 374.397 175.064 391.862 176.382C414.638 178.103 436.094 156.646 435.033 133.871C434.044 112.999 414.894 95.1303 394.242 93.922C392.338 93.8121 390.434 93.8487 388.53 94.0318C384.502 67.4848 369.893 42.6954 348.619 26.2912C327.345 9.88695 299.663 2.05104 272.934 4.87051C265.318 5.67608 257.738 7.32379 250.085 6.95763C240.931 6.51823 232.217 3.22274 223.209 1.46514C200.178 -3.07531 174.913 3.00308 157.52 18.7848C140.127 34.5666 131.669 60.0517 137.638 82.7906C140.786 75.7602 145.62 69.1692 151.552 64.2259C158.435 58.4771 166.601 56.2069 175.462 56.1703C174.986 56.3534 148.512 67.7045 145.18 97.9498C143.935 107.58 145.51 117.576 148.988 126.694C153.675 138.997 161.987 150.238 173.448 156.793C184.909 163.347 199.628 164.629 211.346 158.514C216.875 155.621 221.598 151.264 227.456 149.067C239.613 144.563 253.454 150.568 266.05 147.455C285.859 142.549 293.548 116.405 286.555 97.2175C280.11 79.5317 264.109 65.6906 245.728 61.8093C237.965 60.1615 229.58 60.2714 222.44 63.6767C219.218 65.2146 216.289 67.5215 214.018 70.2677C214.018 70.2677 194.465 92.201 228.409 109.777C229.141 110.253 229.836 110.619 230.386 110.766C230.386 110.766 214.494 111.278 205.45 101.538C202.118 98.1329 199.665 93.8488 198.75 89.1619C196.296 76.8221 203.217 63.7499 213.835 57.0125C224.454 50.275 238.002 49.2498 250.232 52.1425C269.675 56.7562 286.482 71.2197 293.988 89.7477C298.089 99.8905 299.48 110.912 300.835 121.787C303.801 145.588 306.73 170.084 300.615 193.299C293.182 221.567 272.091 245.661 245.545 257.891C218.998 270.158 187.545 270.707 160.12 260.637C137.491 252.325 118.011 237.422 97.0303 225.559C76.0493 213.658 51.7729 204.541 28.1556 209.484C7.76046 213.731 -8.93633 227.719 -26.4388 238.96C-35.9223 245.039 -46.2116 250.311 -57.2696 252.948C-62.6522 254.229 -68.1811 254.852 -73.7102 254.486C-76.4564 254.302 -79.1658 253.863 -81.8388 253.131C-82.9739 252.838 -83.926 252.105 -83.9993 253.57C-84.0359 254.449 -82.7176 255.987 -82.2782 256.719C-74.3691 268.913 -59.2833 274.954 -45.1862 275.467C-29.1117 276.016 -13.4767 270.634 1.68228 265.287C16.8779 259.941 32.4763 254.559 48.5507 255.071C81.1756 256.17 107.502 280.776 137.235 294.324C166.564 307.689 199.811 310.179 231.887 307.433C266.013 304.467 300.359 295.423 328.407 275.687C357.59 255.145 378.058 223.691 385.784 188.979C368.904 187.624 354.294 175.43 349.498 159.246L349.388 159.356Z" fill="#6CBDAA"/>
<path d="M95.0152 107.579C94.7589 102.013 93.6236 96.4477 91.2436 91.4312C89.962 88.7582 88.3144 86.2683 86.3005 84.0713C85.8245 83.4854 85.0556 82.7897 84.25 82.0574C83.7374 81.618 83.1882 81.1785 82.6389 80.7758C80.6617 79.2379 78.7576 77.9197 78.7576 77.9197C80.6983 81.5081 82.0532 88.3188 82.0532 88.3188C82.5292 91.5776 82.7121 94.8731 82.3459 98.1686C81.8699 102.306 80.4785 106.407 77.9886 109.776C74.144 114.939 67.2968 117.905 60.8524 117.099C75.572 112.046 74.5469 95.5689 74.5103 95.6055C74.7666 86.0852 71.4345 77.2972 64.8803 69.5345C57.1543 60.3804 44.1921 53.0204 31.5229 52.3613L31.6329 52.2881C30.2781 52.2881 28.9965 52.2881 27.7516 52.3613C27.6784 52.3613 27.5685 52.3613 27.4952 52.3613C2.23021 53.6429 0.509308 71.4385 0.545929 71.4385C0.362846 72.4272 0.252937 73.4159 0.252937 74.4411C0.252937 77.0043 0.838799 79.421 1.86404 81.5813C2.01051 82.0207 2.15703 82.4601 2.37672 82.8995C4.35399 87.1471 8.63811 89.9665 13.1785 91.2115C16.6204 92.1635 20.2452 92.2368 23.797 92.0537C26.6164 91.9072 29.7289 91.2115 32.6216 91.2481L30.2781 90.5158C30.095 90.4426 29.9118 90.4059 29.7288 90.3327L29.2894 90.1862C29.2894 90.1862 20.465 88.0625 20.1721 78.0295C19.8425 67.9966 31.3764 67.7403 34.7085 68.436L34.7818 68.4726C37.8942 68.912 40.9332 69.9373 43.4231 71.8413C48.6592 75.7959 50.966 82.8263 50.5266 89.3807C50.2703 92.9325 49.2819 96.4843 47.0483 99.2671C44.8513 102.013 41.629 103.734 38.2604 104.833C25.518 109.007 17.7554 102.636 6.22136 99.0474C-4.94652 95.5689 -16.9933 95.3491 -28.4541 97.2898C-44.8947 100.073 -60.3099 106.957 -75.2859 114.243C-69.7935 112.888 -62.214 113.694 -56.5385 113.365C-51.3024 113.072 -46.0662 112.559 -40.8301 112.815C-21.1673 113.731 -1.79763 116.404 16.6568 123.507C25.9573 127.059 34.7086 132.039 44.0091 135.591C54.6277 139.655 67.0405 140.168 77.8422 136.36C81.3574 135.115 84.6528 133.321 87.4723 130.867C91.793 127.096 94.7955 121.64 94.8688 115.891C95.1617 113.108 95.2349 110.325 95.0885 107.542L95.0152 107.579Z" fill="#6CBDAA"/>
<path d="M556.853 276.749C556.597 271.183 555.462 265.618 553.082 260.601C551.8 257.928 550.153 255.438 548.139 253.241C547.663 252.655 546.894 251.96 546.088 251.227C545.576 250.788 545.026 250.348 544.477 249.946C542.5 248.408 540.596 247.09 540.596 247.09C542.536 250.678 543.891 257.489 543.891 257.489C544.367 260.748 544.55 264.043 544.184 267.339C543.708 271.476 542.317 275.577 539.827 278.946C535.982 284.109 529.135 287.075 522.691 286.269C537.41 281.216 536.385 264.739 536.348 264.775C536.605 255.255 533.273 246.467 526.718 238.704C518.992 229.55 506.03 222.19 493.361 221.531L493.471 221.458C492.116 221.458 490.835 221.458 489.59 221.531C489.516 221.531 489.407 221.531 489.333 221.531C464.068 222.813 462.347 240.609 462.384 240.609C462.201 241.597 462.091 242.586 462.091 243.611C462.091 246.174 462.677 248.591 463.702 250.751C463.849 251.191 463.995 251.63 464.215 252.07C466.192 256.317 470.476 259.136 475.016 260.381C478.458 261.333 482.083 261.407 485.635 261.224C488.455 261.077 491.567 260.381 494.46 260.418L492.116 259.686C491.933 259.612 491.75 259.576 491.567 259.503L491.128 259.356C491.128 259.356 482.303 257.232 482.01 247.199C481.681 237.167 493.215 236.91 496.547 237.606L496.62 237.643C499.732 238.082 502.771 239.107 505.261 241.011C510.497 244.966 512.804 251.996 512.365 258.551C512.108 262.102 511.12 265.654 508.886 268.437C506.689 271.183 503.467 272.904 500.098 274.003C487.356 278.177 479.594 271.806 468.059 268.217C456.892 264.739 444.845 264.519 433.384 266.46C416.943 269.243 401.528 276.127 386.552 283.413C392.045 282.058 399.624 282.864 405.3 282.534C410.536 282.241 415.772 281.729 421.008 281.985C440.671 282.901 460.041 285.574 478.495 292.677C487.795 296.229 496.547 301.209 505.847 304.761C516.466 308.825 528.879 309.338 539.68 305.53C543.196 304.285 546.491 302.49 549.31 300.037C553.631 296.266 556.634 290.81 556.707 285.061C557 282.278 557.073 279.495 556.927 276.712L556.853 276.749Z" fill="#6CBDAA"/>
</svg>
