<svg width="408" height="196" viewBox="0 0 408 196" fill="none" xmlns="http://www.w3.org/2000/svg">
<g style="mix-blend-mode:soft-light">
<path d="M187.818 163.356C183.208 163.356 178.163 162.854 172.709 161.69C162.073 159.431 150.341 153.131 145.137 148.338L142.216 145.645L146.164 145.964C148.789 146.17 151.459 146.489 154.267 146.832C160.589 147.585 167.117 148.361 173.553 147.95C189.918 146.9 203.064 139.163 212.628 124.943C217.58 117.571 219.018 109.354 216.987 99.768L216.622 98.1018H218.334C218.47 98.1246 218.607 98.1246 218.744 98.1246C226.984 98.1246 233.443 94.7923 239.035 87.6939L240.838 85.3887L241.431 88.2417C241.568 88.8808 241.705 89.4514 241.819 89.9764C242.07 91.0719 242.299 92.0077 242.413 92.9892C245.129 114.855 237.825 136.698 223.332 150.004C216.211 156.555 204.708 163.379 187.727 163.379L187.818 163.356ZM150.661 149.16C156.367 153.063 165.268 157.308 173.302 159.02C192.565 163.105 209.272 159.294 221.575 147.973C235.2 135.442 242.344 113.987 239.788 93.3315C239.72 92.7381 239.605 92.1447 239.468 91.5284C234.036 97.4855 227.669 100.544 220.068 100.841C221.711 110.381 220.022 119.009 214.978 126.472C204.913 141.422 191.059 149.57 173.804 150.689C167.094 151.123 160.452 150.324 154.016 149.57C152.875 149.434 151.779 149.297 150.683 149.182L150.661 149.16Z" fill="#E1E8EA" fill-opacity="0.4"/>
<path d="M189.964 195.036C172.686 195.036 157.417 192.046 144.385 186.135C138.313 183.373 132.402 179.835 126.673 176.412C114.508 169.131 103.005 162.238 89.6301 161.804C79.7701 161.462 70.1613 164.84 60.9176 168.081C51.8794 171.253 41.6086 174.882 31.2009 174.494C20.953 174.129 11.6636 169.427 6.96191 162.192L6.75651 161.895C6.25438 161.188 5.61531 160.343 5.68378 159.43C5.72943 158.54 6.14027 158.084 6.48263 157.856C7.213 157.353 7.98904 157.627 8.44552 157.787C8.53682 157.81 8.65095 157.856 8.74224 157.878C10.2714 158.289 11.8919 158.563 13.5352 158.677C16.6164 158.883 19.9259 158.586 23.3723 157.764C29.238 156.349 35.3777 153.565 42.1564 149.228C44.4844 147.744 46.7668 146.17 49.072 144.595C57.5853 138.797 66.3954 132.795 76.6433 130.649C89.4019 127.979 103.735 131.311 120.511 140.806C124.642 143.157 128.75 145.713 132.722 148.201C141.258 153.542 150.091 159.065 159.631 162.58C176.84 168.902 195.852 168.286 211.829 160.914C228.377 153.268 240.93 138.546 245.426 121.542C249.215 107.117 247.252 91.3686 245.517 77.4914C244.696 70.8952 243.851 64.0708 241.341 57.8626C236.821 46.7015 226.733 38.0283 215.002 35.2437C207.059 33.3493 199.185 34.3992 193.365 38.0968C186.837 42.2508 183.231 49.8969 184.577 56.7214C185.08 59.2548 186.426 61.7427 188.389 63.7284C190.649 66.1706 193.684 67.4944 196.4 68.2248C191.699 64.9153 188.891 61.1036 188.115 56.8583C186.837 49.8969 191.539 44.5104 191.744 44.2821C193.296 42.4106 195.282 40.8585 197.427 39.8542C202.882 37.2751 208.794 37.7316 212.811 38.5989C224.702 41.1096 235.11 50.1023 239.264 61.5373C241.957 68.9323 241.363 77.7881 237.734 84.6582C234.95 89.9078 230.727 93.3771 225.546 94.6553C221.666 95.6139 217.672 95.2715 213.815 94.9292C209.501 94.564 205.393 94.1988 201.65 95.591C199.641 96.3442 197.838 97.5311 195.944 98.8093C194.62 99.6994 193.228 100.612 191.767 101.388C184.349 105.246 174.786 104.835 166.843 100.27C159.905 96.3214 154.29 89.4057 151.004 80.8009C148.63 74.5699 147.785 68.1563 148.539 62.222C149.908 49.8056 157.234 42.3421 162.552 38.462C159.608 39.2152 157.029 40.5162 154.747 42.4334C151.3 45.3092 148.356 49.2578 146.439 53.526L144.841 57.0637L143.86 53.3206C140.094 39.0326 145.252 22.4393 156.664 12.0771C167.505 2.21706 183.665 -2.05109 198.797 0.938891C200.782 1.3269 202.768 1.85186 204.663 2.33117C208.314 3.26697 211.761 4.15712 215.344 4.33972C218.585 4.49949 221.78 4.06582 225.158 3.58651C226.573 3.40392 227.966 3.19851 229.381 3.06156C246.407 1.25845 263.959 6.21131 277.539 16.6876C290.777 26.8901 299.907 42.091 302.737 58.5473C303.559 58.5245 304.403 58.5245 305.225 58.5473C319.079 59.3461 331.312 71.3517 331.951 84.7495C332.294 92.0305 329.212 99.3799 323.484 104.949C317.892 110.381 310.634 113.211 303.581 112.686C292.649 111.865 283.017 102.804 280.643 91.1403C279.753 86.7809 279.959 82.1476 281.214 77.7653C281.442 76.9665 281.693 76.1904 281.99 75.4372C277.311 82.7638 276.284 92.8065 278.521 100.316C281.396 110.016 290.001 117.069 299.93 117.868L301.504 117.982L301.162 119.511C296.232 141.605 282.994 161.599 264.849 174.38C248.964 185.564 228.514 192.297 204.023 194.42C199.185 194.831 194.46 195.036 189.895 195.036H189.964ZM88.3292 159.02C88.8085 159.02 89.2649 159.02 89.7442 159.042C103.827 159.522 116.174 166.894 128.111 174.038C133.772 177.416 139.614 180.908 145.549 183.624C161.571 190.928 181.2 193.621 203.864 191.681C227.852 189.604 247.868 183.031 263.343 172.144C280.529 160.047 293.174 141.262 298.218 120.401C287.833 118.94 279.023 111.34 275.964 101.069C272.564 89.6111 275.85 73.52 287.239 66.4217L288.677 68.7497C288.175 69.0693 287.308 70.8267 286.897 71.6712C286.669 72.1506 286.463 72.5614 286.281 72.8809C285.277 74.6156 284.501 76.51 283.93 78.4957C282.789 82.4671 282.606 86.644 283.405 90.5697C285.528 101.046 294.132 109.194 303.855 109.925C310.155 110.404 316.591 107.871 321.635 102.963C326.793 97.942 329.578 91.3457 329.281 84.8637C328.71 72.8125 317.664 61.9938 305.133 61.2862C303.992 61.2177 302.874 61.2406 301.778 61.3547L300.5 61.4688L300.318 60.1907C297.853 43.9398 288.951 28.8758 275.942 18.8331C262.932 8.79046 246.088 4.02017 229.746 5.75481C228.377 5.89175 226.984 6.0972 225.615 6.27979C222.26 6.73628 218.768 7.21558 215.299 7.05581C211.441 6.87321 207.698 5.9146 204.069 4.95598C202.198 4.47667 200.258 3.97452 198.34 3.58651C184.053 0.756305 168.806 4.77336 158.581 14.0628C148.881 22.873 144.019 36.4762 145.823 48.8698C147.763 45.6059 150.25 42.6388 153.058 40.3107C157.326 36.7273 162.484 34.9927 168.829 34.9699H175.631L169.377 37.5947C168.715 37.8685 153.309 44.6017 151.323 62.5415C150.616 68.0422 151.414 74.0222 153.628 79.8195C156.687 87.8308 161.891 94.2444 168.258 97.8735C175.311 101.913 184.075 102.324 190.557 98.9234C191.904 98.2387 193.136 97.3942 194.483 96.504C196.446 95.2031 198.454 93.8336 200.76 92.9891C205.096 91.3686 209.684 91.7794 214.134 92.1674C217.946 92.487 221.529 92.8065 224.953 91.962C230.522 90.5697 233.695 86.507 235.383 83.3344C238.624 77.2175 239.172 69.0236 236.776 62.4503C232.918 51.8826 223.31 43.5746 212.309 41.2465C208.702 40.4933 203.407 40.0597 198.66 42.2964C196.857 43.1409 195.213 44.4419 193.867 46.0396C193.798 46.1081 189.804 50.7186 190.877 56.3562C191.744 60.9438 195.624 65.0522 202.426 68.5671C203.065 68.978 203.339 69.0693 203.43 69.0921L211.281 71.5115L203.065 71.7854C202.631 71.7854 192.452 72.0592 186.472 65.6C184.144 63.2263 182.569 60.3276 181.953 57.2235C180.378 49.3263 184.486 40.5162 191.95 35.7687C198.386 31.6604 207.036 30.4963 215.686 32.5505C228.24 35.5405 239.081 44.8299 243.92 56.7898C246.567 63.3404 247.435 70.3246 248.279 77.1034C250.036 91.2545 252.045 107.277 248.119 122.204C243.44 140.007 230.317 155.391 213.039 163.379C196.4 171.071 176.612 171.687 158.741 165.137C148.949 161.53 139.98 155.938 131.329 150.506C127.381 148.041 123.318 145.485 119.21 143.157C103.051 133.981 89.3106 130.763 77.2367 133.274C67.5137 135.305 58.932 141.148 50.6469 146.809C48.3188 148.384 46.0136 149.981 43.6628 151.465C36.633 155.984 30.1967 158.883 24.0342 160.366C20.3139 161.256 16.7306 161.599 13.3755 161.348C12.0289 161.256 10.6823 161.074 9.38131 160.777C14.4254 168.423 24.0114 171.436 31.315 171.687C41.175 172.029 51.2174 168.514 60.0275 165.433C68.6777 162.398 78.4236 158.974 88.3292 158.974V159.02Z" fill="#E1E8EA" fill-opacity="0.4"/>
<path d="M98.2112 89.3601C94.217 89.3601 90.1772 88.6298 86.3885 87.169C83.4442 86.0278 80.5455 84.6812 77.7382 83.3574C74.9993 82.0564 72.1692 80.7326 69.339 79.637C59.365 75.8026 48.1128 73.7255 33.9163 73.0636C31.4514 72.9495 28.9179 73.1093 26.4529 73.269L24.2618 73.406C23.0293 73.4745 21.6599 73.4516 20.2676 73.4516C17.6429 73.4288 14.9268 73.3832 12.8499 73.9081L0 77.1263L11.9141 71.3518C21.0436 66.9239 30.8351 62.4732 41.4711 60.6701C49.3453 59.3462 57.0369 59.7343 63.7243 61.8113C65.6187 62.4047 67.3076 63.0894 68.951 63.7742C73.6755 65.6914 77.3958 67.2206 82.8507 65.4175C84.9962 64.7099 86.6167 63.6829 87.6666 62.3819C89.0132 60.6929 89.424 58.5246 89.5382 56.9725C89.8121 52.9783 88.3285 49.2351 85.6581 47.2266C84.4028 46.268 82.8051 45.6517 80.9107 45.4007L80.614 45.3322C79.1305 45.1039 76.3003 45.2409 74.6798 46.6103C73.744 47.3864 73.3104 48.4819 73.356 49.9655C73.5158 55.0553 77.8295 56.2193 78.0121 56.265L88.9219 59.6886L79.7695 59.6202C78.8566 59.6202 77.761 59.7571 76.7568 59.8712C75.9351 59.9853 75.1363 60.0766 74.3831 60.1223C71.5757 60.2821 69.339 60.0995 67.3305 59.5517C63.8156 58.5931 61.0311 56.4476 59.7073 53.6402C59.5704 53.3663 59.4791 53.0696 59.365 52.7729C58.6346 51.198 58.2466 49.509 58.2466 47.7516C58.2466 47.1353 58.3151 46.4734 58.4292 45.743C58.4292 45.3093 58.5889 44.7616 58.8172 43.9855C59.7758 40.7901 63.4504 33.281 76.5285 32.6191C77.5099 32.5734 78.3544 32.5506 79.2217 32.5734L83.7637 32.6647L83.0105 33.144C89.6979 34.5363 96.431 38.4849 100.95 43.8258C105.287 48.9841 107.409 54.7129 107.272 60.8983C107.318 61.3548 107.295 61.9939 107.227 62.9753C107.044 64.9382 106.337 68.727 103.643 71.8311C104.944 71.1236 106.108 70.165 106.976 69.0009C108.299 67.2435 109.144 64.961 109.418 62.4275C109.623 60.6472 109.555 58.7757 109.235 56.653C109.235 56.653 108.436 52.6359 107.341 50.6274L104.648 45.6745L109.326 48.8471C109.326 48.8471 110.559 49.6916 111.837 50.6731C112.179 50.9469 112.545 51.2208 112.887 51.5404C113.526 52.0881 114.005 52.5446 114.325 52.9326C115.603 54.3477 116.721 55.9911 117.589 57.817C119.049 60.8755 119.894 64.4361 120.077 68.3847C120.168 70.1878 120.122 72.0137 119.94 73.794C119.871 77.4687 118.022 81.2575 114.85 84.0193C113.07 85.5942 110.901 86.8267 108.391 87.694C105.172 88.8352 101.703 89.4058 98.1884 89.4058L98.2112 89.3601ZM32.1817 70.3019C32.798 70.3019 33.4142 70.3019 34.0533 70.3475C48.5465 71.0094 60.0725 73.1778 70.3204 77.1035C73.2647 78.2219 76.1405 79.5914 78.9022 80.8923C81.6639 82.1933 84.494 83.54 87.347 84.6127C93.8747 87.1234 101.224 87.2831 107.478 85.0692C109.646 84.316 111.518 83.2433 113.024 81.9195C115.58 79.6827 117.132 76.5786 117.178 73.5886C117.36 71.8311 117.383 70.1421 117.315 68.476C117.132 64.8697 116.402 61.6743 115.101 58.9354C114.348 57.3605 113.389 55.9455 112.248 54.6673C112.088 54.4847 111.837 54.2108 111.403 53.8228C111.746 55.0781 111.928 56.0596 111.951 56.1509C112.316 58.5702 112.385 60.6929 112.134 62.7014C111.791 65.7142 110.764 68.4531 109.167 70.5986C106.474 74.2048 101.68 76.259 97.2298 75.7113L91.3184 74.9809L96.9331 73.0408C103.666 70.7356 104.465 64.048 104.533 61.8113H104.488V60.8983C104.67 55.3748 102.753 50.2166 98.8274 45.5604C93.9203 39.7402 86.1374 35.7232 78.9935 35.3352L78.1034 35.2895C77.6469 35.2895 77.2133 35.2895 76.7796 35.3352C64.3406 35.9514 61.7387 43.2323 61.2366 45.3778L61.0995 46.1082C60.9854 46.7016 60.9398 47.2494 60.9398 47.7287C60.9398 49.0753 61.2366 50.3763 61.8072 51.6089L61.8984 51.8371C61.9669 52.0425 62.0354 52.2479 62.1266 52.4305C63.0853 54.4847 65.2763 56.128 67.9696 56.8584C69.6814 57.3149 71.667 57.4747 74.1548 57.3377H74.2005C72.3974 55.9455 70.6856 53.5945 70.5715 50.0111C70.503 47.7059 71.3018 45.7887 72.8767 44.4649C75.3873 42.365 79.3815 42.2281 81.2987 42.6617L81.5954 42.7302C83.8093 43.0726 85.7037 43.8714 87.2786 45.0355C90.6793 47.6146 92.5966 52.2707 92.2542 57.1551C92.0716 59.9169 91.2043 62.3134 89.7892 64.0709C88.3969 65.7827 86.3428 67.1065 83.6953 67.9738C77.3046 70.0737 72.7398 68.2249 67.9239 66.262C66.3263 65.6229 64.6829 64.9382 62.9027 64.3904C56.6489 62.4275 49.3909 62.0623 41.9275 63.3177C34.1217 64.6415 26.7268 67.4717 19.697 70.6443H20.2905C21.6371 70.6443 22.938 70.6899 24.102 70.6214L26.2703 70.4845C28.2104 70.3704 30.1732 70.2334 32.1589 70.2334L32.1817 70.3019Z" fill="#E1E8EA" fill-opacity="0.4"/>
<path d="M386.112 194.785C382.117 194.785 378.078 194.055 374.266 192.594C371.322 191.453 368.423 190.106 365.616 188.782C362.877 187.504 360.047 186.157 357.217 185.085C347.243 181.25 335.99 179.173 321.794 178.511C319.329 178.397 316.795 178.557 314.33 178.717L312.139 178.854C310.907 178.922 309.537 178.899 308.145 178.899C305.52 178.877 302.804 178.831 300.727 179.356L287.9 182.574L299.814 176.8C308.921 172.372 318.735 167.921 329.371 166.118C337.246 164.794 344.937 165.182 351.625 167.259C353.519 167.852 355.208 168.537 356.851 169.222C361.576 171.139 365.296 172.668 370.751 170.865C372.897 170.158 374.517 169.131 375.567 167.83C376.914 166.141 377.324 163.972 377.438 162.443C377.712 158.449 376.229 154.706 373.558 152.697C372.28 151.739 370.706 151.122 368.811 150.871L368.492 150.78C367.168 150.552 364.223 150.666 362.58 152.058C361.644 152.834 361.211 153.93 361.256 155.413C361.416 160.503 365.73 161.667 365.912 161.713L376.822 165.136L367.67 165.068C366.78 165.068 365.661 165.205 364.657 165.319C363.836 165.433 363.037 165.524 362.283 165.57C359.476 165.73 357.239 165.547 355.231 164.999C351.716 164.041 348.931 161.895 347.608 159.088C347.471 158.814 347.379 158.517 347.265 158.221C346.535 156.646 346.147 154.957 346.147 153.199C346.147 152.583 346.215 151.921 346.33 151.191C346.33 150.757 346.489 150.209 346.717 149.433C347.676 146.238 351.351 138.729 364.429 138.067C365.41 138.021 366.255 137.998 367.122 138.021L371.664 138.112L370.911 138.592C377.598 139.984 384.331 143.933 388.85 149.274C393.187 154.409 395.31 160.161 395.173 166.323C395.241 166.757 395.196 167.35 395.15 168.081C394.99 170.112 394.328 174.061 391.566 177.256C392.867 176.549 394.009 175.59 394.876 174.426C396.2 172.668 397.044 170.386 397.318 167.852C397.524 166.072 397.455 164.178 397.136 162.078C397.136 162.078 396.337 158.061 395.241 156.052L392.548 151.099L397.227 154.272C397.227 154.272 398.459 155.116 399.715 156.098C400.08 156.372 400.422 156.646 400.787 156.965C401.404 157.49 401.883 157.97 402.225 158.358C403.503 159.773 404.622 161.439 405.466 163.219C406.927 166.278 407.771 169.838 407.954 173.787C408.045 175.567 408 177.393 407.817 179.196C407.749 182.894 405.9 186.66 402.727 189.421C400.947 190.973 398.779 192.229 396.268 193.096C393.05 194.237 389.581 194.785 386.066 194.785H386.112ZM320.082 175.727C320.698 175.727 321.315 175.727 321.954 175.772C336.447 176.434 347.973 178.603 358.221 182.528C361.165 183.647 364.018 185.016 366.803 186.317C369.564 187.618 372.394 188.965 375.27 190.06C381.798 192.571 389.147 192.731 395.401 190.517C397.569 189.741 399.441 188.691 400.947 187.367C403.503 185.13 405.055 182.026 405.101 179.036C405.284 177.256 405.306 175.59 405.238 173.924C405.055 170.317 404.325 167.122 403.024 164.383C402.271 162.831 401.312 161.393 400.171 160.115C400.011 159.91 399.76 159.659 399.327 159.271C399.669 160.526 399.852 161.507 399.874 161.599C400.24 164.018 400.308 166.141 400.08 168.149C399.737 171.162 398.71 173.901 397.113 176.046C394.419 179.653 389.626 181.707 385.153 181.159L379.264 180.429L384.879 178.489C391.589 176.183 392.388 169.541 392.48 167.282H392.434V166.323C392.616 160.8 390.699 155.641 386.774 150.985C381.866 145.165 374.083 141.148 366.94 140.76L366.049 140.714C365.593 140.714 365.159 140.714 364.726 140.76C352.287 141.376 349.685 148.657 349.183 150.803L349.046 151.533C348.931 152.127 348.886 152.674 348.886 153.154C348.886 154.5 349.183 155.801 349.753 157.034L349.844 157.262C349.913 157.467 349.981 157.673 350.073 157.855C351.031 159.91 353.222 161.553 355.916 162.283C357.627 162.74 359.59 162.9 362.101 162.763H362.146C360.343 161.37 358.632 159.042 358.518 155.436C358.449 153.131 359.248 151.214 360.823 149.89C363.333 147.79 367.328 147.676 369.245 148.064L369.564 148.132C371.755 148.497 373.673 149.274 375.225 150.438C378.625 153.017 380.543 157.65 380.2 162.557C380.018 165.319 379.15 167.716 377.735 169.473C376.343 171.208 374.289 172.509 371.641 173.399C365.251 175.499 360.686 173.65 355.847 171.687C354.249 171.025 352.606 170.363 350.826 169.815C344.572 167.852 337.314 167.487 329.851 168.743C322.045 170.066 314.65 172.897 307.62 176.069H308.214C309.56 176.069 310.861 176.115 312.025 176.046L314.193 175.909C316.134 175.795 318.096 175.658 320.082 175.658V175.727Z" fill="#E1E8EA" fill-opacity="0.4"/>
</g>
</svg>
