<svg width="146" height="75" viewBox="0 0 146 75" fill="none" xmlns="http://www.w3.org/2000/svg">
<path d="M145.205 47.4678C144.987 42.7357 144.022 38.0035 141.998 33.7383C140.908 31.4656 139.507 29.3486 137.795 27.4807C137.39 26.9826 136.737 26.391 136.052 25.7684C135.616 25.3948 135.149 25.0212 134.682 24.6787C133.001 23.3711 131.382 22.2504 131.382 22.2504C133.032 25.3014 134.184 31.092 134.184 31.092C134.589 33.8628 134.744 36.6648 134.433 39.4667C134.028 42.9847 132.845 46.4716 130.728 49.3358C127.459 53.7255 121.638 56.2472 116.158 55.5623C128.673 51.266 127.802 37.2563 127.771 37.2874C127.989 29.193 125.156 21.7211 119.583 15.121C113.014 7.33785 101.993 1.08019 91.2214 0.519798L91.3149 0.45752C90.163 0.45752 89.0734 0.457533 88.0149 0.519798C87.9526 0.519798 87.8592 0.519798 87.797 0.519798C66.3158 1.60944 64.8526 16.7399 64.8837 16.7399C64.7281 17.5805 64.6346 18.4211 64.6346 19.2928C64.6346 21.4721 65.1327 23.5268 66.0044 25.3636C66.129 25.7372 66.2535 26.1108 66.4403 26.4844C68.1215 30.0958 71.764 32.493 75.6244 33.5515C78.5508 34.361 81.6328 34.4232 84.6526 34.2676C87.0498 34.143 89.6961 33.5515 92.1555 33.5827L90.163 32.96C90.0074 32.8977 89.8516 32.8666 89.696 32.8043L89.3224 32.6798C89.3224 32.6798 81.8196 30.8741 81.5705 22.3438C81.2903 13.8134 91.0969 13.5955 93.9299 14.187L93.9922 14.2181C96.6385 14.5917 99.2224 15.4634 101.339 17.0823C105.791 20.4447 107.753 26.4222 107.379 31.9949C107.161 35.0148 106.321 38.0346 104.422 40.4007C102.554 42.7357 99.814 44.1989 96.9498 45.1329C86.1158 48.682 79.5158 43.2649 69.7092 40.2139C60.2139 37.2563 49.9713 37.0695 40.2269 38.7195C26.2486 41.0856 13.142 46.9386 0.408936 53.1339C5.07876 51.982 11.5231 52.667 16.3486 52.3868C20.8005 52.1377 25.2525 51.7018 29.7044 51.9198C46.4224 52.6981 62.8912 54.9708 78.5818 61.0105C86.4893 64.0304 93.93 68.2644 101.838 71.2843C110.866 74.74 121.42 75.1759 130.604 71.9381C133.592 70.8796 136.394 69.3541 138.791 67.2682C142.465 64.0615 145.018 59.4227 145.08 54.5349C145.329 52.1688 145.392 49.8027 145.267 47.4367L145.205 47.4678Z" fill="#6CBDAA"/>
</svg>
