<svg width="193" height="93" viewBox="0 0 193 93" fill="none" xmlns="http://www.w3.org/2000/svg">
<g style="mix-blend-mode:soft-light">
<path d="M81.5624 71.4638C76.9981 71.7614 72.3787 70.8464 68.2334 70.5046C70.7581 72.8309 76.4027 75.7745 81.2316 76.7998C105.1 81.8603 116.268 61.4531 114.141 44.3313C114.052 43.6588 113.865 43.0083 113.678 42.0933C110.778 45.7756 107.371 47.4404 103.149 47.3852C104.152 52.126 103.447 56.3375 100.944 60.0529C96.1261 67.2081 89.4562 70.9456 81.5624 71.4638Z" fill="white" fill-opacity="0.4"/>
<path d="M130.49 47.9808C128.869 42.5014 130.589 35.1477 135.649 31.9946C135.109 32.3364 134.58 33.6593 134.26 34.2216C133.753 35.1257 133.345 36.0849 133.058 37.0771C132.485 39.0726 132.375 41.2004 132.794 43.229C133.808 48.2454 138.02 52.7105 143.278 53.1074C150.136 53.6256 156.596 47.1649 156.277 40.3074C155.979 34.0232 150.213 28.643 143.995 28.2792C143.422 28.2461 142.848 28.2571 142.275 28.3122C141.062 20.3191 136.664 12.8552 130.258 7.91606C123.853 2.97688 115.518 0.617551 107.47 1.46647C105.177 1.70902 102.895 2.20514 100.59 2.09489C97.8342 1.96259 95.2104 0.970341 92.4983 0.441143C85.5637 -0.925952 77.9566 0.904204 72.7198 5.65596C67.483 10.4077 64.9363 18.0811 66.7333 24.9276C67.6814 22.8108 69.1367 20.8263 70.9227 19.3379C72.9954 17.607 75.4539 16.9235 78.1219 16.9124C77.9786 16.9676 70.0077 20.3853 69.0044 29.4919C68.6296 32.3915 69.1036 35.4013 70.151 38.1465C71.5621 41.8509 74.0648 45.2356 77.5155 47.209C80.9663 49.1825 85.3983 49.5684 88.9262 47.7272C90.591 46.8562 92.0131 45.5443 93.7771 44.8828C97.4373 43.5267 101.605 45.3348 105.397 44.3977C111.362 42.9203 113.677 35.0485 111.571 29.2714C109.631 23.9464 104.813 19.7789 99.2785 18.6103C96.9412 18.1142 94.4165 18.1472 92.2667 19.1726C91.2965 19.6356 90.4146 20.3302 89.731 21.1571C89.731 21.1571 83.8438 27.761 94.0638 33.053C94.2842 33.1963 94.4937 33.3066 94.6591 33.3507C94.6591 33.3507 89.8743 33.505 87.1512 30.5724C86.1479 29.547 85.4093 28.2571 85.1337 26.8459C84.395 23.1305 86.4787 19.1946 89.6759 17.166C92.8731 15.1374 96.9523 14.8287 100.635 15.6997C106.489 17.0888 111.549 21.4437 113.809 27.0223C115.044 30.0762 115.463 33.3947 115.871 36.6692C116.764 43.8354 117.646 51.2111 115.805 58.2009C113.567 66.7122 107.216 73.9666 99.2233 77.649C91.2304 81.3423 81.7601 81.5077 73.5025 78.4758C66.6892 75.9732 60.824 71.486 54.5068 67.9139C48.1896 64.3308 40.8802 61.5856 33.7692 63.074C27.6284 64.3529 22.6011 68.5644 17.3312 71.949C14.4758 73.7792 11.3778 75.3668 8.04831 76.1606C6.42766 76.5465 4.76293 76.7339 3.09819 76.6236C2.27133 76.5685 1.45553 76.4362 0.650717 76.2157C0.308949 76.1275 0.0222747 75.907 0.000225144 76.348C-0.0107996 76.6126 0.386128 77.0757 0.518425 77.2962C2.89978 80.9675 7.442 82.7866 11.6865 82.9409C16.5264 83.1063 21.234 81.4856 25.7983 79.876C30.3736 78.2663 35.0701 76.6457 39.91 76.8C49.7331 77.1308 57.6599 84.5395 66.612 88.6188C75.4429 92.6429 85.4534 93.3926 95.1111 92.5657C105.386 91.6727 115.727 88.9495 124.172 83.0071C132.959 76.8221 139.122 67.3516 141.448 56.9C136.366 56.4921 131.967 52.8207 130.523 47.9477L130.49 47.9808Z" fill="white" fill-opacity="0.4"/>
<path d="M53.9003 32.3913C53.8232 30.7156 53.4814 29.0398 52.7648 27.5293C52.3789 26.7245 51.8828 25.9748 51.2764 25.3133C51.1331 25.1369 50.9016 24.9274 50.659 24.707C50.5047 24.5747 50.3393 24.4423 50.174 24.3211C49.5786 23.858 49.0053 23.4611 49.0053 23.4611C49.5896 24.5416 49.9976 26.5922 49.9976 26.5922C50.1409 27.5734 50.196 28.5657 50.0857 29.5579C49.9424 30.8037 49.5235 32.0385 48.7738 33.0528C47.6162 34.6074 45.5546 35.5004 43.6142 35.2578C48.0462 33.7364 47.7375 28.7752 47.7265 28.7862C47.8037 25.9197 46.8004 23.2737 44.827 20.9364C42.5007 18.1802 38.5979 15.9642 34.7833 15.7657L34.8164 15.7437C34.4085 15.7437 34.0226 15.7437 33.6478 15.7657C33.6258 15.7657 33.5927 15.7657 33.5706 15.7657C25.9635 16.1516 25.4454 21.5097 25.4564 21.5097C25.4013 21.8074 25.3682 22.1051 25.3682 22.4138C25.3682 23.1855 25.5446 23.9131 25.8533 24.5636C25.8974 24.6959 25.9415 24.8282 26.0076 24.9605C26.603 26.2394 27.8929 27.0883 29.26 27.4632C30.2963 27.7498 31.3877 27.7719 32.4571 27.7168C33.306 27.6727 34.2432 27.4632 35.1141 27.4742L34.4085 27.2537C34.3534 27.2317 34.2982 27.2206 34.2431 27.1986L34.1108 27.1545C34.1108 27.1545 31.4539 26.515 31.3657 23.4942C31.2664 20.4734 34.7392 20.3962 35.7425 20.6057L35.7645 20.6167C36.7016 20.749 37.6167 21.0577 38.3664 21.631C39.9429 22.8217 40.6375 24.9385 40.5052 26.9119C40.428 27.9814 40.1304 29.0508 39.4579 29.8887C38.7964 30.7156 37.8262 31.2337 36.8119 31.5645C32.9753 32.8213 30.638 30.903 27.1652 29.8225C23.8027 28.7752 20.1755 28.709 16.7247 29.2933C11.7746 30.1312 7.13316 32.2039 2.62402 34.3979C4.27774 33.99 6.55987 34.2325 8.26871 34.1333C9.84526 34.0451 11.4218 33.8907 12.9984 33.9679C18.9187 34.2435 24.7508 35.0484 30.3073 37.1872C33.1076 38.2566 35.7425 39.756 38.5428 40.8254C41.74 42.0492 45.4774 42.2036 48.7297 41.057C49.7881 40.6821 50.7803 40.1419 51.6292 39.4032C52.9302 38.2677 53.8342 36.6249 53.8563 34.894C53.9445 34.0561 53.9665 33.2182 53.9224 32.3803L53.9003 32.3913Z" fill="white" fill-opacity="0.4"/>
<path d="M192.956 83.3269C192.879 81.6511 192.537 79.9753 191.82 78.4649C191.435 77.6601 190.938 76.9104 190.332 76.2489C190.189 76.0725 189.957 75.863 189.715 75.6425C189.56 75.5102 189.395 75.3779 189.23 75.2566C188.634 74.7936 188.061 74.3967 188.061 74.3967C188.645 75.4771 189.053 77.5278 189.053 77.5278C189.197 78.509 189.252 79.5012 189.141 80.4935C188.998 81.7393 188.579 82.9741 187.829 83.9884C186.672 85.5429 184.61 86.4359 182.67 86.1934C187.102 84.6719 186.793 79.7107 186.782 79.7217C186.859 76.8553 185.856 74.2092 183.883 71.8719C181.556 69.1157 177.654 66.8997 173.839 66.7012L173.872 66.6792C173.464 66.6792 173.078 66.6792 172.703 66.7012C172.681 66.7012 172.648 66.7012 172.626 66.7012C165.019 67.0871 164.501 72.4453 164.512 72.4453C164.457 72.7429 164.424 73.0406 164.424 73.3493C164.424 74.1211 164.6 74.8487 164.909 75.4992C164.953 75.6315 164.997 75.7638 165.063 75.8961C165.659 77.175 166.948 78.0239 168.316 78.3987C169.352 78.6854 170.443 78.7074 171.513 78.6523C172.362 78.6082 173.299 78.3987 174.17 78.4098L173.464 78.1893C173.409 78.1672 173.354 78.1562 173.299 78.1341L173.166 78.09C173.166 78.09 170.51 77.4506 170.421 74.4297C170.322 71.4089 173.795 71.3317 174.798 71.5412L174.82 71.5522C175.757 71.6845 176.672 71.9932 177.422 72.5665C178.999 73.7572 179.693 75.874 179.561 77.8475C179.484 78.9169 179.186 79.9863 178.513 80.8242C177.852 81.6511 176.882 82.1693 175.868 82.5C172.031 83.7569 169.694 81.8385 166.221 80.7581C162.858 79.7107 159.231 79.6446 155.78 80.2289C150.83 81.0668 146.189 83.1395 141.68 85.3334C143.333 84.9255 145.616 85.168 147.324 85.0688C148.901 84.9806 150.477 84.8263 152.054 84.9035C157.974 85.1791 163.806 85.9839 169.363 88.1228C172.163 89.1922 174.798 90.6916 177.598 91.761C180.796 92.9848 184.533 93.1391 187.785 91.9925C188.844 91.6176 189.836 91.0774 190.685 90.3388C191.986 89.2032 192.89 87.5605 192.912 85.8295C193 84.9917 193.022 84.1538 192.978 83.3159L192.956 83.3269Z" fill="white" fill-opacity="0.4"/>
</g>
</svg>
