<svg width="542" height="263" viewBox="0 0 542 263" fill="none" xmlns="http://www.w3.org/2000/svg">
<path d="M227.318 177.802C214.429 178.643 201.384 176.059 189.679 175.094C196.808 181.663 212.748 189.975 226.383 192.87C293.785 207.16 325.322 149.534 319.313 101.185C319.064 99.2856 318.535 97.4488 318.005 94.8647C309.818 105.263 300.198 109.964 288.274 109.808C291.107 123.195 289.115 135.088 282.048 145.58C268.443 165.785 249.608 176.339 227.318 177.802Z" fill="#6CBDAA"/>
<path d="M368.481 135.49C363.905 120.017 368.761 99.2513 383.051 90.3474C381.525 91.3125 380.031 95.0484 379.128 96.6361C377.696 99.189 376.544 101.898 375.735 104.7C374.116 110.335 373.805 116.343 374.988 122.072C377.852 136.237 389.744 148.846 404.594 149.966C423.959 151.43 442.202 133.186 441.299 113.821C440.459 96.0758 424.176 80.883 406.618 79.8557C404.999 79.7623 403.38 79.7934 401.761 79.949C398.337 57.3779 385.915 36.3011 367.827 22.3536C349.74 8.40622 326.204 1.74386 303.477 4.14108C297.002 4.82599 290.557 6.22694 284.051 5.91561C276.267 5.54202 268.858 2.74008 261.2 1.24571C241.617 -2.61473 220.136 2.55332 205.348 15.9715C190.561 29.3897 183.369 51.058 188.444 70.3913C191.121 64.4139 195.231 58.81 200.274 54.6071C206.127 49.7192 213.069 47.789 220.603 47.7579C220.198 47.9136 197.69 57.5647 194.857 83.2803C193.798 91.4681 195.137 99.9674 198.095 107.719C202.08 118.18 209.147 127.738 218.891 133.31C228.635 138.883 241.151 139.973 251.113 134.774C255.814 132.314 259.83 128.609 264.811 126.741C275.147 122.912 286.915 128.018 297.624 125.372C314.467 121.2 321.004 98.9711 315.058 82.6576C309.579 67.6205 295.974 55.8524 280.346 52.5524C273.746 51.1514 266.617 51.2448 260.546 54.1401C257.806 55.4477 255.316 57.409 253.385 59.744C253.385 59.744 236.761 78.3924 265.62 93.3361C266.243 93.7408 266.834 94.0522 267.301 94.1767C267.301 94.1767 253.79 94.6125 246.1 86.3312C243.267 83.4359 241.182 79.7934 240.403 75.8084C238.317 65.3167 244.201 54.2023 253.23 48.4739C262.258 42.7455 273.777 41.8739 284.175 44.3333C300.706 48.256 314.996 60.5534 321.378 76.3065C324.865 84.9303 326.048 94.3012 327.2 103.548C329.722 123.784 332.212 144.612 327.013 164.35C320.693 188.384 302.761 208.869 280.19 219.268C257.619 229.697 230.877 230.164 207.559 221.603C188.319 214.536 171.757 201.864 153.918 191.778C136.079 181.659 115.439 173.907 95.3585 178.11C78.0179 181.722 63.8217 193.614 48.9405 203.172C40.8773 208.34 32.129 212.823 22.7271 215.065C18.1507 216.154 13.4497 216.684 8.74877 216.372C6.41386 216.217 4.11017 215.843 1.83752 215.22C0.87242 214.971 0.0629001 214.349 0.000635769 215.594C-0.0304964 216.341 1.09036 217.649 1.46395 218.271C8.1885 228.639 21.015 233.775 33.0008 234.211C46.6679 234.678 59.9613 230.102 72.85 225.556C85.7698 221.011 99.0321 216.435 112.699 216.87C140.438 217.804 162.822 238.726 188.101 250.245C213.038 261.608 241.306 263.725 268.578 261.39C297.593 258.868 326.795 251.179 350.642 234.398C375.455 216.933 392.857 190.19 399.426 160.676C385.074 159.524 372.653 149.157 368.574 135.396L368.481 135.49Z" fill="#6CBDAA"/>
<path d="M149.205 67.4678C148.987 62.7357 148.022 58.0035 145.998 53.7383C144.908 51.4656 143.507 49.3486 141.795 47.4807C141.39 46.9826 140.737 46.391 140.052 45.7684C139.616 45.3948 139.149 45.0212 138.682 44.6787C137.001 43.3711 135.382 42.2504 135.382 42.2504C137.032 45.3014 138.184 51.092 138.184 51.092C138.589 53.8628 138.744 56.6648 138.433 59.4667C138.028 62.9847 136.845 66.4716 134.728 69.3358C131.459 73.7255 125.638 76.2472 120.158 75.5623C132.673 71.266 131.802 57.2563 131.771 57.2874C131.989 49.193 129.156 41.7211 123.583 35.121C117.014 27.3379 105.993 21.0802 95.2214 20.5198L95.3149 20.4575C94.163 20.4575 93.0734 20.4575 92.0149 20.5198C91.9526 20.5198 91.8592 20.5198 91.797 20.5198C70.3158 21.6094 68.8526 36.7399 68.8837 36.7399C68.7281 37.5805 68.6346 38.4211 68.6346 39.2928C68.6346 41.4721 69.1327 43.5268 70.0044 45.3636C70.129 45.7372 70.2535 46.1108 70.4403 46.4844C72.1215 50.0958 75.764 52.493 79.6244 53.5515C82.5508 54.361 85.6328 54.4232 88.6526 54.2676C91.0498 54.143 93.6961 53.5515 96.1555 53.5827L94.163 52.96C94.0074 52.8977 93.8516 52.8666 93.696 52.8043L93.3224 52.6798C93.3224 52.6798 85.8196 50.8741 85.5705 42.3438C85.2903 33.8134 95.0969 33.5955 97.9299 34.187L97.9922 34.2181C100.638 34.5917 103.222 35.4634 105.339 37.0823C109.791 40.4447 111.753 46.4222 111.379 51.9949C111.161 55.0148 110.321 58.0346 108.422 60.4007C106.554 62.7357 103.814 64.1989 100.95 65.1329C90.1158 68.682 83.5158 63.2649 73.7092 60.2139C64.2139 57.2563 53.9713 57.0695 44.2269 58.7195C30.2486 61.0856 17.142 66.9386 4.40894 73.1339C9.07876 71.982 15.5231 72.667 20.3486 72.3868C24.8005 72.1377 29.2525 71.7018 33.7044 71.9198C50.4224 72.6981 66.8912 74.9708 82.5818 81.0105C90.4893 84.0304 97.93 88.2644 105.838 91.2843C114.866 94.74 125.42 95.1759 134.604 91.9381C137.592 90.8796 140.394 89.3541 142.791 87.2682C146.465 84.0615 149.018 79.4227 149.08 74.5349C149.329 72.1688 149.392 69.8027 149.267 67.4367L149.205 67.4678Z" fill="#6CBDAA"/>
<path d="M541.875 211.301C541.657 206.569 540.692 201.837 538.669 197.572C537.579 195.299 536.178 193.182 534.466 191.314C534.061 190.816 533.407 190.225 532.722 189.602C532.287 189.228 531.82 188.855 531.353 188.512C529.672 187.205 528.053 186.084 528.053 186.084C529.703 189.135 530.855 194.926 530.855 194.926C531.259 197.696 531.415 200.498 531.104 203.3C530.699 206.818 529.516 210.305 527.399 213.169C524.13 217.559 518.308 220.081 512.829 219.396C525.344 215.1 524.472 201.09 524.441 201.121C524.659 193.027 521.826 185.555 516.254 178.954C509.685 171.171 498.664 164.914 487.892 164.353L487.986 164.291C486.834 164.291 485.744 164.291 484.686 164.353C484.623 164.353 484.53 164.353 484.468 164.353C462.986 165.443 461.523 180.573 461.554 180.573C461.399 181.414 461.305 182.255 461.305 183.126C461.305 185.306 461.803 187.36 462.675 189.197C462.8 189.571 462.924 189.944 463.111 190.318C464.792 193.929 468.434 196.327 472.295 197.385C475.221 198.194 478.303 198.257 481.323 198.101C483.72 197.977 486.367 197.385 488.826 197.416L486.834 196.794C486.678 196.731 486.522 196.7 486.367 196.638L485.993 196.513C485.993 196.513 478.49 194.708 478.241 186.177C477.961 177.647 487.768 177.429 490.601 178.021L490.663 178.052C493.309 178.425 495.893 179.297 498.01 180.916C502.462 184.278 504.423 190.256 504.05 195.828C503.832 198.848 502.991 201.868 501.092 204.234C499.224 206.569 496.485 208.032 493.62 208.966C482.786 212.516 476.186 207.098 466.38 204.047C456.885 201.09 446.642 200.903 436.898 202.553C422.919 204.919 409.813 210.772 397.08 216.967C401.749 215.816 408.194 216.5 413.019 216.22C417.471 215.971 421.923 215.535 426.375 215.753C443.093 216.532 459.562 218.804 475.252 224.844C483.16 227.864 490.601 232.098 498.508 235.118C507.537 238.574 518.09 239.009 527.274 235.772C530.263 234.713 533.065 233.188 535.462 231.102C539.136 227.895 541.689 223.256 541.751 218.368C542 216.002 542.062 213.636 541.938 211.27L541.875 211.301Z" fill="#6CBDAA"/>
</svg>
