<svg width="605" height="607" viewBox="0 0 605 607" fill="none" xmlns="http://www.w3.org/2000/svg">
<path d="M304.779 272.618H298.068C298.068 272.258 295.294 236.367 242.41 189.875C186.753 140.958 194.583 93.8371 194.941 91.8607L195.522 88.7163L198.654 89.1206C237.176 93.9719 267.778 123.574 287.106 174.648C294.399 193.918 298.828 212.964 301.423 227.114C304.018 212.964 308.447 193.918 315.74 174.648C335.068 123.574 365.671 94.0168 404.192 89.1206L407.324 88.7163L407.906 91.8607C408.264 93.8371 416.093 140.958 360.436 189.875C307.553 236.367 304.779 272.258 304.779 272.618ZM298.649 250.876C299.768 253.437 300.663 255.818 301.423 257.974C302.184 255.818 303.079 253.437 304.197 250.876H298.649ZM401.597 96.3527C322.451 109.739 306.658 233.223 304.913 249.214C312.027 233.448 326.523 210.763 356.007 184.844C400.479 145.764 402.179 107.538 401.597 96.3527ZM246.84 184.844C276.279 210.718 290.775 233.403 297.933 249.17C296.233 233.133 280.395 109.739 201.294 96.3527C200.712 107.493 202.412 145.719 246.884 184.844H246.84Z" fill="#E1E8EA" fill-opacity="0.4"/>
<path d="M301.468 179.185L299.231 177.208C297.62 175.771 260.262 141.767 271.939 83.7753C283.259 27.4909 297.978 3.1893 298.605 2.20107L299.947 0L302.408 0.718716C305.629 1.70695 320.483 31.7582 330.952 83.7753C342.629 141.767 305.271 175.816 303.66 177.208L301.423 179.185H301.468ZM301.468 11.0502C296.681 20.708 286.793 44.0213 278.561 85.0779C269.255 131.255 293.817 161.711 301.513 169.931C309.208 161.756 333.771 131.345 324.465 85.0779C316.277 44.4705 306.3 20.8427 301.513 11.0502H301.468Z" fill="#E1E8EA" fill-opacity="0.4"/>
<path d="M407.376 515.812L404.244 515.408C365.722 510.557 335.12 480.955 315.792 429.881C308.499 410.61 304.07 391.564 301.475 377.415C298.88 391.564 294.451 410.61 287.158 429.881C267.83 480.955 237.227 510.512 198.706 515.408L195.574 515.812L194.992 512.668C194.634 510.692 186.805 463.571 242.462 414.653C295.345 368.161 298.119 332.27 298.119 331.911H304.83C304.83 332.27 307.604 368.161 360.488 414.653C416.145 463.571 408.315 510.692 407.957 512.668L407.376 515.812ZM305.009 355.404C306.754 371.44 322.548 494.835 401.649 508.221C402.231 497.081 400.531 458.854 356.058 419.729C326.619 393.855 312.123 371.171 304.965 355.404H305.009ZM297.985 355.404C290.871 371.171 276.375 393.855 246.891 419.774C202.419 458.854 200.719 497.081 201.301 508.266C280.447 494.88 296.24 371.44 297.985 355.449V355.404ZM298.746 353.697H304.294C303.175 351.137 302.28 348.756 301.52 346.6C300.759 348.756 299.864 351.137 298.746 353.697Z" fill="#E1E8EA" fill-opacity="0.4"/>
<path d="M301.422 607L298.603 602.373C297.977 601.34 283.257 576.949 271.938 520.799C260.171 462.314 298.916 427.636 299.274 427.321L301.511 425.435L303.703 427.366C305.314 428.804 342.672 462.808 330.995 520.799C319.586 577.488 304.911 601.43 304.33 602.418L301.466 607H301.422ZM301.422 434.643C293.726 442.818 269.164 473.184 278.47 519.496C286.747 560.553 296.59 583.866 301.377 593.524C306.164 583.777 316.141 560.194 324.329 519.496C333.635 473.274 309.072 442.863 301.377 434.643H301.422Z" fill="#E1E8EA" fill-opacity="0.4"/>
<path d="M502.951 408.5C487.202 408.5 450.873 403.155 413.425 360.257C367.118 307.162 331.371 304.377 331.013 304.377V297.639C331.371 297.639 367.118 294.854 413.425 241.758C462.147 185.878 509.08 193.739 511.049 194.099L514.181 194.683L513.778 197.827C508.946 236.503 479.462 267.228 428.592 286.633C409.398 293.955 390.428 298.402 376.335 301.008C390.428 303.613 409.398 308.06 428.592 315.382C479.462 334.787 508.901 365.512 513.778 404.188L514.181 407.333L511.049 407.916C510.601 408.006 507.693 408.5 502.951 408.5ZM354.367 304.556C370.071 311.698 392.665 326.252 418.481 355.855C457.584 400.684 495.479 402.212 506.619 401.673C493.287 322.21 370.295 306.308 354.367 304.601V304.556ZM345.598 301.052C347.746 301.816 350.117 302.715 352.667 303.838V298.312C350.117 299.435 347.746 300.334 345.598 301.097V301.052ZM503.577 200.387C489.663 200.387 454.407 204.969 418.436 246.206C392.665 275.763 370.071 290.317 354.367 297.504C370.384 295.752 493.242 279.895 506.575 200.477C505.725 200.432 504.74 200.387 503.577 200.387Z" fill="#E1E8EA" fill-opacity="0.4"/>
<path d="M497.041 332.899C452.703 332.899 427.246 304.6 426.038 303.207L424.114 301.006L426.038 298.76C426.396 298.356 460.712 259.5 519.143 271.314C575.606 282.769 599.453 297.458 600.437 298.086L605 300.961L600.437 303.791C599.453 304.42 575.382 319.154 519.143 330.563C511.358 332.136 503.976 332.809 497.086 332.809L497.041 332.899ZM433.286 301.006C441.474 308.732 471.808 333.393 517.801 324.05C558.202 315.875 581.735 305.813 591.489 301.006C581.735 296.2 558.202 286.183 517.801 277.962C471.763 268.619 441.474 293.28 433.286 301.006Z" fill="#E1E8EA" fill-opacity="0.4"/>
<path d="M100.004 408.5C95.217 408.5 92.3537 408.006 91.9062 407.916L88.7744 407.333L89.1771 404.188C94.0091 365.512 123.493 334.787 174.363 315.382C193.557 308.06 212.527 303.613 226.62 301.008C212.527 298.402 193.557 293.955 174.363 286.633C123.493 267.228 94.0538 236.503 89.1771 197.827L88.7744 194.683L91.9062 194.099C93.8748 193.739 140.808 185.878 189.53 241.758C235.837 294.854 271.584 297.639 271.942 297.639V304.377C271.584 304.377 235.837 307.162 189.53 360.257C152.127 403.155 115.798 408.5 100.049 408.5H100.004ZM96.3356 401.583C107.476 402.167 145.55 400.46 184.474 355.81C210.245 326.252 232.839 311.698 248.543 304.511C232.526 306.263 109.668 322.12 96.3356 401.538V401.583ZM250.243 298.223V303.748C252.793 302.625 255.165 301.726 257.312 300.963C255.165 300.199 252.793 299.301 250.243 298.178V298.223ZM96.3356 200.432C109.668 279.895 232.66 295.797 248.588 297.504C232.884 290.362 210.29 275.808 184.474 246.206C145.371 201.376 107.476 199.803 96.3356 200.387V200.432Z" fill="#E1E8EA" fill-opacity="0.4"/>
<path d="M105.87 332.9C98.9795 332.9 91.5973 332.226 83.8124 330.654C27.3498 319.199 3.50309 304.465 2.5188 303.882L-2 301.007L2.5188 298.132C3.50309 297.503 27.3051 282.814 83.8124 271.36C141.617 259.636 175.486 297.144 176.873 298.761L178.841 301.007L176.873 303.253C175.665 304.645 150.163 332.945 105.87 332.945V332.9ZM11.4222 301.007C21.1756 305.813 44.7092 315.83 85.1099 324.051C131.058 333.394 161.437 308.733 169.625 301.007C161.482 293.28 131.193 268.62 85.1099 277.963C44.7092 286.138 21.1756 296.155 11.4222 301.007Z" fill="#E1E8EA" fill-opacity="0.4"/>
<path d="M301.472 322.522C290.376 322.522 281.339 313.449 281.339 302.309C281.339 291.169 290.376 282.095 301.472 282.095C312.568 282.095 321.605 291.169 321.605 302.309C321.605 313.449 312.568 322.522 301.472 322.522ZM301.472 288.788C294.045 288.788 288.05 294.852 288.05 302.264C288.05 309.675 294.09 315.74 301.472 315.74C308.854 315.74 314.894 309.675 314.894 302.264C314.894 294.852 308.854 288.788 301.472 288.788Z" fill="#E1E8EA" fill-opacity="0.4"/>
</svg>
