<svg width="317" height="325" viewBox="0 0 317 325" fill="none" xmlns="http://www.w3.org/2000/svg">
<g style="mix-blend-mode:soft-light" opacity="0.6">
<path d="M84.8363 187.216C58.5995 187.216 32.7383 176.186 8.00402 154.387L0 147.37L10.4312 149.536C10.8068 149.622 47.128 156.985 69.6085 147.082C93.6782 136.456 112.749 134.089 139.13 153.405L148.001 160.768L138.263 169.574C137.628 170.123 123.353 181.874 100.035 185.916C95.0651 186.783 89.9218 187.216 84.8074 187.216H84.8363ZM12.1071 153.347C35.6567 173.501 60.102 183.722 84.8363 183.722C89.7485 183.722 94.6895 183.289 99.4572 182.48C121.88 178.583 135.432 167.409 135.981 166.947L142.713 160.854L136.992 156.119C112.056 137.871 93.9093 140.123 70.9955 150.229C50.8555 159.122 20.689 154.849 12.0783 153.347H12.1071Z" fill="#E1E8EA"/>
<path d="M272.308 187.476C267.194 187.476 261.992 187.042 256.936 186.147C233.617 182.105 219.372 170.354 218.765 169.863L208.97 160.999L217.725 153.751C244.222 134.348 263.322 136.716 287.391 147.313C309.901 157.245 346.193 149.853 346.569 149.767L357 147.601L349.025 154.646C332.005 169.632 304.873 187.476 272.366 187.476H272.308ZM214.258 161.114L221.019 167.206C221.568 167.668 235.12 178.842 257.543 182.74C262.426 183.578 267.396 184.011 272.337 184.011C302.677 184.011 328.278 167.842 344.922 153.607C336.311 155.079 306.144 159.382 286.004 150.489C263.09 140.383 244.944 138.131 219.863 156.465L214.286 161.114H214.258Z" fill="#E1E8EA"/>
<path d="M180.711 325C165.57 325 153.232 312.671 153.232 297.541C153.232 285.155 161.698 274.212 173.545 271.035V191.114L164.327 207.052C164.992 247.908 148.117 271.093 133.814 283.364C118.182 296.762 102.434 300.342 101.769 300.486L98.822 301.122L98.3886 298.119C87.8129 225.762 139.564 204.164 151.787 200.122L161.264 183.751L96.4815 221.142C99.6311 233.009 94.401 245.8 83.652 251.979C77.324 255.646 69.8979 256.628 62.8186 254.722C55.7104 252.816 49.7869 248.283 46.1172 241.931C38.5467 228.822 43.0543 211.989 56.1727 204.424C66.8928 198.217 80.618 200.093 89.3154 208.755L155.977 170.296C154.561 167.033 153.867 163.597 153.867 160.046C153.867 158.14 154.098 156.234 154.532 154.3L88.5641 116.245C79.8667 124.907 66.1416 126.784 55.4215 120.576C42.3031 113.011 37.7954 96.1776 45.3659 83.069C49.0356 76.7169 54.9591 72.1837 62.0673 70.2781C69.1755 68.3724 76.5727 69.3541 82.9007 73.0211C93.6208 79.2 98.8798 91.9909 95.7302 103.858L160.513 141.249L151.036 124.878C138.813 120.836 87.0905 99.2382 97.6373 26.8812L98.0707 23.8784L101.018 24.5136C101.683 24.658 117.373 28.1805 133.063 41.6356C147.366 53.9068 164.241 77.0922 163.576 117.948L172.794 133.886V53.9646C160.947 50.7596 152.48 39.8454 152.48 27.4587C152.48 12.329 164.819 0 179.96 0C195.101 0 207.439 12.329 207.439 27.4587C207.439 39.8454 198.973 50.7596 187.126 53.9646V133.598L196.401 117.544C195.736 76.7169 212.611 53.5315 226.914 41.2313C242.633 27.7474 258.294 24.2537 258.959 24.1094L261.906 23.4741L262.34 26.477C272.915 98.8917 221.164 120.431 208.941 124.474L200.128 139.719L262.282 103.858C259.132 91.9909 264.362 79.2289 275.111 73.0211C281.44 69.3541 288.866 68.4013 295.945 70.2781C303.053 72.1837 308.977 76.7169 312.646 83.069C320.217 96.1776 315.709 113.011 302.591 120.576C291.871 126.755 278.145 124.907 269.448 116.245L205.272 153.26C205.879 155.484 206.168 157.736 206.168 160.046C206.168 163.684 205.416 167.206 203.971 170.527L270.228 208.755C278.926 200.093 292.622 198.217 303.371 204.424C316.489 211.989 320.997 228.822 313.426 241.931C309.757 248.283 303.833 252.816 296.725 254.722C289.617 256.628 282.22 255.646 275.892 251.979C265.172 245.771 259.913 232.98 263.062 221.142L198.308 183.78L207.757 200.122C219.979 204.164 271.731 225.704 261.155 298.119L260.722 301.122L257.774 300.486C257.11 300.342 241.362 296.791 225.73 283.364C211.426 271.093 194.523 247.908 195.216 207.052L187.906 194.376V271.035C199.753 274.24 208.219 285.155 208.219 297.541C208.219 312.671 195.881 325 180.74 325H180.711ZM177.012 178.149V273.778L175.654 274.067C164.674 276.435 156.699 286.281 156.699 297.512C156.699 310.736 167.477 321.506 180.711 321.506C193.945 321.506 204.723 310.736 204.723 297.512C204.723 286.281 196.748 276.406 185.768 274.067L184.409 273.778V181.412L198.684 206.128V206.619C197.875 246.406 214.171 268.87 227.983 280.708C241.362 292.171 254.654 296.098 257.832 296.906C262.022 267.224 256.041 243.115 240.033 225.242C227.319 211.036 212.062 205.117 206.081 203.212L205.445 203.01L191.836 179.449L194.349 177.63L195.447 178.121L267.223 219.525L266.79 220.853C263.351 231.537 267.917 243.346 277.625 248.976C283.173 252.181 289.646 253.018 295.829 251.373C302.042 249.698 307.214 245.742 310.421 240.199C317.038 228.736 313.109 214.039 301.637 207.427C291.9 201.797 279.359 203.789 271.846 212.105L270.893 213.144L199.435 171.913L200.186 170.44C201.862 167.178 202.729 163.684 202.729 160.046C202.729 157.649 202.353 155.282 201.602 153.001L201.169 151.672L270.142 111.885L271.095 112.924C278.637 121.24 291.148 123.232 300.886 117.602C312.357 110.99 316.287 96.2642 309.67 84.8303C306.463 79.2866 301.29 75.3309 295.078 73.6563C288.866 71.9816 282.422 72.8478 276.874 76.0528C267.136 81.6831 262.571 93.4924 266.009 104.176L266.443 105.504L197.355 145.378L196.401 144.396C196.112 144.108 195.823 143.819 195.505 143.53L194.494 142.577L206.601 121.615L207.237 121.413C213.218 119.507 228.504 113.588 241.188 99.3826C257.196 81.5099 263.178 57.4005 258.988 27.7185C255.838 28.527 242.576 32.3961 229.139 43.9166C215.327 55.7547 199.059 78.2183 199.839 118.006V118.497L188.108 138.853L186.779 138.448C186.201 138.275 185.594 138.131 184.987 137.986L183.629 137.669V51.1927L184.987 50.904C195.968 48.5363 203.943 38.6905 203.943 27.4587C203.943 14.2346 193.165 3.46482 179.931 3.46482C166.697 3.46482 155.919 14.2346 155.919 27.4587C155.919 38.6905 163.894 48.5652 174.874 50.904L176.232 51.1927V137.64L174.903 137.958C174.267 138.102 173.632 138.275 172.996 138.477L171.667 138.91L160.08 118.843V118.352C160.889 78.5359 144.592 56.0723 130.78 44.2342C117.373 32.7425 104.081 28.8446 100.931 28.0362C96.7416 57.6892 102.752 81.7986 118.731 99.7002C131.445 113.906 146.701 119.854 152.683 121.76L153.318 121.962L165.31 142.693L164.327 143.646C163.865 144.108 163.403 144.57 162.969 145.06L162.045 146.129L91.5693 105.446L92.0027 104.118C95.4412 93.4346 90.8758 81.6254 81.167 75.995C75.6191 72.7901 69.1466 71.9527 62.9631 73.5985C56.7506 75.2443 51.5784 79.2289 48.371 84.7726C41.754 96.2353 45.6837 110.932 57.1551 117.544C66.8928 123.145 79.4044 121.182 86.946 112.866L87.8996 111.827L158.548 152.596L158.202 153.896C157.624 155.946 157.335 157.996 157.335 160.017C157.335 163.568 158.144 167.004 159.762 170.209L160.484 171.682L88.6509 213.144L87.6973 212.105C80.1557 203.789 67.6441 201.797 57.9064 207.427C46.435 214.039 42.5053 228.736 49.1222 240.199C52.3296 245.742 57.5019 249.698 63.7144 251.373C69.9268 253.018 76.3993 252.181 81.9183 248.976C91.656 243.346 96.2214 231.537 92.7829 220.853L92.3495 219.525L165.396 177.37L167.881 179.218L154.127 203.01L153.492 203.212C147.51 205.117 132.254 211.065 119.54 225.271C103.532 243.173 97.5506 267.282 101.74 296.935C104.89 296.127 118.211 292.2 131.589 280.737C145.401 268.899 161.669 246.435 160.889 206.619V206.128L177.041 178.149H177.012Z" fill="#E1E8EA"/>
</g>
</svg>
