<svg width="159" height="159" viewBox="0 0 159 159" fill="none" xmlns="http://www.w3.org/2000/svg">
<path d="M80.3585 71.4105H78.6006C78.6006 71.3164 77.874 61.915 64.0216 49.7367C49.4425 36.9231 51.4934 24.5801 51.5872 24.0624L51.7395 23.2388L52.5599 23.3447C62.6504 24.6154 70.6665 32.3695 75.7293 45.7479C77.6396 50.7957 78.7999 55.7847 79.4796 59.4911C80.1593 55.7847 81.3195 50.7957 83.2298 45.7479C88.2926 32.3695 96.3088 24.6272 106.399 23.3447L107.22 23.2388L107.372 24.0624C107.466 24.5801 109.517 36.9231 94.9376 49.7367C81.0852 61.915 80.3585 71.3164 80.3585 71.4105ZM78.753 65.7156C79.046 66.3862 79.2804 67.0099 79.4796 67.5746C79.6788 67.0099 79.9132 66.3862 80.2062 65.7156H78.753ZM105.72 25.2391C84.9878 28.7455 80.8508 61.0913 80.3937 65.2802C82.2571 61.1502 86.0542 55.2081 93.7774 48.4189C105.427 38.1821 105.872 28.1689 105.72 25.2391ZM65.1818 48.4189C72.8932 55.1964 76.6903 61.1384 78.5655 65.2684C78.1201 61.0678 73.9714 28.7455 53.2513 25.2391C53.099 28.1571 53.5443 38.1704 65.1935 48.4189H65.1818Z" fill="#005683" fill-opacity="0.4"/>
<path d="M79.4916 46.9363L78.9056 46.4185C78.4837 46.042 68.6979 37.1348 71.7567 21.9444C74.7217 7.20105 78.5775 0.835416 78.7415 0.576555L79.0931 0L79.7377 0.188263C80.5815 0.447124 84.4724 8.31886 87.2147 21.9444C90.2735 37.1348 80.4877 46.0538 80.0658 46.4185L79.4799 46.9363H79.4916ZM79.4916 2.89454C78.2376 5.42432 75.6476 11.5311 73.4912 22.2856C71.0535 34.3815 77.4875 42.3591 79.5033 44.5124C81.519 42.3709 87.9531 34.405 85.5154 22.2856C83.3707 11.6488 80.7573 5.45962 79.5033 2.89454H79.4916Z" fill="#005683" fill-opacity="0.4"/>
<path d="M107.233 135.114L106.413 135.008C96.3225 133.737 88.3063 125.983 83.2435 112.605C81.3332 107.557 80.173 102.568 79.4933 98.8618C78.8135 102.568 77.6533 107.557 75.743 112.605C70.6802 125.983 62.6641 133.726 52.5736 135.008L51.7532 135.114L51.6008 134.29C51.5071 133.773 49.4562 121.43 64.0352 108.616C77.8877 96.4379 78.6143 87.0365 78.6143 86.9424H80.3722C80.3722 87.0365 81.0988 96.4379 94.9513 108.616C109.53 121.43 107.479 133.773 107.386 134.29L107.233 135.114ZM80.4191 93.0962C80.8762 97.2968 85.0131 129.619 105.733 133.126C105.886 130.208 105.44 120.194 93.7911 109.946C86.0796 103.168 82.2825 97.2262 80.4074 93.0962H80.4191ZM78.5791 93.0962C76.7157 97.2262 72.9186 103.168 65.1955 109.958C53.5463 120.194 53.1009 130.208 53.2533 133.137C73.9851 129.631 78.1221 97.2968 78.5791 93.108V93.0962ZM78.7784 92.6491H80.2316C79.9386 91.9784 79.7042 91.3548 79.505 90.79C79.3057 91.3548 79.0714 91.9784 78.7784 92.6491Z" fill="#005683" fill-opacity="0.4"/>
<path d="M79.479 159L78.7407 157.788C78.5766 157.517 74.7209 151.128 71.7558 136.42C68.6736 121.1 78.8227 112.016 78.9164 111.934L79.5024 111.44L80.0767 111.946C80.4986 112.322 90.2844 121.23 87.2256 136.42C84.2371 151.269 80.3931 157.541 80.2408 157.8L79.4907 159H79.479ZM79.479 113.852C77.4632 115.994 71.0292 123.948 73.4669 136.079C75.635 146.833 78.2133 152.94 79.4673 155.47C80.7213 152.917 83.3347 146.739 85.4794 136.079C87.917 123.971 81.483 116.005 79.4673 113.852H79.479Z" fill="#005683" fill-opacity="0.4"/>
<path d="M132.269 107.004C128.143 107.004 118.627 105.604 108.818 94.3666C96.6881 80.4587 87.3242 79.7292 87.2305 79.7292V77.9642C87.3242 77.9642 96.6881 77.2347 108.818 63.3268C121.58 48.6894 133.874 50.7485 134.39 50.8426L135.21 50.9956L135.105 51.8193C133.839 61.9501 126.116 69.9984 112.791 75.0815C107.763 76.9994 102.794 78.1643 99.1023 78.8467C102.794 79.5292 107.763 80.6941 112.791 82.612C126.116 87.6951 133.827 95.7433 135.105 105.874L135.21 106.698L134.39 106.851C134.273 106.874 133.511 107.004 132.269 107.004ZM93.3481 79.7763C97.4616 81.6471 103.38 85.4595 110.142 93.2135C120.385 104.956 130.311 105.356 133.23 105.215C129.737 84.4005 97.5202 80.2352 93.3481 79.788V79.7763ZM91.051 78.8585C91.6136 79.0585 92.2347 79.2939 92.9027 79.588V78.1407C92.2347 78.4349 91.6136 78.6702 91.051 78.8703V78.8585ZM132.433 52.4899C128.788 52.4899 119.553 53.6901 110.13 64.4917C103.38 72.234 97.4616 76.0463 93.3481 77.9289C97.5436 77.4701 129.725 73.3165 133.218 52.5135C132.995 52.5017 132.737 52.4899 132.433 52.4899Z" fill="#005683" fill-opacity="0.4"/>
<path d="M130.721 87.201C119.107 87.201 112.438 79.7882 112.122 79.4234L111.618 78.8468L112.122 78.2585C112.216 78.1526 121.204 67.9747 136.51 71.0692C151.3 74.0697 157.547 77.9173 157.804 78.082L159 78.8351L157.804 79.5764C157.547 79.7411 151.242 83.6005 136.51 86.5892C134.471 87.001 132.537 87.1775 130.732 87.1775L130.721 87.201ZM114.02 78.8468C116.165 80.8707 124.111 87.3304 136.159 84.883C146.741 82.7415 152.906 80.1059 155.461 78.8468C152.906 77.5878 146.741 74.9639 136.159 72.8107C124.099 70.3633 116.165 76.823 114.02 78.8468Z" fill="#005683" fill-opacity="0.4"/>
<path d="M26.7197 107.004C25.4657 107.004 24.7156 106.874 24.5984 106.851L23.7781 106.698L23.8835 105.874C25.1493 95.7433 32.8724 87.6951 46.1975 82.612C51.2251 80.6941 56.1942 79.5292 59.8859 78.8467C56.1942 78.1643 51.2251 76.9994 46.1975 75.0815C32.8724 69.9984 25.161 61.9501 23.8835 51.8193L23.7781 50.9956L24.5984 50.8426C25.1141 50.7485 37.4079 48.6894 50.1704 63.3268C62.3001 77.2347 71.664 77.9642 71.7577 77.9642V79.7292C71.664 79.7292 62.3001 80.4587 50.1704 94.3666C40.3729 105.604 30.8567 107.004 26.7314 107.004H26.7197ZM25.7587 105.192C28.6768 105.345 38.6501 104.898 48.8461 93.2018C55.5965 85.4595 61.5149 81.6471 65.6284 79.7645C61.4328 80.2234 29.2511 84.377 25.7587 105.18V105.192ZM66.0738 78.1172V79.5645C66.7418 79.2703 67.3629 79.035 67.9254 78.835C67.3629 78.6349 66.7418 78.3996 66.0738 78.1054V78.1172ZM25.7587 52.5017C29.2511 73.3165 61.468 77.4818 65.6401 77.9289C61.5266 76.0581 55.6082 72.2458 48.8461 64.4917C38.6032 52.7488 28.6768 52.337 25.7587 52.4899V52.5017Z" fill="#005683" fill-opacity="0.4"/>
<path d="M28.2557 87.2009C26.4509 87.2009 24.5172 87.0244 22.478 86.6125C7.688 83.6121 1.4415 79.7527 1.18367 79.5997L0 78.8467L1.18367 78.0936C1.4415 77.9289 7.67628 74.0813 22.478 71.0808C37.6196 68.0098 46.4913 77.8348 46.8546 78.2584L47.3702 78.8467L46.8546 79.435C46.5382 79.7998 39.858 87.2126 28.2557 87.2126V87.2009ZM3.51585 78.8467C6.0707 80.1057 12.2352 82.7296 22.8179 84.8829C34.8538 87.3303 42.8114 80.8705 44.956 78.8467C42.8231 76.8229 34.889 70.3631 22.8179 72.8105C12.2352 74.952 6.0707 77.5759 3.51585 78.8467Z" fill="#005683" fill-opacity="0.4"/>
<path d="M79.4923 84.4828C76.5858 84.4828 74.2185 82.106 74.2185 79.188C74.2185 76.2699 76.5858 73.8931 79.4923 73.8931C82.3987 73.8931 84.7661 76.2699 84.7661 79.188C84.7661 82.106 82.3987 84.4828 79.4923 84.4828ZM79.4923 75.6463C77.5468 75.6463 75.9764 77.2347 75.9764 79.1762C75.9764 81.1177 77.5586 82.7061 79.4923 82.7061C81.426 82.7061 83.0081 81.1177 83.0081 79.1762C83.0081 77.2347 81.426 75.6463 79.4923 75.6463Z" fill="#005683" fill-opacity="0.4"/>
</svg>
