<svg width="320" height="299" viewBox="0 0 320 299" fill="none" xmlns="http://www.w3.org/2000/svg">
<g style="mix-blend-mode:soft-light">
<path d="M86.9042 169.467C108.114 165.793 121.038 155.148 121.575 154.692L129.243 147.747L122.513 142.143C98.6754 124.66 81.3805 126.832 59.6076 136.431C38.3173 145.843 4.04895 138.898 3.72718 138.818L0 138.04L2.84227 140.561C29.6831 164.211 54.2983 170.62 73.0681 170.62C78.1359 170.62 82.7749 170.164 86.931 169.44L86.9042 169.467Z" fill="white" fill-opacity="0.4"/>
<path d="M316.246 139.086C315.897 139.167 281.656 146.111 260.365 136.7C238.566 127.073 221.297 124.928 197.406 142.438L190.729 147.988L198.372 154.907H198.398C198.935 155.389 211.859 166.035 233.069 169.708C237.842 170.539 242.507 170.915 247.066 170.915C276.32 170.915 300.881 155.148 317.157 140.829L320 138.308L316.273 139.086H316.246Z" fill="white" fill-opacity="0.4"/>
<path d="M275.006 189.631C265.219 183.973 252.884 185.958 245.35 194.297L181.479 157.427C183.087 154.317 183.999 150.777 183.999 147.05C183.999 144.583 183.597 142.223 182.873 139.998L244.626 104.335C252.16 112.674 264.495 114.658 274.282 109C285.678 102.404 289.619 87.7635 283.023 76.3674C279.832 70.8436 274.684 66.9019 268.517 65.2394C262.35 63.5769 255.914 64.435 250.391 67.6259C240.603 73.2837 236.152 84.948 239.585 95.6201L177.698 131.364C177.403 131.069 177.108 130.774 176.813 130.506L187.11 112.674C197.889 109.242 245.913 90.1231 236.152 23.2481L235.991 22.1755L234.946 22.4168C234.356 22.5509 220.144 25.7418 205.906 37.9692C192.821 49.2044 177.403 70.4682 178.154 108.035L168.125 125.438C167.535 125.25 166.946 125.116 166.356 124.982V47.2469C177.323 44.8873 185.206 35.2073 185.206 23.8916C185.206 10.7258 174.48 0 161.315 0C148.149 0 137.423 10.7258 137.423 23.8916C137.423 35.2073 145.307 44.8873 156.274 47.2469V124.955C155.63 125.089 154.986 125.277 154.37 125.465L144.475 108.357C145.226 70.79 129.808 49.4994 116.723 38.2909C102.512 26.0904 88.3001 22.8727 87.6834 22.7386L86.6376 22.4973L86.4767 23.5698C76.7432 90.4181 124.74 109.59 135.52 113.023L145.709 130.666C145.226 131.122 144.77 131.605 144.341 132.088L81.1944 95.6201C84.6534 84.948 80.2022 73.2569 70.3883 67.6259C64.8647 64.435 58.4293 63.6037 52.2621 65.2394C46.0948 66.9019 40.9466 70.8436 37.7558 76.3674C31.1595 87.7903 35.1012 102.431 46.4972 109C56.2843 114.658 68.6187 112.674 76.1534 104.335L139.515 140.936C138.979 142.894 138.657 144.932 138.657 147.05C138.657 150.724 139.542 154.156 141.097 157.24L76.8774 194.324C69.3427 185.985 57.0081 184 47.221 189.658C35.8251 196.254 31.8836 210.895 38.4798 222.291C41.6707 227.815 46.8189 231.757 52.9861 233.419C59.1533 235.082 65.5887 234.224 71.1124 231.033C80.8995 225.375 85.3505 213.711 81.9183 203.039L147.639 165.096C147.639 165.096 147.854 165.257 147.961 165.337L136.243 185.636C125.464 189.068 77.4673 208.24 87.2007 275.089L87.3616 276.161L88.4074 275.92C88.9973 275.786 103.209 272.595 117.447 260.368C130.532 249.132 145.95 227.869 145.199 190.302L156.971 169.896V251.412C146.004 253.771 138.12 263.451 138.12 274.767C138.12 287.933 148.846 298.659 162.012 298.659C175.177 298.659 185.903 287.933 185.903 274.767C185.903 263.451 178.02 253.771 167.053 251.412V172.953L177.054 190.302C176.304 227.869 191.722 249.132 204.807 260.368C219.018 272.568 233.23 275.786 233.846 275.92L234.892 276.161L235.053 275.089C244.813 208.214 196.789 189.095 186.01 185.663L174.427 165.579C174.561 165.472 174.695 165.364 174.856 165.257L240.335 203.065C236.876 213.737 241.328 225.402 251.141 231.06C256.665 234.25 263.1 235.082 269.268 233.446C275.435 231.784 280.583 227.842 283.774 222.318C290.37 210.895 286.429 196.254 275.033 189.685L275.006 189.631Z" fill="white" fill-opacity="0.4"/>
</g>
</svg>
