<svg width="1920" height="1444" viewBox="0 0 1920 1444" fill="none" xmlns="http://www.w3.org/2000/svg">
<path d="M1000.41 107.918C1375.46 18.4402 1531.77 86.6927 1664 107.919L1664 259.531L2.86629 372C0.703364 340.115 -2.3247 110.454 2.86634 120.598C9.35514 133.279 191.593 170.207 276.694 180.141C477.414 203.572 733.506 171.595 1000.41 107.918Z" fill="url(#paint0_linear_1985_2813)"/>
<g clip-path="url(#clip0_1985_2813)">
<path d="M1907.5 1411L-38.5001 1411L-38.5001 1179L1907.5 1179L1907.5 1411Z" fill="url(#paint1_linear_1985_2813)"/>
<path fill-rule="evenodd" clip-rule="evenodd" d="M-18.9999 242.352L1943 198L1943 1190.91L1923.89 1191.5C1924.3 1268.78 1923.66 1338.78 1920.69 1332.25C1913.21 1315.8 1702.93 1267.87 1604.74 1254.98C1373.14 1224.57 1077.65 1266.07 769.679 1348.71C428.156 1440.35 240.404 1385.06 101.431 1344.14C64.3069 1333.21 30.6638 1323.31 -1.49995 1317.5L-1.49994 1250.46L-19.0001 1251L-18.9999 242.352Z" fill="#E1E8EA"/>
<path d="M1164.96 106.292C1604.7 -9.82713 1787.97 78.7466 1943 106.292L1943 303.045L-4.63938 449C-7.17535 407.622 -10.7257 109.583 -4.63931 122.747C2.96865 139.203 216.638 187.126 316.417 200.018C551.756 230.425 852.018 188.928 1164.96 106.292Z" fill="#E1E8EA"/>
</g>
<defs>
<linearGradient id="paint0_linear_1985_2813" x1="831.574" y1="772.5" x2="792.311" y2="-269.597" gradientUnits="userSpaceOnUse">
<stop stop-color="#E1E8EA"/>
<stop offset="1" stop-color="#E4D0C1" stop-opacity="0"/>
</linearGradient>
<linearGradient id="paint1_linear_1985_2813" x1="976" y1="1398" x2="976" y2="1166" gradientUnits="userSpaceOnUse">
<stop offset="0.182292" stop-color="#7083BC" stop-opacity="0"/>
<stop offset="0.447917" stop-color="#7083BC" stop-opacity="0.23"/>
<stop offset="0.854167" stop-color="#7083BC" stop-opacity="0.43"/>
<stop offset="1" stop-color="#DFE4E6" stop-opacity="0.75"/>
</linearGradient>
<clipPath id="clip0_1985_2813">
<rect width="1923" height="1444" fill="white" transform="translate(1923 1444) rotate(-180)"/>
</clipPath>
</defs>
</svg>
