<svg width="1920" height="313" viewBox="0 0 1920 313" fill="none" xmlns="http://www.w3.org/2000/svg">
<rect x="2.8125" width="1920" height="324" fill="url(#paint0_linear_1399_2031)"/>
<path d="M1154.31 165C1587.81 2.7011 1768.48 126.5 1921.31 165V373L1.31291 338.5C-1.18709 280.667 -4.68709 169.6 1.31291 188C8.81291 211 217.813 296 317.813 296C417.813 296 845.813 280.5 1154.31 165Z" fill="#E1E8EA"/>
<path d="M934.313 165C1571.81 31.0001 1768.48 203.5 1921.31 242V373L1.3129 338.5C-1.1871 280.667 -4.68709 223.6 1.31291 242C8.81291 265 236.813 242 336.813 242C436.813 242 611.945 232.761 934.313 165Z" fill="#E1E8EA" fill-opacity="0.4"/>
<defs>
<linearGradient id="paint0_linear_1399_2031" x1="962.812" y1="0" x2="962.812" y2="324" gradientUnits="userSpaceOnUse">
<stop stop-color="#D9D9D9" stop-opacity="0"/>
<stop offset="0.708333" stop-color="#DFE4E6" stop-opacity="0.75"/>
<stop offset="1" stop-color="#E1E8EA"/>
<stop offset="1" stop-color="#E1E8EA"/>
</linearGradient>
</defs>
</svg>
