<svg width="146" height="133" viewBox="0 0 146 133" fill="none" xmlns="http://www.w3.org/2000/svg">
<path d="M35.1412 76.647C24.489 76.647 13.9892 72.1655 3.94694 63.308L0.697266 60.4572L4.93239 61.337C5.0849 61.3722 19.8315 64.3638 28.9587 60.3398C38.7311 56.0225 46.4739 55.0605 57.1849 62.9091L60.7865 65.9007L56.8329 69.4789C56.5749 69.7018 50.7794 74.4766 41.312 76.1191C39.2942 76.471 37.206 76.647 35.1295 76.647H35.1412ZM5.61281 62.8856C15.1741 71.0744 25.099 75.2275 35.1412 75.2275C37.1356 75.2275 39.1417 75.0515 41.0774 74.723C50.1811 73.1392 55.6832 68.599 55.9061 68.4113L58.6396 65.9359L56.3168 64.0119C46.1924 56.5974 38.825 57.5125 29.5218 61.6186C21.3449 65.232 9.09711 63.4957 5.6011 62.8856H5.61281Z" fill="#005683"/>
<path d="M111.257 76.7526C109.18 76.7526 107.068 76.5766 105.015 76.2129C95.5481 74.5705 89.7644 69.7957 89.518 69.5962L85.541 65.9946L89.0957 63.0499C99.8536 55.1661 107.608 56.1281 117.381 60.4337C126.519 64.4694 141.254 61.4661 141.407 61.4309L145.642 60.551L142.404 63.4136C135.494 69.5024 124.478 76.7526 111.28 76.7526H111.257ZM87.6879 66.0415L90.4331 68.5169C90.656 68.7046 96.1581 73.2448 105.262 74.8286C107.244 75.1688 109.262 75.3448 111.268 75.3448C123.587 75.3448 133.981 68.775 140.738 62.9912C137.242 63.5895 124.994 65.3376 116.817 61.7242C107.514 57.6181 100.147 56.703 89.9638 64.1527L87.6996 66.0415H87.6879Z" fill="#005683"/>
<path d="M74.0673 132.631C67.9199 132.631 62.9105 127.622 62.9105 121.474C62.9105 116.441 66.3478 111.995 71.1578 110.704V78.2308L67.4154 84.7067C67.6852 101.307 60.834 110.728 55.0269 115.714C48.6801 121.157 42.2864 122.612 42.0165 122.671L40.8199 122.929L40.644 121.709C36.3502 92.3089 57.3614 83.5336 62.3239 81.8911L66.1719 75.2392L39.8697 90.4318C41.1484 95.2536 39.025 100.451 34.6608 102.961C32.0916 104.451 29.0766 104.85 26.2024 104.076C23.3164 103.302 20.9114 101.46 19.4215 98.8787C16.3478 93.5525 18.1779 86.7129 23.5041 83.6391C27.8565 81.1168 33.429 81.8794 36.9602 85.3989L64.025 69.7722C63.4502 68.4465 63.1686 67.0504 63.1686 65.6074C63.1686 64.8331 63.2625 64.0588 63.4384 63.2728L36.6552 47.8103C33.124 51.3298 27.5515 52.0924 23.1991 49.5701C17.8729 46.4964 16.0428 39.6567 19.1165 34.3305C20.6064 31.7495 23.0114 29.9076 25.8973 29.1333C28.7833 28.359 31.7866 28.7579 34.3558 30.2478C38.7082 32.7584 40.8434 37.9556 39.5646 42.7774L65.8669 57.97L62.0189 51.3181C57.0565 49.6757 36.0569 40.9003 40.3389 11.5005L40.5149 10.2804L41.7115 10.5385C41.9814 10.5971 48.3516 12.0284 54.7219 17.4954C60.529 22.4814 67.3803 31.902 67.1104 48.5025L70.8528 54.9784V22.5049C66.0429 21.2026 62.6055 16.768 62.6055 11.7351C62.6055 5.58765 67.6149 0.578186 73.7622 0.578186C79.9096 0.578186 84.919 5.58765 84.919 11.7351C84.919 16.768 81.4816 21.2026 76.6717 22.5049V54.8611L80.4375 48.3382C80.1677 31.7495 87.0189 22.3289 92.8261 17.3312C99.208 11.8524 105.567 10.4329 105.836 10.3742L107.033 10.1161L107.209 11.3362C111.503 40.7595 90.4915 49.5114 85.529 51.1539L81.9509 57.3482L107.186 42.7774C105.907 37.9556 108.03 32.7702 112.394 30.2478C114.964 28.7579 117.979 28.3708 120.853 29.1333C123.739 29.9076 126.144 31.7495 127.634 34.3305C130.707 39.6567 128.877 46.4964 123.551 49.5701C119.199 52.0807 113.626 51.3298 110.095 47.8103L84.0391 62.8504C84.2855 63.7538 84.4028 64.6689 84.4028 65.6074C84.4028 67.0856 84.0977 68.5169 83.5112 69.866L110.412 85.3989C113.943 81.8794 119.504 81.1168 123.868 83.6391C129.194 86.7129 131.024 93.5525 127.95 98.8787C126.461 101.46 124.056 103.302 121.17 104.076C118.284 104.85 115.28 104.451 112.711 102.961C108.359 100.439 106.224 95.2419 107.502 90.4318L81.2118 75.2509L85.048 81.8911C90.0105 83.5336 111.022 92.2855 106.728 121.709L106.552 122.929L105.355 122.671C105.086 122.612 98.6918 121.169 92.3451 115.714C86.5379 110.728 79.6749 101.307 79.9565 84.7067L76.9884 79.5565V110.704C81.7984 112.007 85.2357 116.441 85.2357 121.474C85.2357 127.622 80.2263 132.631 74.079 132.631H74.0673ZM72.5656 72.9632V111.819L72.0142 111.936C67.5562 112.898 64.3183 116.899 64.3183 121.462C64.3183 126.836 68.6942 131.211 74.0673 131.211C79.4403 131.211 83.8162 126.836 83.8162 121.462C83.8162 116.899 80.5783 112.886 76.1203 111.936L75.5689 111.819V74.2889L81.3643 84.3313V84.5308C81.0358 100.697 87.6524 109.824 93.2601 114.634C98.6919 119.292 104.088 120.888 105.379 121.216C107.08 109.156 104.652 99.3597 98.1522 92.0977C92.9903 86.3257 86.796 83.9207 84.3676 83.1464L84.1095 83.0643L78.5839 73.4912L79.6046 72.7521L80.0504 72.9515L109.192 89.7749L109.016 90.3145C107.62 94.6553 109.473 99.4536 113.415 101.741C115.667 103.043 118.295 103.384 120.806 102.715C123.328 102.035 125.428 100.427 126.73 98.1748C129.417 93.5173 127.821 87.5458 123.164 84.8592C119.21 82.5715 114.119 83.381 111.069 86.7598L110.682 87.1821L81.6693 70.4292L81.9743 69.8308C82.6548 68.5052 83.0067 67.0856 83.0067 65.6074C83.0067 64.6337 82.8542 63.6717 82.5492 62.7449L82.3732 62.2052L110.377 46.0388L110.764 46.4612C113.826 49.8399 118.905 50.6494 122.859 48.3617C127.516 45.6751 129.112 39.6919 126.425 35.0461C125.123 32.7936 123.023 31.1864 120.501 30.5059C117.979 29.8255 115.362 30.1775 113.11 31.4797C109.156 33.7674 107.303 38.5657 108.699 42.9064L108.875 43.4461L80.8247 59.6477L80.4375 59.2488C80.3202 59.1315 80.2029 59.0141 80.0738 58.8968L79.6632 58.5097L84.5787 49.9924L84.8368 49.9103C87.2653 49.136 93.4713 46.731 98.6215 40.959C105.121 33.697 107.549 23.901 105.848 11.8407C104.569 12.1692 99.1846 13.7412 93.7294 18.4222C88.1217 23.2322 81.5168 32.3596 81.8336 48.5259V48.7254L77.0705 56.9963L76.5309 56.832C76.2963 56.7617 76.0499 56.703 75.8035 56.6443L75.2522 56.5153V21.3786L75.8035 21.2613C80.2615 20.2993 83.4995 16.2988 83.4995 11.7351C83.4995 6.36195 79.1236 1.986 73.7505 1.986C68.3774 1.986 64.0016 6.36195 64.0016 11.7351C64.0016 16.2988 67.2395 20.311 71.6975 21.2613L72.2489 21.3786V56.5036L71.7092 56.6326C71.4511 56.6913 71.193 56.7616 70.9349 56.8438L70.3953 57.0197L65.6909 48.8662V48.6667C66.0194 32.4886 59.4028 23.3613 53.7951 18.5513C48.3516 13.882 42.9551 12.2982 41.6763 11.9697C39.9753 24.0183 42.4154 33.8143 48.903 41.088C54.0649 46.86 60.2592 49.2768 62.6876 50.0511L62.9457 50.1332L67.8143 58.5566L67.4154 58.9438C67.2277 59.1315 67.04 59.3192 66.864 59.5186L66.4887 59.9527L37.8753 43.4226L38.0512 42.883C39.4473 38.5422 37.5937 33.7439 33.6519 31.4562C31.3994 30.154 28.7716 29.8138 26.261 30.4825C23.7387 31.1512 21.6388 32.7702 20.3366 35.0227C17.65 39.6802 19.2455 45.6517 23.9029 48.3382C27.8565 50.6142 32.9363 49.8164 35.9982 46.4377L36.3854 46.0153L65.0691 62.5806L64.9283 63.1085C64.6937 63.9415 64.5764 64.7745 64.5764 65.5957C64.5764 67.0387 64.9049 68.4348 65.5618 69.737L65.8551 70.3353L36.6904 87.1821L36.3032 86.7598C33.2413 83.381 28.1615 82.5715 24.208 84.8592C19.5505 87.5458 17.955 93.5173 20.6416 98.1748C21.9438 100.427 24.0437 102.035 26.566 102.715C29.0883 103.384 31.7162 103.043 33.9569 101.741C37.9105 99.4536 39.7641 94.6553 38.368 90.3145L38.1921 89.7749L67.8495 72.6465L68.8584 73.3973L63.2742 83.0643L63.0161 83.1464C60.5876 83.9207 54.3934 86.3374 49.2315 92.1095C42.7321 99.3832 40.3037 109.179 42.0048 121.228C43.2836 120.899 48.6918 119.304 54.1235 114.646C59.7312 109.836 66.3361 100.709 66.0194 84.5308V84.3313L72.5774 72.9632H72.5656Z" fill="#005683"/>
</svg>
