<svg width="160" height="160" viewBox="0 0 160 160" fill="none" xmlns="http://www.w3.org/2000/svg">
<path d="M80.8642 71.8597H79.0953C79.0953 71.765 78.3641 62.3045 64.4245 50.0496C49.7537 37.1553 51.8175 24.7347 51.9118 24.2137L52.0652 23.3849L52.8907 23.4914C63.0447 24.7702 71.1112 32.5731 76.2059 46.0357C78.1282 51.1152 79.2957 56.1356 79.9797 59.8653C80.6638 56.1356 81.8313 51.1152 83.7536 46.0357C88.8483 32.5731 96.9148 24.7821 107.069 23.4914L107.894 23.3849L108.048 24.2137C108.142 24.7347 110.206 37.1553 95.535 50.0496C81.5954 62.3045 80.8642 71.765 80.8642 71.8597ZM79.2486 66.1289C79.5434 66.8038 79.7793 67.4314 79.9797 67.9997C80.1802 67.4314 80.4161 66.8038 80.7109 66.1289H79.2486ZM106.385 25.3978C85.5226 28.9262 81.3596 61.4756 80.8996 65.6908C82.7747 61.5348 86.5957 55.5554 94.3675 48.7235C106.09 38.4223 106.538 28.346 106.385 25.3978ZM65.592 48.7235C73.3519 55.5436 77.173 61.523 79.0599 65.679C78.6117 61.4519 74.4369 28.9262 53.5865 25.3978C53.4332 28.3342 53.8813 38.4104 65.6038 48.7235H65.592Z" fill="#005683"/>
<path d="M79.9917 47.2316L79.4021 46.7106C78.9775 46.3317 69.1301 37.3685 72.2082 22.0824C75.1919 7.24636 79.0718 0.840672 79.2369 0.580182L79.5907 0L80.2394 0.189447C81.0885 0.449937 85.0038 8.3712 87.7635 22.0824C90.8415 37.3685 80.9941 46.3435 80.5696 46.7106L79.9799 47.2316H79.9917ZM79.9917 2.91275C78.7298 5.45845 76.1235 11.6036 73.9536 22.4258C71.5006 34.5978 77.9751 42.6256 80.0035 44.7924C82.0319 42.6375 88.5064 34.6215 86.0534 22.4258C83.8953 11.722 81.2654 5.49397 80.0035 2.91275H79.9917Z" fill="#005683"/>
<path d="M107.908 135.964L107.082 135.857C96.9285 134.579 88.8619 126.776 83.7673 113.313C81.845 108.234 80.6774 103.213 79.9934 99.4835C79.3094 103.213 78.1419 108.234 76.2196 113.313C71.1249 126.776 63.0583 134.567 52.9044 135.857L52.0788 135.964L51.9255 135.135C51.8312 134.614 49.7673 122.194 64.4381 109.299C78.3777 97.0444 79.1089 87.5839 79.1089 87.4891H80.8779C80.8779 87.5839 81.6091 97.0444 95.5487 109.299C110.219 122.194 108.156 134.614 108.061 135.135L107.908 135.964ZM80.9251 93.6817C81.385 97.9087 85.548 130.434 106.398 133.963C106.552 131.026 106.104 120.95 94.3812 110.637C86.6212 103.817 82.8002 97.8377 80.9133 93.6817H80.9251ZM79.0736 93.6817C77.1984 97.8377 73.3774 103.817 65.6057 110.649C53.8832 120.95 53.435 131.026 53.5884 133.975C74.4506 130.446 78.6136 97.9087 79.0736 93.6935V93.6817ZM79.274 93.2318H80.7364C80.4416 92.5568 80.2057 91.9293 80.0052 91.361C79.8047 91.9293 79.5689 92.5568 79.274 93.2318Z" fill="#005683"/>
<path d="M79.979 160L79.236 158.78C79.0709 158.508 75.1909 152.079 72.2073 137.278C69.1056 121.862 79.3186 112.721 79.4129 112.638L80.0026 112.141L80.5805 112.65C81.005 113.029 90.8524 121.992 87.7743 137.278C84.7671 152.221 80.8989 158.532 80.7456 158.792L79.9908 160H79.979ZM79.979 114.568C77.9506 116.723 71.4761 124.727 73.9291 136.935C76.1108 147.757 78.7053 153.902 79.9672 156.448C81.2291 153.878 83.859 147.662 86.0171 136.935C88.4701 124.751 81.9956 116.735 79.9672 114.568H79.979Z" fill="#005683"/>
<path d="M133.101 107.677C128.949 107.677 119.373 106.268 109.502 94.9604C97.2964 80.965 87.8736 80.2309 87.7793 80.2309V78.4548C87.8736 78.4548 97.2964 77.7207 109.502 63.7253C122.345 48.9958 134.716 51.0678 135.235 51.1626L136.061 51.3165L135.955 52.1453C134.681 62.3399 126.909 70.4388 113.5 75.5539C108.441 77.4839 103.441 78.6561 99.7258 79.3428C103.441 80.0296 108.441 81.2018 113.5 83.1318C126.909 88.2469 134.669 96.3457 135.955 106.54L136.061 107.369L135.235 107.523C135.117 107.547 134.351 107.677 133.101 107.677ZM93.9354 80.2782C98.0748 82.1609 104.03 85.9972 110.835 93.8C121.142 105.617 131.131 106.019 134.068 105.877C130.553 84.9315 98.1338 80.74 93.9354 80.2901V80.2782ZM91.6239 79.3547C92.19 79.556 92.815 79.7928 93.4872 80.0888V78.6324C92.815 78.9284 92.19 79.1652 91.6239 79.3665V79.3547ZM133.266 52.8202C129.598 52.8202 120.305 54.0279 110.823 64.8975C104.03 72.6885 98.0748 76.5248 93.9354 78.4193C98.1573 77.9575 130.542 73.7778 134.056 52.8439C133.832 52.8321 133.572 52.8202 133.266 52.8202Z" fill="#005683"/>
<path d="M131.543 87.7496C119.856 87.7496 113.146 80.2901 112.827 79.9231L112.32 79.3429L112.827 78.7509C112.922 78.6443 121.967 68.4023 137.369 71.5164C152.252 74.5357 158.538 78.4075 158.797 78.5733L160 79.3311L158.797 80.077C158.538 80.2428 152.193 84.1264 137.369 87.1339C135.317 87.5483 133.371 87.7259 131.555 87.7259L131.543 87.7496ZM114.738 79.3429C116.896 81.3794 124.892 87.8799 137.015 85.417C147.665 83.2621 153.868 80.6098 156.439 79.3429C153.868 78.076 147.665 75.4355 137.015 73.2687C124.88 70.8059 116.896 77.3063 114.738 79.3429Z" fill="#005683"/>
<path d="M26.8878 107.677C25.626 107.677 24.8712 107.547 24.7533 107.523L23.9277 107.369L24.0339 106.54C25.3075 96.3457 33.0793 88.2469 46.4882 83.1318C51.5475 81.2018 56.5478 80.0296 60.2627 79.3428C56.5478 78.6561 51.5475 77.4839 46.4882 75.5539C33.0793 70.4388 25.3193 62.3399 24.0339 52.1453L23.9277 51.3165L24.7533 51.1626C25.2722 51.0678 37.6433 48.9958 50.4861 63.7253C62.6921 77.7207 72.1149 78.4548 72.2093 78.4548V80.2309C72.1149 80.2309 62.6921 80.965 50.4861 94.9604C40.627 106.268 31.0508 107.677 26.8996 107.677H26.8878ZM25.9208 105.854C28.8573 106.008 38.8934 105.558 49.1535 93.7882C55.9464 85.9972 61.902 82.1609 66.0414 80.2664C61.8194 80.7282 29.4352 84.9079 25.9208 105.842V105.854ZM66.4895 78.6087V80.0651C67.1617 79.7691 67.7868 79.5323 68.3529 79.331C67.7868 79.1297 67.1617 78.8929 66.4895 78.5969V78.6087ZM25.9208 52.8321C29.4352 73.7778 61.8548 77.9693 66.0532 78.4193C61.9138 76.5366 55.9582 72.7003 49.1535 64.8975C38.8462 53.0807 28.8573 52.6663 25.9208 52.8202V52.8321Z" fill="#005683"/>
<path d="M28.4335 87.7496C26.6173 87.7496 24.6715 87.572 22.6194 87.1576C7.73636 84.1383 1.45057 80.2546 1.19112 80.1007L0 79.3429L1.19112 78.5851C1.45057 78.4193 7.72457 74.5475 22.6194 71.5282C37.8563 68.4378 46.7838 78.3246 47.1494 78.7509L47.6683 79.3429L47.1494 79.9349C46.8309 80.302 40.1088 87.7614 28.4335 87.7614V87.7496ZM3.53797 79.3429C6.1089 80.6098 12.3121 83.2502 22.9614 85.417C35.0731 87.8799 43.0807 81.3794 45.2389 79.3429C43.0925 77.3063 35.1085 70.8059 22.9614 73.2687C12.3121 75.4237 6.1089 78.0641 3.53797 79.3429Z" fill="#005683"/>
<path d="M79.9925 85.0144C77.0678 85.0144 74.6855 82.6227 74.6855 79.6862C74.6855 76.7498 77.0678 74.358 79.9925 74.358C82.9172 74.358 85.2995 76.7498 85.2995 79.6862C85.2995 82.6227 82.9172 85.0144 79.9925 85.0144ZM79.9925 76.1223C78.0348 76.1223 76.4545 77.7207 76.4545 79.6744C76.4545 81.6281 78.0466 83.2265 79.9925 83.2265C81.9384 83.2265 83.5305 81.6281 83.5305 79.6744C83.5305 77.7207 81.9384 76.1223 79.9925 76.1223Z" fill="#005683"/>
</svg>
