<svg width="211" height="101" viewBox="0 0 211 101" fill="none" xmlns="http://www.w3.org/2000/svg">
<path d="M97.4905 84.0635C95.1207 84.0635 92.5281 83.8054 89.7242 83.207C84.2573 82.0456 78.2272 78.8076 75.5524 76.3439L74.0508 74.9596L76.0804 75.1238C77.4295 75.2294 78.8021 75.3937 80.2451 75.5696C83.4947 75.9568 86.85 76.3557 90.1583 76.1445C98.5698 75.6049 105.327 71.6278 110.243 64.3189C112.789 60.5295 113.528 56.3061 112.483 51.3787L112.296 50.5223H113.176C113.246 50.534 113.316 50.534 113.387 50.534C117.622 50.534 120.942 48.8212 123.816 45.1726L124.743 43.9877L125.048 45.4542C125.118 45.7827 125.189 46.076 125.247 46.3458C125.377 46.9089 125.494 47.3899 125.552 47.8944C126.949 59.1334 123.194 70.3607 115.745 77.2004C112.085 80.5674 106.172 84.0752 97.4436 84.0752L97.4905 84.0635ZM78.3915 76.7663C81.3244 78.7724 85.8997 80.9545 90.0292 81.8344C99.9307 83.9344 108.518 81.9752 114.842 76.1562C121.845 69.7155 125.517 58.6876 124.203 48.0704C124.168 47.7653 124.11 47.4603 124.039 47.1436C121.247 50.2055 117.974 51.7776 114.067 51.9301C114.912 56.834 114.044 61.2686 111.451 65.1049C106.277 72.7892 99.1564 76.9774 90.2873 77.5523C86.8382 77.7752 83.4243 77.3646 80.116 76.9775C79.5295 76.9071 78.9663 76.8367 78.4032 76.778L78.3915 76.7663Z" fill="#005683"/>
<path d="M98.5926 100.347C89.7118 100.347 81.8634 98.8103 75.1647 95.7717C72.0441 94.3522 69.0056 92.5338 66.0609 90.774C59.808 87.0316 53.8953 83.4886 47.0205 83.2657C41.9525 83.0897 37.0135 84.826 32.2622 86.4919C27.6165 88.1226 22.3373 89.988 16.9877 89.7885C11.7202 89.6008 6.94542 87.1841 4.52871 83.4651L4.42313 83.3126C4.16504 82.9489 3.83655 82.5148 3.87175 82.0456C3.89521 81.588 4.10639 81.3534 4.28236 81.2361C4.65777 80.978 5.05666 81.1188 5.29129 81.2009C5.33822 81.2126 5.39688 81.2361 5.44381 81.2478C6.22983 81.459 7.06274 81.5997 7.90742 81.6584C9.49118 81.764 11.1923 81.6115 12.9637 81.1891C15.9787 80.4618 19.1346 79.0305 22.6188 76.8015C23.8155 76.0389 24.9886 75.2294 26.1735 74.4199C30.5494 71.4401 35.0778 68.3546 40.3453 67.2518C46.9033 65.8792 54.2707 67.592 62.8934 72.4724C65.0168 73.6808 67.1285 74.9948 69.1698 76.2735C73.5574 79.0188 78.0975 81.8578 83.0014 83.6645C91.847 86.9142 101.619 86.5975 109.831 82.8081C118.337 78.878 124.789 71.311 127.1 62.5708C129.048 55.1563 128.039 47.0614 127.147 39.9285C126.725 36.538 126.291 33.0302 125 29.8392C122.678 24.1023 117.492 19.6443 111.462 18.213C107.38 17.2392 103.332 17.7789 100.341 19.6795C96.9854 21.8146 95.1318 25.7448 95.824 29.2526C96.0821 30.5548 96.7742 31.8336 97.7832 32.8542C98.9446 34.1095 100.505 34.79 101.901 35.1654C99.4842 33.4643 98.0413 31.5051 97.6424 29.323C96.9854 25.7448 99.4021 22.9761 99.5077 22.8588C100.305 21.8968 101.326 21.099 102.429 20.5828C105.233 19.2571 108.271 19.4917 110.336 19.9376C116.448 21.228 121.798 25.8504 123.933 31.728C125.317 35.5291 125.012 40.081 123.147 43.6123C121.716 46.3106 119.545 48.0938 116.882 48.7508C114.888 49.2435 112.835 49.0676 110.852 48.8916C108.635 48.7039 106.523 48.5162 104.599 49.2318C103.567 49.6189 102.64 50.229 101.666 50.886C100.986 51.3435 100.27 51.8128 99.5194 52.2117C95.7066 54.1943 90.7911 53.9832 86.7085 51.6368C83.1421 49.6072 80.2562 46.0525 78.5668 41.6296C77.3467 38.4268 76.9127 35.1302 77.2998 32.0799C78.0037 25.6979 81.7695 21.8616 84.503 19.8672C82.9896 20.2543 81.6639 20.923 80.4908 21.9085C78.7193 23.3867 77.2059 25.4163 76.2205 27.6101L75.3993 29.4286L74.8948 27.5046C72.9591 20.1605 75.6105 11.6315 81.4763 6.30524C87.0488 1.23711 95.3547 -0.956734 103.133 0.580129C104.153 0.779569 105.174 1.0494 106.148 1.29577C108.025 1.77677 109.796 2.23431 111.638 2.32817C113.304 2.41029 114.946 2.18739 116.683 1.94102C117.41 1.84716 118.126 1.74158 118.853 1.67119C127.605 0.744383 136.626 3.29018 143.607 8.67506C150.411 13.9192 155.104 21.7325 156.558 30.1911C156.981 30.1794 157.415 30.1794 157.837 30.1911C164.958 30.6017 171.246 36.7726 171.575 43.6592C171.751 47.4016 170.167 51.1793 167.222 54.0418C164.348 56.834 160.618 58.2887 156.993 58.0189C151.373 57.5966 146.422 52.939 145.202 46.9441C144.745 44.7033 144.85 42.3218 145.496 40.0693C145.613 39.6587 145.742 39.2598 145.894 38.8726C143.489 42.6385 142.962 47.8005 144.111 51.6603C145.589 56.6463 150.012 60.2714 155.115 60.682L155.925 60.7407L155.749 61.5267C153.215 72.8831 146.411 83.1601 137.084 89.7299C128.919 95.4784 118.407 98.9393 105.819 100.03C103.332 100.242 100.904 100.347 98.5575 100.347H98.5926ZM46.3519 81.8344C46.5982 81.8344 46.8329 81.8344 47.0792 81.8461C54.3176 82.0925 60.6644 85.8819 66.8 89.5539C69.7095 91.2902 72.7127 93.0851 75.7629 94.4812C83.9985 98.2354 94.0877 99.6197 105.737 98.6225C118.067 97.5549 128.356 94.1762 136.31 88.5801C145.144 82.3623 151.643 72.7071 154.236 61.9842C148.898 61.2334 144.369 57.3267 142.797 52.0474C141.049 46.1581 142.739 37.8872 148.593 34.2386L149.332 35.4352C149.074 35.5995 148.628 36.5028 148.417 36.9369C148.299 37.1833 148.194 37.3944 148.1 37.5587C147.584 38.4503 147.185 39.424 146.892 40.4447C146.305 42.486 146.211 44.6329 146.622 46.6508C147.713 52.0357 152.136 56.2239 157.133 56.5993C160.371 56.8457 163.679 55.5435 166.272 53.0212C168.924 50.4402 170.355 47.0497 170.202 43.7179C169.909 37.5235 164.231 31.9626 157.79 31.5989C157.204 31.5637 156.629 31.5755 156.066 31.6341L155.409 31.6928L155.315 31.0358C154.048 22.6828 149.473 14.9398 142.786 9.77785C136.099 4.61587 127.441 2.16392 119.041 3.05553C118.337 3.12592 117.621 3.23152 116.917 3.32538C115.193 3.56001 113.398 3.80638 111.615 3.72425C109.632 3.6304 107.708 3.13767 105.843 2.64493C104.881 2.39856 103.884 2.14046 102.898 1.94102C95.5541 0.486279 87.7175 2.55107 82.4617 7.3259C77.4758 11.8544 74.977 18.8465 75.9038 25.2168C76.9009 23.5392 78.1797 22.0141 79.6226 20.8174C81.8165 18.9755 84.4678 18.0839 87.7292 18.0722H91.2252L88.0107 19.4214C87.6705 19.5622 79.7517 23.023 78.731 32.2442C78.3674 35.0715 78.778 38.1453 79.9159 41.1252C81.488 45.243 84.1628 48.5396 87.4359 50.405C91.061 52.4815 95.5659 52.6927 98.8976 50.9446C99.5898 50.5927 100.223 50.1586 100.915 49.7011C101.924 49.0324 102.957 48.3284 104.142 47.8944C106.371 47.0614 108.729 47.2726 111.016 47.472C112.976 47.6363 114.817 47.8005 116.577 47.3664C119.44 46.6508 121.07 44.5626 121.939 42.9318C123.604 39.7877 123.886 35.576 122.654 32.1973C120.671 26.7655 115.732 22.4951 110.078 21.2984C108.224 20.9113 105.503 20.6884 103.062 21.8381C102.136 22.2722 101.291 22.9409 100.599 23.7621C100.564 23.7973 98.5105 26.1671 99.0619 29.0649C99.5077 31.423 101.502 33.5347 104.998 35.3414C105.327 35.5525 105.467 35.5995 105.514 35.6112L109.55 36.8548L105.327 36.9956C105.104 36.9956 99.8714 37.1363 96.7977 33.8162C95.6011 32.5961 94.7916 31.1062 94.4748 29.5107C93.6654 25.4515 95.7771 20.923 99.6133 18.4828C102.922 16.3711 107.368 15.7728 111.814 16.8286C118.267 18.3655 123.839 23.1403 126.326 29.2878C127.687 32.6548 128.133 36.2447 128.567 39.7291C129.47 47.0028 130.503 55.2385 128.485 62.911C126.08 72.0618 119.334 79.969 110.453 84.0751C101.901 88.0288 91.7296 88.3455 82.5438 84.9785C77.5109 83.1249 72.9005 80.2506 68.4542 77.4584C66.4246 76.1914 64.3364 74.8775 62.2247 73.6808C53.9187 68.9646 46.8563 67.3104 40.6503 68.6009C35.6526 69.6451 31.2416 72.6484 26.983 75.5579C25.7864 76.3674 24.6015 77.1886 23.3931 77.9512C19.7798 80.2741 16.4715 81.764 13.304 82.5265C11.3917 82.9841 9.54987 83.1601 7.82532 83.031C7.13316 82.9841 6.441 82.8903 5.77229 82.7377C8.36498 86.6679 13.2922 88.2165 17.0463 88.3455C22.1144 88.5215 27.2763 86.7148 31.8047 85.131C36.2509 83.5707 41.2604 81.8109 46.3519 81.8109V81.8344Z" fill="#005683"/>
<path d="M51.4322 46.029C49.3792 46.029 47.3027 45.6536 45.3553 44.9028C43.8419 44.3162 42.352 43.624 40.909 42.9436C39.5012 42.2749 38.0465 41.5944 36.5918 41.0313C31.4651 39.0604 25.6814 37.9928 18.3843 37.6525C17.1173 37.5939 15.8151 37.676 14.5481 37.7581L13.4219 37.8285C12.7884 37.8637 12.0845 37.852 11.3688 37.852C10.0197 37.8402 8.62364 37.8168 7.55606 38.0866L0.951172 39.7408L7.07507 36.7727C11.7677 34.4967 16.8006 32.209 22.2675 31.2822C26.3149 30.6017 30.2684 30.8012 33.7058 31.8688C34.6795 32.1738 35.5476 32.5258 36.3923 32.8777C38.8207 33.8632 40.733 34.6492 43.5368 33.7224C44.6396 33.3587 45.4726 32.8308 46.0122 32.1621C46.7044 31.2939 46.9156 30.1794 46.9742 29.3816C47.115 27.3286 46.3524 25.4046 44.9798 24.3722C44.3346 23.8794 43.5134 23.5627 42.5397 23.4336L42.3872 23.3984C41.6246 23.2811 40.1699 23.3515 39.3369 24.0554C38.856 24.4543 38.6331 25.0174 38.6565 25.78C38.7387 28.3962 40.9559 28.9945 41.0498 29.018L46.6575 30.7777L41.9531 30.7425C41.4838 30.7425 40.9207 30.8129 40.4045 30.8716C39.9822 30.9302 39.5716 30.9772 39.1844 31.0006C37.7414 31.0828 36.5918 30.9889 35.5594 30.7073C33.7527 30.2146 32.3215 29.1118 31.641 27.6688C31.5706 27.528 31.5237 27.3755 31.4651 27.223C31.0896 26.4135 30.8902 25.5454 30.8902 24.642C30.8902 24.3253 30.9254 23.985 30.9841 23.6096C30.9841 23.3867 31.0662 23.1051 31.1835 22.7063C31.6762 21.0638 33.565 17.2041 40.2872 16.8638C40.7917 16.8404 41.2257 16.8286 41.6715 16.8404L44.0061 16.8873L43.619 17.1337C47.0563 17.8493 50.5172 19.8789 52.84 22.6241C55.069 25.2755 56.1601 28.2202 56.0897 31.3995C56.1131 31.6341 56.1014 31.9626 56.0662 32.4671C55.9724 33.476 55.6087 35.4235 54.2243 37.019C54.893 36.6554 55.4913 36.1626 55.9371 35.5643C56.6176 34.6609 57.0517 33.4878 57.1924 32.1855C57.298 31.2705 57.2628 30.3085 57.0986 29.2174C57.0986 29.2174 56.688 27.1526 56.1249 26.1202L54.7405 23.5744L57.1455 25.2051C57.1455 25.2051 57.779 25.6392 58.436 26.1437C58.612 26.2845 58.7996 26.4252 58.9756 26.5895C59.3041 26.871 59.5505 27.1057 59.7147 27.3051C60.3717 28.0325 60.9465 28.8772 61.3923 29.8157C62.1432 31.3878 62.5773 33.2179 62.6711 35.2475C62.718 36.1743 62.6945 37.1129 62.6007 38.028C62.5655 39.9168 61.6153 41.8643 59.9846 43.2838C59.0695 44.0933 57.955 44.7268 56.6645 45.1726C55.0103 45.7592 53.2271 46.0525 51.4205 46.0525L51.4322 46.029ZM17.4927 36.233C17.8095 36.233 18.1262 36.233 18.4547 36.2565C25.9043 36.5967 31.8287 37.7112 37.0962 39.7291C38.6096 40.3039 40.0878 41.0078 41.5073 41.6765C42.9268 42.3452 44.3815 43.0374 45.848 43.5888C49.2032 44.8793 52.9808 44.9614 56.1952 43.8234C57.3097 43.4363 58.2717 42.8849 59.046 42.2045C60.3599 41.0548 61.1577 39.4592 61.1812 37.9224C61.275 37.019 61.2868 36.1509 61.2516 35.2945C61.1577 33.4408 60.7823 31.7984 60.1136 30.3906C59.7264 29.5811 59.2337 28.8537 58.6471 28.1967C58.565 28.1029 58.436 27.9621 58.2131 27.7626C58.3891 28.4079 58.4829 28.9124 58.4946 28.9593C58.6823 30.2029 58.7175 31.2939 58.5885 32.3263C58.4125 33.8749 57.8846 35.2827 57.0634 36.3855C55.6791 38.2391 53.2154 39.295 50.9278 39.0134L47.8893 38.638L50.7753 37.6408C54.2361 36.4559 54.6467 33.0185 54.6819 31.8688H54.6584V31.3995C54.7523 28.5604 53.7668 25.909 51.749 23.5158C49.2267 20.5242 45.2262 18.4594 41.5542 18.2599L41.0967 18.2365C40.8621 18.2365 40.6392 18.2365 40.4163 18.2599C34.0226 18.5767 32.6852 22.3191 32.4271 23.4219L32.3566 23.7973C32.298 24.1023 32.2745 24.3839 32.2745 24.6303C32.2745 25.3224 32.4271 25.9912 32.7203 26.6247L32.7672 26.742C32.8024 26.8476 32.8376 26.9532 32.8846 27.047C33.3773 28.1029 34.5035 28.9476 35.8879 29.323C36.7677 29.5576 37.7884 29.6397 39.0671 29.5694H39.0906C38.1638 28.8537 37.2839 27.6453 37.2253 25.8034C37.1901 24.6185 37.6007 23.6331 38.4101 22.9526C39.7006 21.8733 41.7536 21.8029 42.7391 22.0258L42.8916 22.061C44.0296 22.237 45.0033 22.6476 45.8128 23.2459C47.5608 24.5716 48.5463 26.9649 48.3703 29.4755C48.2764 30.895 47.8306 32.1269 47.1033 33.0302C46.3876 33.9101 45.3318 34.5906 43.9709 35.0364C40.6861 36.1157 38.3398 35.1654 35.8644 34.1565C35.0432 33.828 34.1985 33.476 33.2834 33.1945C30.069 32.1855 26.3383 31.9978 22.5021 32.6431C18.4899 33.3235 14.6889 34.7783 11.0755 36.409H11.3806C12.0727 36.409 12.7414 36.4324 13.3397 36.3972L14.4542 36.3268C15.4514 36.2682 16.4603 36.1978 17.481 36.1978L17.4927 36.233Z" fill="#005683"/>
<path d="M199.415 100.218C197.362 100.218 195.285 99.8427 193.326 99.0918C191.813 98.5052 190.323 97.8131 188.88 97.1326C187.472 96.4756 186.017 95.7835 184.562 95.2321C179.436 93.2611 173.652 92.1935 166.355 91.8533C165.088 91.7947 163.786 91.8768 162.519 91.9589L161.393 92.0293C160.759 92.0645 160.055 92.0528 159.34 92.0528C157.99 92.041 156.594 92.0176 155.527 92.2874L148.934 93.9416L155.057 90.9734C159.738 88.6975 164.783 86.4098 170.25 85.483C174.297 84.8025 178.251 85.002 181.688 86.0696C182.662 86.3746 183.53 86.7265 184.375 87.0785C186.803 88.0639 188.715 88.85 191.519 87.9232C192.622 87.5595 193.455 87.0316 193.995 86.3629C194.687 85.4947 194.898 84.3802 194.957 83.5941C195.097 81.5411 194.335 79.6171 192.962 78.5847C192.305 78.092 191.496 77.7752 190.522 77.6462L190.358 77.5992C189.677 77.4819 188.164 77.5406 187.319 78.2562C186.838 78.6551 186.615 79.2182 186.639 79.9808C186.721 82.597 188.938 83.1953 189.032 83.2188L194.64 84.9785L189.936 84.9433C189.478 84.9433 188.903 85.0137 188.387 85.0724C187.965 85.131 187.554 85.178 187.167 85.2014C185.724 85.2835 184.574 85.1897 183.542 84.9081C181.735 84.4154 180.304 83.3126 179.623 81.8696C179.553 81.7288 179.506 81.5763 179.447 81.4238C179.072 80.6143 178.873 79.7461 178.873 78.8428C178.873 78.526 178.908 78.1858 178.966 77.8104C178.966 77.5875 179.049 77.3059 179.166 76.9071C179.659 75.2646 181.547 71.4048 188.27 71.0646C188.774 71.0412 189.208 71.0294 189.654 71.0412L191.989 71.0881L191.601 71.3345C195.039 72.0501 198.5 74.0797 200.822 76.8249C203.051 79.4646 204.142 82.421 204.072 85.5886C204.107 85.8115 204.084 86.1165 204.06 86.4919C203.978 87.536 203.638 89.5656 202.218 91.2081C202.887 90.8444 203.474 90.3516 203.92 89.7533C204.6 88.85 205.034 87.6768 205.175 86.3746C205.28 85.4595 205.245 84.4858 205.081 83.4064C205.081 83.4064 204.67 81.3417 204.107 80.3093L202.723 77.7634L205.128 79.3942C205.128 79.3942 205.761 79.8282 206.407 80.3327C206.594 80.4735 206.77 80.6143 206.958 80.7785C207.275 81.0484 207.521 81.2947 207.697 81.4942C208.354 82.2215 208.929 83.0779 209.363 83.993C210.114 85.5651 210.548 87.3952 210.642 89.4248C210.689 90.3399 210.665 91.2784 210.571 92.2053C210.536 94.1058 209.586 96.0416 207.955 97.4611C207.04 98.2589 205.926 98.9041 204.635 99.3499C202.981 99.9365 201.198 100.218 199.391 100.218H199.415ZM165.475 90.422C165.792 90.422 166.109 90.422 166.437 90.4455C173.887 90.7857 179.811 91.9003 185.079 93.9181C186.592 94.493 188.058 95.1969 189.49 95.8656C190.909 96.5343 192.364 97.2265 193.842 97.7896C197.197 99.0801 200.975 99.1622 204.189 98.0242C205.304 97.6254 206.266 97.0857 207.04 96.4053C208.354 95.2555 209.152 93.66 209.175 92.1232C209.269 91.2081 209.281 90.3516 209.246 89.4952C209.152 87.6416 208.776 85.9992 208.108 84.5913C207.721 83.7936 207.228 83.0545 206.641 82.3975C206.559 82.2919 206.43 82.1629 206.207 81.9634C206.383 82.6087 206.477 83.1131 206.489 83.1601C206.676 84.4036 206.712 85.4947 206.594 86.5271C206.418 88.0757 205.89 89.4835 205.069 90.5863C203.685 92.4399 201.221 93.4958 198.922 93.2142L195.895 92.8388L198.781 91.8416C202.23 90.6567 202.641 87.2428 202.688 86.0813H202.664V85.5886C202.758 82.7495 201.773 80.0981 199.755 77.7048C197.233 74.7132 193.232 72.6484 189.56 72.449L189.103 72.4255C188.868 72.4255 188.645 72.4255 188.422 72.449C182.028 72.7657 180.691 76.5082 180.433 77.611L180.363 77.9864C180.304 78.2914 180.28 78.573 180.28 78.8193C180.28 79.5115 180.433 80.1802 180.726 80.8137L180.773 80.931C180.808 81.0366 180.844 81.1422 180.89 81.2361C181.383 82.2919 182.509 83.1366 183.894 83.512C184.774 83.7467 185.783 83.8288 187.073 83.7584H187.096C186.17 83.0428 185.29 81.8461 185.231 79.9925C185.196 78.8076 185.607 77.8221 186.416 77.1417C187.707 76.0623 189.76 76.0037 190.745 76.2031L190.909 76.2383C192.035 76.426 193.021 76.8249 193.819 77.4233C195.567 78.7489 196.552 81.1305 196.376 83.6528C196.282 85.0724 195.836 86.3042 195.109 87.2075C194.394 88.0992 193.338 88.7679 191.977 89.2254C188.692 90.3047 186.346 89.3545 183.858 88.3455C183.037 88.0053 182.193 87.6651 181.278 87.3835C178.063 86.3746 174.332 86.1869 170.496 86.8321C166.484 87.5126 162.683 88.9673 159.07 90.598H159.375C160.067 90.598 160.736 90.6215 161.334 90.5863L162.448 90.5159C163.446 90.4573 164.454 90.3868 165.475 90.3868V90.422Z" fill="#005683"/>
</svg>
