<svg width="131" height="157" viewBox="0 0 131 157" fill="none" xmlns="http://www.w3.org/2000/svg">
<path d="M76.009 157C75.6688 157 75.3168 156.918 74.9766 156.754C74.2023 156.39 73.7448 155.745 73.6627 154.959L73.4398 154.912L73.6509 154.231L74.2258 152.824C74.3314 152.577 74.4135 152.366 74.4956 152.143C74.6833 151.615 74.8476 151.134 75.0118 150.606C75.1995 150.02 75.3872 149.363 75.5866 148.647C76.0559 146.899 76.4548 145.01 76.7833 143.039C77.1821 140.587 77.4637 138.053 77.6162 135.496C77.7922 132.481 77.7922 129.348 77.6162 126.157C77.4168 122.544 77.0062 118.79 76.3609 115C75.6453 110.8 74.6599 106.471 73.4046 102.166C72.0202 97.4026 70.2957 92.5339 68.2779 87.7122C66.0841 82.4563 63.4796 77.0714 60.535 71.7335C58.5524 68.1318 56.3703 64.4715 54.0592 60.8347C51.7246 61.6207 48.909 61.3978 47.3252 60.2715C46.809 59.9079 45.8119 59.7436 44.5331 59.8374C42.6091 60.424 41.2013 60.6704 40.5913 60.7643C40.0282 62.2777 38.0455 66.8882 33.4116 71.1821C32.2384 72.2731 30.9479 73.2703 29.5871 74.1502C22.595 78.667 13.8198 80.1803 3.48427 78.6435L0.0117188 78.1273L3.29656 76.8603C3.40215 76.8133 14.3712 72.4608 18.5946 66.0436C23.1699 59.0632 27.8391 55.1448 38.2098 55.7431L40.0165 55.9542C39.993 55.3559 40.0165 54.523 40.1103 53.5375L18.3834 54.6403C17.5505 58.4414 14.2187 61.2922 10.2886 61.4916C5.49037 61.7615 1.36085 58.019 1.11449 53.1973C0.997173 50.8627 1.79492 48.6336 3.36695 46.8973C4.92726 45.161 7.07414 44.1403 9.40873 44.023C13.3857 43.8119 16.9404 46.3225 18.1605 50.018L41.3187 48.8448C41.3187 48.8448 41.3656 48.7392 41.389 48.6805L36.4618 46.1582C32.473 47.1906 15.0164 50.323 5.36133 29.241L4.95072 28.3259L5.88925 27.974C6.08868 27.9036 10.8282 26.1321 17.3745 27.012C23.2989 27.8214 31.7926 31.0946 38.6556 42.0755L43.7236 44.6683L30.0563 23.5393C26.3491 24.7125 22.2079 23.2578 20.0727 19.9612C17.4566 15.9137 18.618 10.4936 22.6654 7.87743C24.6246 6.6104 26.9592 6.18806 29.2469 6.66906C31.5345 7.1618 33.4937 8.51094 34.7607 10.4701C36.8958 13.7785 36.5322 18.1427 33.9395 21.0405L47.0437 41.3013L46.8208 36.8197C39.6059 26.0617 40.1103 16.9696 41.7997 11.2444C43.665 4.93275 47.2314 1.30764 47.3839 1.15513L48.0878 0.451218L48.7448 1.20205C64.0193 18.6589 54.0005 33.3002 51.4196 36.503L51.7011 42.0169H51.8654L62.4238 21.3924C59.5496 18.7645 58.7401 14.459 60.535 10.9512C61.6026 8.87463 63.4093 7.33776 65.6265 6.62212C67.8555 5.90649 70.2136 6.09421 72.2901 7.15007C76.5838 9.34391 78.2849 14.6232 76.0911 18.917C74.2962 22.4248 70.3309 24.2902 66.5181 23.4924L56.5932 42.885C57.4613 43.1666 58.1887 43.4716 58.7283 43.7297L59.1624 42.3219C62.8813 32.5728 68.3717 29.9214 76.6073 28.5957C84.1507 27.3874 92.398 19.4215 92.75 19.0813L95.2488 16.6176L94.2985 19.9964C92.3511 26.9181 88.2098 36.3504 79.5519 41.9465C78.1793 42.8264 76.7246 43.6007 75.223 44.2459C69.5683 46.6509 64.6763 46.6392 62.8931 46.5336L62.0836 47.5778C61.5087 48.3286 60.0892 50.5576 60.3473 51.8599C60.7462 53.8308 59.749 56.5408 58.001 58.3475C61.2389 63.4157 64.1953 68.5424 66.7997 73.5636C69.6035 78.9837 72.0554 84.4038 74.0967 89.6831C75.9503 94.5048 77.5341 99.397 78.8011 104.207C79.0592 105.169 79.3056 106.166 79.5402 107.222C81.0184 101.638 83.7166 95.4786 87.6115 88.8736C90.7908 83.4652 94.1343 78.8664 96.4454 75.8748C95.8588 74.7485 95.6711 73.4815 95.9644 72.543C96.1521 71.9681 95.6477 70.8067 95.2605 70.1614L92.8907 66.2665L95.1198 68.0732L97.0789 67.9793C97.3018 67.8855 97.8649 67.686 98.6158 67.51L94.3103 56.1185C92.0343 56.2593 89.8405 54.8632 89.0193 52.6928C87.9869 49.9476 89.3713 46.8738 92.1165 45.8297C93.4421 45.3252 94.8968 45.3722 96.1873 45.9588C97.4778 46.5453 98.475 47.6012 98.9794 48.9269C99.8007 51.109 99.085 53.5844 97.2784 55.004L101.713 66.7475L102.1 64.4129C100.727 62.2073 96.07 53.08 106.03 43.9878L106.652 43.413L107.18 44.0699C107.262 44.1638 109.116 46.5453 109.796 50.3582C110.406 53.819 110.113 59.1453 105.232 64.9408L104.974 66.5363L113.151 56.5526C111.896 54.6403 112.002 52.0593 113.48 50.2526C114.383 49.1498 115.65 48.4694 117.07 48.3286C118.489 48.1878 119.873 48.6101 120.964 49.5018C123.24 51.3554 123.569 54.7224 121.715 56.9866C120.237 58.7933 117.738 59.4151 115.603 58.547L107.039 69L109.209 68.1787C113.925 62.2542 119.099 60.9051 122.607 60.8229C126.49 60.7408 129.177 62.09 129.294 62.1486L130.045 62.5358L129.611 63.2514C122.666 74.8072 112.788 72.0385 110.359 71.1352L108.13 71.9798L120.519 74.0094C121.551 71.9564 123.827 70.7597 126.138 71.1469C127.534 71.3815 128.766 72.1441 129.599 73.2938C130.432 74.4552 130.76 75.8631 130.526 77.2591C130.291 78.6552 129.529 79.8871 128.379 80.72C127.217 81.553 125.81 81.8815 124.414 81.6468C122.114 81.2714 120.331 79.4061 120.002 77.1418L108.001 75.1709C107.978 75.9217 107.884 76.4966 107.825 76.7664L108.247 79.5586L107.121 79.3122C106.945 79.2653 106.042 79.0424 104.716 78.4675C103.789 78.3033 103.391 78.444 103.261 78.5144C102.241 79.0776 100.634 79.0658 99.2962 78.491C97.7828 80.3681 96.3281 82.2803 94.979 84.1926C92.9494 87.0669 91.0958 89.9999 89.4886 92.8859C88.0104 95.5373 86.7082 98.2238 85.6054 100.875C84.6082 103.268 83.7518 105.685 83.0714 108.055C82.5317 109.956 82.0742 111.891 81.734 113.815C81.4994 116.091 81.5228 118.262 81.8279 120.197C81.8513 120.315 81.8513 120.444 81.8279 120.585C82.1211 123.259 82.2971 125.876 82.3558 128.363C82.4379 131.624 82.3558 134.815 82.0977 137.842C81.8865 140.423 81.5463 142.934 81.0888 145.327C80.7251 147.251 80.2793 149.128 79.7631 150.923C79.3994 152.19 79.024 153.304 78.6251 154.349L78.062 155.827C77.9564 155.991 77.7101 156.32 77.2995 156.589C76.9123 156.836 76.49 156.965 76.0559 156.965L76.009 157ZM74.8476 154.442V154.56C74.7772 155.088 74.9883 155.475 75.4811 155.698C75.8799 155.885 76.2671 155.874 76.619 155.639C76.8185 155.51 76.9358 155.369 76.9944 155.287L77.4872 153.961C77.8743 152.953 78.238 151.873 78.6017 150.641C79.1061 148.882 79.5519 147.04 79.9039 145.151C80.3497 142.805 80.6782 140.317 80.8893 137.783C81.1357 134.803 81.2295 131.659 81.1474 128.433C81.0888 125.958 80.9011 123.353 80.6195 120.69V120.549C80.6195 120.549 80.6195 120.456 80.6195 120.42C80.3027 118.379 80.2675 116.115 80.5256 113.698C80.8776 111.704 81.3351 109.733 81.8982 107.785C82.5904 105.368 83.4585 102.905 84.4675 100.476C85.582 97.7898 86.9194 95.068 88.4093 92.3697C90.04 89.4485 91.9053 86.4803 93.97 83.5708C95.4248 81.5178 96.9851 79.453 98.6275 77.4469L98.9325 77.0714L99.3666 77.3061C100.422 77.8809 101.854 77.9865 102.651 77.5524C103.179 77.2591 103.954 77.2005 104.951 77.3882L105.08 77.4234C105.795 77.7401 106.382 77.9396 106.781 78.0686L106.593 76.8016L106.617 76.696C106.652 76.5318 106.828 75.6871 106.793 74.5726L106.769 73.8569L121.07 76.2033L121.093 76.6726C121.187 78.6083 122.654 80.2507 124.566 80.5558C125.657 80.7317 126.76 80.4736 127.651 79.8284C128.555 79.1832 129.153 78.2211 129.329 77.1301C129.505 76.039 129.247 74.9362 128.602 74.0446C127.956 73.1413 126.994 72.5547 125.903 72.367C123.956 72.0502 122.091 73.1061 121.375 74.9363L121.199 75.382L106.605 72.9888L106.499 72.6251C106.452 72.4374 106.382 72.2614 106.323 72.0737L106.124 71.5223L110.324 69.9385L110.535 70.0206C112.353 70.748 121.657 73.7631 128.332 63.0754C127.499 62.7235 125.376 61.9961 122.595 62.0548C119.31 62.1251 114.453 63.4156 109.984 69.0938L109.878 69.2229L105.678 70.8067L105.408 70.4782C105.303 70.3374 105.244 70.267 105.185 70.2084L104.845 69.8329L115.228 57.1509L115.65 57.3738C117.375 58.2537 119.521 57.8079 120.753 56.3062C122.208 54.5347 121.938 51.9185 120.167 50.4638C119.31 49.7599 118.243 49.4431 117.128 49.5487C116.025 49.6543 115.028 50.1939 114.324 51.0504C113.093 52.552 113.081 54.7459 114.289 56.2593L114.582 56.6347L104.177 69.3402L103.391 68.8827L103.414 68.4603L104.071 64.4832L104.177 64.3542C108.857 58.8637 109.162 53.8425 108.588 50.6163C108.107 47.8945 106.957 45.947 106.452 45.1962C97.3018 53.8425 102.1 62.3715 103.168 64.014L103.297 64.2017L102.569 68.6128L101.994 68.5307C101.807 68.5072 101.607 68.4838 101.42 68.472L101.044 68.4486L95.8236 54.6051L96.2225 54.347C97.8532 53.2911 98.5336 51.2146 97.8532 49.3962C97.4661 48.3638 96.6918 47.5426 95.6829 47.085C94.6739 46.6275 93.5477 46.5923 92.5153 46.9794C90.3802 47.7889 89.2891 50.1822 90.0986 52.3291C90.7791 54.1475 92.6796 55.2621 94.5918 54.9688L95.0611 54.8984L100.188 68.472L99.4839 68.5894C98.3342 68.7888 97.5013 69.129 97.4074 69.1642L97.208 69.2111L96.0348 69.2698L96.2342 69.61C96.3633 69.8212 96.5979 70.2435 96.7974 70.748L97.0203 71.1938L96.9264 71.1117C97.1259 71.71 97.2314 72.3905 97.0555 72.9536C96.8208 73.6692 97.0555 74.7603 97.6186 75.6636L97.8415 76.0156L97.5951 76.3441C95.2957 79.3005 91.8701 83.9815 88.6087 89.5189C84.1859 97.0272 81.3234 103.937 80.0916 110.038L79.5285 112.818L78.9419 110.038C78.5195 108.043 78.0972 106.248 77.6514 104.559C76.3961 99.7841 74.8358 94.9389 72.9822 90.1524C70.9644 84.92 68.5242 79.5351 65.7438 74.1502C63.0808 69.0234 60.054 63.7911 56.734 58.6174L56.4641 58.2067L56.8278 57.8782C58.482 56.3648 59.5144 53.8425 59.1741 52.1414C58.7635 50.0883 60.887 47.2258 61.1333 46.909L62.3299 45.3604L62.6467 45.3839C64.0193 45.4895 68.9466 45.6772 74.742 43.2135C76.185 42.6035 77.581 41.8644 78.8832 41.008C86.8842 35.8225 90.9081 27.1997 92.8907 20.5712C90.7087 22.5656 83.5172 28.7248 76.7598 29.8041C68.9466 31.0477 63.7377 33.57 60.23 42.756L59.397 45.4426L58.7753 45.1258C58.2122 44.8325 57.0507 44.2929 55.5491 43.8588L54.8687 43.6593L65.8612 22.1785L66.3187 22.2958C69.7326 23.2109 73.3928 21.5919 75.0001 18.436C76.9006 14.7171 75.4224 10.1534 71.7152 8.25284C69.9203 7.32603 67.8673 7.17352 65.9433 7.7953C64.0193 8.41709 62.4473 9.75452 61.5322 11.5495C59.9132 14.7053 60.7345 18.6237 63.4796 20.8528L63.8433 21.1578L52.5223 43.2957L52.1469 43.2722C51.8067 43.2605 51.4665 43.2487 51.1145 43.2722L50.5397 43.2957L50.176 36.1862L50.3168 36.0102C52.5106 33.3471 62.6819 19.2455 47.9822 2.2579C47.2431 3.0674 44.4158 6.41096 42.8672 11.6551C41.2365 17.169 40.7673 25.9444 47.8297 36.3856L47.9235 36.5264L48.299 43.7766L47.4543 44.0817L47.1141 43.7297L32.4026 20.9935L32.7429 20.6533C35.2417 18.1545 35.664 14.1774 33.7401 11.1975C32.649 9.50815 30.9479 8.33497 28.9653 7.91263C26.9827 7.47855 24.9648 7.85397 23.2637 8.95675C19.756 11.221 18.7588 15.9137 21.023 19.4215C22.947 22.4014 26.748 23.6449 30.0563 22.3896L30.5021 22.2254L45.4482 45.3253L45.0728 45.6655C44.9555 45.771 44.8381 45.8884 44.7326 45.994L44.3219 46.4163L37.8226 43.0962L37.7405 42.9554C31.1004 32.2443 22.9235 29.065 17.2102 28.2907C11.7785 27.5516 7.5786 28.76 6.54622 29.1002C8.48193 33.2063 17.7264 50.1705 36.3797 45.0789L36.6026 45.0202L42.9611 48.2699L42.703 48.7861C42.5505 49.1029 42.398 49.4079 42.2689 49.7247L42.1281 50.0766L17.3041 51.3319L17.175 50.8744C16.26 47.4604 12.9869 45.1141 9.49085 45.2783C7.47301 45.3839 5.61942 46.2638 4.25856 47.7655C2.89769 49.2671 2.20553 51.2029 2.31111 53.2207C2.52228 57.3855 6.07695 60.5766 10.2534 60.4006C13.7963 60.2246 16.7762 57.5498 17.3393 54.0537L17.4097 53.5844L41.4712 52.3643L41.3656 53.0682C41.1192 54.7693 41.1896 56.1302 41.2365 56.6347L41.2952 57.3503L38.1159 56.9749C28.3553 56.4118 23.9324 60.1307 19.5917 66.7475C15.8259 72.496 7.27358 76.5083 4.56358 77.6698C14.2304 78.9603 22.4425 77.4586 28.977 73.2351C30.2792 72.3904 31.5228 71.4285 32.649 70.3843C37.5176 65.8793 39.3243 61.0341 39.641 60.1073L39.7584 59.7553L40.1338 59.7201C40.2511 59.7084 41.8583 59.509 44.2868 58.7699L44.4158 58.7464C46.07 58.6291 47.2783 58.8403 48.0409 59.3917C49.4135 60.3654 52.0765 60.4827 54.1061 59.6615L54.5519 59.4738L54.81 59.8844C57.2384 63.662 59.5144 67.4866 61.5791 71.2407C64.5355 76.6139 67.1634 82.034 69.3689 87.3367C71.4102 92.2054 73.1465 97.1093 74.5425 101.919C75.8095 106.272 76.8067 110.636 77.5341 114.883C78.1793 118.719 78.6017 122.52 78.8011 126.181C78.9771 129.407 78.9653 132.598 78.8011 135.648C78.6486 138.241 78.367 140.822 77.9564 143.309C77.6279 145.327 77.2173 147.251 76.7363 149.034C76.5369 149.773 76.3375 150.454 76.1498 151.052C75.9855 151.592 75.8095 152.096 75.6101 152.636C75.5163 152.87 75.4224 153.093 75.3285 153.328L74.8476 154.513V154.442Z" fill="#005683"/>
<path d="M62.0011 98.8925L61.7547 98.4233C51.5717 79.2066 45.4713 79.9457 45.4126 79.9692C45.0958 80.063 43.8758 80.3329 42.9724 79.7228C42.4797 79.3826 42.1747 78.8664 42.116 78.1977C42.0456 77.529 42.2333 76.9541 42.6557 76.5083C43.4886 75.6402 44.9199 75.734 44.9316 75.734C49.6594 75.5698 54.2348 79.2653 58.4699 86.7384C61.5435 92.1467 63.315 97.7076 63.3385 97.7545L63.5027 98.259L62.0245 98.8808L62.0011 98.8925ZM45.5768 78.7725C47.1254 78.7725 52.4985 79.9457 60.7341 94.1646C59.9363 92.2172 58.8218 89.7535 57.4375 87.3133C53.4253 80.2507 49.2019 76.7195 44.8847 76.8955C44.5914 76.8837 43.8523 76.9306 43.4886 77.3061C43.3713 77.4234 43.2305 77.6346 43.2774 78.0686C43.3244 78.4792 43.5003 78.6435 43.6177 78.7373C44.0283 79.0189 44.7556 78.9251 45.131 78.8195C45.1662 78.8195 45.3187 78.7725 45.5768 78.7725Z" fill="#005683"/>
<path d="M72.6186 135.015L72.2902 134.592C61.4384 120.585 56.6637 121.981 56.6167 121.992C56.3821 122.11 55.3967 122.509 54.5403 122.133C54.0593 121.922 53.7308 121.511 53.5783 120.96C53.4258 120.397 53.4961 119.869 53.7894 119.435C54.3056 118.672 55.2911 118.485 55.5492 118.449C59.4323 117.652 63.6909 120.01 68.1841 125.488C71.4337 129.442 73.651 133.689 73.6628 133.736L73.9091 134.217L72.6304 135.026L72.6186 135.015ZM57.086 120.772C58.7988 120.772 62.9401 121.863 70.0142 129.97C69.2282 128.797 68.3014 127.506 67.2573 126.228C63.0574 121.112 59.186 118.883 55.7603 119.599H55.7017C55.514 119.634 54.9743 119.763 54.7632 120.08C54.7045 120.174 54.6224 120.338 54.7045 120.631C54.7866 120.913 54.9157 121.007 55.0213 121.054C55.3615 121.206 55.9246 121.03 56.1709 120.913C56.2179 120.89 56.5229 120.772 57.0977 120.772H57.086Z" fill="#005683"/>
<path d="M89.1597 126.192L87.7754 125.582L87.9396 125.078C87.9396 125.078 89.5234 120.444 92.1395 116.021C95.7763 109.885 99.6712 106.858 103.648 107.081C103.93 107.081 104.915 107.105 105.549 107.785C105.912 108.172 106.065 108.689 105.995 109.275C105.924 109.85 105.654 110.308 105.22 110.589C104.399 111.117 103.296 110.824 103.073 110.753C103.073 110.753 98.0757 110.143 89.4295 125.723L89.1715 126.192H89.1597ZM103.273 108.243C99.8472 108.243 96.445 111.058 93.1485 116.619C92.2921 118.062 91.553 119.517 90.9429 120.831C98.7092 108.548 103.167 109.58 103.378 109.639C103.601 109.709 104.223 109.827 104.563 109.615C104.657 109.557 104.774 109.439 104.81 109.146C104.845 108.829 104.751 108.677 104.669 108.595C104.411 108.313 103.812 108.254 103.648 108.266H103.59C103.484 108.266 103.367 108.266 103.261 108.266L103.273 108.243Z" fill="#005683"/>
<path d="M96.9142 101.837C96.2103 101.837 95.5298 101.638 94.908 101.262C94.0399 100.723 93.4299 99.878 93.1835 98.8808C92.9371 97.8836 93.1131 96.8512 93.6528 95.983C94.1924 95.1149 95.0371 94.5048 96.0343 94.2585C97.0315 94.0121 98.0638 94.1881 98.932 94.7277C99.8001 95.2674 100.41 96.1121 100.657 97.1093C100.903 98.1065 100.727 99.1389 100.187 100.007C99.6476 100.875 98.8029 101.497 97.8058 101.732C97.5125 101.802 97.2074 101.837 96.9142 101.837ZM96.9259 95.3378C96.7147 95.3378 96.5153 95.3613 96.3041 95.4082C94.8728 95.7484 93.993 97.1914 94.3332 98.611C94.6734 100.042 96.1164 100.922 97.5359 100.582C98.2281 100.418 98.8147 99.9953 99.1901 99.3852C99.5655 98.7752 99.6828 98.0596 99.5068 97.3791C99.3426 96.6869 98.9203 96.1003 98.3102 95.7249C97.8879 95.4668 97.4069 95.3261 96.9259 95.3261V95.3378Z" fill="#005683"/>
<path d="M61.3094 111.492C61.2039 111.492 61.0983 111.492 60.9927 111.469C60.2653 111.387 59.6084 111.023 59.1508 110.448C58.6933 109.873 58.4821 109.146 58.5643 108.419C58.6464 107.691 59.0101 107.034 59.5849 106.577C60.1598 106.119 60.8754 105.92 61.6145 105.99C62.3418 106.072 62.9988 106.436 63.4563 107.011C63.9139 107.586 64.125 108.313 64.0429 109.041C63.9608 109.768 63.5971 110.425 63.0223 110.882C62.5295 111.27 61.9312 111.481 61.3094 111.481V111.492ZM61.3094 107.152C60.9575 107.152 60.6055 107.269 60.324 107.492C59.9955 107.75 59.7843 108.137 59.7374 108.548C59.6905 108.97 59.8078 109.381 60.0659 109.709C60.324 110.038 60.6994 110.249 61.1217 110.296C61.5323 110.343 61.9547 110.225 62.2832 109.967C62.6117 109.709 62.8228 109.334 62.8697 108.911C62.9167 108.489 62.7994 108.079 62.5413 107.75C62.2832 107.422 61.9078 107.21 61.4854 107.163C61.4268 107.163 61.3681 107.163 61.2977 107.163L61.3094 107.152Z" fill="#005683"/>
</svg>
