<svg width="410" height="353" viewBox="0 0 410 353" fill="none" xmlns="http://www.w3.org/2000/svg">
<g style="mix-blend-mode:soft-light" opacity="0.6">
<path d="M209.691 102.224L208.318 101.652C208.059 101.536 183.467 90.5145 187.5 52.5323L187.737 50.2528L189.547 51.5115C189.843 51.7121 217.966 71.5989 210.082 100.755L209.668 102.257L209.691 102.224ZM189.992 55.3656C187.77 84.4201 203.136 95.477 207.923 98.2067C212.835 76.2549 195.756 60.078 189.992 55.3656Z" fill="#E1E8EA"/>
<path d="M210.585 104.158L207.861 102.982C207.602 102.865 182.006 91.4042 186.201 52.3065L186.674 47.7476L190.291 50.2358C190.587 50.4363 219.516 71.1423 211.411 101.155L210.588 104.187L210.585 104.158ZM191.164 58.2423C190.251 81.8063 201.498 92.2723 206.973 95.9542C209.974 77.9084 197.518 64.0076 191.164 58.2423Z" fill="#E1E8EA"/>
<path d="M212.358 112.321L212.008 110.794C211.946 110.506 205.949 82.3992 237.097 65.1676L238.98 64.1373L239.072 66.4357C239.114 66.7858 240.449 102.926 213.74 111.855L212.358 112.321ZM236.363 68.9293C213.041 82.892 213.629 102.748 214.364 108.521C233.9 100.886 236.146 76.6844 236.363 68.9293Z" fill="#E1E8EA"/>
<path d="M211.387 114.187L210.683 111.105C210.62 110.816 204.427 81.5493 236.441 63.8561L240.181 61.7988L240.391 66.3924C240.433 66.7425 241.927 103.959 214.124 113.259L211.36 114.19L211.387 114.187ZM234.862 71.571C216.472 83.6855 215.1 99.5181 215.513 106.426C230.976 99.2305 234.208 80.416 234.862 71.571Z" fill="#E1E8EA"/>
<path d="M329.581 63.5148L326.965 62.7695L327.159 61.9166C327.44 60.668 327.695 59.4227 328.01 58.2293L328.097 57.8336C328.395 56.4943 328.715 55.1225 329.036 53.7507L331.656 54.5252C331.323 56.0169 330.99 57.5087 330.684 58.9972C330.304 60.5539 329.941 62.0198 329.608 63.5115L329.581 63.5148Z" fill="#E1E8EA"/>
<path d="M330.584 65.2871L325.328 63.8289L325.812 61.5783C326.09 60.3006 326.371 59.052 326.683 57.8294L326.751 57.4953C327.045 56.1268 327.365 54.755 327.689 53.4124L328.033 52.0081L333.246 53.5604L332.929 54.9614C332.593 56.424 332.26 57.9158 331.953 59.4043C331.551 60.9934 331.211 62.4268 330.878 63.9186L330.564 65.3487L330.584 65.2871ZM328.571 61.7139C328.801 60.7086 329.054 59.6708 329.33 58.6006C329.536 57.6277 329.762 56.5932 329.992 55.5879C329.802 56.47 329.584 57.3553 329.394 58.2374L329.307 58.633C329.027 59.6741 328.801 60.7086 328.575 61.7431L328.571 61.7139Z" fill="#E1E8EA"/>
<path d="M49.1971 288.756C40.1558 289.864 25.7617 287.838 11.1684 270.231L9.7358 268.512L11.7491 267.88C12.0629 267.782 43.8482 257.964 59.0664 283.993L59.8569 285.347L58.5873 286.065C58.5873 286.065 54.925 288.083 49.1739 288.788L49.1971 288.756ZM14.7387 270.119C33.3384 291.173 50.9903 286.108 55.9545 284.078C43.829 265.34 21.6879 268.557 14.7387 270.119Z" fill="#E1E8EA"/>
<path d="M49.3804 290.214C39.6704 291.404 24.9926 289.057 10.1764 271.182L7.30767 267.713L11.3572 266.418C11.6978 266.317 44.5157 256.283 60.2193 283.17L61.7966 285.849L59.2307 287.289C59.2307 287.289 55.4988 289.405 49.3465 290.159L49.3804 290.214ZM13.4969 270.804C22.085 280.619 30.5037 285.065 37.7625 286.693C30.6375 285.049 22.2633 280.745 13.7502 271.099L13.4969 270.804ZM17.4917 271.055C33.0921 287.354 47.6579 285.243 53.7439 283.283C43.141 268.77 25.5502 269.682 17.4917 271.055Z" fill="#E1E8EA"/>
<path d="M382.47 236.151L380.574 235.081C358.54 222.561 362.349 202.906 362.404 202.692L362.734 201.171L364.123 201.652C382.968 208.315 382.564 233.593 382.539 233.833L382.497 236.148L382.47 236.151ZM364.809 205.033C364.482 209.455 365.028 221.885 379.724 231.247C379.326 225.344 377.064 210.43 364.809 205.033Z" fill="#E1E8EA"/>
<path d="M383.741 238.513L379.945 236.342C356.919 223.263 361.001 202.509 361.059 202.324L361.688 199.256L364.47 200.248C384.168 207.22 383.85 233.643 383.855 233.909L383.741 238.513ZM378.567 232.188C378.776 232.34 378.981 232.463 379.213 232.583L379.064 232.482C378.916 232.382 378.742 232.285 378.593 232.185L378.567 232.188ZM366.092 207.274C366.215 212.263 368.047 221.011 378.072 228.37C377.223 222.107 374.527 212.074 366.092 207.274ZM364.981 203.531L365.27 203.673C366.476 204.207 367.612 204.837 368.649 205.539C367.525 204.789 366.301 204.11 364.985 203.56L364.981 203.531Z" fill="#E1E8EA"/>
<path d="M380.16 204.661C366.786 206.301 359.156 197.434 359.057 197.298L358.071 196.116L359.201 195.149C374.629 182.124 393.507 197.251 393.715 197.403L395.433 198.792L393.584 199.877C388.64 202.734 384.142 204.144 380.184 204.629L380.16 204.661ZM362.164 196.503C365.343 199.4 375.048 206.147 390.202 198.426C385.509 195.359 372.96 188.665 362.164 196.503Z" fill="#E1E8EA"/>
<path d="M380.332 206.121C366.289 207.842 358.152 198.387 358.057 198.28L356.084 195.916L358.348 194.01C374.514 180.361 394.284 196.12 394.492 196.272L397.928 199.049L394.226 201.19C389.535 203.897 384.853 205.567 380.332 206.121ZM364.564 196.653C368.412 199.468 376.03 202.917 387.131 198.24C381.914 195.326 372.83 191.879 364.564 196.653Z" fill="#E1E8EA"/>
<path d="M-51.4528 350.661C-51.961 350.724 -52.1501 350.51 -52.407 350.186L-52.721 349.84L-55.0564 329.013L-54.8283 328.659C-53.9959 327.254 -49.5913 320.437 -37.5909 315.116C-26.8136 310.894 -15.5197 310.664 -4.60387 310.451C2.6811 310.299 10.2104 310.146 17.4861 308.81C35.3329 305.557 52.1211 298.761 67.3871 288.628C79.7896 280.386 91.2927 270.123 101.547 258.087C110.717 247.399 119.013 235.337 126.868 221.227C132.057 211.945 136.969 202.4 141.699 193.144C143.584 189.478 145.447 185.844 147.359 182.175C153.681 170.178 160.81 156.571 169.238 143.812C173.393 137.173 178.205 131.016 182.324 125.862C186.795 120.695 192.047 114.81 197.902 109.858L200.017 108.059C200.529 107.582 201.891 106.29 203.503 106.595C204.997 106.827 206.1 108.291 206.07 110.041C206.04 111.348 205.388 112.227 204.901 112.909C204.785 113.071 204.669 113.233 204.554 113.396C202.329 116.511 200.12 119.536 197.874 122.476C195.723 125.523 193.514 128.548 191.302 131.543C190.097 133.231 188.895 134.947 187.667 136.667C186.713 137.968 185.79 139.296 184.84 140.626C174.403 155.379 167.473 167.066 162.385 178.498C161.56 180.405 160.768 182.367 159.977 184.33C159.393 185.764 158.812 187.227 158.201 188.664C157.475 190.5 156.787 192.42 156.1 194.34C155.549 195.829 154.998 197.318 154.451 198.836C152.066 205.287 149.398 211.655 146.144 219.22C144.481 223.155 142.537 227.005 140.671 230.61L140.453 231.051C139.886 232.187 139.316 233.293 138.715 234.373C137.885 236.015 137.031 237.689 136.201 239.33L136.022 239.648C135.183 240.995 134.363 242.28 133.577 243.62C133.008 244.519 132.486 245.353 131.964 246.187C131.418 247.053 130.85 247.952 130.277 248.821C129.914 249.399 129.55 249.977 129.16 250.557C133.175 247.43 137.206 244.212 141.177 240.941C144.382 238.298 147.638 235.619 150.76 232.956C152.093 231.875 153.4 230.797 154.68 229.722C154.973 229.449 155.295 229.202 155.641 228.923C161.612 223.809 167.626 218.6 173.59 213.428L174.278 212.84C174.766 212.395 175.305 211.915 175.847 211.463L176.216 211.151C176.731 210.703 177.223 210.288 177.738 209.84L178.081 209.531C178.446 209.19 178.812 208.849 179.177 208.508C183.604 204.531 187.713 200.178 191.707 195.987C193.39 194.211 195.073 192.436 196.786 190.686C197.533 189.913 198.307 189.137 199.061 188.423C199.373 188.089 199.735 187.719 200.13 187.403L200.419 187.102C201.143 186.361 201.87 185.65 202.655 184.962L203.486 184.209C204.07 183.663 204.655 183.118 205.297 182.595C205.467 182.426 205.782 182.121 206.055 181.91C207.244 180.757 208.711 179.66 210.102 178.601L211.42 177.61C212.138 177.048 212.833 176.519 213.589 176.041C214.042 175.749 214.549 175.45 215.005 175.187C215.834 174.641 216.644 174.157 217.387 173.799L218.96 172.896C219.627 172.577 220.221 172.327 220.791 172.109L224.427 170.538C225.465 170.144 226.422 169.76 227.464 169.396C227.824 169.233 228.238 169.064 228.685 168.95L229.076 168.813C229.987 168.494 230.898 168.175 231.813 167.885C232.858 167.55 233.903 167.215 235.001 166.873C235.522 166.691 236.073 166.534 236.624 166.378C237.121 166.228 237.619 166.078 238.116 165.928C238.407 165.863 238.56 165.785 238.744 165.733C240.741 165.192 242.632 164.664 244.522 164.137C246.118 163.645 247.767 163.147 249.42 162.677L255.724 160.72C256.669 160.456 257.553 160.141 258.461 159.793C259.399 159.47 260.333 159.119 261.21 158.745L261.651 158.573C262.275 158.348 262.896 158.094 263.513 157.811C263.746 157.724 263.873 157.649 264.026 157.571C264.696 157.281 265.214 157.07 265.7 156.833L266.367 156.514C269.901 153.89 303.454 128.368 320.292 85.2038L320.372 85.194C320.372 85.194 320.5 84.9117 320.536 84.7593C320.657 84.4187 320.778 84.0781 320.9 83.7376L320.846 83.7441C321.183 82.7257 321.466 81.7138 321.78 80.7278C322.129 79.5894 322.478 78.451 322.85 77.2801C323.83 74.1989 324.769 71.0042 325.711 67.8387C326.175 66.3014 326.531 64.7772 326.864 63.2854L326.944 63.2755C327.737 60.2173 328.485 57.0164 329.185 53.6438L329.07 53.5985C329.416 51.9868 329.765 50.4042 330.107 48.7633C330.431 46.9765 330.744 45.1022 331.031 43.2312C331.252 41.9309 331.442 40.6046 331.69 39.301C332.197 36.1296 332.704 32.9583 333.104 29.8C333.346 28.2306 333.562 26.6644 333.747 25.0723C333.823 24.5892 333.857 24.2001 333.891 23.811C333.924 23.4219 333.962 23.062 334.022 22.6696L334.558 17.5109C334.62 16.911 334.709 16.3079 334.718 15.7146C334.824 14.8132 334.918 14.0317 334.963 13.286C334.945 13.1402 334.993 12.8677 335.022 12.657L335.151 11.279C335.133 11.1331 335.182 10.8607 335.287 10.6109C335.848 7.87715 338.16 5.69861 340.435 5.65659C342.016 5.69981 343.216 6.85556 343.552 8.70952C345.37 18.2288 345.748 28.8425 344.673 40.2266L344.639 40.6157C344.591 41.3323 344.548 41.8705 344.495 42.3212C344.232 44.6039 343.945 46.9191 343.628 49.2084L343.434 50.5055C343.378 50.927 343.274 51.4134 343.198 51.8966L343.009 53.0153C342.952 53.4369 342.849 53.9233 342.746 54.4098C342.601 55.227 342.505 55.7717 342.382 56.3198C342.29 56.8938 342.17 57.471 342.028 58.0807L341.697 59.8091C341.652 60.1107 341.581 60.4155 341.51 60.7204C341.458 60.9636 341.383 61.2393 341.335 61.5117L341.309 61.5149C341.166 62.1246 341.024 62.7343 340.881 63.344C340.869 63.464 340.833 63.6164 340.801 63.798L340.941 64.9357L340.486 64.9915L339.105 70.3427C338.794 71.5653 338.428 72.7945 338.056 73.9654C338.07 74.0821 337.949 74.4227 337.855 74.76L337.447 76.0833C337.313 76.5438 337.153 77.0076 336.992 77.4715L334.984 83.4622C334.879 83.7119 334.821 83.8968 334.789 84.0784L334.539 84.7012C334.539 84.7012 334.457 84.9186 334.418 85.0418L333.431 87.6205C332.958 88.8629 332.46 90.1085 331.961 91.3541C331.039 93.8063 329.961 96.3073 329.106 98.1889C327.801 101.28 326.424 104.44 324.966 107.609L324.725 108.083C324.725 108.083 324.64 108.271 324.597 108.365L324.625 108.599L324.274 109.056C323.054 111.723 321.747 114.577 320.307 117.449C320.222 117.637 320.116 117.887 319.981 118.11L320.068 118.159L319.653 118.98C319.347 119.58 319.04 120.18 318.79 120.803L317.432 123.457C314.488 129.118 312.109 133.407 309.248 138.2C306.677 142.483 303.677 147.025 300.086 152.055C299.847 152.322 299.731 152.484 299.611 152.617C299.472 152.812 299.303 152.98 299.137 153.178L298.278 154.142C297.8 154.675 297.322 155.207 296.818 155.743C296.406 156.149 295.921 156.623 295.698 156.798C295.559 156.993 295.194 157.334 294.851 157.642L293.559 158.837C293.274 159.168 292.904 159.48 292.512 159.824C289.624 161.955 286.955 163.881 284.255 165.781L283.499 166.259C280.825 167.919 278.047 169.621 275.274 171.146C273.752 172.013 272.195 172.826 270.631 173.58C269.301 174.247 267.941 174.887 266.543 175.444C266.393 175.551 266.056 175.681 265.745 175.808L263.37 176.81C262.416 177.223 261.466 177.665 260.498 177.961L255.687 179.469C253.463 180.156 251.279 180.72 249.094 181.284L245.073 182.369C242.238 183.16 239.456 183.946 236.688 184.847L235.784 185.225C234.547 185.761 233.279 186.272 232.038 186.779L228.969 188.103L227.543 188.87C222.231 191.831 216.939 196.063 211.345 201.812C208.188 205.071 205.193 208.103 202.29 211.005C207.408 208.898 212.727 206.884 218.093 205.249C221.561 204.083 225.741 202.742 229.929 201.696C233.863 200.562 237.772 199.668 241.761 198.765C250.103 196.824 258.356 195.487 265.336 194.395C267.044 194.156 268.703 193.952 270.388 193.746C272.608 193.474 274.801 193.205 276.984 192.849C279.001 192.69 280.907 192.516 282.844 192.367C284.777 192.19 286.737 192.009 288.65 191.892C296.198 191.441 303.962 190.993 311.55 191.099C315.185 191.068 318.971 191.167 322.748 191.415C325.527 191.489 328.3 191.741 330.962 191.977L333.762 192.226C336.009 192.395 338.194 192.719 340.322 193.021C341.733 193.233 343.14 193.416 344.547 193.599C345.767 193.805 346.906 194.021 348.049 194.265L349.829 194.61C350.416 194.745 350.969 194.825 351.525 194.935L352.44 195.089C353.295 195.192 354.126 195.771 354.554 196.607C355.016 197.498 355.011 198.564 354.541 199.599C354.088 201.224 351.883 202.945 350.308 202.724L347.594 202.731C345.723 202.753 343.822 202.749 341.948 202.742C339.363 202.703 336.76 202.726 334.16 202.778L330.666 202.851C326.868 202.873 323.126 202.917 319.299 203.149C317.764 203.248 316.221 203.289 314.678 203.33C312.433 203.398 310.108 203.476 307.8 203.7C306.054 203.854 304.332 203.977 302.579 204.073C300.478 204.212 298.374 204.322 296.257 204.552C292.344 204.972 288.458 205.389 284.565 205.748C280.701 206.34 276.78 206.909 272.824 207.424C270.604 207.696 268.298 208.156 266.073 208.607C264.375 208.933 262.708 209.286 261.03 209.55C258.392 209.963 255.653 210.654 252.995 211.335C251.759 211.664 250.493 211.967 249.253 212.267L246.484 212.932C245.428 213.18 244.346 213.431 243.29 213.679C242.322 213.975 241.277 214.311 240.259 214.643C239.291 214.939 238.326 215.265 237.384 215.558C233.194 216.812 229.424 217.955 225.648 219.484L222.918 220.47C219.824 221.589 216.883 222.631 213.906 224.032C212.722 224.562 211.534 225.063 210.35 225.593C207.695 226.748 204.937 227.945 202.283 229.336C200.926 230.005 199.596 230.672 198.262 231.309C195.802 232.499 193.264 233.728 190.829 235.122C183.023 239.218 175.45 243.67 168.368 247.913C167.305 248.547 166.242 249.181 165.153 249.818C163.86 250.568 162.571 251.348 161.309 252.125C161.236 252.193 161.056 252.274 160.879 252.385L160.599 252.537C154.36 256.352 140.148 266 134.332 269.941L133.956 270.194C133.583 270.477 133.214 270.788 132.811 271.045C131.028 272.448 129.192 273.858 127.329 275.27C124.697 277.281 121.935 279.337 119.402 281.483C114.898 285.056 110.384 288.54 105.893 291.993C102.232 294.692 98.6324 297.443 95.0825 300.158L92.2781 302.308C67.0083 320.981 40.1722 332.413 12.5439 336.273C7.15125 337.023 1.70674 337.128 -3.57731 337.213C-9.53726 337.321 -15.7148 337.427 -21.6673 338.482C-26.4232 339.332 -31.4375 340.953 -36.9937 343.47C-37.484 343.678 -39.647 344.861 -41.9097 346.116C-48.3215 349.626 -50.4843 350.809 -51.4473 350.927L-51.4528 350.661ZM-52.4239 330.112L-50.3392 347.119C-48.5259 346.187 -45.4233 344.474 -43.1571 343.248C-40.3577 341.721 -38.6013 340.765 -38.0611 340.521C-32.3248 337.923 -27.1269 336.25 -22.1569 335.374C-16.0207 334.267 -9.75934 334.18 -3.6924 334.058C1.53458 333.951 6.9292 333.882 12.1346 333.155C39.3617 329.344 65.784 318.081 90.7078 299.687L93.4893 297.57C97.0623 294.822 100.666 292.1 104.322 289.372C108.79 285.952 113.305 282.467 117.759 278.931C120.346 276.778 123.104 274.693 125.762 272.679C127.602 271.299 129.439 269.889 131.245 268.454C131.717 268.1 132.14 267.781 132.559 267.434L133.072 268.081L132.865 267.278C138.705 263.305 152.94 253.624 159.232 249.803C159.332 249.732 159.485 249.654 159.639 249.576L159.919 249.423C161.204 248.614 162.497 247.863 163.813 247.08C164.876 246.446 165.942 245.842 167.001 245.179C174.137 240.929 181.756 236.412 189.565 232.345C192.001 230.951 194.592 229.716 197.102 228.49C198.409 227.856 199.743 227.219 201.047 226.556C203.75 225.129 206.558 223.896 209.267 222.735C210.428 222.238 211.588 221.74 212.772 221.21C215.827 219.77 218.947 218.647 221.991 217.563L224.668 216.583C228.517 214.986 232.341 213.837 236.585 212.576C237.526 212.283 238.468 211.99 239.432 211.665C240.477 211.329 241.522 210.994 242.571 210.688C243.703 210.401 244.759 210.153 245.841 209.902L248.584 209.24C249.823 208.94 251.062 208.64 252.298 208.311C255.011 207.623 257.799 206.896 260.571 206.468C262.195 206.21 263.839 205.89 265.507 205.537C267.786 205.08 270.145 204.613 272.445 204.331C276.344 203.794 280.295 203.251 284.213 202.652C288.16 202.287 292.049 201.899 295.931 201.453C298.101 201.216 300.233 201.103 302.387 200.958C304.113 200.865 305.836 200.742 307.555 200.591C309.946 200.386 312.299 200.305 314.571 200.234C316.083 200.167 317.599 200.13 319.107 200.034C322.988 199.795 326.756 199.748 330.581 199.723L334.048 199.653C336.675 199.598 339.329 199.539 341.943 199.604C343.791 199.614 345.665 199.621 347.562 199.596L350.468 199.595C350.903 199.601 351.901 198.886 352.07 198.273C352.215 197.9 352.227 197.78 352.224 197.751L351.145 197.587C350.561 197.481 349.951 197.378 349.365 197.243L347.612 196.895C346.472 196.68 345.359 196.461 344.223 196.274C342.846 196.117 341.409 195.908 339.998 195.696C337.924 195.388 335.77 195.089 333.603 194.911L330.776 194.665C328.14 194.426 325.424 194.196 322.672 194.119C318.899 193.9 315.193 193.792 311.585 193.819C304.077 193.703 296.339 194.148 288.846 194.593C286.962 194.735 285.029 194.912 283.096 195.09C281.163 195.268 279.203 195.449 277.29 195.565C275.157 195.886 272.94 196.187 270.72 196.459C269.062 196.662 267.377 196.869 265.722 197.101C258.819 198.155 250.623 199.515 242.331 201.419C238.365 202.29 234.509 203.177 230.602 204.308C226.44 205.351 222.337 206.653 218.869 207.819C211.146 210.157 203.523 213.312 196.409 216.405L189.267 219.501L194.967 213.946C199.574 209.443 204.312 204.687 209.449 199.409C215.209 193.462 220.727 189.084 226.269 186.006L228.585 184.745L231.074 183.788C232.292 183.313 233.529 182.777 234.771 182.269L235.778 181.85C238.679 180.932 241.511 180.111 244.373 179.316L248.448 178.224C250.605 177.664 252.763 177.103 254.937 176.452L259.721 174.947C260.582 174.664 261.456 174.261 262.307 173.89L264.785 172.846C264.992 172.761 265.199 172.677 265.379 172.596C266.877 171.968 268.187 171.363 269.468 170.732C271.005 169.981 272.538 169.201 274.011 168.369C276.734 166.881 279.331 165.259 282.109 163.557L282.815 163.115C285.442 161.283 288.088 159.389 290.75 157.404C291.069 157.128 291.361 156.856 291.673 156.521L293.089 155.223C293.358 154.982 293.627 154.742 293.866 154.476C294.208 154.167 294.62 153.762 294.936 153.456C295.394 152.986 295.845 152.457 296.299 151.957L297.182 150.96C297.301 150.827 297.417 150.665 297.537 150.532C297.676 150.337 297.845 150.168 298.011 149.97C301.464 145.135 304.417 140.657 306.941 136.439C309.783 131.708 312.142 127.481 315.064 121.852L315.941 120.145L315.447 120.324L317.527 116.694C317.659 116.441 317.79 116.188 317.919 115.905C319.405 112.969 320.711 110.115 321.929 107.419L322.041 107.227C322.146 106.978 322.278 106.725 322.387 106.504L322.584 106.124C324.046 102.984 325.4 99.8571 326.705 96.7657C327.533 94.8874 328.619 92.4447 329.517 90.025C330.016 88.7794 330.488 87.537 330.987 86.2914L332.274 83.0541C332.341 82.7201 332.42 82.4736 332.525 82.2238L334.513 76.2948C334.677 75.8601 334.811 75.3996 334.948 74.9682L335.36 73.6741C335.415 73.46 335.497 73.2427 335.525 73.0319C335.933 71.7086 336.279 70.5411 336.571 69.38L338.033 63.8115C338.033 63.8115 338.081 63.5391 338.137 63.3251L338.397 62.3456C338.614 61.4603 338.792 60.6982 338.936 59.881L338.963 59.8777L338.956 59.8193C339.034 59.5728 339.109 59.2972 339.157 59.0248L339.508 57.2347C339.65 56.6251 339.746 56.0803 339.839 55.5063C339.962 54.9582 340.035 54.4459 340.135 53.9303L340.202 53.5963C340.309 53.139 340.4 52.7725 340.434 52.3835L340.635 51.1447C340.715 50.6907 340.795 50.2368 340.852 49.8152L341.066 48.4565C341.35 46.3488 341.61 44.0369 341.896 41.7218C341.957 41.3294 341.987 40.9111 341.998 40.5545C342.007 40.4054 342.012 40.2271 342.047 40.0746L342.092 39.7731C343.123 28.6905 342.784 18.3977 341.025 9.13768C340.92 8.49916 340.702 8.49622 340.565 8.48343C339.721 8.46838 338.314 9.61797 338.026 11.2523L337.759 13.5059C337.692 14.2841 337.604 15.1239 337.517 15.9636C337.505 16.5278 337.423 17.1892 337.342 17.8507L337.288 18.3014C337.247 18.6322 337.238 18.7813 337.226 18.9013L336.81 23.0386C336.749 23.431 336.708 23.7617 336.698 24.1184C336.644 24.5691 336.621 25.0457 336.541 25.4997C336.353 27.0626 336.141 28.6579 335.903 30.2566C335.687 31.8227 335.476 33.4181 335.21 35.02L335.237 35.0167C334.687 39.1705 333.956 43.613 333.044 48.581L333.017 48.5843C332.969 48.8567 332.921 49.129 332.873 49.4014C332.818 49.6155 332.789 49.8263 332.731 50.0111L332.784 50.0046C331.666 55.9454 330.446 61.2769 329.06 66.3623L329.033 66.3656C328.829 67.1309 328.624 67.8963 328.396 68.6942L328.449 68.6876C326.964 74.2886 325.198 80.0423 323.158 85.7704C322.981 86.3251 322.732 86.9479 322.479 87.5415C321.978 88.9946 321.331 90.5841 320.444 92.6472L320.269 92.5502C302.491 132.691 271.396 156.342 267.759 159.008L266.889 159.441C266.349 159.685 265.808 159.928 265.264 160.143C265.165 160.215 264.885 160.367 264.598 160.462C264.031 160.709 263.357 160.969 262.709 161.226L262.319 161.363C261.418 161.769 260.43 162.127 259.466 162.453C258.531 162.804 257.57 163.159 256.598 163.426L250.295 165.383C248.669 165.849 247.019 166.347 245.396 166.842C243.456 167.406 241.566 167.934 239.646 168.436C239.489 168.484 239.228 168.576 238.964 168.638C238.547 168.778 238.023 168.931 237.499 169.084C236.974 169.237 236.45 169.39 235.929 169.572C234.831 169.914 233.782 170.22 232.741 170.585C231.853 170.871 230.969 171.187 230.057 171.506L229.64 171.646C229.25 171.783 228.909 171.884 228.576 172.043C227.511 172.44 226.55 172.795 225.566 173.182L221.957 174.749C221.416 174.993 220.846 175.211 220.305 175.455L218.733 176.358C217.962 176.719 217.23 177.165 216.527 177.636C216.021 177.935 215.541 178.23 215.111 178.49C214.432 178.929 213.787 179.422 213.141 179.916L211.801 180.939C210.456 181.933 209.092 182.989 207.903 184.141C207.607 184.385 207.388 184.589 207.192 184.761C206.503 185.349 205.969 185.859 205.407 186.372L204.553 187.158C203.795 187.843 203.118 188.518 202.417 189.226L202.055 189.596C201.663 189.94 201.397 190.209 201.085 190.544C200.281 191.294 199.531 192.037 198.807 192.777C197.121 194.524 195.438 196.299 193.751 198.046C189.738 202.298 185.552 206.691 181.102 210.701C180.763 211.038 180.371 211.382 179.982 211.756L179.64 212.064C179.102 212.545 178.586 212.993 178.071 213.441L177.729 213.749C177.214 214.197 176.675 214.678 176.187 215.123L175.475 215.743C169.512 220.916 163.471 226.127 157.45 231.277C157.101 231.528 156.828 231.739 156.559 231.979C155.229 233.09 153.899 234.2 152.588 235.249C149.467 237.912 146.238 240.588 143.005 243.234C136.717 248.417 130.277 253.47 123.946 258.303L115.598 264.627L122.131 256.127C122.695 255.407 123.198 254.634 123.673 253.865C124.438 252.794 125.176 251.727 125.837 250.698C126.158 250.215 126.502 249.699 126.85 249.212C127.333 248.501 127.789 247.794 128.246 247.086C128.814 246.188 129.36 245.321 129.905 244.455C130.451 243.589 130.973 242.755 131.518 241.888C132.308 240.577 133.124 239.263 133.964 237.917C134.864 236.178 135.718 234.504 136.568 232.801C137.195 231.717 137.739 230.614 138.286 229.54L138.527 229.066C140.343 225.498 142.267 221.708 143.914 217.864C147.172 210.329 149.82 204.023 152.183 197.604C152.733 196.115 153.284 194.626 153.808 193.14C154.519 191.188 155.206 189.268 155.951 187.37C156.559 185.904 157.144 184.47 157.728 183.036C158.516 181.045 159.334 179.079 160.178 177.11C165.348 165.461 172.371 153.644 182.924 138.729C183.874 137.399 184.824 136.068 185.748 134.741C186.979 133.05 188.181 131.333 189.382 129.617C191.618 126.589 193.826 123.564 195.978 120.517C198.22 117.548 200.433 114.552 202.588 111.534C202.677 111.375 202.843 111.177 202.982 110.983C203.356 110.493 203.561 110.171 203.575 109.844C203.561 109.727 203.529 109.465 203.334 109.429C203.14 109.394 202.773 109.498 201.972 110.277L199.811 112.141C194.102 116.957 188.947 122.741 184.572 127.808C180.518 132.835 175.78 138.924 171.668 145.468C163.313 158.159 156.2 171.675 149.928 183.637C148.039 187.274 146.149 190.911 144.29 194.573C139.533 203.833 134.598 213.41 129.413 222.721C121.473 237.02 113.088 249.24 103.771 260.065C93.3477 272.269 81.6753 282.702 69.0464 291.09C53.504 301.405 36.4056 308.327 18.2146 311.652C10.7249 313.014 3.08864 313.18 -4.27657 313.343C-15.4599 313.588 -26.0477 313.82 -36.3614 317.838C-47.4113 322.716 -51.447 328.778 -52.2366 330.089L-52.4239 330.112Z" fill="#E1E8EA"/>
<path d="M-51.2531 352.117C-52.4301 352.261 -53.0313 351.565 -53.3756 351.193L-54.0071 350.471L-56.4446 328.591L-55.9187 327.786C-54.7958 325.872 -50.0666 319.044 -38.0894 313.756C-27.025 309.439 -15.6242 309.196 -4.62808 308.974C2.60338 308.828 10.0756 308.652 17.2746 307.355C34.961 304.121 51.5922 297.375 66.7084 287.349C79.0111 279.179 90.4143 268.987 100.599 257.049C109.723 246.425 117.949 234.461 125.758 220.415C130.923 211.165 135.812 201.653 140.546 192.426C142.455 188.728 144.34 185.062 146.23 181.425C152.571 169.366 159.724 155.727 168.171 142.906C172.349 136.235 177.18 130.017 181.353 124.856C185.897 119.621 191.196 113.671 197.101 108.683L199.215 106.884C199.723 106.378 201.474 104.712 203.753 105.143C205.885 105.474 207.504 107.615 207.453 110.079C207.401 111.862 206.543 113.063 206.007 113.78L205.705 114.202C203.434 117.382 201.226 120.407 198.983 123.376C196.855 126.391 194.623 129.448 192.411 132.443C191.232 134.128 190.001 135.818 188.799 137.535C187.845 138.836 186.922 140.164 185.972 141.494C175.581 156.182 168.694 167.775 163.649 179.112C162.89 180.893 162.138 182.733 161.412 184.569L161.264 184.912C160.664 186.437 160.076 187.842 159.488 189.246C158.828 190.956 158.18 192.752 157.508 194.582L157.227 195.386C156.738 196.719 156.25 198.053 155.762 199.386C153.356 205.899 150.689 212.267 147.408 219.835C145.726 223.831 143.754 227.685 141.892 231.319L141.674 231.76C141.065 232.99 140.494 234.096 139.894 235.176L137.151 240.487C136.331 241.772 135.584 242.989 134.814 244.238C136.67 242.767 138.496 241.27 140.321 239.773C143.527 237.13 146.756 234.454 149.881 231.82C151.242 230.735 152.545 229.628 153.829 228.582C154.098 228.342 154.467 228.03 154.84 227.748C160.737 222.702 166.751 217.493 172.715 212.321L173.403 211.733C173.892 211.288 174.433 210.837 174.945 210.36L175.314 210.048C175.83 209.6 176.322 209.184 176.81 208.739L177.126 208.434C177.491 208.093 177.833 207.785 178.199 207.444C182.676 203.43 186.735 199.113 190.702 194.926C192.385 193.15 194.068 191.374 195.777 189.595C196.551 188.819 197.352 188.04 198.102 187.297C198.391 186.995 198.799 186.56 199.218 186.212L199.411 186.011C200.161 185.268 200.912 184.524 201.693 183.807L202.497 183.057C203.131 182.475 203.713 181.901 204.355 181.378C204.424 181.281 204.843 180.933 205.162 180.657C206.301 179.54 207.792 178.41 209.209 177.348L210.527 176.357C211.272 175.792 212.018 175.227 212.797 174.717C213.25 174.425 213.806 174.09 214.262 173.827C215.065 173.284 215.928 172.794 216.721 172.4L218.217 171.536C218.987 171.175 219.581 170.924 220.148 170.677L223.811 169.103C224.872 168.677 225.86 168.319 226.897 167.925C227.204 167.769 227.698 167.59 228.169 167.444L228.506 167.314C229.444 166.991 230.351 166.643 231.296 166.379C232.341 166.044 233.386 165.709 234.485 165.367C234.979 165.188 235.53 165.031 236.107 164.872C236.578 164.725 237.076 164.575 237.573 164.426C237.864 164.36 237.994 164.315 238.098 164.272C240.252 163.683 242.115 163.158 244.005 162.63C245.471 162.184 246.99 161.731 248.483 161.282L255.181 159.217C256.099 158.957 256.957 158.644 257.837 158.3C258.802 157.974 259.687 157.658 260.534 157.258L261.051 157.047C261.648 156.826 262.269 156.572 262.862 156.322C263.069 156.237 263.146 156.198 263.249 156.156C264.05 155.821 264.51 155.587 264.974 155.382L265.694 155.057C269.197 152.406 302.388 126.811 318.925 84.5125L319.433 83.1178C319.753 82.1901 320.044 81.2366 320.308 80.2863C320.692 78.9955 321.065 77.8246 321.441 76.6829C322.397 73.6341 323.34 70.4686 324.282 67.3032C324.722 65.7983 325.082 64.3032 325.419 62.8406L325.759 61.4072L325.873 61.4524C326.418 59.2536 326.956 56.9964 327.453 54.6259L327.632 53.2121C327.978 51.6004 328.323 49.9886 328.692 48.3444C328.996 46.6193 329.313 44.7742 329.6 42.9031C329.821 41.6028 330.038 40.2733 330.255 38.9438C330.762 35.7724 331.246 32.6335 331.677 29.5011C331.915 27.9025 332.111 26.398 332.296 24.8059C332.373 24.3227 332.41 23.9628 332.424 23.6353C332.478 23.1846 332.508 22.7664 332.568 22.374L333.084 17.2769C333.15 16.7062 333.215 16.1355 333.254 15.5681C333.377 14.5759 333.445 13.7977 333.519 13.0779C333.519 13.0779 333.441 13.3244 333.614 12.2965L333.727 11.0092C333.695 10.7467 333.848 10.2245 333.927 9.97801C334.568 6.79025 337.338 4.141 340.293 4.10453C342.553 4.15331 344.303 5.80432 344.778 8.35188C346.618 18.0462 346.983 28.7799 345.899 40.3132L345.865 40.7022C345.817 41.4188 345.778 41.9862 345.705 42.4985C345.438 44.7521 345.152 47.0673 344.862 49.3533L344.672 50.6795C344.591 51.1335 344.515 51.6166 344.438 52.0998L344.25 53.2185C344.216 53.6076 344.089 54.1265 343.967 54.6746C343.842 55.4302 343.75 56.0041 343.627 56.5522C343.527 57.0678 343.415 57.7034 343.276 58.3422L342.937 60.0123C342.893 60.3139 342.799 60.6512 342.731 60.9852C342.66 61.29 342.605 61.5041 342.572 61.6857L342.309 63.0801L342.202 63.0932C342.14 63.2489 342.108 63.4305 342.049 63.6154C342.049 63.6154 342.045 63.5862 342.04 63.7645L342.319 66.04L341.409 66.1515L340.25 70.6465C339.934 71.84 339.596 73.0659 339.224 74.2368C339.195 74.4476 339.12 74.7232 338.983 75.1546L338.575 76.4779C338.415 76.9417 338.285 77.4314 338.124 77.8953L336.139 83.8535C336.038 84.1325 336.002 84.2849 335.936 84.4114L334.566 88.0735C334.008 89.504 333.552 90.6555 333.1 91.8362C332.159 94.3501 331.015 96.9776 330.225 98.7326C328.917 101.795 327.543 104.984 326.089 108.182L325.331 109.756C324.285 112.075 323.018 114.807 321.664 117.49L320.726 119.588C320.4 120.25 320.14 120.786 319.883 121.35L318.479 124.069C315.538 129.759 313.132 134.052 310.225 138.909C307.631 143.224 304.608 147.8 300.993 152.862L300.542 153.391C300.307 153.686 300.141 153.884 299.948 154.086L299.089 155.05C298.611 155.582 298.11 156.147 297.606 156.683C297.221 157.085 296.755 157.497 296.486 157.738C296.274 158.001 295.982 158.273 295.566 158.65L294.274 159.845C294.035 160.111 293.619 160.488 293.204 160.864C290.242 163.063 287.55 165.022 284.847 166.893L284.041 167.406C281.34 169.07 278.566 170.802 275.766 172.329C274.243 173.197 272.66 174.013 271.07 174.77C269.713 175.44 268.325 176.084 266.904 176.673C266.904 176.673 266.494 176.871 266.08 177.04L263.759 178.035C262.782 178.481 261.801 178.897 260.81 179.226L255.972 180.737C253.748 181.424 251.537 181.991 249.326 182.558L245.305 183.643C242.496 184.432 239.714 185.217 236.97 186.086L235.886 186.545C234.725 187.042 233.564 187.54 232.396 187.979L228.005 190.028C222.819 192.914 217.628 197.074 212.129 202.722C210.732 204.167 209.357 205.579 208.006 206.959C211.406 205.683 214.53 204.59 217.542 203.688C221.01 202.522 225.19 201.181 229.432 200.128C233.366 198.994 237.275 198.101 241.291 197.194C249.66 195.25 257.936 193.88 264.946 192.814C266.681 192.572 268.366 192.365 270.051 192.158C272.245 191.89 274.438 191.621 276.621 191.264C278.718 191.096 280.655 190.948 282.561 190.773C284.521 190.592 286.454 190.415 288.394 190.295C295.941 189.844 303.76 189.389 311.405 189.518C315.066 189.484 318.856 189.612 322.656 189.827C325.381 189.907 328.097 190.137 330.729 190.347L333.693 190.606C335.998 190.797 338.289 191.109 340.337 191.42C341.885 191.645 343.212 191.838 344.535 192.001C345.839 192.227 346.978 192.442 348.121 192.687L349.901 193.031C350.404 193.148 350.873 193.208 351.346 193.299L352.512 193.511C353.752 193.655 354.97 194.513 355.613 195.766C356.289 197.075 356.295 198.674 355.657 200.114C355.104 202.254 352.262 204.32 350.058 204.057L347.508 204.074C345.641 204.125 343.736 204.092 341.835 204.088C339.251 204.049 336.651 204.102 334.077 204.151L330.584 204.223C326.759 204.248 323.044 204.289 319.27 204.514C317.708 204.617 316.166 204.658 314.623 204.699C312.351 204.77 310.079 204.841 307.825 205.059C306.079 205.213 304.326 205.31 302.55 205.439C300.476 205.574 298.375 205.713 296.281 205.911C292.369 206.331 288.483 206.748 284.59 207.107C280.806 207.689 276.858 208.262 272.903 208.776C270.709 209.045 268.43 209.502 266.232 209.949C264.404 210.321 262.759 210.641 261.135 210.9C258.524 211.308 255.839 211.993 253.207 212.671C251.944 213.003 250.705 213.303 249.439 213.607L246.352 214.34C245.403 214.575 244.451 214.78 243.502 215.015C242.588 215.305 241.566 215.608 240.548 215.94C239.579 216.236 238.615 216.562 237.646 216.858C233.452 218.083 229.713 219.252 226.017 220.771L223.237 221.793C220.17 222.909 217.256 223.947 214.328 225.313C213.117 225.846 211.933 226.376 210.746 226.877C208.117 228.028 205.382 229.193 202.783 230.577C201.402 231.28 200.069 231.917 198.738 232.583C196.305 233.77 193.79 234.966 191.381 236.357C183.575 240.453 176.003 244.905 168.947 249.145C167.934 249.743 166.922 250.341 165.913 250.968C164.443 251.829 163.177 252.577 161.915 253.353C161.915 253.353 161.662 253.503 161.409 253.652L161.182 253.798C155.02 257.574 140.958 267.115 135.092 271.091L135.8 273.995L134.093 271.806C133.893 271.949 133.72 272.088 133.521 272.231C131.788 273.599 129.925 275.011 128.061 276.424C125.426 278.405 122.718 280.455 120.181 282.572C115.65 286.148 111.113 289.665 106.622 293.117C102.938 295.849 99.3615 298.567 95.8117 301.283L93.0072 303.433C67.5378 322.248 40.5217 333.762 12.6793 337.648C7.04594 338.428 1.3838 338.529 -3.60244 338.607C-9.50888 338.71 -15.6026 338.835 -21.5052 339.854C-26.1541 340.691 -31.0882 342.302 -36.5177 344.744C-37.0045 344.982 -39.8306 346.512 -41.3569 347.351C-48.2788 351.131 -50.135 352.158 -51.3387 352.305L-51.2531 352.117ZM-40.3809 343.352C-41.0175 343.697 -41.7539 344.113 -42.517 344.532C-44.3233 345.523 -46.6626 346.817 -48.4492 347.746C-46.996 346.976 -45.0365 345.907 -42.517 344.532C-41.704 344.077 -40.9907 343.693 -40.3809 343.352ZM-51.0012 330.47L-49.2384 344.852C-47.532 343.933 -45.4191 342.785 -43.7662 341.872C-40.6637 340.159 -39.1605 339.353 -38.5703 339.074C-32.7306 336.433 -27.4561 334.721 -22.3791 333.832C-16.1359 332.711 -9.82461 332.589 -3.72734 332.493C1.47289 332.389 6.89063 332.287 11.9623 331.577C38.9754 327.792 65.2176 316.61 89.965 298.327L92.7464 296.21C96.3461 293.459 99.9191 290.711 103.606 288.009C108.048 284.592 112.562 281.107 117.019 277.6C119.606 275.447 122.365 273.362 125.046 271.316C126.886 269.935 128.722 268.526 130.505 267.123C130.828 266.876 131.101 266.665 131.374 266.454L131.497 266.35C131.497 266.35 131.696 266.207 131.766 266.11L132.777 265.275L132.875 265.411C139.064 261.188 152.477 252.111 158.589 248.372C158.662 248.303 158.866 248.19 159.072 248.105L159.299 247.959C160.535 247.186 161.827 246.435 163.143 245.652L163.473 245.463C164.436 244.901 165.399 244.339 166.358 243.748C173.517 239.465 181.189 234.941 188.999 230.875C191.411 229.513 193.972 228.252 196.459 227.059C197.87 226.382 199.204 225.745 200.507 225.082C203.233 223.623 206.072 222.416 208.804 221.222C209.965 220.725 211.125 220.227 212.283 219.7C215.391 218.254 218.538 217.127 221.551 216.018L224.228 215.038C228.054 213.474 231.928 212.288 236.225 211.021C237.113 210.735 238.028 210.445 238.916 210.158L239.36 210.015C240.301 209.722 241.243 209.429 242.184 209.136C243.37 208.843 244.453 208.591 245.535 208.34L248.278 207.679C249.387 207.424 250.493 207.141 251.598 206.857L251.965 206.753C254.544 206.081 257.493 205.335 260.345 204.897C261.943 204.641 263.587 204.322 265.227 203.972C267.533 203.512 269.919 203.042 272.246 202.757C276.145 202.22 280.043 201.683 283.961 201.084C287.987 200.709 291.85 200.324 295.732 199.878C297.902 199.642 300.087 199.522 302.241 199.376C303.968 199.283 305.663 199.164 307.356 199.016C309.801 198.805 312.26 198.711 314.452 198.65L314.773 198.61C316.155 198.589 317.56 198.535 318.962 198.452C322.896 198.207 326.668 198.189 330.52 198.161L333.96 198.095C336.613 198.036 339.267 197.977 341.881 198.042C343.267 198.049 344.679 198.054 346.092 198.059C345.398 197.936 344.701 197.785 344.007 197.663C342.687 197.528 341.25 197.32 339.809 197.082C337.845 196.789 335.634 196.468 333.497 196.315L330.671 196.07C328.008 195.833 325.319 195.6 322.62 195.517C318.873 195.295 315.168 195.186 311.56 195.214C304.052 195.098 296.344 195.569 288.904 196.007C287.048 196.146 285.115 196.323 283.208 196.498C281.249 196.679 279.316 196.856 277.375 196.976C275.349 197.283 273.106 197.588 270.859 197.863C269.201 198.067 267.542 198.27 265.887 198.502C259.011 199.552 250.842 200.909 242.603 202.807C238.851 203.652 234.862 204.555 230.929 205.689C226.767 206.732 222.69 208.031 219.249 209.193C211.579 211.525 203.983 214.677 196.892 217.737L182.636 223.926L194.035 212.817C198.619 208.346 203.357 203.59 208.494 198.312C214.354 192.293 219.941 187.818 225.61 184.665L227.953 183.401L230.568 182.37C231.656 181.94 232.74 181.482 233.851 181.02L235.246 180.434C238.25 179.474 241.032 178.689 243.864 177.868L248.042 176.734C250.173 176.177 252.33 175.616 254.504 174.965L259.288 173.46C260.073 173.216 260.897 172.849 261.694 172.485L264.249 171.401C264.509 171.31 264.613 171.268 264.713 171.197C266.314 170.527 267.594 169.896 268.878 169.294C270.388 168.547 271.895 167.77 273.368 166.938C276.041 165.485 278.615 163.896 281.34 162.2L282.122 161.719C284.672 159.926 287.318 158.032 289.984 156.077C290.276 155.804 290.495 155.6 290.711 155.366L292.196 153.97C292.465 153.73 292.661 153.558 292.85 153.327C293.312 152.886 293.678 152.545 293.989 152.21C294.424 151.772 294.852 151.275 295.28 150.779L296.425 149.484C296.66 149.188 296.826 148.99 297.018 148.789C300.398 144.022 303.309 139.638 305.81 135.452C308.337 131.264 310.453 127.481 312.966 122.731L312.215 123.03L316.376 115.769C316.488 115.577 316.593 115.328 316.675 115.11C318.161 112.174 319.491 109.287 320.685 106.624C320.899 106.153 321.031 105.9 321.162 105.647L321.334 105.271C322.775 102.192 324.103 99.0685 325.411 96.0062C326.306 94.0015 327.321 91.6561 328.203 89.3271C328.702 88.0815 329.178 86.8684 329.627 85.6585L330.93 82.3304C330.958 82.1197 331.056 81.8115 331.181 81.5001L333.123 75.636C333.264 75.2338 333.378 74.8348 333.495 74.4651L333.923 73.0802C333.978 72.8661 334.018 72.7429 334.057 72.6196C334.524 71.1115 334.846 69.9763 335.142 68.8445L336.581 63.3084C336.581 63.3084 336.629 63.036 336.684 62.822L336.964 61.7809C337.162 60.9572 337.34 60.195 337.487 59.407L337.785 58.0677L337.812 58.0644L338.063 56.79C338.205 56.1803 338.305 55.6647 338.397 55.0907C338.513 54.4843 338.616 53.9979 338.693 53.5147L338.761 53.1807C338.864 52.6942 338.935 52.3894 338.976 52.0586L339.193 50.7291C339.286 50.1552 339.35 49.792 339.414 49.4288L339.627 48.0701C339.889 45.9949 340.179 43.7089 340.439 41.397C340.496 40.9754 340.536 40.6447 340.527 40.3497C340.529 40.1422 340.561 39.9606 340.567 39.7823L340.584 39.484C341.576 28.9689 341.272 19.1752 339.73 10.3623C339.491 10.6285 339.267 11.0114 339.186 11.4654L338.912 13.6606C338.868 14.4063 338.781 15.2461 338.671 16.1183C338.667 16.5333 338.589 17.224 338.507 17.8854L338.438 18.4269C338.401 18.7869 338.395 18.9652 338.36 19.1176L337.96 23.1642C337.903 23.5857 337.862 23.9164 337.844 24.2147C337.798 24.7238 337.748 25.2037 337.671 25.6868C337.506 27.2173 337.294 28.8126 337.029 30.4145C336.858 31.6791 336.664 32.9762 336.474 34.3024L336.39 35.1714C335.817 39.3576 335.116 43.826 334.178 48.7973L333.895 50.2533C332.753 56.2267 331.541 61.6165 330.155 66.7018L329.781 68.0802L329.574 69.0531C328.088 74.654 326.3 80.4402 324.24 86.23C324.064 86.7846 323.791 87.4399 323.541 88.0627C323.064 89.4833 322.398 91.1344 321.483 93.2008L320.908 94.4854L320.733 94.3884C302.69 134.147 271.842 157.59 268.354 160.149L267.281 160.695C266.714 160.943 266.2 161.183 265.683 161.395C265.38 161.58 265.017 161.713 264.86 161.762C264.346 162.003 263.672 162.263 262.998 162.523L262.607 162.66C261.76 163.06 260.696 163.457 259.704 163.786C258.797 164.134 257.782 164.495 256.784 164.766L250.063 166.863C248.597 167.309 247.101 167.729 245.635 168.175C243.668 168.742 241.751 169.273 239.831 169.775C239.751 169.785 239.44 169.912 239.096 169.983C238.809 170.078 238.312 170.228 237.787 170.381C237.079 170.586 236.635 170.729 236.165 170.876C235.039 171.221 234.018 171.524 232.976 171.888C232.061 172.178 231.204 172.491 230.316 172.777L229.872 172.92C229.478 173.028 229.194 173.151 228.884 173.278C227.743 173.714 226.808 174.066 225.824 174.453L222.238 175.988C221.568 176.277 221.104 176.482 220.614 176.69L219.118 177.555C218.324 177.948 217.641 178.358 216.989 178.793C216.432 179.128 215.976 179.391 215.546 179.651C214.917 180.054 214.345 180.479 213.749 180.937L212.335 182.028C211.044 183.016 209.7 184.01 208.561 185.126C208.215 185.406 208.019 185.578 207.876 185.743C207.138 186.367 206.603 186.877 206.065 187.357L205.188 188.175C204.48 188.825 203.826 189.467 203.171 190.11L202.713 190.581C202.294 190.928 202.055 191.195 201.793 191.493C200.943 192.308 200.215 193.019 199.492 193.759C197.898 195.376 196.338 197.048 194.774 198.69L194.462 199.025C190.399 203.313 186.217 207.734 181.74 211.748C181.475 212.017 181.132 212.325 180.767 212.666L180.305 213.108C179.767 213.588 179.228 214.069 178.686 214.52L178.367 214.796C177.852 215.244 177.337 215.693 176.825 216.17L175.744 217.102C169.877 222.174 163.963 227.311 158.039 232.36C157.616 232.678 157.42 232.85 157.197 233.026C155.794 234.205 154.46 235.286 153.153 236.364C150.055 238.994 146.799 241.674 143.57 244.349C137.305 249.5 130.869 254.582 124.457 259.425L107.739 272.104L120.806 255.105C121.346 254.417 121.825 253.677 122.278 252.941C123.062 251.808 123.804 250.77 124.469 249.77C124.79 249.287 125.134 248.771 125.478 248.255C126.03 247.447 126.44 246.804 126.85 246.162C127.442 245.231 127.991 244.393 128.536 243.527L128.718 243.238C129.194 242.469 129.674 241.729 130.176 240.957C130.943 239.679 131.759 238.365 132.622 236.986L135.187 231.993C135.81 230.88 136.358 229.806 136.878 228.735L137.119 228.262C138.938 224.722 140.84 220.965 142.463 217.154C145.725 209.647 148.346 203.345 150.712 196.955C151.263 195.466 151.814 193.977 152.341 192.521L152.485 192.148C153.157 190.318 153.802 188.492 154.508 186.718C155.096 185.313 155.638 183.973 156.156 182.666L156.284 182.384C157.099 180.389 157.887 178.397 158.731 176.428C163.944 164.685 171.009 152.774 181.632 137.762C182.582 136.432 183.532 135.101 184.482 133.771C185.687 132.083 186.919 130.392 188.121 128.676C190.356 125.648 192.565 122.623 194.716 119.576C195.65 118.336 196.561 117.129 197.469 115.893C193.01 120.052 188.929 124.638 185.363 128.777C181.333 133.772 176.668 139.792 172.602 146.272C164.243 158.933 157.153 172.417 150.905 184.346C149.167 187.668 147.456 190.987 145.745 194.306L145.264 195.254C140.46 204.578 135.552 214.151 130.367 223.463C122.38 237.826 113.926 250.144 104.563 261.034C94.0697 273.336 82.3011 283.869 69.5687 292.299C53.8766 302.721 36.6212 309.692 18.2732 313.066C10.6534 314.474 2.98682 314.614 -4.40514 314.78C-15.4815 315.012 -25.9354 315.228 -36.0654 319.193C-45.8012 323.496 -49.8604 328.702 -51.0012 330.47ZM-2.28194 335.425C-1.06392 335.394 0.211137 335.386 1.48266 335.349C0.211137 335.386 -1.03359 335.42 -2.28194 335.425ZM-18.4746 336.226C-14.5959 335.75 -10.678 335.596 -6.80633 335.506C-11.4377 335.6 -16.1349 335.82 -20.7447 336.533C-19.9957 336.442 -19.2235 336.317 -18.4746 336.226ZM-53.6338 329.371L-53.5643 329.274C-53.5643 329.274 -53.3592 328.953 -53.2469 328.761C-53.4323 329.021 -53.5678 329.245 -53.6569 329.404L-53.6338 329.371ZM40.3752 303.991C37.4152 305.094 34.4141 306.084 31.3987 306.957C34.4408 306.08 37.4116 305.065 40.3752 303.991ZM105.128 290.458C103.411 291.734 101.694 293.011 100.008 294.313C101.698 293.04 103.411 291.734 105.128 290.458ZM118.614 279.981C116.113 281.945 113.638 283.907 111.133 285.843C113.638 283.907 116.116 281.975 118.614 279.981ZM110.494 249.173C107.927 252.597 105.289 255.882 102.579 259.027C105.285 255.852 107.927 252.597 110.494 249.173ZM127.936 272.738C127.513 273.056 127.067 273.407 126.618 273.729C127.067 273.407 127.486 273.06 127.936 272.738ZM134.45 267.853C140.689 263.595 153.953 254.625 159.938 250.96L160.241 250.775C160.395 250.697 160.498 250.655 160.544 250.59C161.3 250.112 162.06 249.664 162.793 249.218C162.06 249.664 161.35 250.076 160.618 250.521L160.314 250.707C160.161 250.785 160.034 250.859 159.985 250.895C153.922 254.599 140.685 263.565 134.447 267.824L134.45 267.853ZM125.948 252.757C125.488 253.435 125.025 254.084 124.538 254.766C124.059 255.506 123.533 256.311 122.946 257.063C122.996 257.028 123.046 256.992 123.096 256.956L125.918 252.731L125.948 252.757ZM130.019 251.636L129.939 251.646L129.646 251.919C129.769 251.815 129.893 251.711 130.019 251.636ZM174.386 242.349C172.107 243.694 169.879 245.004 167.677 246.31C167.527 246.417 167.373 246.495 167.224 246.603L167.68 246.339C169.882 245.033 172.107 243.694 174.39 242.378L174.386 242.349ZM129.157 247.922C128.747 248.565 128.313 249.24 127.877 249.885C127.672 250.207 127.486 250.466 127.301 250.726L128.059 249.597C128.426 249.048 128.789 248.471 129.157 247.922ZM141.294 242.615C140.16 243.553 139 244.495 137.862 245.404C139.023 244.463 140.16 243.553 141.294 242.615ZM131.517 244.139C131.335 244.428 131.149 244.687 130.994 244.973L130.813 245.262C130.813 245.262 130.608 245.583 130.518 245.742L130.657 245.547L131.021 244.97C131.206 244.71 131.362 244.424 131.543 244.136L131.517 244.139ZM137.901 232.874C137.766 233.098 137.661 233.348 137.525 233.572L134.941 238.626C134.442 239.428 133.966 240.197 133.513 240.933C133.966 240.197 134.422 239.489 134.875 238.753L135.274 238.023L137.552 233.568C137.687 233.344 137.819 233.091 137.928 232.871L137.901 232.874ZM210.509 223.619C210.276 223.707 210.019 223.827 209.789 223.944C207.107 225.102 204.322 226.302 201.672 227.723C201.109 227.999 200.572 228.272 200.009 228.548C200.545 228.275 201.109 227.999 201.672 227.723C204.349 226.299 207.107 225.102 209.789 223.944C210.023 223.857 210.279 223.736 210.509 223.619ZM156.404 230.103C156.404 230.103 156.231 230.242 156.155 230.281C156.228 230.213 156.304 230.174 156.404 230.103ZM128.036 221.943C125.587 226.329 123.113 230.511 120.591 234.522C123.113 230.511 125.614 226.326 128.036 221.943ZM214.195 222.013C213.912 222.136 213.628 222.26 213.321 222.416C213.605 222.292 213.885 222.139 214.195 222.013ZM139.398 230.025L139.29 230.246C139.161 230.528 139.003 230.785 138.874 231.067L139.247 230.34L139.421 229.993L139.398 230.025ZM226.925 217.106C226.328 217.328 225.734 217.578 225.136 217.799C225.73 217.549 226.328 217.328 226.898 217.11L226.925 217.106ZM347.32 200.988C347.32 200.988 347.453 200.971 347.507 200.965L347.32 200.988ZM339.605 200.956C340.365 200.952 341.155 200.973 341.914 200.969C342.674 200.965 343.411 200.993 344.17 200.989C343.411 200.993 342.647 200.968 341.914 200.969C341.151 200.944 340.365 200.952 339.605 200.956ZM239.591 213.007C239.174 213.147 238.756 213.287 238.362 213.395C238.779 213.255 239.2 213.144 239.591 213.007ZM353.142 199.09C353.142 199.09 353.099 199.184 353.053 199.249C353.072 199.187 353.095 199.155 353.142 199.09ZM156.834 188.417C156.214 190.003 155.628 191.644 155.018 193.318L154.874 193.691C154.35 195.176 153.799 196.665 153.222 198.157C150.832 204.58 148.191 210.944 144.934 218.48C144.027 220.604 143.036 222.71 142.041 224.786C143.039 222.739 144.03 220.634 144.934 218.48C148.191 210.944 150.836 204.609 153.222 198.157C153.71 196.824 154.202 195.52 154.69 194.187L154.972 193.383C155.581 191.709 156.191 190.035 156.807 188.42L156.834 188.417ZM353.372 198.528C353.372 198.528 353.313 198.713 353.27 198.807C353.27 198.807 353.356 198.619 353.372 198.528ZM255.777 208.832C254.695 209.083 253.643 209.36 252.644 209.631L252.277 209.735C251.883 209.842 251.512 209.918 251.118 210.025C251.619 209.904 252.12 209.784 252.644 209.631C253.669 209.357 254.725 209.109 255.777 208.832ZM315.432 201.55C316.405 201.519 317.326 201.496 318.269 201.439C317.326 201.496 316.379 201.523 315.432 201.55ZM305.941 202.091C306.503 202.023 307.072 202.012 307.66 201.94C309.379 201.788 311.105 201.695 312.808 201.635C311.132 201.692 309.406 201.785 307.66 201.94C307.098 202.009 306.533 202.048 305.968 202.088L305.941 202.091ZM284.318 204.001C280.454 204.593 276.532 205.163 272.604 205.674C270.33 205.953 267.998 206.416 265.745 206.87C264.075 207.193 262.407 207.546 260.756 207.807C260.221 207.873 259.666 208 259.135 208.095C259.666 208 260.224 207.902 260.756 207.807C262.327 207.556 263.944 207.239 265.535 206.925C267.971 206.42 270.33 205.953 272.577 205.677C276.502 205.137 280.427 204.597 284.292 204.005C288.265 203.636 292.127 203.252 296.036 202.802C297.16 202.664 298.317 202.582 299.448 202.502C298.317 202.582 297.187 202.661 296.036 202.802C292.151 203.219 288.265 203.636 284.292 204.005L284.318 204.001ZM203.555 207.416C200.921 210.078 198.377 212.581 195.88 215.019C197.941 214.115 200.033 213.236 202.151 212.355L196.129 214.84L201.33 209.643C202.054 208.902 202.804 208.159 203.555 207.416ZM349.89 195.816C350.225 195.894 350.557 195.942 350.889 195.99C350.5 195.919 350.195 195.868 349.89 195.816ZM175.872 213.266C175.626 213.474 175.383 213.711 175.137 213.919L174.426 214.539C173.126 215.676 171.8 216.815 170.5 217.952C171.703 216.916 172.907 215.88 174.083 214.848L175.141 213.948C175.36 213.744 175.602 213.507 175.875 213.295L175.872 213.266ZM218.447 206.419C213.866 207.81 209.057 209.554 203.315 211.887C208.226 209.863 213.315 207.966 218.447 206.419ZM176.679 212.545C176.433 212.753 176.214 212.958 175.968 213.166C176.187 212.961 176.433 212.753 176.679 212.545ZM323.106 192.614C325.671 192.715 328.223 192.935 330.718 193.132L332.255 193.27L330.802 193.152C328.196 192.938 325.644 192.718 323.133 192.611L323.106 192.614ZM179.248 210.247C179.248 210.247 179.002 210.454 178.883 210.588L178.664 210.792L178.91 210.584L179.275 210.243L179.248 210.247ZM184.019 205.753C182.711 207.039 181.349 208.331 179.953 209.568C181.322 208.334 182.684 207.042 184.019 205.753ZM236.857 201.113C235.511 201.426 234.168 201.768 232.802 202.143C234.141 201.771 235.514 201.455 236.857 201.113ZM248.33 198.581C246.212 199.019 244.093 199.456 241.928 199.958C241.187 200.108 240.475 200.284 239.737 200.464C240.475 200.284 241.217 200.134 241.932 199.987C244.07 199.489 246.212 199.019 248.334 198.611L248.33 198.581ZM285.617 193.33C286.232 193.255 286.828 193.241 287.443 193.166C286.854 193.238 286.232 193.255 285.617 193.33ZM271.09 194.874C269.191 195.107 267.318 195.336 265.423 195.598C263.477 195.896 261.451 196.203 259.349 196.55C261.451 196.203 263.504 195.892 265.423 195.598C267.318 195.336 269.218 195.103 271.09 194.874ZM277.396 194.042C278.366 193.982 279.332 193.893 280.299 193.804C279.359 193.89 278.393 193.979 277.396 194.042ZM210.331 200.455C210.258 200.524 210.185 200.592 210.139 200.657C210.212 200.589 210.285 200.52 210.331 200.455ZM194.235 195.174C193.68 195.745 193.129 196.345 192.575 196.917C192.143 197.384 191.685 197.855 191.254 198.322C191.685 197.855 192.12 197.417 192.552 196.949L192.914 196.579C193.372 196.108 193.83 195.638 194.258 195.141L194.235 195.174ZM233.672 184.21C232.948 184.506 232.224 184.802 231.5 185.098L229.014 186.084L226.955 187.225L228.255 186.532L231.427 185.166C232.178 184.867 232.902 184.571 233.649 184.243L233.672 184.21ZM200.975 188.366C200.56 188.742 200.244 189.048 199.956 189.35C199.663 189.622 199.398 189.892 199.128 190.132C199.394 189.863 199.663 189.622 199.956 189.35C200.218 189.051 200.533 188.746 200.975 188.366ZM244.665 180.642L244.298 180.746C244.298 180.746 244.562 180.684 244.692 180.639L244.665 180.642ZM252.658 178.508C251.345 178.876 250.002 179.218 248.686 179.557C250.002 179.218 251.318 178.879 252.658 178.508ZM206.135 183.499C205.424 184.119 204.862 184.632 204.3 185.145L203.812 185.59L204.274 185.149C204.858 184.603 205.42 184.09 206.108 183.502L206.135 183.499ZM206.843 182.85C206.57 183.061 206.351 183.265 206.204 183.402C206.351 183.265 206.57 183.061 206.816 182.853L206.843 182.85ZM262.825 175.07L262.718 175.083C261.795 175.522 260.894 175.929 260.033 176.212C260.948 175.922 261.848 175.516 262.749 175.109L262.829 175.099L262.825 175.07ZM155.785 169.002C153.214 173.729 150.79 178.32 148.479 182.719C147.183 185.217 145.911 187.683 144.642 190.177C145.914 187.712 147.183 185.217 148.482 182.748C150.794 178.349 153.238 173.696 155.808 168.969L155.785 169.002ZM265.687 173.831C265.687 173.831 265.584 173.873 265.507 173.912C265.587 173.902 265.637 173.867 265.687 173.831ZM268.852 172.407C267.879 172.881 266.875 173.33 265.791 173.789L265.764 173.792C266.901 173.327 267.905 172.878 268.879 172.403L268.852 172.407ZM167.767 164.424C165.229 168.969 163.051 173.352 161.111 177.676C160.289 179.613 159.498 181.576 158.68 183.541L158.552 183.824C158.135 184.852 157.741 185.848 157.297 186.879C157.76 185.786 158.17 184.699 158.61 183.639L158.774 183.204C159.523 181.336 160.275 179.496 161.057 177.683C162.994 173.33 165.176 168.976 167.714 164.43L167.767 164.424ZM215.133 176.503C214.78 176.724 214.45 176.913 214.147 177.098C213.491 177.504 212.846 177.998 212.227 178.488C212.896 177.962 213.518 177.501 214.147 177.098C214.45 176.913 214.777 176.695 215.133 176.503ZM219.368 174.06L217.922 174.888C217.715 174.973 217.539 175.083 217.332 175.168C217.508 175.058 217.715 174.973 217.895 174.892L219.368 174.06ZM282.498 164.782C281.059 165.669 279.67 166.521 278.304 167.339C279.72 166.485 281.109 165.634 282.498 164.782ZM219.548 173.978L219.395 174.056C219.395 174.056 219.498 174.014 219.548 173.978ZM228.129 170.439C228.129 170.439 227.949 170.521 227.872 170.56C226.781 170.96 225.819 171.315 224.812 171.734C225.823 171.344 226.781 170.96 227.872 170.56C227.952 170.55 228.052 170.478 228.129 170.439ZM285.604 162.654C284.878 163.158 284.179 163.658 283.48 164.158C284.179 163.658 284.905 163.155 285.604 162.654ZM232.608 168.884C232.424 168.936 232.267 168.985 232.087 169.066C231.172 169.356 230.288 169.671 229.377 169.99L228.986 170.127C228.829 170.176 228.646 170.228 228.519 170.303C228.676 170.254 228.833 170.205 228.986 170.127L229.377 169.99C230.288 169.671 231.172 169.356 232.087 169.066C232.271 169.014 232.428 168.965 232.608 168.884ZM235.272 168.024C234.988 168.148 234.671 168.216 234.384 168.311C234.671 168.216 234.958 168.122 235.272 168.024ZM236.895 167.529L236.868 167.532C236.581 167.627 236.294 167.721 236.003 167.786C236.24 167.728 236.447 167.643 236.684 167.584L236.898 167.558L236.895 167.529ZM238.878 166.871C238.721 166.92 238.537 166.972 238.303 167.06C238.196 167.073 238.07 167.148 237.936 167.164C238.07 167.148 238.17 167.077 238.277 167.064C238.567 166.998 238.774 166.914 238.878 166.871ZM256.064 161.774L255.93 161.791L249.236 163.884C247.744 164.334 246.224 164.787 244.759 165.233C242.818 165.796 240.928 166.324 238.931 166.865L238.904 166.868C240.955 166.321 242.845 165.793 244.759 165.233C246.224 164.787 247.717 164.337 249.183 163.891L255.904 161.794L256.037 161.777L256.064 161.774ZM292.188 157.672C292.042 157.809 291.869 157.948 291.7 158.117L291.6 158.189C291.769 158.02 291.965 157.848 292.161 157.676L292.188 157.672ZM294.497 155.465C294.354 155.63 294.135 155.835 293.912 156.01C294.158 155.802 294.377 155.598 294.524 155.461L294.497 155.465ZM264.263 158.667C264.263 158.667 264.033 158.784 263.823 158.839C263.719 158.882 263.616 158.924 263.512 158.966L263.796 158.843C264.003 158.758 264.16 158.709 264.236 158.67L264.263 158.667ZM295.686 154.312C295.686 154.312 295.494 154.513 295.397 154.614C295.494 154.513 295.59 154.413 295.686 154.312ZM298.052 151.683L297.169 152.679L298.029 151.715L298.052 151.683ZM320.884 86.7598C306.216 123.262 279.513 147.293 270.084 154.992C279.074 147.702 303.792 125.632 318.847 91.6288L319.423 90.3442L319.567 90.4153C320.159 89.0399 320.611 87.8592 320.994 86.7758L320.907 86.7273L320.884 86.7598ZM298.977 150.592C298.765 150.855 298.622 151.021 298.48 151.186L298.977 150.592ZM308.027 136.928C307.148 138.398 306.193 139.906 305.214 141.448C306.22 139.903 307.148 138.398 308.027 136.928ZM186.591 135.466C186.15 136.083 185.71 136.7 185.247 137.349C185.687 136.732 186.127 136.116 186.591 135.466ZM318.744 116.929C318.744 116.929 318.655 117.088 318.635 117.15L318.744 116.929ZM319.459 115.45C319.568 115.229 319.676 115.009 319.781 114.759C319.673 114.98 319.564 115.2 319.459 115.45ZM323.08 107.781C322.205 109.724 321.287 111.761 320.27 113.87C321.287 111.761 322.232 109.721 323.041 107.904L323.107 107.778L323.08 107.781ZM183.733 126.104C183.59 126.27 183.447 126.435 183.305 126.601C182.807 127.195 182.314 127.818 181.82 128.441C182.314 127.818 182.807 127.195 183.301 126.572C183.444 126.406 183.586 126.241 183.729 126.075L183.733 126.104ZM323.62 106.649L323.511 106.87C323.403 107.09 323.291 107.282 323.209 107.499L323.1 107.719L323.643 106.616L323.62 106.649ZM203.5 112.163C201.276 115.278 199.064 118.273 196.825 121.272C199.067 118.303 201.303 115.275 203.504 112.192L203.5 112.163ZM203.825 111.708C203.825 111.708 203.616 112 203.547 112.098C203.616 112 203.705 111.841 203.825 111.708ZM198.76 110.7C198.145 111.22 197.533 111.769 196.922 112.317C197.533 111.769 198.148 111.249 198.76 110.7ZM201.612 108.278C201.39 108.453 201.19 108.596 201.07 108.729C201.24 108.561 201.44 108.418 201.612 108.278ZM203.255 107.721C203.255 107.721 203.335 107.712 203.365 107.737C203.365 107.737 203.285 107.747 203.255 107.721ZM331.643 87.9284C331.331 88.7069 331.046 89.4821 330.708 90.2639C330.567 90.6661 330.396 91.0424 330.255 91.4446C330.423 91.0391 330.567 90.6661 330.708 90.2639C331.019 89.4854 331.331 88.7069 331.643 87.9284ZM322.504 82.4749L322.53 82.4716L321.54 85.4653C321.599 85.2804 321.684 85.0923 321.72 84.9399C323.596 79.6464 325.239 74.4407 326.624 69.3554L326.598 69.3587L326.965 67.9219C327.023 67.7371 327.056 67.5555 327.118 67.3998C327.063 67.6138 327.004 67.7987 326.949 68.0128C326.006 71.1782 325.067 74.3729 324.091 77.4833C323.692 78.6574 323.339 79.7667 323.017 80.9018C322.844 81.4856 322.664 82.0111 322.511 82.5332L322.504 82.4749ZM336.559 73.7639L336.442 74.1336L336.54 73.8255L336.559 73.7639ZM336.689 73.2741C336.689 73.2741 336.638 73.5174 336.572 73.6439C336.607 73.4915 336.646 73.3682 336.689 73.2741ZM327.793 64.7112C327.65 65.3209 327.508 65.9306 327.339 66.5436C327.41 66.2387 327.504 65.9014 327.576 65.5966L327.793 64.7112ZM328.734 61.3091C328.575 62.0096 328.386 62.6842 328.224 63.3555L328.055 63.9685C328.272 63.0831 328.516 62.1945 328.734 61.3091ZM339.874 61.1577C339.874 61.1577 339.838 61.3101 339.822 61.4009C339.812 61.3134 339.858 61.2485 339.874 61.1577ZM340.469 58.479L340.373 59.0238C340.373 59.0238 340.341 59.2054 340.328 59.3253C340.344 59.2346 340.36 59.1437 340.376 59.0529L340.499 58.5049L340.469 58.479ZM341.534 52.9889C341.502 53.1704 341.446 53.3845 341.395 53.6277L341.347 53.9001C341.274 54.4124 341.174 54.9281 341.058 55.5345C341.178 54.9572 341.274 54.4124 341.421 53.6244C341.473 53.3812 341.528 53.1672 341.56 52.9856L341.534 52.9889ZM330.61 52.2549L330.45 53.607C330.66 52.6633 330.84 51.6937 331.02 50.7241L330.993 50.7274L331.424 48.4833C331.424 48.4833 331.389 48.6358 331.396 48.6941C331.111 49.9135 330.876 51.0971 330.61 52.2549ZM341.936 50.5114L341.872 50.8746L341.883 50.9621C341.865 50.8163 341.897 50.6347 341.932 50.4822L341.936 50.5114ZM342.093 49.5743L342.057 49.7267C342.057 49.7267 342.021 49.8791 342.005 49.9699L342.034 49.7591L342.066 49.5775L342.093 49.5743ZM334.898 25.8786C334.754 27.14 334.58 28.3754 334.386 29.6725C333.982 32.8016 333.475 35.9729 332.968 39.1443C332.731 40.5354 332.51 41.8358 332.316 43.1328C332.047 44.7056 331.809 46.3042 331.536 47.8478L331.8 46.4533L331.827 46.4501C332.53 42.6624 333.078 39.1603 333.567 35.8431L333.744 34.4002C333.986 32.8307 334.224 31.2321 334.413 29.6692C334.61 28.4013 334.781 27.1367 334.925 25.8754L334.898 25.8786ZM343.26 40.0444L343.242 40.3427C343.208 40.7318 343.181 41.1792 343.132 41.6591C343.041 42.4697 342.95 43.2804 342.833 44.0943C342.923 43.2837 343.014 42.473 343.132 41.6591C343.212 41.2051 343.231 40.6994 343.286 40.0412L343.26 40.0444ZM342.119 8.14478C342.119 8.14478 342.178 8.40407 342.219 8.51749C343.993 17.8941 344.379 28.3588 343.313 39.5937C344.383 28.3879 343.996 17.9233 342.219 8.51749C342.205 8.4008 342.187 8.25492 342.119 8.14478ZM335.188 23.5926C335.155 23.9817 335.114 24.3125 335.076 24.6724C335.14 24.3092 335.151 23.9526 335.192 23.6218L335.188 23.5926ZM335.793 17.8924L335.772 18.1615C335.772 18.1615 335.777 17.9832 335.793 17.8924ZM335.933 16.6019C335.905 16.8127 335.88 17.0526 335.852 17.2634C335.876 17.0234 335.905 16.8127 335.933 16.6019ZM337.08 9.1178C336.859 9.52984 336.698 9.99366 336.591 10.4509L336.501 10.8174L336.365 12.3738C336.341 12.6137 336.301 12.7369 336.316 12.8536C336.236 13.7518 336.172 14.5591 336.069 15.4897C336.172 14.5591 336.266 13.7777 336.334 12.9995L336.616 10.6551C336.713 10.1104 336.893 9.5849 337.106 9.11452L337.08 9.1178ZM340.44 6.63309C340.822 6.64553 341.409 6.78088 341.839 7.40923C341.571 6.99787 341.123 6.66781 340.44 6.63309Z" fill="#E1E8EA"/>
</g>
</svg>
