<svg width="97" height="97" viewBox="0 0 97 97" fill="none" xmlns="http://www.w3.org/2000/svg">
<path d="M-0.000793778 7.34997C-0.000793956 11.4093 3.28992 14.7 7.34921 14.7C11.4085 14.7 14.6992 11.4093 14.6992 7.34998C14.6992 3.29068 11.4085 -1.50138e-07 7.34921 -3.35342e-07C3.28992 -5.20546e-07 -0.000793601 3.29068 -0.000793778 7.34997Z" fill="white"/>
<path d="M-0.000793778 48.4398C-0.000793956 52.4991 3.28992 55.7898 7.34921 55.7898C11.4085 55.7898 14.6992 52.4991 14.6992 48.4398C14.6992 44.3806 11.4085 41.0898 7.34921 41.0898C3.28992 41.0898 -0.000793601 44.3806 -0.000793778 48.4398Z" fill="white"/>
<path d="M-0.000793778 89.5302C-0.000793956 93.5895 3.28992 96.8802 7.34921 96.8802C11.4085 96.8802 14.6992 93.5895 14.6992 89.5302C14.6992 85.4709 11.4085 82.1802 7.34921 82.1802C3.28992 82.1802 -0.000793601 85.4709 -0.000793778 89.5302Z" fill="white"/>
<path d="M41.09 7.34997C41.09 11.4093 44.3807 14.7 48.44 14.7C52.4993 14.7 55.79 11.4093 55.79 7.34998C55.79 3.29068 52.4993 -1.50138e-07 48.44 -3.35342e-07C44.3807 -5.20546e-07 41.09 3.29068 41.09 7.34997Z" fill="white"/>
<path d="M41.09 48.4398C41.09 52.4991 44.3807 55.7898 48.44 55.7898C52.4993 55.7898 55.79 52.4991 55.79 48.4398C55.79 44.3806 52.4993 41.0898 48.44 41.0898C44.3807 41.0898 41.09 44.3806 41.09 48.4398Z" fill="white"/>
<path d="M82.1897 7.34997C82.1897 11.4093 85.4804 14.7 89.5397 14.7C93.5989 14.7 96.8896 11.4093 96.8896 7.34998C96.8896 3.29068 93.599 -1.50137e-07 89.5397 -3.35341e-07C85.4804 -5.20545e-07 82.1897 3.29068 82.1897 7.34997Z" fill="white"/>
</svg>
