<svg width="97" height="97" viewBox="0 0 97 97" fill="none" xmlns="http://www.w3.org/2000/svg">
<path d="M89.5299 96.89C85.4706 96.89 82.1799 93.5992 82.1799 89.5399C82.1799 85.4807 85.4706 82.1899 89.5299 82.1899C93.5892 82.1899 96.8799 85.4807 96.8799 89.5399C96.8799 93.5992 93.5892 96.89 89.5299 96.89Z" fill="white"/>
<path d="M48.44 96.89C44.3807 96.89 41.0901 93.5992 41.0901 89.5399C41.0901 85.4807 44.3807 82.1899 48.44 82.1899C52.4993 82.1899 55.79 85.4807 55.79 89.5399C55.79 93.5992 52.4993 96.89 48.44 96.89Z" fill="white"/>
<path d="M7.35019 96.89C3.2909 96.89 0.000183752 93.5992 0.000183522 89.5399C0.000183292 85.4807 3.2909 82.1899 7.35019 82.1899C11.4095 82.1899 14.7002 85.4807 14.7002 89.5399C14.7002 93.5992 11.4095 96.89 7.35019 96.89Z" fill="white"/>
<path d="M89.5299 55.8001C85.4706 55.8001 82.1799 52.5094 82.1799 48.4501C82.1799 44.3908 85.4706 41.1001 89.5299 41.1001C93.5892 41.1001 96.8799 44.3908 96.8799 48.4501C96.8799 52.5094 93.5892 55.8001 89.5299 55.8001Z" fill="white"/>
<path d="M48.44 55.8001C44.3807 55.8001 41.0901 52.5094 41.0901 48.4501C41.0901 44.3908 44.3807 41.1001 48.44 41.1001C52.4993 41.1001 55.79 44.3908 55.79 48.4501C55.79 52.5094 52.4993 55.8001 48.44 55.8001Z" fill="white"/>
<path d="M89.5299 14.7C85.4706 14.7 82.1799 11.4093 82.1799 7.34999C82.1799 3.2907 85.4706 6.24292e-07 89.5299 4.02175e-07C93.5892 1.80059e-07 96.8799 3.2907 96.8799 7.34999C96.8799 11.4093 93.5892 14.7 89.5299 14.7Z" fill="white"/>
</svg>
