<svg width="405" height="669" viewBox="0 0 405 669" fill="none" xmlns="http://www.w3.org/2000/svg">
<path d="M303.379 242.094L279.397 156.963C279.066 157.3 278.747 157.679 278.454 158.072C278.158 158.532 277.85 158.952 277.592 159.468C277.345 160.026 277.12 160.577 277.007 161.053C276.731 162.062 276.645 162.952 276.554 163.82C276.418 165.567 276.494 167.187 276.611 168.796C276.839 171.993 277.331 175.093 277.762 178.055L279.018 187.13L281.53 205.278L284.048 223.448L284.679 227.995C284.816 228.8 284.854 229.41 284.897 230.041C284.893 230.664 284.895 231.307 284.808 231.952C284.522 234.518 283.413 237.026 281.744 239.138C280.054 241.256 277.815 243.018 275.288 244.151C272.609 245.305 269.45 246.506 266.552 247.677L248.755 254.842C245.699 256.169 242.525 257.795 239.916 260.549C237.254 263.273 236.044 267.252 236.119 270.625C236.2 277.435 238.765 283.279 240.238 288.987C243.391 300.655 245.976 312.616 248.564 324.51C251.138 336.43 253.586 348.385 255.967 360.338C256.148 361.218 257.021 361.771 257.952 361.575C258.774 361.388 259.335 360.676 259.313 359.883L259.312 359.639C259.133 353.434 258.803 347.249 258.431 341.075C258.039 334.908 257.771 328.705 257.159 322.555C256.616 316.408 256.066 310.24 255.422 304.054C254.757 297.875 254.181 291.692 253.13 285.333C252.894 283.78 252.529 282.086 252.223 280.442C251.913 278.866 251.681 277.644 251.488 276.323C251.111 273.79 251.014 271.377 251.35 270.261C251.513 269.727 251.724 269.601 251.784 269.895C251.86 270.162 251.696 270.696 251.716 270.846C251.684 271.21 253.057 270.513 255.151 269.989L264.058 267.391C267.12 266.484 270.209 265.592 273.248 264.603L277.818 263.16L280.1 262.429L281.252 262.06C281.661 261.922 282.567 261.556 283.193 261.313C288.71 259.094 293.792 255.488 297.829 250.801C300.022 248.32 301.939 245.34 303.379 242.094Z" fill="white" fill-opacity="0.3"/>
<path d="M358.133 615.184C356.758 615.793 355.115 615.214 354.499 613.901L354.338 613.569C346.638 597.614 339.581 581.477 332.234 565.422C325.074 549.315 318.219 533.099 311.225 516.945L300.819 492.656L290.884 468.213L281.011 443.508L280.932 443.308L277.903 441.788L272.454 439.152C256.813 431.934 239.882 423.792 222.851 414.103C214.292 409.105 205.64 403.778 196.603 396.363C192.078 392.557 187.423 388.367 182.657 382.189C180.302 379.081 177.891 375.457 175.771 370.796C174.714 368.476 173.748 365.842 173 362.947L172.493 360.672L172.141 358.863L171.749 356.755C169.785 345.728 168.938 336.672 168.061 328.067C167.29 319.522 166.449 311.684 165.142 304.975C164.352 300.738 163.249 296.901 162.179 294.296L159.044 293.116L118.236 277.88C104.592 272.894 91.1553 267.451 77.6405 262.207C68.0694 258.469 59.9168 251.094 55.7816 241.189L54.5161 238.129C49.4011 225.86 5.73004 78.2361 0.000149316 66.2513L48.1825 52.6781C52.7503 63.4817 95.2591 209.924 99.34 220.91L176.825 254.698C181.681 256.103 186.344 258.649 190.051 262.02C193.869 265.469 196.73 269.655 198.84 273.963C203.031 282.633 204.684 291.684 205.782 300.515C207.921 318.214 207.007 335.819 208.88 352.573C209.277 359.871 215.026 366.194 221.16 372.053C227.433 377.85 234.563 383.029 241.891 387.953C256.578 397.836 272.281 406.39 287.765 415.76C291.644 418.151 295.505 420.479 299.368 423.451C300.347 424.218 301.31 425.011 302.333 426.098C302.863 426.704 303.374 427.247 303.944 428.395C304.197 428.657 304.486 430.239 304.498 430.28L304.677 430.918C305.032 432.415 305.751 434.808 306.313 436.802L313.752 461.859L328.961 511.948L359.681 612.086C359.996 613.284 359.389 614.631 358.133 615.184ZM160.484 291.224C159.846 290.472 159.641 291.018 160.567 292.155C160.86 292.56 161.29 292.971 161.776 293.345C161.3 292.37 160.866 291.627 160.484 291.224ZM277.685 433.375C277.784 434.123 277.904 434.866 278.112 435.606C278.294 436.331 278.529 437.086 278.803 437.741C278.922 438.084 279.062 438.422 279.202 438.76C279.168 438.636 279.133 438.513 279.086 438.348C278.741 437.203 278.423 436.073 278.14 434.91L277.722 433.187L277.658 432.961C277.639 432.811 277.624 432.837 277.685 433.375Z" fill="white" fill-opacity="0.3"/>
</svg>
