<svg width="338" height="513" viewBox="0 0 338 513" fill="none" xmlns="http://www.w3.org/2000/svg">
<path d="M97.1058 332.026L120.07 395.544C120.304 395.268 120.526 394.963 120.727 394.647C120.928 394.28 121.139 393.944 121.307 393.536C121.464 393.098 121.605 392.665 121.665 392.297C121.819 391.513 121.836 390.831 121.857 390.164C121.864 388.826 121.717 387.596 121.54 386.377C121.189 383.955 120.643 381.621 120.152 379.388L118.694 372.546L115.779 358.861L112.858 345.161L112.127 341.732C111.978 341.127 111.916 340.664 111.848 340.186C111.816 339.712 111.78 339.222 111.81 338.726C111.887 336.756 112.593 334.784 113.748 333.083C114.918 331.377 116.526 329.912 118.388 328.909C120.365 327.882 122.705 326.793 124.847 325.741L138.008 319.301C140.262 318.122 142.589 316.709 144.425 314.467C146.302 312.245 147.004 309.148 146.76 306.583C146.323 301.4 144.047 297.091 142.61 292.825C139.564 284.111 136.935 275.144 134.308 266.227C131.69 257.29 129.165 248.32 126.692 239.347C126.505 238.687 125.81 238.314 125.112 238.514C124.496 238.702 124.108 239.276 124.168 239.878L124.183 240.064C124.661 244.781 125.254 249.473 125.878 254.155C126.517 258.831 127.064 263.541 127.869 268.191C128.622 272.843 129.381 277.511 130.213 282.186C131.06 286.856 131.84 291.534 132.992 296.319C133.258 297.489 133.629 298.759 133.953 299.994C134.276 301.178 134.52 302.096 134.74 303.091C135.167 305 135.374 306.833 135.18 307.7C135.085 308.116 134.931 308.224 134.869 308.004C134.797 307.804 134.892 307.388 134.869 307.275C134.873 306.996 133.866 307.603 132.3 308.118L125.659 310.588C123.376 311.448 121.073 312.298 118.813 313.219L115.412 314.57L113.714 315.253L112.857 315.598C112.553 315.725 111.883 316.054 111.42 316.273C107.34 318.269 103.669 321.295 100.852 325.088C99.3192 327.099 98.0232 329.475 97.1058 332.026Z" fill="white" fill-opacity="0.3"/>
<path d="M34.8105 50.8784C35.8243 50.3385 37.1076 50.6895 37.6495 51.6553L37.7902 51.8992C44.5358 63.6268 50.801 75.5281 57.2831 87.351C63.6258 99.2243 69.7416 111.197 75.9603 123.115L85.2269 141.04L94.1427 159.11L103.027 177.382L103.097 177.53L105.488 178.521L109.785 180.227C122.096 184.862 135.441 190.129 148.948 196.568C155.742 199.903 162.626 203.483 169.919 208.632C173.575 211.281 177.352 214.216 181.323 218.658C183.288 220.895 185.325 223.523 187.197 226.956C188.13 228.664 189.011 230.617 189.741 232.781L190.252 234.486L190.62 235.844L191.035 237.428C193.139 245.719 194.285 252.57 195.428 259.075C196.486 265.541 197.559 271.465 198.925 276.503C199.761 279.686 200.813 282.548 201.772 284.473L204.224 285.199L236.147 294.551C246.814 297.596 257.349 301 267.932 304.249C275.428 306.567 282.045 311.735 285.741 319.051L286.874 321.311C291.447 330.374 332.857 440.404 337.883 449.216L301.933 462.213C297.858 454.236 257.398 345.042 253.684 336.901L192.802 315.442C189.025 314.64 185.333 312.957 182.324 310.595C179.225 308.178 176.815 305.148 174.97 301.983C171.3 295.611 169.541 288.808 168.217 282.143C165.611 268.78 165.336 255.32 162.984 242.662C162.279 237.126 157.552 232.628 152.556 228.504C147.458 224.434 141.742 220.883 135.889 217.537C124.157 210.82 111.724 205.171 99.4135 198.889C96.3272 197.282 93.2575 195.722 90.151 193.672C89.3636 193.141 88.5861 192.59 87.7465 191.819C87.3101 191.387 86.8903 191.001 86.3927 190.158C86.1856 189.973 85.8782 188.784 85.8671 188.753L85.6952 188.278C85.3425 187.157 84.6629 185.374 84.1251 183.886L77.0754 165.211L62.7271 127.899L33.8023 53.3237C33.4963 52.4286 33.8842 51.3694 34.8105 50.8784ZM203.232 286.719C203.759 287.257 203.885 286.83 203.118 286.015C202.872 285.722 202.522 285.433 202.131 285.175C202.547 285.892 202.919 286.434 203.232 286.719ZM106.119 184.916C106.002 184.352 105.87 183.793 105.67 183.24C105.492 182.698 105.271 182.136 105.026 181.653C104.916 181.398 104.791 181.148 104.666 180.899C104.699 180.991 104.732 181.083 104.777 181.205C105.103 182.058 105.408 182.902 105.687 183.772L106.101 185.062L106.162 185.23C106.185 185.343 106.195 185.322 106.119 184.916Z" fill="white" fill-opacity="0.3"/>
</svg>
