<svg width="415" height="415" viewBox="0 0 415 415" fill="none" xmlns="http://www.w3.org/2000/svg">
<path d="M55.627 82.5874C59.2585 82.5874 62.3915 82.9789 65.1329 83.7618C67.8387 84.5447 69.7968 85.3276 71.0073 86.075C73.9267 87.8188 75.7425 86.68 76.4189 82.6586H79.1247C78.9467 84.7582 78.8043 87.3561 78.7331 90.4167C78.6619 93.4772 78.5907 97.5342 78.5907 102.588H75.8849C75.4577 99.7762 74.6388 97.0359 73.4283 94.2957C72.2178 91.591 70.4733 89.349 68.1947 87.6052C65.9162 85.8615 62.9612 85.0074 59.3653 85.0074C56.8731 85.0074 54.7726 85.6479 53.028 86.8935C51.3191 88.1391 50.429 89.954 50.429 92.2672C50.429 94.5448 51.2123 96.5021 52.7432 98.2103C54.3097 99.9185 56.3034 101.52 58.76 103.086C61.2166 104.652 63.78 106.289 66.4502 108.033C70.7581 110.844 74.3896 113.655 77.3446 116.467C80.2996 119.314 81.7949 122.979 81.7949 127.534C81.7949 130.951 80.6913 133.905 78.4483 136.431C76.2054 138.958 73.2503 140.915 69.6188 142.268C65.9518 143.62 61.8931 144.296 57.4072 144.296C54.8082 144.296 52.5296 144.083 50.5002 143.62C48.4709 143.157 46.7264 142.588 45.2667 141.912C44.163 141.449 43.0949 141.022 42.098 140.595C41.1011 140.168 40.1755 139.812 39.321 139.527C38.4666 139.314 37.7189 139.563 37.078 140.31C36.4372 141.058 35.9388 142.125 35.5827 143.478H32.877C33.055 141.058 33.1618 138.104 33.2686 134.652C33.3398 131.164 33.411 126.574 33.411 120.808H36.1168C36.6152 124.901 37.5765 128.495 38.965 131.627C40.3535 134.759 42.2048 137.214 44.5902 138.994C46.94 140.773 49.9306 141.663 53.5621 141.663C55.805 141.663 57.87 141.022 59.7569 139.777C61.6439 138.531 62.6051 136.467 62.6051 133.584C62.6051 130.275 61.3946 127.499 58.938 125.292C56.4815 123.086 53.3485 120.737 49.5746 118.139C46.8332 116.182 44.2342 114.225 41.7776 112.303C39.321 110.381 37.3273 108.246 35.7608 105.968C34.1942 103.655 33.4466 101.022 33.4466 98.1036C33.4466 94.6872 34.4791 91.8402 36.544 89.4914C38.609 87.1426 41.3504 85.3988 44.7326 84.2244C48.1149 83.1924 51.7463 82.5874 55.627 82.5874Z" fill="white"/>
<path d="M188.889 84.1893V86.4669C187.251 86.8583 185.72 87.7124 184.225 89.0648C182.765 90.4171 181.377 92.8015 180.095 96.2179L165.925 134.83C164.181 139.563 159.695 142.802 154.568 143.051H154.533L136.98 100.987L125.445 134.795C123.808 139.563 119.393 142.802 114.302 143.051H114.266L93.8657 92.9438C92.6552 89.9189 91.3379 88.1039 89.9138 87.4989C88.4897 86.8939 87.3148 86.5736 86.3535 86.5736V84.1893C89.0949 84.4028 91.9787 84.5807 94.9338 84.6875C97.8888 84.7943 101.129 84.8654 104.689 84.8654C107.359 84.8654 110.172 84.7943 113.162 84.6519C116.117 84.5096 118.894 84.3316 121.493 84.1893V86.5736C119.606 86.5736 117.933 86.6804 116.545 86.8583C115.12 87.0363 114.159 87.6057 113.696 88.4954C113.234 89.4207 113.376 90.8797 114.159 92.9082L125.837 124.973L139.864 84.0825H139.9C145.632 84.3316 150.723 87.8548 152.788 93.1573L165.997 127.393L174.185 104.617C176.428 98.4243 176.677 93.9047 174.897 91.1289C173.117 88.3174 170.091 86.7872 165.783 86.5025V84.2249C167.172 84.296 168.667 84.3672 170.233 84.4028C171.835 84.4384 173.402 84.474 175.004 84.5096C176.606 84.5452 177.959 84.5452 179.063 84.5452C180.772 84.5452 182.587 84.5096 184.439 84.4384C186.254 84.3316 187.75 84.2605 188.889 84.1893Z" fill="white"/>
<path d="M208.256 143.584C202.488 143.584 198.322 142.268 195.723 139.599C193.124 136.965 191.843 133.727 191.843 129.954C191.843 126.716 192.697 124.047 194.371 122.018C196.044 119.99 198.216 118.282 200.886 116.965C203.556 115.648 206.369 114.545 209.359 113.691C212.314 112.837 215.162 111.947 217.868 111.093C220.574 110.239 222.781 109.207 224.455 108.104C226.128 106.965 226.983 105.541 226.983 103.798V94.9719C226.983 93.0146 226.627 91.2352 225.879 89.7049C225.131 88.1746 224.028 86.9647 222.532 86.1462C221.037 85.3276 219.079 84.9006 216.658 84.9006C214.949 84.9006 213.204 85.1141 211.495 85.5412C209.787 85.9682 208.362 86.6444 207.223 87.6408C209.644 88.3882 211.495 89.5626 212.848 91.0928C214.166 92.6587 214.842 94.4025 214.842 96.3598C214.842 98.9221 213.845 100.986 211.816 102.481C209.786 104.011 207.401 104.758 204.66 104.758C201.562 104.758 199.212 103.904 197.61 102.196C196.008 100.488 195.225 98.4239 195.225 96.0039C195.225 93.7975 195.866 91.9825 197.112 90.559C198.358 89.1355 200.103 87.7476 202.346 86.4664C204.767 85.2565 207.65 84.2956 211.068 83.6194C214.45 82.9433 218.153 82.5874 222.105 82.5874C226.057 82.5874 229.653 82.9433 232.821 83.655C236.026 84.3668 238.731 85.7191 240.903 87.6408C242.826 89.349 244.143 91.6266 244.713 94.0822C245.282 96.6089 245.603 99.7406 245.603 103.548V134.367C245.603 136.182 245.816 137.463 246.244 138.211C246.849 139.243 248.024 139.563 249.768 139.172C250.16 139.065 250.552 138.922 250.943 138.745C251.691 138.389 252.403 137.926 253.079 137.428L254.361 139.35C252.545 140.702 250.48 141.734 248.095 142.481C245.71 143.193 243.075 143.549 240.156 143.549C234.993 143.549 231.575 142.624 229.902 140.773C228.229 138.922 227.339 136.787 227.267 134.367C225.131 137.463 222.461 139.777 219.328 141.271C216.124 142.837 212.457 143.584 208.256 143.584ZM218.189 136.325C219.826 136.325 221.357 135.969 222.781 135.293C224.206 134.616 225.594 133.406 226.983 131.663V108.424C225.95 109.954 224.49 111.2 222.675 112.232C220.823 113.264 218.936 114.331 216.978 115.506C215.056 116.68 213.418 118.175 212.136 119.99C210.855 121.805 210.214 124.225 210.214 127.25C210.214 130.488 210.997 132.837 212.528 134.225C214.059 135.613 215.946 136.325 218.189 136.325Z" fill="white"/>
<path d="M303.136 82.5874C305.877 82.5874 308.12 83.0856 309.865 84.1177C311.573 85.1497 312.855 86.4309 313.674 88.0323C314.493 89.6337 314.884 91.2708 314.884 93.0146C314.884 95.826 313.959 98.1036 312.107 99.8829C310.256 101.662 307.835 102.552 304.809 102.552C301.783 102.552 299.469 101.876 297.76 100.559C296.086 99.2424 295.232 97.463 295.232 95.2922C295.232 93.1925 295.766 91.4131 296.834 90.0252C297.902 88.6373 299.255 87.4273 300.893 86.4664C299.682 86.1817 298.472 86.2173 297.261 86.5732C295.018 86.8935 293.024 87.8188 291.244 89.349C289.464 90.9149 288.076 92.7298 287.043 94.8651C286.011 96.9648 285.477 99.0644 285.477 101.093V131.129C285.477 134.759 286.474 137.214 288.503 138.495C290.532 139.777 293.558 140.417 297.617 140.417V142.802C295.623 142.73 292.74 142.624 288.966 142.517C285.192 142.41 281.204 142.339 277.074 142.339C273.621 142.339 270.132 142.41 266.607 142.517C263.083 142.624 260.412 142.73 258.597 142.802V140.417C261.623 140.417 263.723 139.848 265.005 138.709C266.251 137.57 266.892 135.435 266.892 132.232V96.5377C266.892 93.1213 266.322 90.6302 265.148 88.9932C263.973 87.3561 261.801 86.5732 258.632 86.5732V84.1888C261.374 84.4024 264.044 84.5447 266.643 84.5447C270.274 84.5447 273.621 84.4024 276.79 84.1532H276.896C281.525 83.7618 285.512 87.3561 285.512 91.9113V93.4772C286.545 91.4487 287.933 89.5981 289.642 87.9255C291.351 86.2529 293.345 84.9718 295.588 84.0109C297.866 83.05 300.394 82.5874 303.136 82.5874Z" fill="white"/>
<path d="M336.71 143.584C330.942 143.584 326.777 142.268 324.178 139.599C321.579 136.965 320.297 133.727 320.297 129.954C320.297 126.716 321.151 124.047 322.825 122.018C324.498 119.99 326.67 118.282 329.34 116.965C332.01 115.648 334.823 114.545 337.813 113.691C340.768 112.837 343.617 111.947 346.322 111.093C349.028 110.239 351.235 109.207 352.909 108.104C354.582 106.965 355.437 105.541 355.437 103.798V94.9719C355.437 93.0146 355.081 91.2352 354.333 89.7049C353.585 88.1746 352.482 86.9647 350.986 86.1462C349.491 85.3276 347.533 84.9006 345.112 84.9006C343.403 84.9006 341.658 85.1141 339.949 85.5412C338.241 85.9682 336.816 86.6444 335.677 87.6408C338.098 88.3882 339.949 89.5626 341.302 91.0928C342.62 92.6587 343.296 94.4025 343.296 96.3598C343.296 98.9221 342.299 100.986 340.27 102.481C338.241 104.011 335.855 104.758 333.114 104.758C330.016 104.758 327.667 103.904 326.064 102.196C324.462 100.488 323.679 98.4239 323.679 96.0039C323.679 93.7975 324.32 91.9825 325.566 90.559C326.812 89.1355 328.557 87.7476 330.8 86.4664C333.221 85.2565 336.104 84.2956 339.522 83.6194C342.905 82.9433 346.607 82.5874 350.559 82.5874C354.511 82.5874 358.107 82.9433 361.275 83.655C364.48 84.3668 367.186 85.7191 369.357 87.6408C371.28 89.349 372.597 91.6266 373.167 94.0822C373.736 96.6089 374.057 99.7406 374.057 103.548V134.367C374.057 136.182 374.27 137.463 374.698 138.211C375.303 139.243 376.478 139.563 378.222 139.172C378.614 139.065 379.006 138.922 379.397 138.745C380.145 138.389 380.857 137.926 381.533 137.428L382.815 139.35C380.999 140.702 378.934 141.734 376.549 142.481C374.164 143.193 371.529 143.549 368.61 143.549C363.447 143.549 360.029 142.624 358.356 140.773C356.683 138.922 355.793 136.787 355.721 134.367C353.585 137.463 350.915 139.777 347.782 141.271C344.613 142.837 340.911 143.584 336.71 143.584ZM346.643 136.325C348.281 136.325 349.811 135.969 351.235 135.293C352.66 134.616 354.048 133.406 355.437 131.663V108.424C354.404 109.954 352.944 111.2 351.129 112.232C349.277 113.264 347.39 114.331 345.432 115.506C343.51 116.68 341.872 118.175 340.59 119.99C339.309 121.805 338.668 124.225 338.668 127.25C338.668 130.488 339.451 132.837 340.982 134.225C342.513 135.613 344.4 136.325 346.643 136.325Z" fill="white"/>
<path d="M64.0285 208.462C59.6138 203.658 54.0242 201.273 47.3309 201.273C42.4177 201.273 38.1098 202.377 34.4071 204.619C31.4165 206.434 29.1379 208.889 27.5714 212.021V181.736C27.5714 177.145 23.5483 173.586 18.8844 173.978C18.8488 173.978 18.8132 173.978 18.7775 173.978C15.6089 174.227 12.2267 174.369 8.702 174.369C6.10301 174.369 3.43281 174.262 0.691406 174.049V176.433C3.86004 176.433 6.03181 177.252 7.20669 178.853C8.38158 180.49 8.95124 182.981 8.95124 186.398V255.9C8.95124 256.968 8.88005 258 8.73764 259.068C8.63083 260.135 8.38157 261.167 8.02554 262.235L9.94811 263.267C11.2298 262.27 12.8319 261.416 14.7189 260.705C16.6058 259.993 18.6708 259.495 20.9137 259.174C22.8719 258.925 24.7944 258.89 26.6458 259.068C28.0343 260.064 29.5651 260.847 31.2385 261.452C34.2647 262.519 37.5046 263.053 41.0648 263.053C46.4052 263.053 51.3184 261.986 55.7687 259.886C60.2546 257.786 63.8505 254.334 66.5563 249.566C69.2621 244.797 70.615 238.498 70.615 230.633C70.6862 220.669 68.4432 213.266 64.0285 208.462ZM47.6869 253.658C45.3728 258.356 41.8481 260.705 37.1129 260.705C35.048 260.705 32.983 260.277 30.8468 259.459C29.672 258.996 28.5683 258.391 27.5714 257.644V216.007C28.2123 213.266 29.4939 211.06 31.4521 209.387C33.9443 207.216 36.7213 206.149 39.7119 206.149C42.1329 206.149 44.1979 206.967 45.9068 208.604C47.6157 210.241 48.933 212.946 49.8586 216.754C50.7487 220.562 51.2115 225.722 51.2115 232.235C51.1759 241.843 50.0011 248.961 47.6869 253.658Z" fill="white"/>
<path d="M125.727 252.096C122.665 253.235 119.852 253.805 117.253 253.805C114.583 253.805 111.948 253.057 109.385 251.598C106.822 250.139 104.686 247.755 103.012 244.516C101.339 241.278 100.484 237.043 100.484 231.812C100.484 230.744 100.52 229.712 100.556 228.751C100.591 227.968 100.627 227.221 100.698 226.473H136.906C136.906 217.576 134.734 211.135 130.462 207.185C126.154 203.27 120.208 201.313 112.661 201.313C106.537 201.313 101.09 202.452 96.3189 204.765C91.5482 207.078 87.7743 210.566 85.0685 215.263C82.3627 219.961 81.0098 225.797 81.0098 232.844C81.0098 239.712 82.2915 245.406 84.8193 249.854C87.3471 254.303 90.8717 257.648 95.3577 259.819C99.8436 262.025 105.006 263.093 110.845 263.093C115.651 263.093 119.781 262.239 123.234 260.495C126.688 258.751 129.501 256.509 131.744 253.805C133.986 251.064 135.624 248.289 136.657 245.406L134.343 244.73C131.672 248.502 128.789 250.958 125.727 252.096ZM104.187 208.644C106.288 205.299 108.851 203.662 111.877 203.662C114.049 203.662 115.758 204.587 117.04 206.509C118.321 208.395 119.283 210.922 119.888 214.053C120.493 217.185 120.742 220.601 120.671 224.303H100.449C100.876 217.078 102.158 211.847 104.187 208.644Z" fill="white"/>
<path d="M170.585 201.272C174.217 201.272 177.35 201.664 180.091 202.447C182.797 203.23 184.755 204.013 185.965 204.76C188.885 206.504 190.701 205.365 191.377 201.344H194.083C193.905 203.443 193.762 206.041 193.691 209.102C193.62 212.162 193.549 216.219 193.549 221.273H190.843C190.416 218.461 189.597 215.721 188.386 212.981C187.176 210.276 185.431 208.034 183.153 206.29C180.874 204.547 177.919 203.692 174.323 203.692C171.831 203.692 169.731 204.333 167.986 205.579C166.277 206.824 165.387 208.639 165.387 210.952C165.387 213.23 166.17 215.187 167.701 216.895C169.268 218.604 171.262 220.205 173.718 221.771C176.175 223.337 178.738 224.974 181.408 226.718C185.716 229.529 189.348 232.34 192.303 235.152C195.258 237.999 196.753 241.664 196.753 246.22C196.753 249.636 195.649 252.59 193.406 255.116C191.163 257.643 188.208 259.6 184.577 260.953C180.91 262.305 176.851 262.981 172.365 262.981C169.766 262.981 167.488 262.768 165.458 262.305C163.429 261.842 161.684 261.273 160.225 260.597C159.121 260.134 158.053 259.707 157.056 259.28C156.059 258.853 155.133 258.497 154.279 258.213C153.425 257.999 152.677 258.248 152.036 258.995C151.395 259.743 150.897 260.81 150.541 262.163H147.835C148.013 259.743 148.12 256.789 148.227 253.337C148.298 249.849 148.369 245.259 148.369 239.493H151.075C151.573 243.586 152.535 247.18 153.923 250.312C155.312 253.444 157.163 255.899 159.548 257.679C161.898 259.458 164.889 260.348 168.52 260.348C170.763 260.348 172.828 259.707 174.715 258.462C176.602 257.216 177.563 255.152 177.563 252.269C177.563 248.96 176.353 246.184 173.896 243.978C171.44 241.771 168.306 239.422 164.533 236.824C161.791 234.867 159.192 232.91 156.736 230.988C154.279 229.066 152.285 226.931 150.719 224.653C149.152 222.34 148.405 219.707 148.405 216.789C148.405 213.372 149.437 210.525 151.502 208.176C153.567 205.828 156.308 204.084 159.691 202.909C163.108 201.877 166.74 201.272 170.585 201.272Z" fill="white"/>
<path d="M231.541 184.263V202.839H246.779V205.117H231.541V250.918C231.541 253.196 232.004 254.797 232.965 255.722C233.926 256.683 235.315 257.146 237.238 257.146C238.804 257.146 240.335 256.648 241.901 255.616C243.468 254.584 244.821 252.84 246.031 250.349L248.239 251.381C246.85 254.797 244.785 257.573 241.973 259.779C239.16 261.986 235.351 263.054 230.544 263.054C227.696 263.054 225.204 262.733 223.068 262.093C220.932 261.452 219.116 260.491 217.656 259.21C215.769 257.537 214.523 255.473 213.918 253.018C213.313 250.562 213.028 247.359 213.028 243.445V205.153H202.169V202.875H213.028V198.604C213.028 192.91 217.229 188.106 222.925 187.074C222.961 187.074 222.996 187.074 223.032 187.074C226.023 186.505 228.871 185.579 231.541 184.263Z" fill="white"/>
<path d="M268.46 262.27C262.692 262.27 258.527 260.953 255.928 258.284C253.329 255.65 252.047 252.412 252.047 248.639C252.047 245.401 252.901 242.732 254.575 240.703C256.248 238.675 258.42 236.967 261.09 235.65C263.76 234.333 266.573 233.23 269.563 232.376C272.518 231.522 275.367 230.632 278.072 229.778C280.778 228.924 282.986 227.892 284.659 226.789C286.332 225.65 287.187 224.226 287.187 222.483V213.657C287.187 211.7 286.831 209.92 286.083 208.39C285.335 206.86 284.232 205.65 282.736 204.831C281.241 204.013 279.283 203.586 276.862 203.586C275.153 203.586 273.408 203.799 271.7 204.226C269.991 204.653 268.566 205.329 267.427 206.326C269.848 207.073 271.7 208.248 273.052 209.778C274.37 211.344 275.046 213.088 275.046 215.045C275.046 217.607 274.049 219.671 272.02 221.166C269.991 222.696 267.605 223.443 264.864 223.443C261.766 223.443 259.417 222.589 257.814 220.881C256.212 219.173 255.429 217.109 255.429 214.689C255.429 212.483 256.07 210.668 257.316 209.244C258.562 207.821 260.307 206.433 262.55 205.152C264.971 203.942 267.854 202.981 271.272 202.305C274.655 201.628 278.357 201.272 282.309 201.272C286.261 201.272 289.857 201.628 293.025 202.34C296.194 203.052 298.864 204.369 301.036 206.255C303.03 207.998 304.312 210.134 304.917 212.66C305.522 215.187 305.807 218.39 305.807 222.234V253.052C305.807 254.867 306.02 256.148 306.448 256.896C306.875 257.643 307.623 258.035 308.655 258.035C309.509 258.035 310.328 257.857 311.112 257.465C311.895 257.074 312.607 256.647 313.319 256.113L314.601 258.035C312.785 259.387 310.72 260.419 308.335 261.166C305.949 261.878 303.315 262.234 300.395 262.234C295.233 262.234 291.815 261.309 290.142 259.458C288.468 257.608 287.578 255.472 287.507 253.052C285.371 256.148 282.701 258.462 279.568 259.956C276.363 261.522 272.696 262.27 268.46 262.27ZM278.393 255.01C280.031 255.01 281.561 254.654 282.986 253.978C284.41 253.301 285.798 252.091 287.187 250.348V227.109C286.154 228.639 284.694 229.885 282.879 230.917C281.027 231.949 279.14 233.017 277.182 234.191C275.26 235.365 273.622 236.86 272.34 238.675C271.059 240.49 270.418 242.91 270.418 245.935C270.418 249.173 271.201 251.522 272.732 252.91C274.263 254.333 276.185 255.01 278.393 255.01Z" fill="white"/>
<path d="M363.375 201.272C366.116 201.272 368.359 201.771 370.104 202.803C371.813 203.835 373.094 205.116 373.913 206.717C374.732 208.319 375.124 209.956 375.124 211.7C375.124 214.511 374.198 216.789 372.347 218.568C370.495 220.347 368.074 221.237 365.048 221.237C362.022 221.237 359.708 220.561 357.999 219.244C356.326 217.927 355.471 216.148 355.471 213.977C355.471 211.878 356.005 210.098 357.073 208.71C358.141 207.322 359.494 206.112 361.132 205.152C359.921 204.867 358.711 204.902 357.5 205.258C355.257 205.579 353.264 206.504 351.484 208.034C349.703 209.6 348.315 211.415 347.282 213.55C346.25 215.65 345.716 217.749 345.716 219.778V249.814C345.716 253.444 346.713 255.899 348.742 257.18C350.772 258.462 353.798 259.102 357.856 259.102V261.487C355.863 261.415 352.979 261.309 349.205 261.202C345.431 261.095 341.444 261.024 337.314 261.024C333.86 261.024 330.371 261.095 326.847 261.202C323.322 261.309 320.652 261.415 318.836 261.487V259.102C321.862 259.102 323.963 258.533 325.244 257.394C326.491 256.255 327.131 254.12 327.131 250.917V215.223C327.131 211.806 326.562 209.315 325.387 207.678C324.212 206.041 322.04 205.258 318.872 205.258V202.874C321.613 203.087 324.283 203.23 326.882 203.23C330.514 203.23 333.86 203.087 337.029 202.838C337.064 202.838 337.1 202.838 337.136 202.838C341.764 202.447 345.752 205.97 345.752 210.525V212.198C346.784 210.169 348.173 208.319 349.881 206.646C351.59 204.974 353.584 203.692 355.827 202.732C358.106 201.771 360.598 201.272 363.375 201.272Z" fill="white"/>
<path d="M398.124 202.805C402.752 202.414 406.74 205.937 406.74 210.492V250.919C406.74 254.087 407.381 256.258 408.627 257.396C409.873 258.535 412.009 259.105 415 259.105V261.489C413.433 261.418 411.048 261.311 407.772 261.204C404.497 261.097 401.186 261.026 397.839 261.026C394.493 261.026 391.075 261.097 387.657 261.204C384.203 261.311 381.64 261.418 379.896 261.489V259.105C382.922 259.105 385.022 258.535 386.304 257.396C387.55 256.258 388.191 254.122 388.191 250.919V215.225C388.191 211.809 387.621 209.318 386.446 207.681C385.271 206.044 383.1 205.261 379.931 205.261V202.876C382.673 203.09 385.343 203.232 387.942 203.232C391.573 203.232 394.92 203.09 398.088 202.841C398.053 202.805 398.088 202.805 398.124 202.805Z" fill="white"/>
<path d="M406.916 184.263C406.916 185.153 406.774 186.007 406.56 186.826C405.421 190.705 401.789 193.587 397.446 193.587C393.031 193.587 389.329 190.634 388.26 186.612C388.082 185.865 387.976 185.082 387.976 184.299C387.976 183.516 388.082 182.733 388.26 181.986C389.293 177.965 393.031 175.011 397.446 175.011C401.789 175.011 405.421 177.858 406.56 181.737C406.809 182.52 406.916 183.374 406.916 184.263Z" fill="white"/>
<path d="M267.818 340.137C267.818 340.21 267.818 340.247 267.818 340.247C267.818 340.247 267.781 340.21 267.781 340.174C267.781 340.174 267.781 340.137 267.818 340.137Z" fill="#E38625"/>
<path d="M313.636 282.947C312.711 285.83 311.785 288.712 310.824 291.559L306.907 303.303L304.949 309.139L304.736 309.851C304.7 309.922 304.629 310.1 304.629 310.136C304.629 310.171 304.629 310.207 304.629 310.207V310.243C304.629 310.243 304.629 310.243 304.593 310.314C304.558 310.421 304.522 310.563 304.486 310.67C304.415 310.919 304.308 311.132 304.202 311.381C304.13 311.488 304.095 311.595 304.024 311.702C303.952 311.809 303.881 311.915 303.881 311.915L303.668 312.164C303.525 312.342 303.347 312.52 303.205 312.663C302.991 312.841 302.813 313.019 302.599 313.196L302.137 313.552C301.531 313.979 301.033 314.264 300.534 314.584C300.036 314.869 299.573 315.154 299.11 315.403C295.372 317.467 291.776 319.282 288.501 321.346C286.863 322.342 285.332 323.41 284.122 324.478C283.552 325.012 283.054 325.545 282.769 325.937C282.698 326.044 282.626 326.15 282.626 326.186C282.591 326.257 282.555 326.293 282.591 326.293C282.626 326.293 282.662 326.257 282.662 326.221L282.698 326.186C282.698 326.186 282.698 326.186 282.698 326.221L282.662 326.506C282.377 328.108 282.199 330.136 282.021 332.165C281.807 334.229 281.594 336.435 281.167 338.784C280.704 341.133 280.134 343.659 278.532 346.471C277.749 347.859 276.609 349.353 275.007 350.563C273.619 351.667 271.946 352.485 270.237 352.912C265.288 354.763 260.303 356.542 255.319 358.321C254.928 358.464 254.607 358.749 254.429 359.104C254.073 359.887 253.681 360.635 253.325 361.382C252.044 364.015 250.655 366.649 249.231 369.211C247.807 371.774 246.312 374.371 244.781 376.863C243.25 379.389 241.648 381.88 239.939 384.3C236.592 389.176 233.032 393.909 229.294 398.464L229.044 398.784L228.653 399.14L217.865 409.39L213.13 413.909C212.489 414.514 211.492 414.479 210.923 413.838L206.508 408.927C204.123 406.258 201.702 403.589 199.316 400.884L195.72 396.827L194.83 395.795L193.833 394.763C193.513 394.443 193.121 393.98 192.765 393.589C192.409 393.162 192.053 392.77 191.733 392.343C188.956 388.962 186.784 385.226 185.04 381.916C183.366 378.678 181.871 375.866 180.198 373.233C180.162 373.197 180.162 373.161 180.126 373.126C178.168 370.67 176.21 368.286 174.252 365.83L168.057 358.001C163.892 352.805 159.833 347.538 155.739 342.307L155.027 341.382C153.674 339.638 152.321 338.464 150.327 338.819L150.149 338.855C150.149 338.855 142.281 340.314 140.892 340.385C140.216 340.421 139.397 340.385 138.542 340.207C137.652 340.029 136.727 339.638 135.872 339.175C135.445 338.926 135.125 338.677 134.697 338.321C134.484 338.143 134.235 337.93 134.057 337.716C133.843 337.503 133.772 337.36 133.594 337.182C133.024 336.471 132.81 336.008 132.526 335.51C132.063 334.585 131.814 333.837 131.564 333.125C131.102 331.738 130.817 330.421 130.568 329.389L129.713 326.008L128.04 319.211L126.402 312.378L125.975 310.67L125.904 310.314V310.243C125.904 310.172 125.904 310.136 125.868 310.065C125.797 309.816 125.619 309.495 125.298 309.246C124.942 308.997 124.515 308.819 124.017 308.748C123.945 308.748 123.945 308.712 123.803 308.712H120.741L113.621 308.641C112.197 308.606 110.594 308.499 108.779 307.68C107.889 307.253 106.963 306.648 106.322 305.83C105.646 305.082 105.183 304.228 104.898 303.445C104.293 301.88 104.15 300.563 103.972 299.282C103.901 298.641 103.866 298.001 103.83 297.431C103.794 296.897 103.759 296.364 103.688 295.759C103.296 291.203 102.619 286.577 102.05 281.951C102.05 280.136 104.613 279.78 105.112 281.488C106.393 285.936 107.604 290.42 108.779 294.904C108.921 295.474 109.028 296.114 109.17 296.719C109.313 297.324 109.384 297.823 109.526 298.321C109.776 299.353 110.096 300.278 110.452 300.883C110.63 301.168 110.808 301.346 110.95 301.417C111.057 301.488 111.164 301.488 111.342 301.524C111.698 301.595 112.446 301.63 113.371 301.488L120.243 300.634L121.987 300.421L122.877 300.314L123.305 300.278C123.447 300.243 123.732 300.243 123.945 300.243C125.797 300.171 127.684 300.527 129.428 301.381C131.173 302.2 132.739 303.517 133.879 305.296C134.163 305.723 134.413 306.186 134.626 306.684L134.911 307.431L135.089 307.93L135.659 309.602L137.973 316.221L140.287 322.841L141.426 326.15C141.462 326.257 141.498 326.328 141.533 326.435C142.138 328.001 142.85 329.78 144.275 330.848C144.31 330.883 144.346 330.919 144.381 330.919C144.381 330.919 144.381 330.919 144.417 330.919C145.165 331.453 146.126 331.809 147.372 331.809C147.55 331.809 147.728 331.809 147.906 331.773L152.321 330.919C152.855 330.848 153.246 330.35 153.175 329.816C153.14 329.567 152.463 329.175 151.715 329.282C148.796 329.638 148.333 327.503 148.369 327.467C148.369 327.467 153.852 326.435 154.314 326.471C156.13 326.613 156.842 326.506 158.587 327.218C161.72 328.464 164.212 330.955 166.562 333.98C170.834 338.855 175.106 343.731 179.343 348.642L185.858 356.186C188.03 358.713 190.166 361.24 192.338 363.766L192.552 364.015L192.837 364.443C195.115 367.788 197.073 371.346 198.782 374.443C200.527 377.539 202.058 380.137 203.945 382.379C204.158 382.663 208.644 387.574 209.534 388.571C206.65 392.023 201.88 386.293 201.88 386.293L200.883 385.048C200.527 384.621 199.921 384.585 199.494 384.905C199.067 385.261 199.031 385.902 199.387 386.293L203.41 391.169C205.048 392.948 206.864 393.838 208.751 393.838C208.893 393.838 209 393.838 209.143 393.838C210.638 393.731 211.92 393.09 212.952 392.343C212.988 392.343 212.988 392.379 212.988 392.379L213.45 391.952C213.486 391.916 213.486 391.916 213.522 391.916L217.509 388.179C217.545 388.144 217.58 388.108 217.616 388.037C221.069 384.016 224.345 379.887 227.442 375.581C230.646 371.133 233.708 366.613 236.521 361.951C237.945 359.603 239.298 357.218 240.651 354.834C241.292 353.624 241.968 352.45 242.609 351.24L243.072 350.314L243.179 350.101L243.214 349.994C243.179 349.994 243.143 350.03 243.143 350.065C243.179 350.03 244.104 348.642 244.46 348.143C244.532 348.037 244.638 347.93 244.745 347.823C245.991 346.791 246.988 346.684 247.38 346.328V346.293L247.949 346.115L250.014 345.51C251.581 345.047 254.109 344.264 256.565 343.517C256.743 343.446 256.921 343.41 257.099 343.339L258.345 343.019C258.701 343.659 258.417 345.296 257.384 345.688L255.889 346.222L255.533 346.328C254.999 346.435 254.678 346.969 254.785 347.503C254.892 347.93 255.248 348.215 255.64 348.286C255.746 348.286 255.853 348.286 255.996 348.25L260.339 347.147C268.279 345.652 269.453 336.649 269.453 336.649L269.489 336.577C269.525 336.435 269.56 336.328 269.596 336.186C270.059 334.513 270.45 332.627 270.806 330.634C271.198 328.606 271.518 326.506 272.195 324.122L272.302 323.659L272.408 323.339L272.551 322.912C272.658 322.663 272.764 322.378 272.871 322.129L273.227 321.453C273.476 320.99 273.726 320.634 274.011 320.243C274.26 319.887 274.545 319.602 274.794 319.282C275.862 318.108 276.894 317.289 277.962 316.506C280.027 315.083 282.021 314.015 284.015 313.054C287.967 311.168 291.954 309.709 295.657 308.214H295.693L296.974 307.68C297.366 307.502 297.757 307.324 298.007 307.218L298.327 306.506L299.36 304.406C299.36 304.406 299.36 304.406 299.36 304.371L301.069 300.883C302.92 297.182 304.771 293.481 306.694 289.815C308.082 287.146 309.471 284.442 310.895 281.808C311.678 280.1 314.206 281.168 313.636 282.947Z" fill="#E38625"/>
<path d="M242.36 350.567C242.432 350.495 242.576 350.387 242.72 350.244C242.54 350.387 242.432 350.495 242.36 350.567Z" fill="#E38625"/>
<path d="M178.173 37.6489C178.173 37.6093 178.173 37.5698 178.173 37.5698C178.173 37.5698 178.212 37.6093 178.173 37.6489C178.212 37.6489 178.212 37.6489 178.173 37.6489Z" fill="#E38625"/>
<path d="M155.527 65.9328C155.99 64.5093 156.453 63.0857 156.916 61.6622L158.838 55.8615L159.8 52.9789L159.906 52.623C159.942 52.5874 159.942 52.4807 159.942 52.4807C159.942 52.4451 159.942 52.4451 159.942 52.4451C159.942 52.4451 159.942 52.4451 159.942 52.4095C159.942 52.3383 159.978 52.3027 160.013 52.2315C160.049 52.1248 160.085 52.018 160.156 51.8757C160.191 51.8401 160.227 51.7689 160.263 51.7333C160.298 51.6621 160.334 51.6266 160.334 51.6266L160.441 51.4842C160.512 51.413 160.583 51.3063 160.654 51.2351C160.761 51.1283 160.832 51.0572 160.939 50.986L161.188 50.808C161.473 50.5945 161.722 50.4522 161.971 50.3098C162.221 50.1675 162.434 50.0251 162.683 49.9184C164.535 48.8863 166.315 47.9966 167.917 47.0002C168.736 46.502 169.484 45.9681 170.089 45.4343C170.374 45.1852 170.623 44.9005 170.765 44.7226C170.801 44.687 170.837 44.6158 170.837 44.5802C170.872 44.5446 170.872 44.509 170.872 44.509L170.837 44.5446C170.837 44.5446 170.837 44.5446 170.837 44.5802L170.872 44.4379C171.015 43.6194 171.086 42.6585 171.193 41.6265C171.299 40.5944 171.406 39.5268 171.62 38.3524C171.833 37.2136 172.118 35.9325 172.937 34.5445C173.329 33.8684 173.898 33.121 174.682 32.5161C175.358 31.9822 176.212 31.5552 177.031 31.3773C179.488 30.452 181.945 29.5623 184.401 28.7082C184.579 28.637 184.757 28.4947 184.828 28.3167C185.006 27.9253 185.184 27.5694 185.362 27.1779C186.003 25.8612 186.68 24.58 187.392 23.2989C188.104 22.0177 188.816 20.7366 189.599 19.491C190.347 18.2455 191.166 16.9999 191.984 15.8255C193.622 13.4055 195.402 11.0924 197.254 8.81475L197.36 8.6724L197.538 8.49446L202.879 3.44103L205.229 1.19902C205.549 0.914319 206.048 0.914319 206.332 1.23461L208.504 3.65456C209.679 4.9713 210.889 6.28804 212.064 7.64036L213.844 9.63327L214.307 10.1315L214.806 10.6297C214.984 10.8077 215.162 11.0212 215.34 11.1991C215.518 11.4126 215.696 11.6262 215.838 11.8041C217.227 13.4767 218.295 15.3273 219.149 16.9643C219.968 18.5657 220.716 19.9537 221.535 21.2704C221.535 21.306 221.57 21.306 221.57 21.306C222.532 22.516 223.528 23.6903 224.49 24.9359L227.551 28.8149C229.616 31.3773 231.61 33.9751 233.64 36.573L233.996 37.0357C234.672 37.8898 235.348 38.4592 236.31 38.3168H236.381C236.381 38.3168 240.297 37.6051 240.974 37.5695C241.294 37.5695 241.721 37.5695 242.149 37.6762C242.576 37.783 243.039 37.9609 243.466 38.1745C243.679 38.3168 243.822 38.4236 244.035 38.6015C244.142 38.7083 244.249 38.815 244.356 38.9218C244.463 39.0286 244.498 39.0997 244.57 39.1709C244.854 39.5268 244.961 39.7759 245.104 39.9894C245.317 40.4521 245.46 40.8079 245.566 41.1638C245.78 41.84 245.958 42.5161 246.065 43.0144L246.492 44.687L247.311 48.0678L248.13 51.4486L248.343 52.3027L248.379 52.4807V52.5162C248.379 52.5518 248.379 52.5874 248.415 52.5874C248.45 52.6942 248.557 52.8721 248.699 52.9789C248.877 53.0856 249.091 53.1924 249.34 53.228C249.376 53.228 249.376 53.228 249.447 53.228H250.942L254.467 53.2636C255.179 53.2992 255.962 53.3348 256.852 53.7262C257.28 53.9397 257.743 54.26 258.063 54.6515C258.383 55.043 258.633 55.4344 258.775 55.8259C259.06 56.6088 259.167 57.2494 259.238 57.89C259.273 58.2103 259.273 58.5305 259.309 58.8152C259.345 59.0999 259.345 59.3491 259.38 59.6338C259.594 61.8758 259.914 64.189 260.199 66.4666C260.199 67.3563 258.917 67.5342 258.668 66.6801C258.027 64.4737 257.422 62.2672 256.852 60.0252C256.781 59.7405 256.71 59.4202 256.639 59.1355C256.568 58.8508 256.532 58.6017 256.461 58.3526C256.318 57.8544 256.176 57.3917 255.998 57.0715C255.891 56.9291 255.82 56.8579 255.749 56.8223C255.678 56.7868 255.642 56.7868 255.571 56.7512C255.393 56.7156 255.037 56.7156 254.574 56.7512L251.156 57.1782L250.302 57.285L249.874 57.3206L249.661 57.3562C249.59 57.3562 249.447 57.3562 249.34 57.3917C248.415 57.4273 247.489 57.2494 246.634 56.8223C245.78 56.3953 244.997 55.7547 244.427 54.865C244.285 54.6515 244.178 54.4024 244.071 54.1889L243.929 53.833L243.822 53.5839L243.537 52.7654L242.398 49.4913L241.258 46.2173L240.689 44.5802C240.653 44.5446 240.653 44.4735 240.618 44.4379C240.297 43.6549 239.977 42.8008 239.265 42.267L239.229 42.2314C238.873 41.9823 238.375 41.8044 237.769 41.8044C237.698 41.8044 237.591 41.8044 237.52 41.8044L235.348 42.2314C235.064 42.267 234.886 42.5161 234.921 42.7653C234.957 42.9076 235.277 43.0855 235.633 43.0144C237.093 42.8364 237.307 43.9041 237.307 43.9041C237.307 43.9041 234.601 44.4023 234.352 44.4023C233.462 44.3311 233.106 44.4023 232.251 44.0464C230.685 43.4414 229.474 42.1959 228.299 40.7012C226.199 38.2812 224.062 35.8969 221.997 33.4413L218.758 29.7046C217.69 28.4591 216.621 27.2135 215.553 25.9679L215.482 25.8612L215.34 25.6477C214.201 23.975 213.239 22.2313 212.385 20.701C211.53 19.1707 210.747 17.8896 209.821 16.7864C209.715 16.644 207.507 14.2241 207.044 13.7258C208.468 12.0176 210.818 14.8646 210.818 14.8646L211.317 15.4696C211.495 15.6831 211.78 15.7187 211.993 15.5408C212.207 15.3629 212.242 15.0426 212.064 14.8646L210.071 12.4447C209.252 11.555 208.362 11.1279 207.436 11.1279C207.365 11.1279 207.294 11.1279 207.222 11.1279C206.475 11.1635 205.834 11.5194 205.335 11.8753C205.335 11.8753 205.335 11.8753 205.3 11.8397L205.086 12.0532C205.086 12.0532 205.051 12.0532 205.051 12.0888L203.092 13.9394C203.057 13.9749 203.057 13.9749 203.021 14.0105C201.312 16.0034 199.675 18.0319 198.144 20.1672C196.577 22.3736 195.046 24.6156 193.658 26.9288C192.946 28.0676 192.305 29.2776 191.628 30.452C191.308 31.057 190.988 31.6264 190.667 32.2313L190.418 32.694L190.347 32.8008L190.311 32.8363L190.347 32.8008C190.347 32.8008 189.884 33.5125 189.706 33.7616C189.67 33.8328 189.599 33.8684 189.563 33.904C188.958 34.4378 188.46 34.4734 188.246 34.6513L187.961 34.7225L186.965 35.0072C186.181 35.2207 184.935 35.6122 183.725 36.0036C183.618 36.0392 183.547 36.0392 183.475 36.0748L182.87 36.2527C182.692 35.9325 182.835 35.1139 183.333 34.936L184.081 34.6869L184.259 34.6157C184.508 34.5445 184.686 34.2954 184.615 34.0463C184.579 33.8328 184.401 33.6904 184.188 33.6549C184.116 33.6549 184.081 33.6549 184.009 33.6549L181.873 34.1887C177.957 34.936 177.352 39.3844 177.352 39.3844V39.42C177.316 39.4912 177.316 39.5268 177.316 39.598C177.067 40.4165 176.889 41.3418 176.711 42.3382C176.533 43.3347 176.355 44.3667 176.034 45.5767L175.963 45.7902L175.928 45.9681L175.856 46.1817C175.821 46.324 175.75 46.4664 175.714 46.5731L175.536 46.929C175.429 47.1425 175.287 47.3561 175.144 47.534C175.002 47.7119 174.895 47.8543 174.753 47.9966C174.219 48.566 173.72 48.9931 173.186 49.349C172.154 50.0607 171.193 50.5945 170.196 51.0572C168.237 51.9824 166.279 52.7298 164.428 53.4415L163.787 53.7262C163.574 53.7974 163.396 53.9042 163.253 53.9753L163.146 54.3312L162.648 55.3633L161.793 57.0715C160.868 58.8864 159.942 60.737 159.016 62.5519C158.34 63.8687 157.628 65.221 156.951 66.5377C156.489 67.3563 155.207 66.8224 155.527 65.9328Z" fill="#E38625"/>
<path d="M190.774 32.481C190.739 32.5165 190.668 32.5519 190.597 32.6229C190.668 32.5874 190.739 32.5165 190.774 32.481Z" fill="#E38625"/>
<path d="M188.921 167.182C188.814 167.858 188.743 168.57 188.743 169.282C188.743 169.994 188.814 170.705 188.921 171.381L40.1729 169.282L188.921 167.182Z" fill="#E28625"/>
<path d="M375.512 169.244C375.512 171.735 373.483 173.764 370.99 173.764H370.919L221.815 171.664C221.958 170.881 222.065 170.063 222.065 169.244C222.065 168.426 221.993 167.607 221.815 166.824L370.919 164.725C373.447 164.689 375.512 166.753 375.512 169.244Z" fill="#E28625"/>
<path d="M215.09 169.245C215.09 170.135 214.947 171.024 214.698 171.878C213.559 175.864 209.785 178.818 205.335 178.818C200.778 178.818 196.968 175.757 195.9 171.629C195.686 170.882 195.615 170.063 195.615 169.245C195.615 168.426 195.722 167.643 195.9 166.861C196.968 162.732 200.778 159.672 205.335 159.672C209.785 159.672 213.523 162.59 214.698 166.576C214.983 167.466 215.09 168.355 215.09 169.245Z" fill="#E28625"/>
</svg>
