<svg width="96" height="96" viewBox="0 0 96 96" fill="none" xmlns="http://www.w3.org/2000/svg">
<path d="M38.8196 29.5042C47.6851 37.2584 47.9965 43.1963 47.9965 43.1963C47.9965 43.1963 48.3152 37.2658 57.1733 29.5042C66.0389 21.7427 64.6676 14.2406 64.6676 14.2406C49.9608 16.0939 47.9965 39.6751 47.9965 39.6751C47.9965 39.6751 46.0395 16.0865 31.3328 14.2406C31.3328 14.2406 29.9614 21.7427 38.8196 29.5042Z" fill="#005683"/>
<path d="M47.9965 27.473C47.9965 27.473 54.0823 22.0985 52.2366 12.9507C50.3908 3.81776 48.0114 0.0222394 47.9965 0C47.9965 0 45.6022 3.81776 43.7565 12.9507C41.9107 22.0985 47.9817 27.4582 47.9965 27.473Z" fill="#005683"/>
<path d="M57.1736 66.4958C48.3081 58.7416 47.9967 52.8037 47.9967 52.8037C47.9967 52.8037 47.678 58.7342 38.8199 66.4958C29.9543 74.2573 31.3257 81.7594 31.3257 81.7594C46.0324 79.9061 47.9967 56.325 47.9967 56.325C47.9967 56.325 49.9537 79.9135 64.6604 81.7594C64.6604 81.7594 66.0318 74.2573 57.1736 66.4958Z" fill="#005683"/>
<path d="M47.997 68.5269C47.997 68.5269 41.9112 73.9015 43.757 83.0493C45.6027 92.1822 47.9822 95.9778 47.997 96C47.997 96 50.3913 92.1822 52.2371 83.0493C54.0828 73.9015 48.0119 68.5418 47.997 68.5269Z" fill="#005683"/>
<path d="M56.322 47.7924C56.322 47.7924 79.9091 45.8354 81.7549 31.1277C81.7549 31.1277 74.2532 29.7563 66.4922 38.615C58.7385 47.4811 52.801 47.7924 52.801 47.7924C52.801 47.7924 58.7311 48.1112 66.4922 56.9699C74.2532 65.836 81.7549 64.4645 81.7549 64.4645C79.9017 49.7569 56.322 47.7924 56.322 47.7924Z" fill="#005683"/>
<path d="M96 47.7924C96 47.7924 92.1825 45.398 83.0501 43.5521C73.9028 41.7063 68.5435 47.7776 68.5286 47.7924C68.5286 47.7924 73.9028 53.8786 83.0501 52.0327C92.1825 50.1869 95.9778 47.8073 96 47.7924Z" fill="#005683"/>
<path d="M43.1956 47.7924C43.1956 47.7924 37.2655 47.4737 29.5044 38.615C21.7434 29.7489 14.2417 31.1203 14.2417 31.1203C16.0949 45.8279 39.6746 47.7924 39.6746 47.7924C39.6746 47.7924 16.0875 49.7495 14.2417 64.4571C14.2417 64.4571 21.7434 65.8286 29.5044 56.9699C37.2581 48.1038 43.1956 47.7924 43.1956 47.7924Z" fill="#005683"/>
<path d="M27.4713 47.7924C27.4713 47.7924 22.0972 41.7063 12.9499 43.5521C3.81753 45.398 0.022238 47.7776 0 47.7924C0 47.7924 3.81753 50.1869 12.9499 52.0327C22.0972 53.8786 27.4565 47.8073 27.4713 47.7924Z" fill="#005683"/>
<path d="M45.2858 47.9998C45.2858 49.4972 46.5014 50.7128 47.9988 50.7128C49.4962 50.7128 50.7118 49.4972 50.7118 47.9998C50.7118 46.5025 49.4962 45.2868 47.9988 45.2868C46.5014 45.2868 45.2858 46.5025 45.2858 47.9998Z" fill="#005683"/>
</svg>
