<svg width="255" height="285" viewBox="0 0 255 285" fill="none" xmlns="http://www.w3.org/2000/svg">
<g opacity="0.5" clip-path="url(#clip0_2603_4223)">
<path d="M88.2364 284.407C99.8596 284.407 111.739 269.5 112.941 267.939C118.969 262.443 127.085 260.09 130.119 259.358C130.415 264.518 133.311 268.789 138.058 270.963C139.299 271.537 140.659 271.932 142.117 272.149C147.948 272.98 153.799 270.35 157.759 265.092C164.733 255.82 173.992 246.508 180.532 240.32C180.591 240.261 180.709 240.162 180.808 240.063L181.005 239.905C183.999 237.315 186.777 234.844 189.259 232.551C189.988 231.898 190.697 231.226 191.426 230.514L191.702 230.277C191.899 230.119 192.017 230 192.037 229.981C195.997 226.264 198.873 223.358 200.567 221.322C203.148 221.737 208.546 221.163 214.338 211.832C214.889 210.745 215.993 208.214 216.15 204.992C216.229 204.972 216.288 204.932 216.367 204.913C217.844 204.359 219.302 203.865 220.74 203.47C226.906 201.75 232.62 200.385 236.402 199.476C242.706 197.974 246.686 196.985 249.522 195.74C251.788 194.751 254.388 193.189 254.428 189.927C254.428 188.365 253.679 186.962 252.359 186.092C247.316 182.771 233.742 186.566 226.375 189.73C222.356 191.45 218.022 193.525 213.806 195.759C217.746 190.876 221.43 186.665 224.405 183.265C232.836 173.617 237.052 168.793 233.467 164.76C232.423 163.614 231.103 163.12 229.487 163.278C226.217 163.574 222.297 166.896 219.578 169.624C219.243 169.96 217.943 171.284 216.367 172.985C223.183 152.78 229.29 114.526 229.98 106.934C230.315 103.158 229.468 100.193 227.458 98.1168C224.286 94.835 219.479 95.092 219.263 95.1118C216.308 95.1909 213.097 97.1481 209.748 100.924C214.988 49.3449 193.14 28.31 190.599 26.0365C181.635 15.7364 169.027 7.39364 156.104 3.28154C143.712 -0.672402 132.858 -0.17816 127.085 4.62588C123.224 7.82857 121.195 11.4662 121.057 15.4399C120.899 19.1764 122.535 22.3 123.835 24.1781C116.703 31.0777 117.708 38.7879 117.866 39.6578C119.107 48.3762 114.674 52.5872 110.38 56.6597C106.459 60.3764 102.027 64.5874 102.874 71.8033C103.484 76.9632 101.101 79.2565 98.0669 82.1824C94.7375 85.3456 90.5808 89.2797 91.4476 97.4842C92.2159 104.641 90.896 106.183 89.0836 108.338C87.6651 110.018 85.7542 112.292 84.5722 116.938C82.4052 125.379 88.926 137.043 92.5902 142.678C65.3645 134.908 49.9983 133.425 45.7036 138.17C44.1079 139.91 44.3246 141.946 44.6595 142.796C45.6445 146.236 45.6248 148.589 44.561 150.111C42.6501 152.82 36.8188 153.689 27.3824 154.243C20.0539 154.698 16.0942 156.358 14.9515 159.482C14.2423 161.4 14.7939 163.673 16.4684 165.571C18.2218 168.24 20.5464 173.499 19.4432 176.504C18.9507 177.888 17.7687 178.817 15.8183 179.39L14.4196 179.805C7.78064 181.703 4.13609 182.751 3.17078 186.092C2.26457 189.057 4.29371 192.201 8.35196 196.946C15.7789 205.585 13.0012 208.926 7.44573 214.106C6.91383 214.6 6.36223 215.074 5.86972 215.509L5.1999 216.102C2.67827 218.277 0.511225 220.175 0.668827 222.962C0.787028 225.552 2.79647 227.826 8.64745 231.938C17.158 237.908 11.9965 252.202 11.3858 253.823L11.0115 254.673L11.3661 255.642C11.9965 257.204 14.5378 262.383 21.1571 265.21C28.6432 268.373 38.3948 267.326 50.1362 262.087C50.2938 262.008 54.5096 259.655 61.6608 256.373C61.3259 257.184 61.0698 257.955 61.0107 258.587C60.8334 260.92 61.9169 263.312 64.2415 265.685C66.5465 268.018 68.221 268.512 69.5803 268.907C70.979 269.303 72.2989 269.678 75.9041 276.024C78.7015 280.967 82.0112 283.675 86.03 284.288C86.7786 284.426 87.5272 284.486 88.2759 284.486L88.2364 284.407ZM133.133 255.741L130.69 256.215C129.469 256.452 118.595 258.726 110.852 265.863L110.675 266.06C110.537 266.238 97.4168 283.221 86.4634 281.323C83.3705 280.848 80.7504 278.614 78.4257 274.522C74.5251 267.622 72.693 266.673 70.3486 266.021C69.1863 265.685 68.0634 265.349 66.3101 263.569C64.6159 261.83 63.8081 260.209 63.9264 258.765C63.9855 257.955 65.1872 255.662 66.2904 253.981L69.009 249.81L64.4583 251.806C54.6869 256.096 48.7966 259.378 48.7572 259.418C37.922 264.261 28.9584 265.289 22.2603 262.462C16.9019 260.169 14.7545 256.136 14.1438 254.713C15.1288 252.044 20.3297 236.524 10.2826 229.486C5.57421 226.185 3.62389 224.247 3.54509 222.804C3.46629 221.499 4.76651 220.313 7.07144 218.336L7.74124 217.743C8.25344 217.289 8.80506 216.814 9.37636 216.3C15.4834 210.606 19.4432 205.427 10.519 195.028C7.38664 191.39 5.41661 188.622 5.92882 186.962C6.44103 185.163 9.73097 184.234 15.1682 182.672L16.567 182.257C20.1327 181.229 21.5708 179.133 22.1421 177.551C23.7575 173.123 20.8025 166.856 18.7931 163.851L18.6552 163.693C18.3006 163.278 17.1383 161.854 17.6308 160.53C18.1036 159.264 20.1721 157.663 27.4612 157.208C38.2766 156.556 44.2458 155.548 46.8856 151.831C48.5011 149.518 48.639 146.355 47.3584 141.847C47.319 141.729 47.1023 140.958 47.7918 140.187C49.4073 138.427 57.0707 135.462 93.6737 146.118C93.9298 146.197 94.1859 146.256 94.4026 146.296L99.1504 147.106L96.3924 143.152C90.8763 135.284 85.6163 124.45 87.3499 117.669C88.3744 113.676 89.911 111.857 91.2506 110.255C93.3782 107.745 95.2103 105.59 94.3041 97.1678C93.5949 90.4264 96.8652 87.3225 100.017 84.3373C103.228 81.2532 106.518 78.0703 105.73 71.4672C105.06 65.7538 108.607 62.3929 112.35 58.8344C116.723 54.663 122.18 49.4833 120.722 39.2229C120.604 38.4518 119.717 31.8092 126.376 25.7992L127.755 24.5537L126.632 23.071C125.568 21.6871 123.815 18.8798 123.953 15.5585C124.052 12.4547 125.726 9.54853 128.898 6.91916C141.151 -3.26223 172.829 10.2405 188.432 28.132C191.052 30.4846 212.703 51.3614 206.399 103.81L205.492 111.204L209.964 105.254C213.412 100.687 216.721 98.1366 219.322 98.0772C219.401 98.0772 223.065 97.8993 225.271 100.193C226.65 101.636 227.222 103.81 226.966 106.677C225.981 117.59 217.45 167.726 209.945 180.537C209.767 180.813 209.61 181.07 209.472 181.288L211.993 182.81C212.151 182.573 212.289 182.336 212.447 182.079C214.279 179.39 219.558 173.815 221.607 171.719C224.858 168.457 227.892 166.421 229.704 166.243C230.374 166.164 230.807 166.322 231.201 166.757C233.033 168.813 228.936 173.499 222.159 181.268C219.085 184.787 215.323 189.097 211.304 194.079C211.205 194.198 211.048 194.395 210.91 194.593L210.811 194.731C210.24 195.324 209.826 196.254 210.733 197.38C210.989 197.717 211.127 197.914 211.284 198.132C211.442 198.369 211.619 198.626 211.796 198.843L212.447 199.713L213.471 199.338C213.865 199.199 214.141 198.962 214.338 198.784C218.731 196.432 223.282 194.237 227.497 192.438C236.875 188.405 247.71 186.566 250.685 188.543C251.177 188.879 251.433 189.314 251.433 189.888C251.433 190.797 251.039 191.805 248.301 193.011C245.681 194.158 241.82 195.127 235.752 196.57C231.871 197.499 226.138 198.883 219.913 200.603C218.396 201.038 216.84 201.552 215.323 202.125C214.988 202.244 214.633 202.382 214.298 202.56L213.215 203.114V204.339C213.195 207.305 212.092 209.717 211.757 210.369C206.556 218.732 202.281 218.712 200.685 218.297L199.444 217.961L198.637 218.989C197.1 220.926 194.184 223.892 189.988 227.826C189.831 227.964 189.732 228.043 189.614 228.142L189.397 228.34C188.649 229.071 187.979 229.704 187.27 230.337C184.787 232.63 182.049 235.081 179.074 237.632L178.542 238.106C171.884 244.413 162.506 253.862 155.395 263.293C152.085 267.681 147.278 269.876 142.53 269.204C141.368 269.046 140.285 268.729 139.299 268.275C135.281 266.436 132.956 262.68 133.055 258.232L133.114 255.741H133.133ZM89.0836 265.744C89.3397 265.744 89.5958 265.744 89.8519 265.705C91.881 265.467 93.5949 264.36 94.6981 262.581C97.1804 258.508 105.021 255.246 109.808 254.258C116.861 252.755 120.013 251.984 120.348 249.315C120.387 249.078 120.387 248.841 120.348 248.624C120.269 248.011 119.914 246.844 118.319 246.093C114.379 244.235 105.986 244.729 105.632 244.749C84.7101 246.548 80.5731 254.179 79.785 256.769C79.2531 257.816 79.2728 259.042 79.8441 260.268C81.0262 262.739 84.9268 265.606 88.6699 265.784C88.8078 265.784 88.9457 265.784 89.0836 265.784V265.744ZM108.37 247.615C111.168 247.615 115.108 247.833 117.058 248.742C117.314 248.861 117.413 248.96 117.432 248.999C116.979 249.691 111.719 250.818 109.198 251.352C104.056 252.419 95.2891 255.899 92.1765 261.039C91.5658 262.047 90.6596 262.62 89.517 262.759C89.2806 262.779 89.0442 262.779 88.8078 262.759C86.2664 262.64 83.2917 260.584 82.5037 258.943C82.2279 258.37 82.3658 258.133 82.4249 258.034L82.5628 257.678C82.7992 256.828 85.439 249.395 105.829 247.655C106.38 247.615 107.287 247.595 108.35 247.595L108.37 247.615ZM69.797 229.348C76.1405 229.348 83.2326 225.789 90.1868 222.31C95.427 219.681 100.707 217.032 105.927 215.569C121.254 211.259 135.458 217.032 137.034 217.684L146.845 222.112L140.639 213.295C123.835 189.433 79.588 194.85 66.1722 203.47C60.8137 206.929 57.6617 210.844 56.8146 215.153C56.2236 218.079 56.854 220.471 57.5041 221.954C57.8193 222.686 58.1936 223.299 58.3906 223.536C61.7002 227.766 65.6009 229.348 69.8364 229.348H69.797ZM117.728 211.022C113.768 211.022 109.493 211.476 105.12 212.702C99.6429 214.224 94.2056 216.952 88.9654 219.582C77.3816 225.394 67.4527 230.376 60.6167 221.618C60.6167 221.618 60.4197 221.322 60.1833 220.768C59.7105 219.681 59.2377 217.901 59.6908 215.727C60.3803 212.247 63.0989 208.965 67.7482 205.96C73.6977 202.145 87.3499 198.547 101.928 199.081C111.522 199.417 128.977 201.927 138.177 214.956C136.758 214.363 128.405 211.022 117.728 211.022ZM131.478 195.917C132.542 195.917 133.389 195.581 134.138 194.889C134.335 194.712 134.532 194.494 134.69 194.257C135.123 193.604 135.714 192.201 134.788 190.105C132.267 184.451 122.554 177.097 122.141 176.78C96.8061 158.77 85.0056 164.444 82.5431 166.065C81.499 166.5 80.2381 167.469 79.6471 169.644C78.6424 173.38 80.179 180.062 84.0206 183.641C84.4343 184.036 84.8677 184.392 85.3011 184.669C87.606 186.211 90.3838 186.547 93.0827 185.617C99.9384 183.225 112.034 187.001 118.437 190.441C125.174 194.059 128.957 195.917 131.478 195.917ZM91.2112 166.915C96.9637 166.915 106.38 169.248 120.407 179.192C123.007 181.15 130.257 187.199 132.089 191.311C132.345 191.884 132.385 192.359 132.227 192.596C131.045 193.684 125.943 191.074 119.836 187.812C113.433 184.372 100.254 179.963 92.1174 182.81C90.2853 183.443 88.4926 183.225 86.9362 182.197C86.621 181.98 86.3255 181.743 86.0497 181.466C83.1144 178.718 81.7354 173.281 82.5037 170.415C82.7401 169.545 83.1538 169.011 83.7448 168.774L84.0797 168.596C84.5525 168.26 86.7983 166.896 91.2112 166.896V166.915ZM189.791 193.426L193.219 191.311C193.672 191.034 194.106 190.777 194.539 190.54L194.933 190.323L195.13 189.927C200.981 178.441 211.284 156.991 214.574 142.322C216.524 133.623 216.111 127 213.333 122.651C211.107 119.152 208.152 118.48 208.014 118.46L206.28 118.084L206.221 119.844C205.354 143.449 195.327 176.484 191.052 189.611L189.811 193.446L189.791 193.426ZM209.058 122.216C211.284 123.916 214.574 128.72 211.678 141.65C209.294 152.226 203.148 166.52 197.77 177.848C202.321 162.408 208.014 140.068 209.058 122.216ZM156.577 188.01C157.837 188.01 159.413 187.436 161.186 185.538C170.524 175.654 177.676 149.142 178.464 146.157C195.327 72.5941 172.455 53.7536 167.077 50.452C165.895 49.1275 163.688 47.7634 159.748 48.2576C151.533 49.3449 139.457 58.3402 135.616 68.7786C133.173 75.3816 134.296 81.5695 138.866 86.6701C146.254 94.9339 156.064 119.211 152.755 152.147C150.351 176.148 150.213 184.589 154.173 187.239C154.39 187.377 154.587 187.496 154.843 187.594C155.316 187.812 155.887 187.99 156.557 187.99L156.577 188.01ZM156.045 184.906L155.02 186.033L155.848 184.807C152.932 182.869 154.075 169.011 155.729 152.483C159.138 118.578 148.834 93.3918 141.092 84.7327C137.31 80.502 136.384 75.3421 138.413 69.8461C141.782 60.673 153.07 52.1522 160.142 51.2231C162.349 50.9265 164.023 51.401 164.969 52.5476L165.363 52.8837C168.2 54.5641 192.549 71.3684 175.587 145.445C175.292 146.553 168.022 173.973 159.039 183.502C157.818 184.787 156.813 185.262 156.025 184.906H156.045ZM134.315 172.372C134.493 172.372 134.67 172.372 134.828 172.352C137.467 172.115 139.496 170.118 140.816 166.441L140.876 166.243C140.915 166.085 143.634 155.884 143.968 144.496C144.382 129.709 140.738 119.943 133.094 115.455C123.835 109.998 117.866 114.526 115.738 116.72C109.887 122.73 108.272 134.967 112.153 144.002C112.586 145.011 113.039 145.9 113.551 146.711C114.714 148.609 115.955 150.724 117.216 152.899C124.248 164.958 128.996 172.372 134.335 172.372H134.315ZM124.583 115.791C126.553 115.791 128.878 116.404 131.597 118.005C148.007 127.653 138.137 165.037 138.039 165.413C137.132 167.924 135.97 169.268 134.552 169.387C130.868 169.742 125.825 161.795 119.737 151.376C118.457 149.182 117.216 147.047 116.033 145.109C115.6 144.417 115.206 143.666 114.832 142.796C111.443 134.908 112.822 123.896 117.826 118.756C119.343 117.195 121.55 115.771 124.564 115.771L124.583 115.791Z" fill="#57A5AF"/>
<path d="M88.2376 285C100.117 285 112.095 270.015 113.414 268.315C118.852 263.352 126.121 261 129.588 260.11C130.101 265.211 133.075 269.343 137.823 271.517C139.104 272.11 140.542 272.526 142.039 272.743C148.087 273.593 154.135 270.865 158.233 265.448C165.187 256.235 174.406 246.924 180.927 240.736C180.967 240.716 181.085 240.597 181.203 240.479L181.361 240.34C184.335 237.77 187.113 235.299 189.615 232.986C190.344 232.334 191.073 231.662 191.802 230.93L192.058 230.713C192.255 230.554 192.373 230.416 192.412 230.396C196.234 226.818 199.032 223.971 200.765 221.935C203.681 222.271 209.099 221.322 214.792 212.129C215.422 210.903 216.447 208.472 216.663 205.407C218.082 204.874 219.481 204.419 220.84 204.024C226.986 202.323 232.68 200.959 236.462 200.05C242.786 198.547 246.825 197.539 249.721 196.254C251.966 195.266 254.941 193.546 254.98 189.908C254.98 188.129 254.133 186.547 252.636 185.578C247.356 182.099 233.862 185.816 226.1 189.176C222.869 190.56 219.441 192.181 216.033 193.901C219.264 189.987 222.258 186.547 224.741 183.7C233.448 173.736 237.782 168.774 233.862 164.346C232.699 163.061 231.183 162.487 229.39 162.685C225.942 163.001 221.904 166.402 219.126 169.189C218.929 169.387 218.417 169.921 217.708 170.652C224.012 150.467 229.784 115.119 230.532 106.974C230.887 103.02 229.981 99.8965 227.834 97.6823C224.465 94.1831 219.382 94.4796 219.185 94.4994C216.427 94.5785 213.492 96.16 210.458 99.2243C215.068 48.5744 193.437 27.7964 190.935 25.5822C181.912 15.2229 169.245 6.86029 156.243 2.70865C143.654 -1.3046 132.603 -0.770817 126.653 4.17161C122.654 7.49292 120.566 11.2689 120.408 15.4206C120.27 18.9989 121.669 22.0434 123.009 24.0995C116.035 31.1375 117.079 38.8872 117.217 39.7571C118.418 48.1592 114.084 52.2713 109.908 56.245C105.889 60.0606 101.338 64.3901 102.205 71.8828C102.796 76.7462 100.609 78.8418 97.5755 81.7677C94.1476 85.0099 89.8727 89.0627 90.7789 97.5637C91.5275 104.463 90.3455 105.847 88.5528 107.963C87.095 109.683 85.1249 112.035 83.9035 116.8C81.8547 124.767 87.2132 135.344 91.1532 141.69C64.2427 134.118 49.6251 132.872 45.1531 137.775C43.3604 139.732 43.6165 142.065 43.9908 143.014C44.897 146.197 44.897 148.431 43.9514 149.756C42.1784 152.266 36.2289 153.097 27.2062 153.631C19.6019 154.105 15.5043 155.884 14.2632 159.265C13.4752 161.38 14.0858 163.891 15.8983 165.947C17.5334 168.418 19.7989 173.479 18.7745 176.287C18.3411 177.473 17.297 178.303 15.5437 178.797L14.1449 179.213C7.30896 181.17 3.54621 182.257 2.5021 185.914C1.51708 189.137 3.60531 192.419 7.80147 197.322C14.8936 205.566 12.3916 208.59 6.95436 213.651C6.42245 214.126 5.89055 214.6 5.37834 215.055L4.70853 215.648C2.1869 217.823 -0.196836 219.899 -0.0195339 222.983C0.118368 225.79 2.18691 228.182 8.21519 232.393C16.3711 238.106 11.3278 252.005 10.7368 253.566L10.2837 254.614L10.7171 255.82C11.3672 257.421 13.9873 262.819 20.8233 265.725C28.467 268.967 38.3763 267.899 50.2752 262.581C51.3981 261.969 54.9836 260.051 60.5193 257.461C60.4208 257.837 60.342 258.192 60.3223 258.489C60.1253 261 61.2679 263.53 63.7108 266.041C66.1142 268.493 67.8872 269.007 69.286 269.422C70.5862 269.778 71.7879 270.114 75.2551 276.262C78.1511 281.363 81.5986 284.17 85.8145 284.822C86.5631 284.961 87.3511 285.02 88.1391 285.02L88.2376 285ZM130.672 258.627L129.982 258.786C126.771 259.557 118.635 261.949 112.528 267.504C111.169 269.244 99.5455 283.814 88.2179 283.814C87.489 283.814 86.7601 283.755 86.0706 283.636C82.229 283.043 79.0573 280.433 76.3583 275.649C72.635 269.086 71.1969 268.69 69.6799 268.255C68.3994 267.88 66.8037 267.405 64.617 265.191C62.4303 262.937 61.4058 260.703 61.5634 258.548C61.6028 258.054 61.7999 257.362 62.1545 256.532L62.7652 255.108L61.3664 255.761C55.0624 258.667 50.9647 260.861 49.8615 261.454C38.2581 266.654 28.664 267.702 21.3355 264.598C14.9133 261.87 12.4507 256.828 11.8597 255.346L11.5839 254.614L11.8597 253.982C12.5098 252.301 17.8092 237.612 8.92438 231.385C3.25071 227.411 1.30038 225.256 1.18218 222.884C1.04428 220.373 3.11282 218.574 5.51625 216.498L6.18605 215.905C6.69825 215.47 7.23017 214.976 7.78178 214.482C13.4357 209.223 16.4893 205.546 8.72738 196.491C4.78733 191.905 2.81731 188.919 3.66442 186.211C4.53123 183.166 8.07727 182.158 14.4996 180.32L15.8983 179.904C18.0259 179.292 19.3458 178.224 19.9171 176.662C21.0991 173.44 18.7548 168.043 16.8833 165.196C15.3073 163.397 14.7951 161.341 15.4255 159.641C16.4893 156.754 20.2717 155.212 27.3441 154.777C37.1942 154.184 42.9073 153.314 44.9758 150.388C46.1382 148.728 46.1973 146.237 45.1531 142.579C44.8379 141.808 44.6803 140.049 46.079 138.526C50.1767 134.019 65.7399 135.601 92.3746 143.192L93.8916 143.627L93.0247 142.303C89.9121 137.498 82.9185 125.439 85.0855 117.037C86.2282 112.529 88.1194 110.295 89.4787 108.674C91.3108 106.5 92.7686 104.799 91.9806 97.3857C91.1532 89.4779 95.1721 85.6425 98.4226 82.5782C101.456 79.6523 104.077 77.1416 103.407 71.7049C102.599 64.8053 106.933 60.6932 110.735 57.0753C115.128 52.9039 119.679 48.5744 118.399 39.5594C118.261 38.729 117.276 31.2956 124.191 24.5937L124.545 24.2379L124.269 23.8227C122.969 21.9446 121.452 18.9593 121.61 15.4601C121.748 11.6643 123.698 8.16509 127.421 5.08101C133.036 0.375826 143.674 -0.0986471 155.869 3.79598C168.693 7.88831 181.164 16.1125 190.088 26.373C192.629 28.6267 214.299 49.4838 209.099 100.806L208.921 102.625L210.143 101.261C213.374 97.6032 216.447 95.7251 219.244 95.646C219.323 95.646 223.992 95.3692 226.986 98.4731C228.878 100.43 229.685 103.238 229.35 106.836C228.74 113.538 222.711 152.227 215.777 172.748L214.89 175.357L216.762 173.341C218.338 171.661 219.638 170.336 219.953 170C222.593 167.351 226.395 164.128 229.488 163.832C230.926 163.693 232.069 164.108 232.975 165.117C236.206 168.754 232.089 173.46 223.913 182.83C220.899 186.27 217.235 190.481 213.314 195.345L211.601 197.48C211.502 197.322 211.384 197.163 211.226 196.986C210.675 196.294 210.694 195.72 211.266 195.107L211.423 194.91C211.561 194.732 211.699 194.554 211.798 194.435C215.856 189.394 219.619 185.084 222.652 181.624C229.902 173.341 233.882 168.774 231.695 166.323C231.163 165.73 230.532 165.512 229.685 165.611C227.715 165.789 224.622 167.845 221.234 171.265C218.831 173.717 213.787 179.074 212.014 181.704C211.955 181.783 211.916 181.881 211.857 181.961L210.32 181.031C210.32 181.031 210.419 180.893 210.458 180.814C218.003 167.944 226.612 117.314 227.577 106.678C227.853 103.633 227.223 101.3 225.726 99.7383C223.263 97.1881 219.284 97.4451 219.244 97.4451C216.545 97.5044 213.058 100.134 209.512 104.859L206.36 109.05L206.991 103.85C209.65 81.7479 207.739 62.5911 201.317 46.9335C196.451 35.0519 190.521 29.1803 188.827 27.658C173.106 9.62804 141.015 -3.93397 128.525 6.42535C125.215 9.17334 123.481 12.2376 123.363 15.4996C123.225 18.9989 125.057 21.9446 126.161 23.3878L126.949 24.4356L125.983 25.3054C119.108 31.5131 120.014 38.4918 120.132 39.2628C121.551 49.2268 116.212 54.2878 111.937 58.3406C108.076 61.998 104.451 65.4577 105.14 71.4677C105.909 77.794 102.835 80.7397 99.6046 83.8435C96.492 86.7892 92.9656 90.1303 93.7142 97.1683C94.6008 105.333 92.8277 107.409 90.7986 109.801C89.3999 111.462 87.8239 113.34 86.7601 117.472C84.9673 124.45 90.2864 135.462 95.8813 143.429L97.8316 146.217L94.4826 145.644C94.2856 145.604 94.0492 145.545 93.8128 145.485C58.2341 135.146 49.4084 137.439 47.3202 139.732C46.414 140.721 46.6898 141.769 46.7686 141.966C47.99 146.256 47.8718 149.281 46.3746 151.416C43.8726 154.955 38.0217 155.924 27.4032 156.556C21.2961 156.932 17.8092 158.178 17.0409 160.253C16.4302 161.894 17.7501 163.535 18.1835 164.01L18.282 164.148C20.1929 167.015 23.0889 173.084 21.5522 177.275C21.0203 178.718 19.7004 180.656 16.3711 181.624L14.9724 182.04C9.1411 183.7 5.94964 184.629 5.33894 186.745C4.74793 188.662 6.69827 191.47 10.0473 195.364C18.6563 205.388 15.0315 210.172 8.94408 215.826C8.39248 216.34 7.84087 216.815 7.32866 217.269L6.65886 217.862C4.21603 219.978 2.85672 221.243 2.93552 222.805C3.01432 224.485 4.96463 226.482 9.90939 229.942C19.5231 236.683 14.6375 251.55 13.554 254.476L13.4751 254.693L13.5736 254.911C14.2828 256.552 16.509 260.644 22.0054 262.977C28.861 265.883 37.9231 264.855 48.975 259.932C49.0735 259.873 54.9639 256.611 64.6761 252.321L67.4144 251.115L65.7793 253.626C64.8731 255.01 63.3956 257.619 63.3365 258.687C63.2183 260.308 64.0654 262.087 65.8778 263.945C67.7493 265.843 68.9707 266.199 70.1725 266.555C72.3789 267.168 74.1125 268.077 77.8949 274.779C80.3181 279.05 83.0761 281.363 86.3464 281.877C97.6543 283.854 110.991 266.575 111.11 266.397L111.247 266.259C118.852 259.26 129.549 257.026 130.751 256.809L132.465 256.473L132.425 258.232C132.307 262.937 134.789 266.891 139.025 268.829C140.049 269.303 141.192 269.639 142.413 269.817C147.397 270.509 152.421 268.216 155.829 263.669C162.921 254.278 172.279 244.828 178.898 238.561L179.41 238.106C182.365 235.556 185.123 233.085 187.606 230.792C188.315 230.159 189.004 229.526 189.753 228.775L190.305 228.281C194.54 224.307 197.475 221.322 199.032 219.365L199.603 218.653L200.47 218.89C202.204 219.345 206.774 219.424 212.192 210.686C212.566 209.935 213.708 207.444 213.728 204.34V203.47L214.496 203.094C214.812 202.936 215.147 202.798 215.462 202.699C216.979 202.126 218.515 201.612 220.013 201.177C226.317 199.417 232.266 197.994 235.832 197.144C241.939 195.681 245.84 194.732 248.479 193.546C250.903 192.478 251.947 191.391 251.966 189.888C251.966 189.117 251.612 188.485 250.962 188.05C247.79 185.954 236.915 187.714 227.203 191.885C222.968 193.704 218.397 195.898 213.984 198.271L213.866 198.35C213.689 198.508 213.492 198.666 213.216 198.765L212.605 198.982L212.211 198.468C212.054 198.251 211.876 198.014 211.719 197.776C211.66 197.697 211.601 197.618 211.561 197.539L213.984 196.254C218.18 194.04 222.514 191.964 226.514 190.244C234.315 186.883 247.356 183.522 251.947 186.547C253.089 187.298 253.759 188.524 253.759 189.888C253.72 192.794 251.434 194.178 249.208 195.167C246.411 196.392 242.431 197.401 236.186 198.883C232.384 199.793 226.671 201.177 220.505 202.877C219.067 203.292 217.589 203.786 216.092 204.34L215.738 204.478L215.501 204.953C215.363 207.997 214.339 210.389 213.748 211.556C208.212 220.472 203.129 221.124 200.608 220.729L200.273 220.67L200.056 220.927C198.382 222.943 195.525 225.829 191.585 229.546C191.546 229.586 191.447 229.685 191.29 229.803L190.994 230.06C190.245 230.811 189.536 231.464 188.807 232.116C186.305 234.429 183.528 236.901 180.573 239.471L180.376 239.649C180.277 239.747 180.179 239.846 180.12 239.886C173.54 246.133 164.241 255.484 157.248 264.756C153.426 269.837 147.791 272.387 142.157 271.596C140.758 271.399 139.458 271.023 138.276 270.469C133.725 268.394 130.948 264.341 130.672 259.379L130.633 258.667L130.672 258.627ZM133.725 255.01L130.573 255.622C129.352 255.86 118.32 258.153 110.459 265.408L110.243 265.626C110.085 265.843 97.1027 282.549 86.5631 280.69C83.6474 280.236 81.1652 278.101 78.9391 274.166C74.9202 267.069 72.9896 266.081 70.5074 265.389C69.3647 265.053 68.3797 264.776 66.7249 263.095C65.1686 261.474 64.42 260.011 64.5185 258.746C64.5579 258.133 65.6414 255.998 66.784 254.239L70.6059 248.387L64.223 251.194C54.432 255.504 48.5022 258.805 48.4628 258.825C37.7853 263.59 29.0383 264.618 22.4979 261.83C17.6319 259.754 15.524 256.235 14.7754 254.594C16.0559 251.056 20.7051 235.971 10.6186 228.914C7.64387 226.838 4.21604 224.228 4.13723 222.686C4.07813 221.658 5.35864 220.492 7.44686 218.693L8.13638 218.08C8.64859 217.625 9.20018 217.131 9.77149 216.617C15.8983 210.903 20.2323 205.309 10.9732 194.514C8.51068 191.628 6.04815 188.485 6.50126 187.002C6.91496 185.519 10.264 184.55 15.327 183.107L16.7257 182.692C20.5278 181.585 22.0645 179.331 22.6949 177.611C24.4088 172.965 21.3552 166.481 19.267 163.377L19.1094 163.179C18.873 162.903 17.7895 161.637 18.1835 160.609C18.4593 159.878 19.8974 158.138 27.5017 157.683C38.5142 157.031 44.6015 155.983 47.3793 152.049C49.1129 149.578 49.2705 146.256 47.9309 141.571C47.8915 141.452 47.7733 140.978 48.2264 140.484C49.4281 139.179 56.2247 135.739 93.5172 146.573C93.793 146.652 94.0689 146.731 94.3053 146.77L100.452 147.818L96.8663 142.698C91.429 134.928 86.2282 124.292 87.9224 117.709C88.9074 113.854 90.4046 112.075 91.7048 110.513C93.9113 107.903 95.8222 105.649 94.8963 96.9706C94.2068 90.5059 97.2406 87.6591 100.432 84.6343C103.742 81.4514 107.15 78.1696 106.322 71.2502C105.692 65.8333 109.12 62.5713 112.745 59.1116C117.217 54.8611 122.792 49.5628 121.295 38.986C121.176 38.2743 120.349 31.869 126.771 26.0962L128.564 24.4949L127.106 22.5772C126.101 21.2724 124.427 18.5837 124.565 15.4601C124.663 12.5342 126.259 9.7862 129.313 7.25568C134.809 2.68888 144.974 2.76796 157.248 7.43361C168.969 11.9016 180.474 19.7304 188.039 28.4093C189.733 29.9315 195.486 35.645 200.273 47.2893C206.616 62.7492 208.488 81.7084 205.848 103.613L204.686 113.202L210.497 105.491C213.787 101.142 217.018 98.6115 219.402 98.5522C219.461 98.5522 222.908 98.394 224.918 100.49C226.179 101.794 226.691 103.831 226.455 106.5C225.489 117.076 216.959 167.41 209.512 180.102C209.335 180.359 209.177 180.636 209.039 180.873L208.764 181.367L212.27 183.483L212.586 183.008C212.743 182.771 212.901 182.514 213.058 182.257C214.851 179.628 220.21 173.974 222.12 172.016C225.213 168.913 228.188 166.876 229.843 166.718C230.414 166.659 230.631 166.777 230.848 167.034C232.325 168.695 227.912 173.756 221.805 180.735C218.752 184.234 214.989 188.544 210.931 193.585C210.832 193.704 210.675 193.921 210.517 194.119L210.419 194.257C209.473 195.246 209.453 196.491 210.359 197.638C210.576 197.915 210.714 198.112 210.832 198.31C211.029 198.607 211.207 198.864 211.384 199.101L212.31 200.307L213.728 199.793C214.181 199.635 214.496 199.378 214.733 199.18C219.087 196.847 223.598 194.672 227.794 192.873C237.703 188.603 247.928 187.279 250.43 188.919C250.765 189.137 250.903 189.414 250.903 189.77C250.903 190.244 250.903 191.134 248.125 192.34C245.564 193.466 241.703 194.435 235.674 195.859C232.108 196.709 226.139 198.152 219.816 199.892C218.279 200.327 216.703 200.841 215.166 201.434C214.831 201.552 214.437 201.71 214.083 201.888L212.664 202.6V204.201C212.625 207.048 211.601 209.342 211.266 209.974C206.281 217.981 202.341 217.981 200.864 217.605L199.268 217.17L198.204 218.495C196.687 220.413 193.792 223.358 189.615 227.273L189.044 227.787C188.295 228.538 187.606 229.171 186.916 229.783C184.434 232.077 181.676 234.528 178.741 237.078L178.209 237.553C171.55 243.859 162.133 253.349 154.982 262.819C151.81 267.01 147.2 269.125 142.669 268.512C141.566 268.354 140.542 268.058 139.616 267.623C135.814 265.883 133.607 262.344 133.706 258.133L133.785 254.911L133.725 255.01ZM89.065 266.338C89.3408 266.338 89.6363 266.338 89.9121 266.298C92.1185 266.041 94.0097 264.835 95.1918 262.898C97.5755 258.963 105.239 255.82 109.908 254.832C116.744 253.388 120.507 252.578 120.92 249.375C120.96 249.079 120.96 248.802 120.92 248.525C120.861 247.932 120.487 246.449 118.556 245.52C114.419 243.563 105.672 244.116 105.574 244.116C84.6718 245.916 80.1605 253.408 79.1952 256.552C78.6239 257.678 78.6239 259.102 79.2937 260.466C80.5742 263.155 84.6324 266.14 88.6316 266.318C88.7695 266.318 88.9271 266.318 89.065 266.318V266.338ZM108.529 245.243C111.366 245.243 115.621 245.461 118.044 246.607C119.384 247.24 119.679 248.169 119.738 248.683C119.758 248.861 119.738 249.039 119.738 249.237C119.462 251.411 116.901 252.143 109.652 253.685C104.766 254.713 96.7284 258.054 94.1674 262.285C93.1823 263.906 91.6063 264.914 89.7742 265.112C89.4196 265.151 89.065 265.151 88.6907 265.132C85.2431 264.973 81.4607 262.285 80.3575 259.972C79.865 258.944 79.8453 257.896 80.2984 257.006C81.047 254.634 84.9476 247.102 105.672 245.322C105.692 245.322 106.874 245.243 108.529 245.243ZM89.065 263.372C89.2423 263.372 89.3999 263.372 89.5772 263.352C90.8971 263.194 91.9609 262.522 92.6701 261.356C95.6843 256.374 104.274 252.993 109.317 251.945C115.325 250.66 117.492 250.008 117.926 249.336L118.123 249.039L117.946 248.723C117.827 248.505 117.532 248.327 117.315 248.229C115.109 247.201 110.775 247.042 108.371 247.042C107.288 247.042 106.382 247.082 105.81 247.102C84.987 248.881 82.2487 256.67 82.0123 257.56L81.8941 257.837C81.6971 258.173 81.7168 258.647 81.9729 259.22C82.8397 261.039 85.9917 263.254 88.7892 263.372C88.8877 263.372 88.9862 263.372 89.0847 263.372H89.065ZM116.153 249.039C114.439 249.632 110.558 250.463 109.1 250.759C103.82 251.866 94.8569 255.425 91.6457 260.723C91.1138 261.573 90.4046 262.048 89.4393 262.166C89.2423 262.166 89.0256 262.186 88.8089 262.166C86.5237 262.067 83.7262 260.169 83.017 258.687C82.9185 258.469 82.8988 258.37 82.9185 258.331L83.0958 257.916C83.3322 257.046 85.8539 249.968 105.869 248.248C106.401 248.209 107.288 248.189 108.352 248.189C111.76 248.189 114.518 248.486 116.153 249.019V249.039ZM69.7981 229.942C76.2795 229.942 83.4898 226.324 90.444 222.844C95.6055 220.254 100.925 217.586 106.066 216.142C121.196 211.892 135.223 217.586 136.779 218.238L148.56 223.536L141.093 212.94C124.092 188.781 79.3922 194.257 65.8187 202.956C60.3223 206.495 57.0718 210.567 56.1853 215.015C55.5746 218.1 56.2444 220.61 56.9142 222.152C57.2294 222.884 57.6234 223.576 57.8992 223.892C61.0512 227.925 64.9519 229.902 69.7785 229.902L69.7981 229.942ZM117.768 213.394C113.986 213.394 109.928 213.829 105.771 214.996C100.511 216.459 95.1327 219.167 89.9318 221.777C83.0958 225.217 76.0234 228.755 69.8179 228.755C65.3656 228.755 61.7802 226.917 58.8448 223.161C58.6872 222.963 58.3326 222.429 58.0371 221.717C57.4461 220.314 56.8354 218.06 57.387 215.272C58.1947 211.141 61.2679 207.325 66.4885 203.964C79.7665 195.424 123.54 190.027 140.148 213.632L145.112 220.67L137.271 217.131C136.109 216.637 128.071 213.375 117.768 213.375V213.394ZM69.936 226.976C75.5703 226.976 82.1108 223.694 89.2226 220.116C94.4629 217.487 99.841 214.778 105.278 213.276C109.218 212.169 113.395 211.615 117.729 211.615C128.229 211.615 136.405 214.857 137.941 215.51L139.852 216.32L138.651 214.62C129.293 201.374 111.622 198.824 101.929 198.488C87.2329 197.954 73.4427 201.592 67.4144 205.467C62.6076 208.551 59.8101 211.971 59.1009 215.609C58.6281 217.941 59.1403 219.839 59.6328 221.006C59.8889 221.599 60.1056 221.915 60.1253 221.955C62.9425 225.572 66.2521 226.976 69.9164 226.976H69.936ZM117.729 210.429C113.296 210.429 109.002 211.002 104.963 212.129C99.4273 213.671 93.99 216.419 88.7104 219.048C77.3827 224.722 67.6311 229.625 61.0906 221.263C61.0906 221.263 60.933 220.986 60.736 220.531C60.3026 219.523 59.8692 217.882 60.2632 215.826C60.9133 212.505 63.5335 209.361 68.0645 206.455C73.9352 202.679 87.4102 199.14 101.89 199.654C110.952 199.971 127.106 202.244 136.424 213.651C133.036 212.445 126.101 210.429 117.709 210.429H117.729ZM131.48 196.511C132.681 196.511 133.666 196.116 134.533 195.325C134.77 195.107 134.986 194.85 135.164 194.574C135.676 193.822 136.346 192.201 135.321 189.868C132.74 184.056 122.91 176.623 122.496 176.326C111.641 168.616 101.988 164.286 93.8128 163.496C87.2132 162.843 83.4898 164.741 82.2093 165.591C81.1849 166.006 79.7271 167.074 79.0573 169.506C77.9935 173.42 79.6089 180.359 83.608 184.096C84.0611 184.511 84.5142 184.886 84.9673 185.183C87.4496 186.844 90.3849 187.2 93.2809 186.191C99.9789 183.858 111.858 187.575 118.162 190.976C125.471 194.89 128.938 196.531 131.48 196.531V196.511ZM91.1926 164.563C97.4967 164.563 107.445 167.074 121.807 177.275C122.201 177.572 131.795 184.827 134.257 190.343C135.065 192.162 134.573 193.368 134.198 193.921C134.08 194.119 133.922 194.297 133.745 194.435C133.095 195.048 132.406 195.305 131.48 195.305C128.997 195.305 124.821 193.17 118.714 189.888C112.213 186.389 99.9198 182.573 92.8868 185.025C90.3652 185.895 87.7845 185.578 85.6174 184.135C85.2234 183.878 84.8097 183.542 84.4157 183.166C80.7318 179.727 79.2346 173.341 80.1999 169.763C80.6333 168.181 81.4804 167.113 82.7609 166.58C83.6868 165.967 86.3858 164.524 91.1729 164.524L91.1926 164.563ZM188.729 194.752L193.535 191.786C193.969 191.509 194.402 191.252 194.836 191.015L195.368 190.719L195.643 190.165C201.494 178.659 211.817 157.169 215.127 142.401C217.117 133.545 216.663 126.783 213.807 122.276C211.463 118.579 208.251 117.847 208.114 117.828L205.69 117.314L205.612 119.785C204.745 143.311 194.737 176.287 190.462 189.374L188.709 194.752H188.729ZM194.481 189.868L194.245 190.007C193.811 190.244 193.358 190.521 192.905 190.798L190.856 192.063L191.605 189.75C195.88 176.603 205.947 143.508 206.813 119.824L206.853 118.757L207.877 118.974C207.995 118.994 210.734 119.627 212.822 122.908C215.521 127.139 215.915 133.604 213.984 142.144C210.694 156.774 200.43 178.165 194.599 189.611L194.481 189.849V189.868ZM131.401 193.466C131.933 193.466 132.346 193.328 132.642 193.051C133.016 192.518 132.997 191.865 132.642 191.074C130.751 186.844 123.442 180.715 120.763 178.718C106.342 168.458 96.7284 166.323 91.2123 166.323C86.6813 166.323 84.3369 167.707 83.7459 168.142L83.4898 168.28C82.7609 168.537 82.229 169.229 81.9335 170.277C81.1061 173.361 82.5048 178.995 85.6569 181.921C85.9918 182.237 86.307 182.494 86.6222 182.712C88.3361 183.858 90.3061 184.096 92.3155 183.404C100.274 180.616 113.237 184.985 119.561 188.366C125.885 191.747 129.47 193.486 131.381 193.486L131.401 193.466ZM131.755 192.241C130.475 192.854 123.54 189.117 120.132 187.298C113.631 183.799 100.255 179.351 91.9412 182.257C90.2864 182.83 88.671 182.633 87.2723 181.704C86.9768 181.506 86.7207 181.288 86.4449 181.051C83.7065 178.481 82.3472 173.242 83.0564 170.593C83.2928 169.684 83.6868 169.466 83.9429 169.367L84.3369 169.17C84.79 168.853 86.9177 167.529 91.2123 167.529C96.5511 167.529 105.909 169.644 120.053 179.707C122.634 181.644 129.766 187.595 131.539 191.588C131.696 191.944 131.716 192.162 131.716 192.261L131.755 192.241ZM156.597 188.603C158.292 188.603 159.986 187.714 161.641 185.954C171.077 175.951 178.268 149.321 179.056 146.316C186.227 115.001 187.113 89.9326 181.696 71.784C177.421 57.4707 170.388 51.7968 167.492 49.9978C166.231 48.6337 163.887 47.1312 159.71 47.6847C151.318 48.7918 139.025 57.965 135.104 68.6011C132.583 75.4216 133.745 81.8072 138.473 87.1055C145.802 95.2902 155.494 119.37 152.224 152.128C149.742 176.801 149.663 184.926 153.898 187.773C154.155 187.951 154.391 188.069 154.667 188.188C155.258 188.465 155.928 188.623 156.617 188.623L156.597 188.603ZM161.385 48.7721C164.162 48.7721 165.758 49.8594 166.664 50.8676L166.802 50.9863C171.609 53.9517 194.777 72.4364 177.913 146.039C177.145 149.004 170.013 175.357 160.794 185.143C158.824 187.219 156.854 187.891 155.14 187.081C154.903 186.982 154.726 186.903 154.549 186.765C150.865 184.313 151.062 175.575 153.406 152.227C156.735 119.073 146.826 94.6378 139.36 86.295C134.947 81.3525 133.863 75.3821 136.227 68.9965C139.99 58.7558 151.83 49.8989 159.868 48.8511C160.419 48.7721 160.931 48.7523 161.404 48.7523L161.385 48.7721ZM155.475 186.448L156.243 185.598C157.188 185.776 158.272 185.223 159.493 183.938C168.536 174.369 175.884 146.79 176.179 145.624C193.24 71.1118 168.555 54.0901 165.679 52.3899L165.364 52.1131C164.34 50.8479 162.468 50.3141 160.065 50.6502C152.815 51.5991 141.29 60.2978 137.843 69.6489C135.735 75.3623 136.7 80.7199 140.64 85.1285C148.323 93.7086 158.508 118.717 155.12 152.425C153.15 172.016 152.618 182.198 155.041 184.906L154.509 185.717L155.435 186.448H155.475ZM161.424 51.7375C162.823 51.7375 163.906 52.1527 164.556 52.9435L165.029 53.3586C167.905 55.0786 191.94 71.6851 175.057 145.347C174.761 146.494 167.492 173.776 158.646 183.127C157.642 184.175 156.814 184.629 156.322 184.392L156.184 184.333C153.347 182.395 155.14 164.445 156.341 152.563C159.769 118.46 149.387 93.0957 141.566 84.3575C137.941 80.285 137.055 75.3623 139.005 70.0838C142.315 61.0886 153.347 52.7655 160.262 51.8561C160.675 51.7968 161.069 51.777 161.424 51.777V51.7375ZM198.342 178.105C203.346 167.568 209.847 152.701 212.29 141.789C215.265 128.523 211.798 123.541 209.453 121.742L208.567 121.07L208.508 122.177C207.463 139.93 201.81 162.151 197.239 177.671L198.342 178.086V178.105ZM209.611 123.482C211.581 125.637 213.61 130.559 211.147 141.512C209.217 150.131 204.725 161.262 200.45 170.731C204.41 156.359 208.567 138.467 209.611 123.482ZM134.336 172.965C134.533 172.965 134.71 172.965 134.907 172.946C137.803 172.689 139.99 170.553 141.389 166.639L141.448 166.422C141.487 166.303 144.245 155.983 144.561 144.497C144.994 129.472 141.231 119.528 133.391 114.921C123.757 109.248 117.532 113.992 115.306 116.286C109.297 122.454 107.642 134.968 111.602 144.2C112.035 145.228 112.508 146.158 113.04 146.988C114.183 148.886 115.424 150.981 116.685 153.156C123.875 165.453 128.643 172.926 134.297 172.926L134.336 172.965ZM124.663 113.459C126.968 113.459 129.687 114.131 132.8 115.95C140.227 120.319 143.792 129.927 143.379 144.477C143.063 155.904 140.345 165.987 140.325 166.085L140.266 166.263C139.025 169.684 137.193 171.542 134.789 171.759C134.632 171.759 134.474 171.779 134.316 171.779C129.293 171.779 124.486 164.188 117.709 152.583C116.448 150.408 115.207 148.293 114.045 146.375C113.552 145.584 113.099 144.714 112.686 143.746C108.903 134.909 110.459 122.968 116.153 117.116C117.473 115.752 120.349 113.439 124.663 113.439V113.459ZM134.336 170C134.435 170 134.533 170 134.651 170C136.306 169.842 137.646 168.379 138.631 165.631C138.749 165.196 141.212 155.845 141.625 145.228C142.197 130.955 138.926 121.643 131.913 117.511C126.259 114.17 121.176 114.526 117.433 118.401C112.292 123.699 110.853 134.988 114.321 143.093C114.695 143.983 115.109 144.774 115.562 145.485C116.744 147.403 117.985 149.538 119.265 151.733C126.318 163.812 130.652 170.039 134.336 170.039V170ZM124.604 116.384C126.653 116.384 128.919 117.096 131.322 118.52C147.22 127.871 137.606 164.899 137.508 165.275C136.7 167.509 135.695 168.715 134.553 168.814C131.184 169.11 125.648 160.234 120.31 151.1C119.029 148.906 117.788 146.77 116.606 144.833C116.192 144.161 115.818 143.429 115.444 142.599C112.154 134.909 113.454 124.193 118.32 119.211C120.132 117.353 122.26 116.404 124.644 116.404L124.604 116.384Z" fill="#57A5AF"/>
</g>
<defs>
<clipPath id="clip0_2603_4223">
<rect width="255" height="285" fill="white" transform="matrix(-1 0 0 1 255 0)"/>
</clipPath>
</defs>
</svg>
