<svg width="556" height="362" viewBox="0 0 556 362" fill="none" xmlns="http://www.w3.org/2000/svg">
<g opacity="0.4">
<path d="M230.788 94.8922C215.817 61.1047 249.728 33.3975 249.728 33.3975C261.166 78.6174 230.788 94.8922 230.788 94.8922Z" fill="white"/>
<path d="M186.493 57.7188C230.275 73.8843 226.451 108.109 226.451 108.109C190.099 101.337 186.493 57.7188 186.493 57.7188Z" fill="white"/>
<path d="M60.2065 56.5176C60.935 58.3016 61.6269 60.0857 62.319 61.8697C63.0839 63.6173 63.7396 65.4378 64.4316 67.2218C63.7396 65.4014 63.0112 63.6537 62.2463 61.8697C61.5906 60.0857 60.8986 58.3016 60.2065 56.5176Z" fill="white"/>
<path d="M463.504 298.965C479.24 265.505 522.402 273.041 522.402 273.041C495.667 311.307 463.504 298.965 463.504 298.965Z" fill="white"/>
<path d="M39.886 244.605C39.886 244.605 48.1544 266.888 21.4918 285.019C21.4918 285.019 16.6473 255.2 39.886 244.605Z" fill="white"/>
<path d="M43.709 235.795C43.709 235.795 30.0134 255.237 -0.000244141 243.55C-0.000244141 243.55 21.8544 222.688 43.709 235.795Z" fill="white"/>
<path d="M43.5278 52.6578C43.5278 52.6578 43.4186 52.3302 43.3458 52.1481C43.3458 52.0025 43.3456 51.8933 43.2728 51.7112C42.4715 48.9805 41.743 46.1771 40.9781 43.3372C40.8324 42.8638 40.7232 42.2813 40.6139 41.808C40.5411 41.5167 40.4682 41.2254 40.3954 40.9342C37.2264 27.7177 35.8787 14.7561 36.7529 2.55912C37.0443 -1.91919 43.2729 0.0104887 44.6934 4.27034C44.7663 4.41597 44.8391 4.56161 44.8755 4.78006C45.0212 5.39901 45.1669 5.98156 45.3126 6.60051C45.3854 6.78256 45.4218 7.00101 45.4582 7.21946C45.6768 8.1661 45.8953 9.11273 46.1867 10.0958C46.3688 11.0424 46.6238 12.0254 46.8788 12.9721C46.9517 13.1905 46.9516 13.409 47.0244 13.591C47.243 14.3556 47.4252 15.0838 47.6438 15.8484C47.8987 16.795 48.0809 17.8145 48.3359 18.7611C48.5908 19.7077 48.7728 20.6544 49.1006 21.6374C49.6106 23.6035 50.157 25.4968 50.7397 27.39C51.8325 31.213 53.0346 35.0723 54.2366 38.9317C55.5115 42.791 56.6404 46.614 57.9517 50.4005C58.7167 52.3666 59.4453 54.2598 60.1373 56.1895C59.4817 54.5147 58.8261 52.8399 58.134 51.1651C60.3923 57.6459 62.9055 64.1267 65.7466 70.5346C65.4188 69.6244 65.0546 68.7142 64.6904 67.804C65.4189 69.6244 66.1837 71.5177 67.0579 73.3381C68.8427 77.0883 70.6276 80.8748 72.4852 84.5885C73.7965 87.1371 74.962 89.6858 76.2369 92.198C74.9256 89.6858 73.7236 87.1735 72.4488 84.6613C70.5911 80.9112 68.7699 77.1247 66.9487 73.3745C69.899 80.1102 73.1773 86.773 76.8198 93.3995C77.1476 94.0548 77.5847 94.7466 77.9489 95.402C79.0416 97.4045 80.2436 99.3705 81.5184 101.337C80.3893 99.4798 79.3329 97.6593 78.2766 95.8389C78.058 95.5476 77.9123 95.2199 77.7666 94.9286C77.6209 94.6374 77.4388 94.3097 77.2931 94.0184C107.088 144.736 156.152 171.169 162.417 174.409C163.473 174.701 164.53 175.028 165.55 175.283C165.841 175.392 166.169 175.502 166.46 175.538C167.553 175.829 168.646 176.084 169.702 176.339C171.013 176.703 172.361 176.994 173.636 177.249C174.947 177.541 176.258 177.832 177.57 178.014C180.265 178.451 182.851 178.888 185.474 179.325C188.023 179.725 190.609 180.126 193.195 180.526C195.854 180.927 198.477 181.291 201.136 181.618C201.427 181.691 201.755 181.728 202.047 181.764C203.54 182.019 204.961 182.201 206.418 182.492C207.911 182.747 209.368 182.966 210.861 183.257C212.318 183.512 213.739 183.803 215.232 184.094C215.779 184.167 216.325 184.313 216.871 184.458C218.292 184.75 219.64 185.077 221.024 185.405C221.461 185.514 221.971 185.66 222.408 185.769C223.173 185.987 223.901 186.169 224.666 186.388C224.666 186.388 224.739 186.461 224.812 186.461C226.05 186.788 227.325 187.08 228.564 187.444C228.964 187.589 229.365 187.735 229.729 187.881C230.166 188.026 230.531 188.172 230.931 188.318C232.024 188.645 233.117 189.119 234.246 189.628C234.865 189.883 235.594 190.174 236.249 190.429C237.524 190.975 238.726 191.667 239.965 192.323C242.369 193.633 244.918 194.871 247.176 196.437C247.504 196.619 247.941 196.874 248.269 197.129C249.58 197.93 250.819 198.803 252.13 199.641C253.441 200.478 254.68 201.388 255.955 202.299C256.465 202.59 256.938 202.954 257.448 203.355C258.577 204.119 259.706 204.92 260.836 205.721C269.65 212.238 278.137 219.083 287.425 225.018C288.154 225.528 288.919 226.001 289.611 226.511C290.376 226.984 291.104 227.457 291.869 227.931C292.816 228.55 293.8 229.132 294.747 229.751C303.926 235.431 313.214 241.147 322.502 246.754C322.939 247.009 323.413 247.227 323.85 247.555C325.744 248.684 327.711 249.812 329.641 250.941C334.267 253.745 339.075 256.548 343.847 259.315C353.062 264.667 362.423 269.874 371.857 274.935C370.947 274.097 370.109 273.187 369.308 272.277C368.178 271.112 366.976 269.91 365.92 268.745C364.609 267.325 363.298 266.014 362.059 264.594C360.274 262.628 358.599 260.662 356.814 258.733C355.466 257.131 354.082 255.565 352.662 253.963C351.277 252.07 349.857 250.14 348.4 248.174C347.271 246.79 346.214 245.298 345.158 243.878C341.953 239.581 338.82 235.249 336.016 230.807C331.025 222.979 326.035 215.042 321.555 207.068C319.26 203.063 317.111 198.985 314.817 195.09C312.34 191.121 310.009 187.116 307.532 183.184C297.333 167.637 284.439 153.329 270.962 139.712C267.538 136.289 264.15 132.94 260.763 129.517C257.303 126.168 253.842 122.782 250.418 119.323C246.958 116.046 243.498 112.66 240.074 109.274C239.272 108.364 238.18 107.635 237.961 106.361C237.779 105.16 238.398 104.067 239.564 103.776C240.766 103.412 242.077 104.213 243.024 104.868C244.044 105.487 245.1 106.143 246.157 106.762C254.425 111.713 262.001 117.757 269.395 123.874C276.571 130.245 283.528 136.763 289.793 143.862C302.687 157.734 314.088 172.735 325.343 187.589C336.598 202.59 347.489 217.736 359.291 232.555C371.056 247.337 384.278 261.572 399.54 274.352C414.656 287.059 431.921 298.346 450.789 307.011C473.044 317.242 497.23 323.14 521.707 324.487C546.184 325.834 571.499 318.079 596.268 323.905C612.258 328.346 619.07 335.41 620.636 337.267C620.709 337.34 620.782 337.412 620.854 337.485C620.964 337.594 621 337.667 621 337.667V361.988C620.745 362.316 603.116 355.617 601.112 355.034C594.01 352.995 586.725 351.539 579.33 351.139C563.85 350.374 548.479 353.796 532.999 353.578C493.915 352.959 455.852 341.963 421.285 324.05C414.656 320.482 408.063 316.914 401.288 313.419C394.695 309.851 388.066 306.246 381.473 302.569C375.062 298.782 368.215 295.396 361.658 291.719C361.003 291.391 360.347 291.027 359.691 290.627L359.946 290.809C358.271 290.008 331.9 277.483 321.264 273.078C320.936 272.932 320.572 272.823 320.28 272.677C316.929 271.257 313.505 269.983 310.081 268.563C299.446 264.267 288.7 259.97 277.81 256.22C272.455 254.181 266.918 252.652 261.491 250.832C255.991 248.902 250.491 247.591 244.991 246.026C239.455 244.351 233.991 243.368 228.418 242.167C222.918 240.783 217.381 239.909 211.881 239.072C209.113 238.635 206.345 238.125 203.54 237.652C200.845 237.361 198.076 237.106 195.308 236.814C189.845 236.268 184.308 235.394 178.954 235.249C173.599 235.067 168.026 234.411 162.745 234.411C157.39 234.339 152 234.266 146.645 234.12C141.364 234.266 136.082 234.375 130.801 234.411C125.519 234.484 120.347 234.958 115.138 235.103C109.82 235.249 104.794 235.868 99.585 236.159C94.4127 236.45 89.3496 236.96 84.2138 237.506C79.1508 238.016 74.015 238.416 69.0249 239.072C66.5116 239.363 63.9982 239.691 61.4121 239.909C60.1736 240.055 58.8624 240.2 57.5511 240.346C56.4219 240.601 53.9816 239.399 53.2896 237.907C52.2332 236.268 53.1802 235.03 54.3822 234.775C55.5114 234.448 56.7134 234.157 57.8426 233.792C60.1009 233.137 62.3591 232.445 64.6174 231.79C69.389 230.734 73.9786 229.387 78.8231 228.477C83.6311 227.566 88.4027 226.547 93.4293 225.855C98.2737 225.054 103.264 224.363 108.327 223.816C118.38 222.542 128.688 221.96 139.032 221.341C144.205 221.086 149.523 221.049 154.695 220.794C160.013 220.94 165.258 220.867 170.613 220.94C181.285 221.231 191.994 221.705 202.848 222.761C208.275 223.234 213.702 223.744 219.166 224.581C224.593 225.2 230.057 226.11 235.521 227.13C246.084 228.804 256.72 231.499 267.21 234.339C259.816 229.205 252.531 223.926 245.355 218.61C237.852 213.076 229.729 208.124 221.024 204.92C219.895 204.52 218.802 204.119 217.709 203.719C216.58 203.464 215.524 203.209 214.467 202.954C212.246 202.408 209.987 201.825 207.765 201.243C203.394 200.478 199.023 199.896 194.58 199.24C190.209 198.658 185.838 198.221 181.394 197.493C179.209 197.129 176.987 196.728 174.728 196.364C173.053 196.073 171.414 195.563 169.738 195.09C169.119 194.944 168.609 194.798 168.026 194.653C167.48 194.507 166.897 194.398 166.351 194.216C164.42 193.743 162.526 193.16 160.669 192.541C158.483 191.849 156.261 191.085 154.112 190.284C149.851 188.755 145.625 186.934 141.364 185.15C137.43 183.257 133.569 181.291 129.635 179.288C129.052 178.924 128.506 178.596 127.96 178.16C127.522 177.868 127.049 177.541 126.612 177.249C125.956 176.812 125.264 176.412 124.645 175.902C124.353 175.72 123.698 175.283 123.151 174.883C121.949 173.973 120.82 173.026 119.691 172.116C119.254 171.752 118.853 171.351 118.38 170.987C113.39 165.999 108.509 160.865 103.919 155.44C98.7108 149.324 94.7769 144.299 90.5516 138.619C89.7867 137.636 89.0947 136.653 88.3662 135.67C87.6742 134.614 86.9091 133.631 86.1807 132.576C86.2535 132.648 86.3628 132.721 86.4721 132.758C86.2171 132.43 85.9623 132.066 85.7073 131.702C83.3397 128.461 81.1177 125.185 78.9322 121.871C78.8594 121.798 78.8231 121.798 78.8231 121.726C78.5317 121.216 78.2038 120.815 77.876 120.379C75.3991 116.738 73.0679 113.06 70.8096 109.456C69.0977 106.834 67.3859 104.177 65.8925 101.519C64.4719 99.1521 63.1241 96.7855 61.74 94.4553C61.6307 94.2005 61.4849 94.0184 61.3756 93.7636C61.3028 93.6907 61.2299 93.5451 61.1571 93.4723C60.975 93.1082 60.8294 92.7805 60.6108 92.4164C59.4089 90.0498 58.134 87.6833 56.9319 85.3531C56.4584 84.4429 55.9849 83.4962 55.5479 82.6224C55.3293 82.1855 55.1108 81.7122 54.9286 81.2753C54.2366 79.9282 53.5808 78.5082 52.9616 77.0883L51.2863 73.1561L50.1206 70.4618C50.0478 70.207 49.902 69.8793 49.8292 69.6608C49.7563 69.6608 49.7562 69.588 49.7562 69.588C49.6105 69.2967 49.5014 69.0419 49.4285 68.7506C48.9915 67.7676 48.6271 66.7481 48.2265 65.6923C48.2993 66.0563 48.4816 66.4204 48.5544 66.7117C48.2994 65.9835 48.0079 65.3646 47.7529 64.6364L46.9882 62.5247C46.7332 61.8329 46.4781 61.1411 46.2232 60.413C45.9682 59.6848 45.7132 58.9202 45.4582 58.2284C45.2396 57.6823 45.0212 57.1361 44.8755 56.5536C44.5477 55.4977 44.1833 54.5147 43.892 53.4953L43.7099 52.9491L43.5278 52.6578ZM57.5146 49.381C56.3855 45.9222 55.3292 42.4269 54.1272 38.8953C53.5444 37.002 52.9617 35.0359 52.3425 33.1426C53.8723 38.5312 55.6208 43.9561 57.4784 49.381H57.5146Z" fill="white"/>
</g>
</svg>
