<svg width="516" height="738" viewBox="0 0 516 738" fill="none" xmlns="http://www.w3.org/2000/svg">
<g opacity="0.5">
<path d="M93.2309 226.074C129.357 210.113 156.738 206.796 195.608 235.341L205.211 243.292C205.211 243.292 209.384 234.94 217.329 226.131L118.211 168.869C106.607 182.655 86.4858 186.545 70.3662 177.278C52.3031 166.867 46.0724 143.641 56.5331 125.565C66.9937 107.488 90.1442 101.253 108.207 111.721C124.327 121.046 131.015 140.438 124.899 157.371L227.676 216.749C229.733 215.205 231.906 213.775 234.249 212.516L217.844 184.085C201.953 179.166 121.126 148.618 137.303 37.7552C137.303 37.7552 232.363 58.5778 229.848 178.136L230.191 178.708H230.248L230.82 179.795L246.825 207.596C247.797 207.368 248.768 207.139 249.74 207.024V75.1672C232.02 72.0209 218.587 56.5184 218.587 37.8696C218.587 16.9898 235.564 0 256.428 0C277.292 0 294.269 16.9898 294.269 37.8696C294.269 56.4612 280.779 71.9637 263.116 75.1672V206.681C265.059 206.91 267.003 207.253 268.832 207.711L285.009 179.68L285.581 178.536H285.638L285.981 177.964C283.408 58.4062 378.526 37.5836 378.526 37.5836C394.703 148.447 313.876 179.051 297.985 183.914L281.522 212.459C283.866 213.717 286.095 215.205 288.153 216.692L390.93 157.313C384.814 140.381 391.501 120.988 407.621 111.664C425.684 101.253 448.892 107.431 459.295 125.507C469.699 143.584 463.525 166.809 445.462 177.221C429.343 186.545 409.222 182.598 397.618 168.812L298.614 226.016C306.616 234.769 310.617 243.178 310.617 243.178L320.221 235.226C359.091 206.738 386.471 209.999 422.597 225.959C458.724 241.919 516 230.021 516 230.021C407.85 325.381 321.821 253.303 321.821 253.303C321.821 253.303 314.619 256.907 302.386 260.339C297.356 263.028 291.525 267.09 289.582 272.066C286.438 280.018 275.349 288.255 263.402 290.029C263.459 312.453 264.145 334.42 265.688 355.471C267.803 385.103 271.404 413.992 276.32 441.393C280.893 466.563 286.667 491.104 293.64 514.272C299.928 535.209 307.302 555.574 315.533 574.795C322.964 592.07 331.196 608.603 340.056 623.991C347.83 637.548 356.175 650.477 364.978 662.432C372.409 672.615 380.355 682.34 388.472 691.321C395.103 698.586 401.791 705.336 408.421 711.343C411.051 713.745 413.623 715.919 416.081 717.978C418.425 719.923 420.482 721.525 422.426 723.012C423.398 723.756 424.427 724.443 425.456 725.129L429.857 728.161L427.399 731.593C427.399 731.593 427.17 731.879 427.113 732.051L426.885 732.508C426.885 732.508 426.77 732.737 426.77 732.852L426.199 734.682L424.484 735.483C423.798 735.769 423.283 736.055 422.883 736.341L420.483 738L417.053 735.54C412.766 732.451 408.421 728.962 403.734 724.843C396.989 719.008 390.301 712.601 383.899 705.851C375.896 697.442 368.008 688.232 360.405 678.393C351.431 666.78 342.8 654.195 334.683 640.923C325.537 625.993 316.962 609.861 309.188 593.1C300.557 574.451 292.726 554.601 286.038 534.179C278.55 511.412 272.148 487.5 267.06 463.131C261.458 436.416 257.228 408.042 254.37 378.811C251.626 350.437 250.312 320.748 250.197 290.315C237.965 288.827 226.418 280.361 223.16 272.238C219.444 262.856 202.124 256.793 202.124 256.793H202.296C199.609 255.763 196.923 254.733 194.179 253.532C194.179 253.532 108.15 325.553 -9.71652e-06 230.25C-9.71652e-06 230.25 57.2761 242.148 93.4024 226.188L93.2309 226.074Z" fill="#0F648C"/>
<path d="M129.699 329.614C157.48 326.411 186.175 346.204 214.985 388.592C236.249 419.883 249.682 452.547 249.854 452.833L246.938 454.378C172.171 337.337 134.158 348.034 133.872 348.148C133.586 348.263 126.498 350.952 121.582 348.148C119.296 346.89 117.924 344.716 117.352 341.799C116.781 338.767 117.352 336.193 119.01 334.133C122.497 329.843 129.471 329.614 129.699 329.614Z" fill="#0F648C" fill-opacity="0.5"/>
<path d="M305.072 360.505C305.072 354.442 309.988 349.579 315.99 349.579C321.992 349.579 326.908 354.499 326.908 360.505C326.908 366.512 321.992 371.431 315.99 371.431C309.988 371.431 305.072 366.512 305.072 360.505Z" fill="#0F648C" fill-opacity="0.5"/>
<path d="M368.179 390.881C368.179 390.881 373.438 389.107 377.039 391.167C378.811 392.196 379.897 393.855 380.355 396.201C380.755 398.489 380.355 400.377 379.097 401.921C376.353 405.239 370.58 405.296 370.294 405.296C370.066 405.296 339.941 408.099 318.506 512.327L315.991 512.041C315.991 512.041 316.676 484.697 323.307 456.495C332.282 418.282 347.43 396.201 368.179 390.881Z" fill="#0F648C" fill-opacity="0.5"/>
<path d="M215.786 563.469C234.02 558.091 255.57 568.045 279.807 593.101C297.699 611.578 310.503 631.943 310.617 632.114L308.845 633.487C245.167 563.697 220.93 575.31 220.759 575.424C220.587 575.539 216.129 578.17 212.527 576.854C210.87 576.282 209.669 574.967 208.983 573.079C208.24 571.134 208.355 569.303 209.212 567.759C211.041 564.498 215.671 563.526 215.843 563.469H215.786Z" fill="#0F648C" fill-opacity="0.5"/>
<path d="M209.841 336.593C200.78 336.593 193.435 329.243 193.435 320.176C193.435 311.108 200.78 303.758 209.841 303.758C218.901 303.758 226.246 311.108 226.246 320.176C226.246 329.243 218.901 336.593 209.841 336.593Z" fill="#0F648C" fill-opacity="0.5"/>
<path d="M237.45 524.626C228.389 524.626 221.045 517.275 221.045 508.208C221.045 499.141 228.389 491.79 237.45 491.79C246.51 491.79 253.855 499.141 253.855 508.208C253.855 517.275 246.51 524.626 237.45 524.626Z" fill="#0F648C" fill-opacity="0.5"/>
</g>
</svg>
