<svg width="558" height="597" viewBox="0 0 558 597" fill="none" xmlns="http://www.w3.org/2000/svg">
<g opacity="0.2">
<path d="M58.652 343.9C10.5144 343.9 -36.9339 323.64 -82.3148 283.596L-97 270.707L-77.8615 274.685C-77.1723 274.844 -10.5326 288.369 30.713 270.177C74.8745 250.659 109.864 246.31 158.267 281.792L174.543 295.317L156.677 311.494C155.51 312.502 129.321 334.088 86.5378 341.514C77.4192 343.105 67.9826 343.9 58.5989 343.9H58.652ZM-74.7867 281.686C-31.5795 318.707 13.2712 337.483 58.652 337.483C67.6646 337.483 76.7301 336.687 85.4776 335.202C126.617 328.042 151.481 307.516 152.488 306.667L164.841 295.476L154.344 286.778C108.592 253.258 75.2987 257.395 33.2578 275.958C-3.69363 292.294 -59.0412 284.444 -74.8396 281.686H-74.7867Z" fill="white"/>
<path d="M402.613 344.378C393.23 344.378 383.687 343.582 374.409 341.938C331.626 334.513 305.49 312.926 304.376 312.024L286.404 295.742L302.468 282.429C351.083 246.787 386.126 251.136 430.287 270.601C471.586 288.847 538.172 275.269 538.862 275.11L558 271.132L543.368 284.073C512.142 311.6 462.361 344.378 402.719 344.378H402.613ZM296.106 295.954L308.512 307.145C309.519 307.993 334.383 328.519 375.522 335.679C384.482 337.218 393.601 338.013 402.666 338.013C458.332 338.013 505.303 308.312 535.84 282.164C520.041 284.869 464.694 292.771 427.742 276.436C385.701 257.872 352.408 253.735 306.391 287.415L296.159 295.954H296.106Z" fill="white"/>
<path d="M234.556 597C206.776 597 184.139 574.353 184.139 546.56C184.139 523.807 199.672 503.706 221.408 497.871V351.061L204.497 380.338C205.716 455.388 174.755 497.977 148.513 520.519C119.832 545.128 90.9386 551.705 89.7192 551.97L84.3118 553.137L83.5166 547.621C64.1131 414.707 159.063 375.034 181.488 367.609L198.877 337.536L80.0176 406.221C85.7962 428.02 76.2005 451.516 56.4789 462.866C44.8686 469.602 31.2438 471.405 18.2552 467.905C5.21348 464.404 -5.65458 456.077 -12.3875 444.409C-26.2774 420.329 -18.0072 389.408 6.06163 375.512C25.7302 364.108 50.9123 367.556 66.8698 383.467L189.175 312.82C186.578 306.827 185.305 300.515 185.305 293.992C185.305 290.491 185.729 286.991 186.525 283.437L65.4913 213.533C49.5338 229.444 24.3519 232.892 4.68335 221.488C-19.3854 207.592 -27.6558 176.671 -13.7659 152.591C-7.03302 140.923 3.83504 132.596 16.8767 129.095C29.9184 125.595 43.4902 127.398 55.1005 134.134C74.769 145.484 84.4177 168.98 78.6391 190.779L197.499 259.464L180.11 229.391C157.684 221.966 62.7877 182.293 82.1381 49.3787L82.9333 43.8627L88.3409 45.0296C89.5603 45.2948 118.347 51.7655 147.135 76.4813C173.377 99.0227 204.338 141.613 203.118 216.662L220.03 245.939V99.1287C198.294 93.2415 182.761 73.193 182.761 50.4395C182.761 22.6474 205.398 0 233.178 0C260.958 0 283.595 22.6474 283.595 50.4395C283.595 73.193 268.062 93.2415 246.325 99.1287V245.409L263.343 215.919C262.124 140.923 293.085 98.3332 319.327 75.7388C348.167 50.9699 376.901 44.5522 378.121 44.287L383.528 43.1202L384.323 48.6362C403.727 181.656 308.777 221.223 286.352 228.648L270.182 256.653L384.217 190.779C378.439 168.98 388.035 145.537 407.756 134.134C419.366 127.398 432.991 125.648 445.98 129.095C459.022 132.596 469.89 140.923 476.622 152.591C490.512 176.671 482.242 207.592 458.173 221.488C438.505 232.839 413.323 229.444 397.365 213.533L279.619 281.528C280.732 285.612 281.262 289.749 281.262 293.992C281.262 300.675 279.884 307.145 277.233 313.245L398.797 383.467C414.754 367.556 439.883 364.108 459.605 375.512C483.674 389.408 491.944 420.329 478.054 444.409C471.321 456.077 460.453 464.404 447.411 467.905C434.37 471.405 420.798 469.602 409.187 462.866C389.519 451.463 379.87 427.967 385.649 406.221L266.842 337.589L284.178 367.609C306.603 375.034 401.553 414.601 382.15 547.621L381.355 553.137L375.947 551.97C374.728 551.705 345.834 545.182 317.153 520.519C290.911 497.977 259.897 455.388 261.17 380.338L247.757 357.054V497.871C269.493 503.759 285.026 523.807 285.026 546.56C285.026 574.353 262.389 597 234.609 597H234.556ZM227.77 327.247V502.91L225.279 503.44C205.133 507.789 190.501 525.876 190.501 546.507C190.501 570.799 210.275 590.582 234.556 590.582C258.837 590.582 278.612 570.799 278.612 546.507C278.612 525.876 263.979 507.736 243.834 503.44L241.342 502.91V333.24L267.531 378.641V379.543C266.047 452.63 295.947 493.893 321.289 515.639C345.834 536.695 370.221 543.909 376.053 545.394C383.74 490.87 372.766 446.583 343.396 413.752C320.069 387.658 292.077 376.785 281.103 373.284L279.937 372.913L254.967 329.634L259.579 326.292L261.594 327.194L393.283 403.251L392.488 405.691C386.179 425.315 394.555 447.007 412.368 457.35C422.547 463.237 434.423 464.775 445.768 461.752C457.166 458.676 466.656 451.41 472.54 441.226C484.681 420.17 477.471 393.174 456.424 381.028C438.558 370.685 415.549 374.345 401.765 389.62L400.016 391.529L268.91 315.791L270.288 313.086C273.363 307.092 274.954 300.675 274.954 293.992C274.954 289.59 274.264 285.24 272.886 281.05L272.091 278.611L398.638 205.524L400.387 207.433C414.224 222.708 437.179 226.368 455.045 216.025C476.092 203.88 483.302 176.83 471.162 155.827C465.277 145.643 455.788 138.377 444.389 135.301C432.991 132.225 421.169 133.816 410.99 139.703C393.124 150.046 384.747 171.738 391.056 191.362L391.852 193.802L265.093 267.048L263.343 265.245C262.813 264.715 262.283 264.184 261.7 263.654L259.844 261.904L282.057 223.398L283.224 223.026C294.198 219.526 322.243 208.653 345.516 182.558C374.887 149.727 385.861 105.44 378.174 50.9168C372.395 52.4019 348.061 59.5091 323.409 80.6714C298.068 102.417 268.221 143.681 269.652 216.768V217.67L248.128 255.062L245.689 254.319C244.629 254.001 243.516 253.736 242.402 253.47L239.911 252.887V94.0371L242.402 93.5067C262.548 89.1575 277.18 71.0714 277.18 50.4395C277.18 26.1479 257.406 6.36461 233.125 6.36461C208.844 6.36461 189.069 26.1479 189.069 50.4395C189.069 71.0714 203.701 89.2106 223.847 93.5067L226.339 94.0371V252.834L223.9 253.417C222.734 253.683 221.567 254.001 220.401 254.372L217.962 255.168L196.703 218.306V217.404C198.188 144.264 168.287 103.001 142.946 81.2548C118.347 60.1455 93.9605 52.9853 88.1819 51.5003C80.4947 105.971 91.5217 150.258 120.839 183.142C144.166 209.236 172.157 220.162 183.132 223.663L184.298 224.034L206.299 262.116L204.497 263.866C203.648 264.715 202.8 265.563 202.005 266.465L200.309 268.427L71.005 193.696L71.8001 191.256C78.1089 171.632 69.7326 149.94 51.9195 139.597C41.7407 133.71 29.8654 132.172 18.5202 135.195C7.12196 138.218 -2.36765 145.537 -8.25231 155.721C-20.3927 176.777 -13.1828 203.773 7.86412 215.919C25.7302 226.209 48.6856 222.602 62.5225 207.327L64.2721 205.418L193.894 280.308L193.257 282.695C192.197 286.46 191.667 290.226 191.667 293.939C191.667 300.462 193.151 306.774 196.12 312.661L197.446 315.366L65.6506 391.529L63.901 389.62C50.0641 374.345 27.1086 370.685 9.24256 381.028C-11.8044 393.174 -19.0145 420.17 -6.87403 441.226C-0.989374 451.41 8.5004 458.676 19.8986 461.752C31.2968 464.775 43.1721 463.237 53.298 457.35C71.164 447.007 79.5404 425.315 73.2317 405.691L72.4365 403.251L206.458 325.815L211.017 329.209L185.782 372.913L184.616 373.284C173.642 376.785 145.65 387.711 122.323 413.805C92.9531 446.689 81.9791 490.976 89.6663 545.447C95.445 543.962 119.885 536.748 144.431 515.692C169.772 493.946 199.619 452.683 198.188 379.543V378.641L227.823 327.247H227.77Z" fill="white"/>
</g>
</svg>
