<svg width="167" height="75" viewBox="0 0 167 75" fill="none" xmlns="http://www.w3.org/2000/svg">
<path d="M103.438 19.3803C95.8484 20.4003 87.3084 22.3903 80.4384 17.7703C76.2984 14.9803 74.4684 10.1303 76.4484 5.46028C77.7584 2.37028 80.8984 0.0402704 84.2584 0.000270361C87.6184 -0.0297296 90.9283 2.44028 91.5583 5.74028C90.4983 3.35028 87.7984 1.83028 85.1984 2.07028C82.5984 2.31028 80.2483 4.24027 79.4283 6.72027C78.6083 9.20027 79.3083 12.1003 81.0983 14.0003C84.5383 17.6403 90.1483 17.1503 94.6783 16.7903C100.038 16.3603 105.148 15.7903 110.508 16.5103C115.578 17.2003 120.488 18.4803 125.318 20.1803C118.348 17.7103 110.618 18.4103 103.438 19.3703V19.3803Z" fill="white"/>
<path d="M56.8199 56.1104C58.0599 55.1704 59.4099 54.3604 60.7399 53.5704C67.3299 49.6904 73.8398 45.4404 80.5898 41.9004C75.5798 47.7004 69.3999 52.2404 62.9199 56.2704C60.7399 57.6304 58.4399 59.0104 57.0399 61.1704C55.5699 63.4304 55.3199 66.5004 56.6599 68.8404C57.9999 71.1804 60.9899 72.5304 63.5599 71.7304C65.9599 70.9904 67.5199 68.7404 68.8999 66.6404C69.1499 70.6304 65.3699 74.2304 61.3699 74.2704C57.3699 74.3104 53.7099 71.2204 52.5599 67.3904C51.8899 65.1604 51.9799 62.6804 52.9599 60.5604C53.7999 58.7504 55.1999 57.3204 56.7999 56.1004L56.8199 56.1104Z" fill="white"/>
<path d="M128.989 34.0907C133.439 35.4907 137.599 37.7007 141.369 40.4307C144.779 42.9007 148.169 45.6607 150.459 49.2207C140.749 40.4307 128.339 35.8107 115.749 32.9407C115.629 32.9107 115.509 32.8807 115.379 32.8607L112.859 32.2907L115.439 32.1807C119.819 31.9907 124.379 32.6407 128.989 34.0907Z" fill="white"/>
<path d="M55.7389 40.6303C47.7089 39.3503 40.3489 32.3203 39.9989 23.9903C39.5989 14.4103 48.9289 4.54026 58.7389 9.25026C61.7389 10.6903 63.9589 13.3803 65.0089 16.5203C64.0289 14.3903 62.1989 12.6303 60.0789 11.6303C53.2889 8.43026 45.0289 13.4203 45.0389 21.0203C45.0389 24.7703 46.5389 28.2803 49.2289 30.9103C51.9289 33.5403 55.4889 34.9703 59.2389 34.8703C63.0789 34.7903 66.9689 33.8703 71.8589 31.9003C76.5189 30.0103 85.9789 26.5303 86.9889 26.2703C90.9289 24.9703 95.0689 24.0103 99.2889 23.4303C99.2889 23.4303 99.3689 23.4103 99.4989 23.4003C100.389 23.2703 121.579 20.2003 135.009 25.6303C135.009 25.6303 135.409 25.8003 135.989 26.0403C136.769 26.3703 138.019 26.9103 138.899 27.3103C139.099 27.4003 139.279 27.4903 139.429 27.5603C143.569 29.4803 147.349 32.0503 150.669 35.2203L150.709 35.2603C154.039 38.5603 156.969 42.4803 159.399 46.9003C159.449 46.9703 159.489 47.0403 159.489 47.0603C164.679 56.5703 165.919 65.3603 165.929 65.4503L166.379 68.8003L165.259 65.6103C161.369 54.5103 155.909 45.6303 149.059 39.2303C142.979 34.5903 136.379 31.1803 129.429 29.1003H129.399L129.309 29.0703C123.709 27.4103 119.009 26.9703 116.059 26.8903C114.689 26.9003 113.319 26.9503 111.979 27.0203H111.869C107.689 27.2303 103.399 27.6603 99.1389 28.3103C99.1389 28.3103 98.9689 28.3303 98.6489 28.3903C96.9789 28.6903 92.4089 29.6503 86.1889 32.0903C84.6489 32.7403 83.1189 33.4003 81.5789 34.0503C79.5189 34.9303 77.4589 35.8103 75.3989 36.6803C68.9989 39.3803 62.6789 41.7203 55.7489 40.6203L55.7389 40.6303Z" fill="white"/>
<path d="M0.0391235 38.1006C0.0791245 37.6806 0.149139 37.2606 0.239136 36.8406C0.579132 35.2906 1.21912 33.8106 2.02911 32.4506C4.78912 27.7806 9.08917 25.4006 14.3992 25.5506C20.3592 25.7306 25.1291 28.9606 29.3391 31.8206C30.5291 32.6306 31.7092 33.4506 32.8892 34.2806C35.5192 36.1206 38.2292 38.0206 41.0192 39.6806C41.3992 39.9106 41.7991 40.1406 42.1891 40.3606C44.5491 41.7006 47.0192 42.7806 49.9492 44.0106V43.9606L50.6091 44.2706C50.6891 44.3106 58.5892 47.8306 69.0692 43.2306C69.8292 42.9006 70.5691 42.5206 71.3691 42.2806C70.8291 42.7506 70.1891 43.1606 69.6091 43.5906C67.1091 45.4306 63.7091 46.4106 60.6591 46.7506H60.5792C57.7592 47.1906 54.9691 47.2006 52.3091 46.7906L51.9991 46.7506L51.9091 46.7706L51.8391 46.7306C49.9991 46.4306 48.2092 45.9306 46.5792 45.2606L46.4691 45.2206C46.2991 45.1506 46.1391 45.0906 45.9891 45.0206C45.8891 44.9706 45.7591 44.9106 45.6191 44.8506C45.4291 44.7706 45.2492 44.6806 45.0692 44.5906C43.2092 43.7306 39.3892 41.8606 34.7592 38.9606L34.5891 38.8606C31.8891 37.2806 29.2291 35.5406 26.6591 33.8506L26.1891 33.5406C22.9191 31.3906 19.3891 29.2606 15.2391 28.8606C9.78913 28.3106 4.46915 31.9906 3.12915 37.2106C2.36915 40.1806 2.68916 43.3306 4.69916 45.7306C5.94916 47.2306 7.64917 48.3406 9.51917 48.8906C11.6092 49.5006 13.8192 49.2106 15.9592 49.2906C15.0292 49.4206 14.2291 49.9206 13.3491 50.1906C12.5191 50.4406 11.6292 50.5506 10.7692 50.5406C8.94917 50.5206 7.12911 49.9606 5.58911 48.9906C2.30911 46.9206 0.0391464 43.0506 -0.000854492 39.1606C-0.000854492 38.8006 0.00912476 38.4506 0.0391235 38.0906V38.1006Z" fill="white"/>
</svg>
