<svg width="167" height="75" viewBox="0 0 167 75" fill="none" xmlns="http://www.w3.org/2000/svg">
<path d="M62.9406 19.3803C70.5306 20.4003 79.0706 22.3903 85.9406 17.7703C90.0806 14.9803 91.9105 10.1303 89.9305 5.46028C88.6205 2.37028 85.4805 0.0402704 82.1205 0.000270361C78.7605 -0.0297296 75.4506 2.44028 74.8206 5.74028C75.8806 3.35028 78.5805 1.83028 81.1805 2.07028C83.7805 2.31028 86.1306 4.24027 86.9506 6.72027C87.7706 9.20027 87.0706 12.1003 85.2806 14.0003C81.8406 17.6403 76.2306 17.1503 71.7006 16.7903C66.3406 16.3603 61.2305 15.7903 55.8705 16.5103C50.8005 17.2003 45.8905 18.4803 41.0605 20.1803C48.0305 17.7103 55.7606 18.4103 62.9406 19.3703V19.3803Z" fill="white"/>
<path d="M109.559 56.1104C108.319 55.1704 106.969 54.3604 105.639 53.5704C99.049 49.6904 92.5391 45.4404 85.7891 41.9004C90.7991 47.7004 96.979 52.2404 103.459 56.2704C105.639 57.6304 107.939 59.0104 109.339 61.1704C110.809 63.4304 111.059 66.5004 109.719 68.8404C108.379 71.1804 105.389 72.5304 102.819 71.7304C100.419 70.9904 98.859 68.7404 97.479 66.6404C97.229 70.6304 101.009 74.2304 105.009 74.2704C109.009 74.3104 112.669 71.2204 113.819 67.3904C114.489 65.1604 114.399 62.6804 113.419 60.5604C112.579 58.7504 111.179 57.3204 109.579 56.1004L109.559 56.1104Z" fill="white"/>
<path d="M37.39 34.0907C32.94 35.4907 28.7799 37.7007 25.0099 40.4307C21.5999 42.9007 18.2099 45.6607 15.9199 49.2207C25.6299 40.4307 38.0399 35.8107 50.6299 32.9407C50.7499 32.9107 50.8699 32.8807 50.9999 32.8607L53.52 32.2907L50.9399 32.1807C46.5599 31.9907 42 32.6407 37.39 34.0907Z" fill="white"/>
<path d="M110.64 40.6303C118.67 39.3503 126.03 32.3203 126.38 23.9903C126.78 14.4103 117.45 4.54026 107.64 9.25026C104.64 10.6903 102.42 13.3803 101.37 16.5203C102.35 14.3903 104.18 12.6303 106.3 11.6303C113.09 8.43026 121.35 13.4203 121.34 21.0203C121.34 24.7703 119.84 28.2803 117.15 30.9103C114.45 33.5403 110.89 34.9703 107.14 34.8703C103.3 34.7903 99.41 33.8703 94.52 31.9003C89.86 30.0103 80.4 26.5303 79.39 26.2703C75.45 24.9703 71.31 24.0103 67.09 23.4303C67.09 23.4303 67.01 23.4103 66.88 23.4003C65.99 23.2703 44.8 20.2003 31.37 25.6303C31.37 25.6303 30.97 25.8003 30.39 26.0403C29.61 26.3703 28.36 26.9103 27.48 27.3103C27.28 27.4003 27.1 27.4903 26.95 27.5603C22.81 29.4803 19.03 32.0503 15.71 35.2203L15.67 35.2603C12.34 38.5603 9.40998 42.4803 6.97998 46.9003C6.92998 46.9703 6.89001 47.0403 6.89001 47.0603C1.70001 56.5703 0.460012 65.3603 0.450012 65.4503L0 68.8003L1.12 65.6103C5.01 54.5103 10.47 45.6303 17.32 39.2303C23.4 34.5903 30 31.1803 36.95 29.1003H36.98L37.07 29.0703C42.67 27.4103 47.37 26.9703 50.32 26.8903C51.69 26.9003 53.06 26.9503 54.4 27.0203H54.51C58.69 27.2303 62.98 27.6603 67.24 28.3103C67.24 28.3103 67.41 28.3303 67.73 28.3903C69.4 28.6903 73.97 29.6503 80.19 32.0903C81.73 32.7403 83.26 33.4003 84.8 34.0503C86.86 34.9303 88.92 35.8103 90.98 36.6803C97.38 39.3803 103.7 41.7203 110.63 40.6203L110.64 40.6303Z" fill="white"/>
<path d="M166.34 38.1006C166.3 37.6806 166.23 37.2606 166.14 36.8406C165.8 35.2906 165.16 33.8106 164.35 32.4506C161.59 27.7806 157.29 25.4006 151.98 25.5506C146.02 25.7306 141.25 28.9606 137.04 31.8206C135.85 32.6306 134.67 33.4506 133.49 34.2806C130.86 36.1206 128.15 38.0206 125.36 39.6806C124.98 39.9106 124.58 40.1406 124.19 40.3606C121.83 41.7006 119.36 42.7806 116.43 44.0106V43.9606L115.77 44.2706C115.69 44.3106 107.79 47.8306 97.3098 43.2306C96.5498 42.9006 95.8098 42.5206 95.0098 42.2806C95.5498 42.7506 96.1898 43.1606 96.7698 43.5906C99.2698 45.4306 102.67 46.4106 105.72 46.7506H105.8C108.62 47.1906 111.41 47.2006 114.07 46.7906L114.38 46.7506L114.47 46.7706L114.54 46.7306C116.38 46.4306 118.17 45.9306 119.8 45.2606L119.91 45.2206C120.08 45.1506 120.24 45.0906 120.39 45.0206C120.49 44.9706 120.62 44.9106 120.76 44.8506C120.95 44.7706 121.13 44.6806 121.31 44.5906C123.17 43.7306 126.99 41.8606 131.62 38.9606L131.79 38.8606C134.49 37.2806 137.15 35.5406 139.72 33.8506L140.19 33.5406C143.46 31.3906 146.99 29.2606 151.14 28.8606C156.59 28.3106 161.91 31.9906 163.25 37.2106C164.01 40.1806 163.69 43.3306 161.68 45.7306C160.43 47.2306 158.73 48.3406 156.86 48.8906C154.77 49.5006 152.56 49.2106 150.42 49.2906C151.35 49.4206 152.15 49.9206 153.03 50.1906C153.86 50.4406 154.75 50.5506 155.61 50.5406C157.43 50.5206 159.25 49.9606 160.79 48.9906C164.07 46.9206 166.34 43.0506 166.38 39.1606C166.38 38.8006 166.37 38.4506 166.34 38.0906V38.1006Z" fill="white"/>
</svg>
