<svg width="174" height="275" viewBox="0 0 174 275" fill="none" xmlns="http://www.w3.org/2000/svg">
<path d="M46.0784 103.546L46.4242 103.286C46.6886 103.086 46.9728 102.879 47.2584 102.653C50.299 100.241 52.0296 98.3015 48.4627 93.4542C46.8605 91.2837 46.0272 89.8135 46.457 88.7189C46.9045 87.5205 48.568 87.1816 51.6027 86.567L52.2843 86.4193C53.4616 86.1763 54.2607 85.6267 54.6531 84.7681C55.4832 82.959 54.315 80.0097 53.5738 78.7092C53.4005 78.4758 52.6385 77.4414 53.1203 76.4178C53.6505 75.2641 55.4634 74.7264 58.6565 74.7838C63.5697 74.8794 66.46 74.6455 67.6748 73.1818C68.3937 72.3104 68.5353 70.9831 68.1247 69.0009C68.0627 68.8145 68.0025 68.1119 68.6105 67.5569C70.0353 66.2243 75.1239 65.913 91.2903 71.9799C91.3832 72.0159 91.4857 72.0525 91.561 72.0679L92.1524 72.2191L91.8388 71.6976C90.645 69.6927 86.8813 62.8225 88.3656 58.5118C89.0597 56.4818 89.9645 55.558 90.7015 54.8219C91.7404 53.7747 92.5704 52.9503 92.4622 49.1752C92.3612 45.5537 94.2818 44.0016 95.9673 42.6414C97.5729 41.3229 99.065 40.1102 98.9429 37.2518C98.8231 34.1164 100.877 32.4504 102.869 30.8464C105.126 29.0241 107.681 26.9572 107.38 22.3355C107.344 21.9312 107.164 18.3418 110.89 15.4866L111.073 15.3479L110.945 15.1468C110.432 14.3612 109.608 12.777 109.826 10.9584C110.015 9.26197 111.032 7.76371 112.835 6.48921C118.476 2.52121 133.241 7.65692 141.781 19.0861C142.951 20.2861 152.841 31.3519 147.756 56.7009L147.57 57.6232L148.189 56.9258C149.595 55.3431 151.654 53.4863 153.551 53.5861C153.551 53.5861 158.475 53.673 157.594 58.8432C156.713 64.0135 150.491 88.8438 146.245 94.3161C147.158 92.9245 151.398 89.2489 151.398 89.2489C153.264 87.6543 154.894 86.7583 155.968 86.7462C156.524 86.7322 156.94 86.9271 157.253 87.3243C158.453 88.8899 156.39 90.909 152.278 94.91C150.683 96.4684 148.704 98.3984 146.576 100.642C146.514 100.704 146.451 100.775 146.388 100.847L146.293 100.954C146.078 101.138 146.143 101.163 146.289 101.384C146.434 101.606 146.559 101.855 146.704 102.076C146.802 102.046 146.874 101.984 146.956 101.914C149.206 100.933 151.536 100.024 153.699 99.2938C158.104 97.8012 163.946 97.0323 165.715 98.4033C166.131 98.7224 166.344 99.1883 166.304 99.6919C166.223 100.613 165.592 101.214 164.195 101.698C162.837 102.175 160.898 102.493 157.874 102.965C156.003 103.259 153.173 103.708 150.102 104.3C149.373 104.444 148.621 104.625 147.886 104.845C147.739 104.891 147.583 104.927 147.445 104.983L147.297 105.038L147.285 105.19C147.151 106.786 146.462 108.013 146.254 108.351C143.106 112.628 140.676 112.362 139.772 112.052L139.613 112.002L139.499 112.117C138.663 113.018 137.122 114.36 134.918 116.11C134.918 116.11 134.877 116.146 134.806 116.197C134.786 116.215 134.745 116.24 134.695 116.275L134.603 116.344C134.234 116.66 133.876 116.947 133.501 117.224C132.196 118.241 130.772 119.325 129.259 120.431C129.219 120.456 129.167 120.5 129.126 120.535C129.085 120.57 129.035 120.605 128.994 120.64C125.582 123.395 120.73 127.549 116.983 131.779C115.052 133.961 112.373 134.928 109.851 134.359C109.23 134.225 108.653 134.008 108.13 133.719C106 132.549 104.885 130.397 105.132 127.96L105.156 127.646L104.847 127.679C104.239 127.747 99.1033 128.418 95.2702 131.418C95.1025 131.605 87.9581 139.51 82.289 138.055C80.5969 137.656 79.2613 136.366 78.1936 134.094C76.5668 130.641 75.8131 130.362 75.0125 130.07C74.4168 129.852 73.7567 129.6 72.8535 128.535C71.9598 127.471 71.5785 126.467 71.7256 125.56C71.8456 124.757 73.1866 123.026 73.1866 123.026C68.3846 124.698 65.4174 126.044 65.3874 126.061C59.7169 128.067 55.1475 128.228 51.8342 126.517C48.9812 125.042 48.0454 122.675 47.8212 121.988L47.7606 121.783L47.8501 121.618C48.2497 120.788 51.4653 113.668 47.1543 110.14C44.7154 108.143 43.8597 107.082 43.8979 106.1C43.9184 105.098 44.812 104.441 46.0609 103.525L46.0784 103.546ZM137.78 97.1753C140.739 92.3675 146.722 82.1644 148.884 75.1819C151.79 65.7622 147.084 64.3538 147.084 64.3538C145.77 75.8285 139.555 91.5966 137.094 97.5042C137.333 97.389 137.562 97.273 137.781 97.1658L137.78 97.1753ZM85.1848 82.5272C84.8223 82.6329 84.3221 82.9094 84.0397 83.7096C83.4777 85.2719 83.9833 88.2461 85.4841 89.8734C85.6436 90.0388 85.803 90.2042 85.9749 90.3323C86.8682 91.0327 87.9434 91.2407 89.076 90.956C92.8783 89.9518 98.8466 92.4813 101.71 94.3198C105.969 97.0413 107.434 97.7672 108.291 97.0882C108.342 97.0539 108.404 96.9919 108.458 96.9195C108.639 96.6851 108.785 96.2759 108.559 95.6177C107.632 93.0122 103.351 89.2183 103.154 89.0405C91.7168 79.5368 86.1581 81.9529 85.1855 82.5177L85.1848 82.5272ZM120.053 77.9567C118.195 88.2992 117.629 92.9873 119.163 94.187C119.226 94.2302 119.28 94.2726 119.345 94.3063C120.005 94.6827 120.798 94.4576 121.683 93.6566C126.543 89.2741 131.1 76.2449 131.306 75.6779C142.384 40.3655 131.102 31.0747 129.558 29.9985C129.145 29.4023 128.303 28.7823 126.649 28.8735C122.92 29.0707 116.949 32.841 114.841 37.4186C113.539 40.2426 113.822 43.0083 115.665 45.4079C119.002 49.7593 122.93 62.0244 120.061 77.9669L120.053 77.9567ZM110.794 60.0186C107.079 57.4351 104.46 58.8564 103.238 59.9276C100.371 62.4386 99.2857 68.0231 100.689 72.1379C100.837 72.5701 101.014 72.995 101.223 73.3841C101.723 74.3502 102.242 75.4232 102.77 76.5158C105.6 82.3382 107.629 86.1576 109.901 86.1241C110.888 86.1148 111.711 85.3759 112.37 83.9263L112.394 83.8612C112.662 83.1173 118.687 65.4894 110.786 59.9989L110.794 60.0186ZM80.7359 126.768C81.1333 127.813 82.7076 129.111 84.2154 129.295C84.3677 129.307 84.5294 129.32 84.6729 129.321C85.4503 129.296 86.1102 128.936 86.5711 128.303C88.1167 126.157 92.362 124.872 94.6638 124.573C98.0973 124.124 99.1795 123.873 99.3316 123.149C99.3345 123.111 99.3485 123.055 99.3441 122.987C99.3399 122.796 99.2369 122.52 98.8155 122.277C97.1743 121.346 93.2661 121.252 93.0845 121.248C82.902 121.325 81.0595 124.948 80.8027 125.664C80.662 125.873 80.5197 126.226 80.7272 126.758L80.7359 126.768ZM71.3755 107.551C71.5004 107.914 71.6276 108.125 71.6356 108.145C74.9448 113.106 80.4222 110.874 86.2349 108.516C88.8542 107.458 91.5533 106.359 94.1978 105.838C102.374 104.228 109.543 108.065 109.617 108.099L111.895 109.338L110.565 107.112C103.553 95.3619 82.5421 96.3076 75.9188 99.8551C73.3812 101.216 71.8288 102.835 71.3119 104.678C70.9676 105.903 71.1652 106.932 71.3755 107.551Z" fill="url(#paint0_linear_1378_2143)"/>
<path d="M5.34474 67.9732C6.65688 68.4088 8.50415 67.8858 9.80938 66.6843C10.0109 66.4961 10.1971 66.3202 10.3699 66.1515C10.4075 66.39 10.4566 66.6441 10.5123 66.9118C10.8927 68.7136 12.159 70.2587 13.5561 70.5892C14.1426 70.7318 15.2798 70.7731 16.3295 69.504C16.8865 68.831 17.1042 68.0916 16.9821 67.3206C16.9022 66.8244 16.6814 66.3337 16.3232 65.8553C17.4527 65.6854 18.6402 65.123 19.7444 64.2258C21.6939 62.641 22.8156 60.4683 22.5205 58.8282C22.382 58.0227 21.8492 56.9646 20.1555 56.4893C18.8293 56.1127 15.5716 55.6921 12.5648 59.2391C12.349 56.9412 11.3969 53.8133 8.01563 52.6096C6.33807 52.0352 5.31004 52.5694 4.73062 53.1423C3.53634 54.3111 3.18612 56.7225 3.8545 59.1475C4.23299 60.5196 4.87211 61.6594 5.69267 62.4536C5.12096 62.6348 4.65712 62.9098 4.30462 63.2682C3.75718 63.8285 3.50618 64.551 3.56685 65.4234C3.61403 66.1522 3.83188 66.7521 4.21385 67.2093C4.47678 67.5227 4.8025 67.7642 5.19122 67.9164C5.2413 67.9331 5.29639 67.9514 5.34647 67.968L5.34474 67.9732ZM10.9601 64.3067L10.3593 64.9943C10.064 65.331 9.71828 65.6858 9.28834 66.0765C8.16765 67.1074 6.53708 67.5806 5.49634 67.1481C5.22609 67.041 4.99668 66.8779 4.82313 66.6637C4.55365 66.3366 4.39936 65.8969 4.36027 65.3448C4.31693 64.7216 4.4799 64.2308 4.85609 63.8513C5.34247 63.3577 6.10373 63.1582 6.65251 63.0795L7.73332 62.9223L6.82511 62.3252C5.8254 61.6686 5.04297 60.458 4.61614 58.9133C4.03636 56.8077 4.30798 54.6832 5.26688 53.7377C5.86825 53.1489 6.721 53.0088 7.73882 53.3931C11.2403 54.6368 11.8029 58.2846 11.8303 60.346L11.8453 61.5569L12.5449 60.5717C15.4166 56.5276 18.6661 56.9224 19.9305 57.2842C20.9643 57.5868 21.5946 58.1671 21.7429 58.9932C21.9761 60.3171 20.9598 62.2059 19.2622 63.5845C18.0144 64.5964 16.6747 65.1314 15.4789 65.0822L14.3869 65.0386L15.1811 65.795C15.5873 66.1792 16.0866 66.7856 16.1947 67.465C16.2809 67.9922 16.123 68.4847 15.7271 68.9736C15.1412 69.6835 14.478 69.9561 13.751 69.7843C12.6698 69.5239 11.6021 68.2013 11.2853 66.7105C11.1676 66.1438 11.0859 65.6529 11.0457 65.2047L10.9569 64.2998L10.9601 64.3067Z" fill="url(#paint1_linear_1378_2143)"/>
<path d="M51.3126 273.864C54.1584 273.62 57.1718 271.197 58.6472 267.978C58.7788 267.689 58.9104 267.4 59.0223 267.124C59.1898 267.376 59.3678 267.628 59.5569 267.889C61.7005 270.883 65.3393 272.715 68.2151 272.213C69.4478 272 71.67 271.17 72.6338 267.941C73.1432 266.223 72.9572 264.66 72.0904 263.306C71.6206 262.567 70.9501 261.921 70.1007 261.375C71.8933 260.155 73.4772 258.323 74.6985 256.032C77.0617 251.617 77.3974 246.778 75.5326 243.994C74.6105 242.602 72.7465 241.044 69.1494 241.523C66.5723 241.861 60.3766 243.523 57.5078 251.768C55.1566 247.81 51.0035 243.505 44.2021 243.939L44.109 243.947C40.5284 244.254 39.0282 246.089 38.4066 247.593C37.1075 250.68 38.3645 255.371 41.522 259.25C43.1645 261.263 45.0653 262.764 47.0557 263.607C46.3237 264.309 45.7946 265.069 45.4685 265.886C44.8676 267.388 44.9916 268.956 45.8152 270.539C46.5006 271.845 47.4052 272.791 48.5058 273.348C49.2683 273.73 50.0973 273.915 50.9711 273.894C51.0849 273.884 51.1988 273.874 51.3126 273.864ZM58.8976 265.791L58.6739 266.344C58.5023 266.774 58.3015 267.229 58.0818 267.706C56.6415 270.848 53.6631 273.194 50.9571 273.244C50.1773 273.268 49.4546 273.106 48.7794 272.77C47.799 272.278 46.9862 271.43 46.373 270.235C45.6372 268.826 45.5286 267.438 46.0519 266.124C46.3959 265.274 46.9947 264.476 47.8491 263.741L48.2668 263.385L47.7501 263.195C45.6834 262.434 43.6979 260.919 41.9974 258.836C38.9907 255.136 37.778 250.718 38.9805 247.842C39.5424 246.493 40.9253 244.871 44.2566 244.574C51.0786 244.139 55.1321 248.74 57.3357 252.679L57.6921 253.309L57.9039 252.619C60.5355 244.16 66.6983 242.48 69.2349 242.156C72.5121 241.715 74.196 243.117 75.0208 244.347C76.7546 246.94 76.4065 251.513 74.1615 255.726C72.8948 258.096 71.2308 259.966 69.3481 261.109L68.8826 261.394L69.3643 261.662C70.3388 262.208 71.0845 262.88 71.5777 263.648C72.3471 264.841 72.5074 266.224 72.0437 267.746C71.1873 270.646 69.2184 271.391 68.1192 271.581C65.458 272.033 62.0803 270.328 60.0669 267.515C59.7597 267.093 59.4845 266.679 59.2215 266.286L58.8976 265.791ZM51.2178 272.273C53.4531 272.081 56.0056 269.996 57.2442 267.298C57.7177 266.255 58.0779 265.349 58.3513 264.526L58.6817 263.517L59.199 264.443C59.6301 265.216 60.159 266.035 60.822 266.959C62.6097 269.451 65.6756 271.044 67.966 270.645C69.5375 270.372 70.614 269.309 71.1558 267.481C71.5274 266.223 71.4141 265.145 70.8001 264.184C70.0298 262.981 68.5818 262.263 67.5164 261.874L66.3008 261.434L67.5023 260.979C69.7641 260.124 71.8414 258.09 73.3512 255.273C75.3872 251.419 75.772 247.152 74.2544 244.893C73.2864 243.451 71.5869 242.839 69.358 243.105C66.7291 243.448 60.3909 245.271 58.2696 254.817L57.97 256.186L57.3908 254.903C55.7179 251.196 51.7916 245.038 44.3063 245.519C42.0723 245.604 40.5382 246.557 39.8361 248.217C38.7796 250.728 39.9669 254.85 42.7159 258.219C44.7313 260.692 47.151 262.287 49.5415 262.69L50.8106 262.901L49.7109 263.571C48.73 264.167 47.4487 265.151 46.9264 266.476C46.5064 267.536 46.599 268.616 47.2096 269.779C47.7341 270.79 48.41 271.5 49.2053 271.901C49.7387 272.165 50.3233 272.296 50.9479 272.285C51.041 272.277 51.1341 272.269 51.2273 272.261L51.2178 272.273ZM58.5276 261.962L57.7594 264.31C57.4955 265.122 57.1438 266.005 56.6779 267.016C55.4838 269.625 53.0041 271.586 50.9235 271.637C50.3931 271.65 49.9043 271.543 49.4686 271.324C48.7934 270.987 48.2188 270.365 47.7466 269.477C47.2343 268.487 47.1468 267.588 47.4994 266.715C47.9629 265.555 49.1272 264.666 50.029 264.12L52.5958 262.566L49.6441 262.062C47.4012 261.679 45.1139 260.168 43.1922 257.816C40.5931 254.615 39.451 250.778 40.4109 248.477C41.0079 247.05 42.3477 246.263 44.341 246.167C51.4631 245.706 55.2219 251.612 56.8304 255.175L58.1811 258.163L58.887 254.967C60.9056 245.803 66.9379 244.059 69.4332 243.739C71.4353 243.503 72.9179 244.016 73.7426 245.246C75.13 247.324 74.7424 251.314 72.7926 254.958C71.3547 257.641 69.4028 259.558 67.2728 260.37L64.4658 261.432L67.2955 262.458C68.2744 262.812 69.5919 263.466 70.2658 264.518C70.7713 265.306 70.8691 266.205 70.5441 267.278C70.0755 268.864 69.1641 269.785 67.8486 270.004C65.8132 270.339 62.9427 268.836 61.3095 266.566C60.6699 265.671 60.1523 264.862 59.7229 264.11L58.5164 261.952L58.5276 261.962Z" fill="url(#paint2_linear_1378_2143)"/>
<path d="M84.94 199.089C85.1723 199.661 85.5314 200.082 85.8746 200.387C87.404 201.718 90.2389 201.978 92.6212 201.009C93.4435 200.677 94.1598 200.346 94.7749 200.01C94.627 200.695 94.5034 201.471 94.4125 202.355C94.15 204.91 95.1933 207.557 96.8864 208.661C97.7157 209.194 99.0727 209.615 100.832 208.582C101.805 208.013 102.371 207.235 102.526 206.255C102.704 205.107 102.266 203.9 101.749 202.933C103.607 203.686 105.974 203.68 108.463 202.846C111.861 201.703 114.368 199.411 114.681 197.131C114.821 196.088 114.572 194.539 112.551 193.111C110.688 191.804 105.833 189.39 99.4134 193.809C100.38 190.747 101.32 184.917 96.4358 181.01C94.5113 179.469 92.9538 179.651 91.9851 180.078C89.8814 181.012 88.3748 184.053 88.231 187.643C88.1257 190.268 88.7698 192.546 90.0195 194.118C88.9482 193.885 87.6673 193.803 86.6136 194.3C85.7146 194.718 85.1236 195.488 84.8476 196.571C84.5849 197.624 84.68 198.443 84.9334 199.084L84.94 199.089Z" fill="url(#paint3_linear_1378_2143)"/>
<defs>
<linearGradient id="paint0_linear_1378_2143" x1="112.742" y1="4.71608" x2="102.236" y2="139.692" gradientUnits="userSpaceOnUse">
<stop stop-color="#6CBDAA"/>
<stop offset="0.604167" stop-color="#7083BC"/>
</linearGradient>
<linearGradient id="paint1_linear_1378_2143" x1="14.1425" y1="54.487" x2="9.23622" y2="69.2652" gradientUnits="userSpaceOnUse">
<stop stop-color="#005683"/>
<stop offset="0.604167" stop-color="#7083BC"/>
</linearGradient>
<linearGradient id="paint2_linear_1378_2143" x1="56.732" y1="242.576" x2="59.3551" y2="273.175" gradientUnits="userSpaceOnUse">
<stop stop-color="#005683"/>
<stop offset="0.604167" stop-color="#7083BC"/>
</linearGradient>
<linearGradient id="paint3_linear_1378_2143" x1="104.601" y1="186.995" x2="91.1756" y2="204.469" gradientUnits="userSpaceOnUse">
<stop stop-color="#6CBDAA"/>
<stop offset="0.604167" stop-color="#7083BC"/>
</linearGradient>
</defs>
</svg>
