<svg width="353" height="178" viewBox="0 0 353 178" fill="none" xmlns="http://www.w3.org/2000/svg">
<g filter="url(#filter0_dd_1378_2168)">
<path d="M78.2462 51.7379C104.484 51.7379 125.754 73.008 125.754 99.246C125.754 125.484 104.484 146.754 78.2462 146.754C52.0082 146.754 30.7381 125.484 30.7381 99.246C30.7381 73.008 52.0082 51.7379 78.2462 51.7379Z" stroke="#E1E8EA" stroke-width="3.4762" shape-rendering="crispEdges"/>
</g>
<path d="M64.1152 94.4857L77.3795 81.7575L90.6438 94.4857M77.4397 83.652L77.4397 113.971" stroke="#E1E8EA" stroke-width="3.7898" stroke-linecap="round" stroke-linejoin="round"/>
<path d="M219.106 61H213.558V21.362H199.454V16.4156H233.277V21.362H219.106V61ZM259.318 61H254.305V57.3236C251.631 60.2647 247.955 61.8021 243.61 61.8021C238.129 61.8021 232.314 58.1257 232.314 51.1072C232.314 43.8881 238.129 40.4791 243.61 40.4791C248.022 40.4791 251.698 41.8829 254.305 44.8908V39.0754C254.305 34.7306 250.829 32.2574 246.15 32.2574C242.273 32.2574 239.132 33.6611 236.257 36.7359L233.918 33.2601C237.394 29.6505 241.538 27.9126 246.819 27.9126C253.637 27.9126 259.318 30.9874 259.318 38.8081V61ZM245.415 58.1926C248.958 58.1926 252.367 56.8557 254.305 54.182V48.0993C252.367 45.4255 248.958 44.0887 245.415 44.0887C240.736 44.0887 237.461 47.0298 237.461 51.1741C237.461 55.2515 240.736 58.1926 245.415 58.1926ZM274.381 61H269.368V28.7147H274.381V33.9285C276.988 30.5195 280.731 28.0463 285.143 28.0463V33.1932C284.541 33.0596 283.94 32.9927 283.137 32.9927C280.063 32.9927 275.851 35.5327 274.381 38.1396V61ZM293.904 24.1026C292.1 24.1026 290.562 22.632 290.562 20.7604C290.562 18.8888 292.1 17.3514 293.904 17.3514C295.776 17.3514 297.313 18.8888 297.313 20.7604C297.313 22.632 295.776 24.1026 293.904 24.1026ZM296.444 61H291.431V28.7147H296.444V61ZM334.853 61H328.436L316.805 46.495L311.458 51.7756V61H306.445V16.4156H311.458V45.8934L328.436 28.7147H334.786L320.482 43.3534L334.853 61ZM183.688 139H177.544L166.408 125.112L161.288 130.168V139H156.488V96.312H161.288V124.536L177.544 108.088H183.624L169.928 122.104L183.688 139ZM203.127 139.768C193.975 139.768 187.383 133.176 187.383 123.512C187.383 114.552 193.783 107.32 202.615 107.32C211.959 107.32 217.463 114.616 217.463 123.896V125.112H192.439C192.823 130.936 196.919 135.8 203.575 135.8C207.095 135.8 210.679 134.392 213.111 131.896L215.415 135.032C212.343 138.104 208.183 139.768 203.127 139.768ZM212.727 121.592C212.663 116.984 209.591 111.288 202.551 111.288C195.959 111.288 192.695 116.856 192.439 121.592H212.727ZM265.866 139H261.066V135.48C258.506 138.296 254.986 139.768 250.826 139.768C245.578 139.768 240.01 136.248 240.01 129.528C240.01 122.616 245.578 119.352 250.826 119.352C255.05 119.352 258.57 120.696 261.066 123.576V118.008C261.066 113.848 257.738 111.48 253.258 111.48C249.546 111.48 246.538 112.824 243.786 115.768L241.546 112.44C244.874 108.984 248.842 107.32 253.898 107.32C260.426 107.32 265.866 110.264 265.866 117.752V139ZM252.554 136.312C255.946 136.312 259.21 135.032 261.066 132.472V126.648C259.21 124.088 255.946 122.808 252.554 122.808C248.074 122.808 244.938 125.624 244.938 129.592C244.938 133.496 248.074 136.312 252.554 136.312ZM283.296 139.768C278.752 139.768 276.448 137.144 276.448 132.536V112.312H271.328V108.088H276.448V99.64H281.248V108.088H287.52V112.312H281.248V131.512C281.248 133.816 282.272 135.48 284.384 135.48C285.728 135.48 287.008 134.904 287.648 134.2L289.056 137.784C287.84 138.936 286.112 139.768 283.296 139.768ZM318.428 139H313.628V135.48C311.068 138.296 307.548 139.768 303.388 139.768C298.14 139.768 292.572 136.248 292.572 129.528C292.572 122.616 298.14 119.352 303.388 119.352C307.612 119.352 311.132 120.696 313.628 123.576V118.008C313.628 113.848 310.3 111.48 305.82 111.48C302.108 111.48 299.1 112.824 296.348 115.768L294.108 112.44C297.436 108.984 301.404 107.32 306.46 107.32C312.988 107.32 318.428 110.264 318.428 117.752V139ZM305.116 136.312C308.508 136.312 311.772 135.032 313.628 132.472V126.648C311.772 124.088 308.508 122.808 305.116 122.808C300.636 122.808 297.5 125.624 297.5 129.592C297.5 133.496 300.636 136.312 305.116 136.312ZM337.842 139.768C332.786 139.768 328.498 138.232 325.362 134.904L327.858 131.448C329.906 133.816 333.81 135.864 338.034 135.864C342.77 135.864 345.33 133.624 345.33 130.552C345.33 123.064 326.194 127.672 326.194 116.216C326.194 111.416 330.354 107.32 337.714 107.32C342.962 107.32 346.674 109.304 349.17 111.8L346.93 115.128C345.074 112.888 341.682 111.224 337.714 111.224C333.49 111.224 330.866 113.336 330.866 116.088C330.866 122.872 350.002 118.392 350.002 130.424C350.002 135.608 345.842 139.768 337.842 139.768Z" fill="#E1E8EA"/>
<defs>
<filter id="filter0_dd_1378_2168" x="0.0316491" y="21.0314" width="156.429" height="156.429" filterUnits="userSpaceOnUse" color-interpolation-filters="sRGB">
<feFlood flood-opacity="0" result="BackgroundImageFix"/>
<feColorMatrix in="SourceAlpha" type="matrix" values="0 0 0 0 0 0 0 0 0 0 0 0 0 0 0 0 0 0 127 0" result="hardAlpha"/>
<feOffset dx="5.79367" dy="5.79367"/>
<feGaussianBlur stdDeviation="11.5873"/>
<feComposite in2="hardAlpha" operator="out"/>
<feColorMatrix type="matrix" values="0 0 0 0 0 0 0 0 0 0 0 0 0 0 0 0 0 0 0.25 0"/>
<feBlend mode="normal" in2="BackgroundImageFix" result="effect1_dropShadow_1378_2168"/>
<feColorMatrix in="SourceAlpha" type="matrix" values="0 0 0 0 0 0 0 0 0 0 0 0 0 0 0 0 0 0 127 0" result="hardAlpha"/>
<feOffset dx="-5.79367" dy="-5.79367"/>
<feGaussianBlur stdDeviation="11.5873"/>
<feComposite in2="hardAlpha" operator="out"/>
<feColorMatrix type="matrix" values="0 0 0 0 1 0 0 0 0 1 0 0 0 0 1 0 0 0 0.25 0"/>
<feBlend mode="normal" in2="effect1_dropShadow_1378_2168" result="effect2_dropShadow_1378_2168"/>
<feBlend mode="normal" in="SourceGraphic" in2="effect2_dropShadow_1378_2168" result="shape"/>
</filter>
</defs>
</svg>
