<svg width="1920" height="362" viewBox="0 0 1920 362" fill="none" xmlns="http://www.w3.org/2000/svg">
<path d="M267 93.6294C132.6 11.2294 33 0.296078 0 5.12941V219L1938.5 277V16.1296C1896.5 -24.6704 1602.67 21.4629 1461 49.6296C1349.83 82.2962 1077.8 154.93 879 184.13C630.5 220.63 435 196.629 267 93.6294Z" fill="url(#paint0_linear_1847_2566)"/>
<path fill-rule="evenodd" clip-rule="evenodd" d="M-16 351C29.1667 314.667 285 244.8 947 256C1774.5 270 1881.5 326.5 1941 362V108.55C1761.83 29.506 1345.22 127.519 1157.5 187.068C1012 216.568 667.9 257.868 455.5 187.068C243.1 116.268 52.6667 124.901 -16 138.068V351Z" fill="#E1E8EA"/>
<defs>
<linearGradient id="paint0_linear_1847_2566" x1="969.25" y1="0" x2="969.25" y2="389.5" gradientUnits="userSpaceOnUse">
<stop stop-color="#D9D9D9" stop-opacity="0"/>
<stop offset="1" stop-color="#D9D9D9"/>
</linearGradient>
</defs>
</svg>
