<svg width="129" height="129" viewBox="0 0 129 129" fill="none" xmlns="http://www.w3.org/2000/svg">
<g filter="url(#filter0_dd_469_1845)">
<path d="M78 21C94.5685 21 108 34.4315 108 51L108 78C108 94.5685 94.5685 108 78 108L51 108C34.4315 108 21 94.5685 21 78L21 51C21 34.4315 34.4315 21 51 21L78 21Z" fill="#E1E8EA" fill-opacity="0.6" shape-rendering="crispEdges"/>
<g filter="url(#filter1_i_469_1845)">
<path d="M52.54 76.9906L63.684 52.0146L68.78 52.0146L79.98 76.9906L74.716 76.9906L66.204 57.1106L57.804 76.9906L52.54 76.9906Z" fill="#BFCDF5"/>
</g>
<path d="M78 21.5C94.2924 21.5 107.5 34.7076 107.5 51L107.5 78C107.5 94.2924 94.2924 107.5 78 107.5L51 107.5C34.7076 107.5 21.5 94.2924 21.5 78L21.5 51C21.5 34.7076 34.7076 21.5 51 21.5L78 21.5Z" stroke="#EBF2F3" shape-rendering="crispEdges"/>
</g>
<defs>
<filter id="filter0_dd_469_1845" x="0" y="0" width="129" height="129" filterUnits="userSpaceOnUse" color-interpolation-filters="sRGB">
<feFlood flood-opacity="0" result="BackgroundImageFix"/>
<feColorMatrix in="SourceAlpha" type="matrix" values="0 0 0 0 0 0 0 0 0 0 0 0 0 0 0 0 0 0 127 0" result="hardAlpha"/>
<feOffset dx="5" dy="5"/>
<feGaussianBlur stdDeviation="8"/>
<feComposite in2="hardAlpha" operator="out"/>
<feColorMatrix type="matrix" values="0 0 0 0 0 0 0 0 0 0 0 0 0 0 0 0 0 0 0.25 0"/>
<feBlend mode="normal" in2="BackgroundImageFix" result="effect1_dropShadow_469_1845"/>
<feColorMatrix in="SourceAlpha" type="matrix" values="0 0 0 0 0 0 0 0 0 0 0 0 0 0 0 0 0 0 127 0" result="hardAlpha"/>
<feOffset dx="-5" dy="-5"/>
<feGaussianBlur stdDeviation="8"/>
<feComposite in2="hardAlpha" operator="out"/>
<feColorMatrix type="matrix" values="0 0 0 0 1 0 0 0 0 1 0 0 0 0 1 0 0 0 0.8 0"/>
<feBlend mode="normal" in2="effect1_dropShadow_469_1845" result="effect2_dropShadow_469_1845"/>
<feBlend mode="normal" in="SourceGraphic" in2="effect2_dropShadow_469_1845" result="shape"/>
</filter>
<filter id="filter1_i_469_1845" x="52.54" y="52.0146" width="27.4399" height="25.9761" filterUnits="userSpaceOnUse" color-interpolation-filters="sRGB">
<feFlood flood-opacity="0" result="BackgroundImageFix"/>
<feBlend mode="normal" in="SourceGraphic" in2="BackgroundImageFix" result="shape"/>
<feColorMatrix in="SourceAlpha" type="matrix" values="0 0 0 0 0 0 0 0 0 0 0 0 0 0 0 0 0 0 127 0" result="hardAlpha"/>
<feOffset dy="1"/>
<feGaussianBlur stdDeviation="0.5"/>
<feComposite in2="hardAlpha" operator="arithmetic" k2="-1" k3="1"/>
<feColorMatrix type="matrix" values="0 0 0 0 0 0 0 0 0 0 0 0 0 0 0 0 0 0 0.25 0"/>
<feBlend mode="normal" in2="shape" result="effect1_innerShadow_469_1845"/>
</filter>
</defs>
</svg>
