<svg width="210" height="101" viewBox="0 0 210 101" fill="none" xmlns="http://www.w3.org/2000/svg">
<g style="mix-blend-mode:multiply" opacity="0.4">
<path d="M96.5393 83.9659C94.1695 83.9659 91.5768 83.7078 88.773 83.1095C83.3061 81.948 77.276 78.71 74.6012 76.2464L73.0995 74.862L75.1291 75.0263C76.4783 75.1318 77.8508 75.2961 79.2938 75.4721C82.5435 75.8592 85.8987 76.2581 89.207 76.047C97.6186 75.5073 104.376 71.5302 109.292 64.2213C111.837 60.4319 112.576 56.2085 111.532 51.2812L111.345 50.4247H112.224C112.295 50.4365 112.365 50.4365 112.436 50.4365C116.671 50.4365 119.991 48.7236 122.865 45.0751L123.792 43.8901L124.097 45.3566C124.167 45.6851 124.238 45.9784 124.296 46.2482C124.425 46.8114 124.543 47.2924 124.601 47.7968C125.997 59.0359 122.243 70.2632 114.794 77.1028C111.133 80.4698 105.221 83.9776 96.4923 83.9776L96.5393 83.9659ZM77.4403 76.6687C80.3732 78.6749 84.9485 80.8569 89.078 81.7368C98.9794 83.8368 107.567 81.8776 113.89 76.0587C120.894 69.6179 124.566 58.5901 123.252 47.9728C123.217 47.6678 123.158 47.3627 123.088 47.046C120.296 50.108 117.023 51.68 113.116 51.8326C113.961 56.7364 113.093 61.1711 110.5 65.0073C105.326 72.6917 98.2052 76.8799 89.3361 77.4547C85.887 77.6776 82.4731 77.267 79.1648 76.8799C78.5782 76.8095 78.0151 76.7391 77.452 76.6804L77.4403 76.6687Z" fill="#7083BC"/>
<path d="M97.642 100.25C88.7612 100.25 80.9128 98.7127 74.214 95.6742C71.0934 94.2546 68.0549 92.4362 65.1103 90.6765C58.8574 86.934 52.9446 83.391 46.0699 83.1681C41.0019 82.9921 36.0629 84.7284 31.3116 86.3944C26.6659 88.0251 21.3867 89.8904 16.0371 89.691C10.7696 89.5033 5.9948 87.0865 3.57809 83.3676L3.47251 83.2151C3.21442 82.8514 2.88593 82.4173 2.92112 81.948C2.94459 81.4905 3.15576 81.2559 3.33174 81.1385C3.70715 80.8804 4.10604 81.0212 4.34067 81.1033C4.3876 81.1151 4.44626 81.1385 4.49319 81.1503C5.27921 81.3614 6.11212 81.5022 6.95679 81.5609C8.54056 81.6665 10.2416 81.514 12.0131 81.0916C15.0281 80.3642 18.1839 78.933 21.6682 76.7039C22.8648 75.9414 24.038 75.1319 25.2229 74.3224C29.5988 71.3425 34.1272 68.257 39.3947 67.1543C45.9526 65.7816 53.32 67.4945 61.9428 72.3749C64.0662 73.5833 66.1779 74.8972 68.2192 76.176C72.6068 78.9212 77.1469 81.7603 82.0507 83.567C90.8963 86.8167 100.669 86.5 108.881 82.7106C117.386 78.7805 123.839 71.2135 126.15 62.4733C128.097 55.0588 127.088 46.9639 126.197 39.831C125.774 36.4405 125.34 32.9327 124.05 29.7416C121.727 24.0048 116.542 19.5467 110.512 18.1154C106.429 17.1417 102.382 17.6814 99.39 19.5819C96.0348 21.7171 94.1812 25.6472 94.8734 29.155C95.1314 30.4573 95.8236 31.736 96.8325 32.7567C97.994 34.012 99.5542 34.6925 100.95 35.0679C98.5336 33.3668 97.0906 31.4075 96.6918 29.2254C96.0348 25.6472 98.4515 22.8786 98.5571 22.7612C99.3548 21.7992 100.375 21.0015 101.478 20.4853C104.282 19.1596 107.321 19.3942 109.385 19.84C115.497 21.1305 120.847 25.7528 122.982 31.6305C124.367 35.4315 124.062 39.9835 122.196 43.5147C120.765 46.2131 118.595 47.9963 115.932 48.6533C113.937 49.146 111.884 48.97 109.902 48.794C107.684 48.6063 105.573 48.4186 103.649 49.1343C102.616 49.5214 101.689 50.1315 100.716 50.7884C100.035 51.246 99.3196 51.7153 98.5688 52.1141C94.756 54.0968 89.8405 53.8856 85.7579 51.5393C82.1915 49.5097 79.3055 45.955 77.6162 41.5321C76.3961 38.3293 75.9621 35.0327 76.3492 31.9824C77.0531 25.6003 80.8189 21.764 83.5524 19.7696C82.039 20.1568 80.7133 20.8255 79.5402 21.811C77.7687 23.2892 76.2553 25.3188 75.2699 27.5126L74.4486 29.331L73.9442 27.407C72.0085 20.0629 74.6598 11.5339 80.5256 6.20771C86.0981 1.13958 94.4041 -1.05427 102.182 0.482594C103.203 0.682034 104.223 0.951866 105.197 1.19823C107.074 1.67924 108.846 2.13678 110.688 2.23063C112.353 2.31276 113.996 2.08985 115.732 1.84348C116.459 1.74963 117.175 1.64405 117.902 1.57366C126.654 0.646848 135.676 3.19264 142.656 8.57753C149.46 13.8216 154.153 21.635 155.608 30.0936C156.03 30.0819 156.464 30.0819 156.887 30.0936C164.008 30.5042 170.296 36.6751 170.624 43.5617C170.8 47.3041 169.216 51.0817 166.272 53.9443C163.398 56.7365 159.667 58.1912 156.042 57.9214C150.422 57.499 145.472 52.8415 144.252 46.8466C143.794 44.6058 143.9 42.2242 144.545 39.9717C144.662 39.5611 144.791 39.1623 144.944 38.7751C142.539 42.541 142.011 47.703 143.161 51.5627C144.639 56.5487 149.062 60.1739 154.165 60.5845L154.974 60.6431L154.798 61.4292C152.264 72.7855 145.46 83.0625 136.133 89.6323C127.968 95.3809 117.457 98.8418 104.869 99.9328C102.382 100.144 99.9531 100.25 97.6068 100.25H97.642ZM45.4012 81.7368C45.6476 81.7368 45.8822 81.7369 46.1286 81.7486C53.367 81.9949 59.7138 85.7843 65.8494 89.4564C68.7588 91.1927 71.7621 92.9876 74.8123 94.3837C83.0479 98.1379 93.1371 99.5222 104.787 98.525C117.116 97.4574 127.405 94.0787 135.359 88.4826C144.193 82.2648 150.692 72.6095 153.285 61.8867C147.947 61.1359 143.419 57.2292 141.847 51.9499C140.099 46.0605 141.788 37.7896 147.642 34.1411L148.381 35.3377C148.123 35.5019 147.677 36.4053 147.466 36.8394C147.349 37.0857 147.243 37.2969 147.149 37.4611C146.633 38.3528 146.234 39.3265 145.941 40.3472C145.354 42.3885 145.261 44.5354 145.671 46.5533C146.762 51.9382 151.185 56.1264 156.183 56.5018C159.421 56.7482 162.729 55.446 165.322 52.9236C167.973 50.3426 169.404 46.9522 169.252 43.6203C168.958 37.426 163.28 31.8651 156.84 31.5014C156.253 31.4662 155.678 31.4779 155.115 31.5366L154.458 31.5953L154.364 30.9383C153.097 22.5853 148.522 14.8423 141.835 9.68032C135.148 4.51834 126.49 2.06638 118.09 2.958C117.386 3.02839 116.671 3.13399 115.967 3.22784C114.242 3.46248 112.447 3.70884 110.664 3.62672C108.681 3.53286 106.757 3.04013 104.892 2.5474C103.93 2.30103 102.933 2.04292 101.948 1.84348C94.6035 0.388744 86.7668 2.45353 81.5111 7.22836C76.5252 11.7568 74.0263 18.749 74.9531 25.1193C75.9503 23.4417 77.229 21.9165 78.672 20.7199C80.8658 18.878 83.5172 17.9864 86.7786 17.9747H90.2746L87.0601 19.3238C86.7199 19.4646 78.8011 22.9255 77.7804 32.1467C77.4167 34.974 77.8273 38.0477 78.9653 41.0276C80.5373 45.1455 83.2122 48.4421 86.4853 50.3074C90.1103 52.384 94.6152 52.5951 97.947 50.8471C98.6392 50.4952 99.2727 50.0611 99.9649 49.6035C100.974 48.9348 102.006 48.2309 103.191 47.7968C105.42 46.9639 107.778 47.1751 110.066 47.3745C112.025 47.5387 113.867 47.703 115.627 47.2689C118.489 46.5533 120.12 44.465 120.988 42.8343C122.654 39.6902 122.935 35.4785 121.703 32.0997C119.721 26.6679 114.782 22.3975 109.127 21.2009C107.274 20.8138 104.552 20.5909 102.112 21.7406C101.185 22.1747 100.34 22.8434 99.6481 23.6646C99.6129 23.6998 97.5599 26.0696 98.1113 28.9673C98.5571 31.3254 100.551 33.4371 104.047 35.2438C104.376 35.455 104.517 35.5019 104.564 35.5137L108.599 36.7572L104.376 36.898C104.153 36.898 98.9208 37.0388 95.8471 33.7187C94.6505 32.4986 93.841 31.0087 93.5242 29.4131C92.7147 25.354 94.8264 20.8255 98.6627 18.3853C101.971 16.2736 106.417 15.6752 110.864 16.7311C117.316 18.268 122.888 23.0428 125.375 29.1902C126.736 32.5573 127.182 36.1472 127.616 39.6315C128.52 46.9052 129.552 55.1409 127.534 62.8135C125.129 71.9643 118.383 79.8715 109.503 83.9776C100.95 87.9312 90.779 88.248 81.5932 84.881C76.5603 83.0274 71.9498 80.1531 67.5036 77.3609C65.474 76.0939 63.3858 74.7799 61.2741 73.5833C52.9681 68.8671 45.9057 67.2129 39.6997 68.5034C34.702 69.5475 30.2909 72.5509 26.0324 75.4604C24.8358 76.2699 23.6509 77.0911 22.4425 77.8536C18.8292 80.1765 15.5209 81.6664 12.3533 82.429C10.4411 82.8866 8.59925 83.0626 6.8747 82.9335C6.18254 82.8866 5.49037 82.7927 4.82167 82.6402C7.41435 86.5704 12.3416 88.1189 16.0957 88.248C21.1638 88.424 26.3256 86.6173 30.854 85.0335C35.3003 83.4731 40.3097 81.7134 45.4012 81.7134V81.7368Z" fill="#7083BC"/>
<path d="M50.481 45.9315C48.428 45.9315 46.3515 45.5561 44.4041 44.8053C42.8907 44.2187 41.4008 43.5265 39.9578 42.8461C38.55 42.1774 37.0953 41.4969 35.6406 40.9338C30.5139 38.9629 24.7302 37.8953 17.4332 37.5551C16.1662 37.4964 14.8639 37.5785 13.5969 37.6606L12.4707 37.731C11.8372 37.7662 11.1333 37.7545 10.4177 37.7545C9.06853 37.7428 7.67247 37.7193 6.60489 37.9891L0 39.6433L6.12389 36.6752C10.8165 34.3992 15.8494 32.1115 21.3163 31.1847C25.3637 30.5043 29.3173 30.7037 32.7546 31.7713C33.7283 32.0763 34.5965 32.4283 35.4411 32.7802C37.8696 33.7657 39.7818 34.5517 42.5857 33.6249C43.6884 33.2612 44.5214 32.7333 45.0611 32.0646C45.7532 31.1964 45.9644 30.0819 46.0231 29.2842C46.1638 27.2311 45.4013 25.3071 44.0287 24.2747C43.3834 23.7819 42.5622 23.4652 41.5885 23.3362L41.436 23.301C40.6734 23.1836 39.2187 23.254 38.3858 23.9579C37.9048 24.3568 37.6819 24.9199 37.7054 25.6825C37.7875 28.2987 40.0047 28.897 40.0986 28.9205L45.7063 30.6802L41.0019 30.645C40.5327 30.645 39.9695 30.7154 39.4534 30.7741C39.031 30.8328 38.6204 30.8797 38.2333 30.9031C36.7903 30.9853 35.6406 30.8914 34.6082 30.6098C32.8015 30.1171 31.3703 29.0143 30.6899 27.5713C30.6195 27.4305 30.5725 27.278 30.5139 27.1255C30.1385 26.316 29.939 25.4479 29.939 24.5445C29.939 24.2278 29.9742 23.8875 30.0329 23.5121C30.0329 23.2892 30.115 23.0076 30.2323 22.6088C30.725 20.9663 32.6138 17.1066 39.336 16.7664C39.8405 16.7429 40.2746 16.7312 40.7204 16.7429L43.055 16.7898L42.6678 17.0362C46.1052 17.7518 49.566 19.7814 51.8889 22.5267C54.1179 25.178 55.2089 28.1227 55.1385 31.302C55.162 31.5367 55.1502 31.8651 55.115 32.3696C55.0212 33.3785 54.6575 35.326 53.2732 36.9215C53.9419 36.5579 54.5402 36.0651 54.986 35.4668C55.6664 34.5635 56.1005 33.3903 56.2413 32.088C56.3468 31.173 56.3117 30.211 56.1474 29.1199C56.1474 29.1199 55.7368 27.0551 55.1737 26.0227L53.7894 23.4769L56.1943 25.1076C56.1943 25.1076 56.8278 25.5417 57.4848 26.0462C57.6608 26.187 57.8485 26.3277 58.0245 26.492C58.3529 26.7735 58.5993 27.0082 58.7635 27.2076C59.4205 27.935 59.9954 28.7797 60.4412 29.7182C61.192 31.2903 61.6261 33.1204 61.7199 35.15C61.7669 36.0768 61.7434 37.0154 61.6495 37.9305C61.6143 39.8193 60.6641 41.7668 59.0334 43.1863C58.1183 43.9958 57.0038 44.6293 55.7133 45.0751C54.0592 45.6617 52.276 45.955 50.4693 45.955L50.481 45.9315ZM16.5416 36.1355C16.8583 36.1355 17.1751 36.1355 17.5036 36.159C24.9531 36.4992 30.8776 37.6137 36.145 39.6316C37.6584 40.2064 39.1366 40.9103 40.5561 41.579C41.9757 42.2478 43.4303 42.9399 44.8968 43.4913C48.252 44.7818 52.0296 44.8639 55.2441 43.726C56.3586 43.3388 57.3206 42.7874 58.0948 42.107C59.4088 40.9573 60.2065 39.3617 60.23 37.8249C60.3238 36.9215 60.3356 36.0534 60.3004 35.197C60.2065 33.3434 59.8311 31.7009 59.1624 30.2931C58.7753 29.4836 58.2825 28.7562 57.696 28.0992C57.6138 28.0054 57.4848 27.8646 57.2619 27.6652C57.4379 28.3104 57.5317 28.8149 57.5435 28.8618C57.7312 30.1054 57.7664 31.1964 57.6373 32.2288C57.4613 33.7774 56.9334 35.1852 56.1122 36.288C54.7279 38.1416 52.2643 39.1975 49.9766 38.9159L46.9381 38.5405L49.8241 37.5433C53.2849 36.3584 53.6955 32.921 53.7307 31.7713H53.7072V31.302C53.8011 28.4629 52.8156 25.8115 50.7978 23.4183C48.2755 20.4267 44.2751 18.3619 40.6031 18.1624L40.1455 18.139C39.9109 18.139 39.688 18.139 39.4651 18.1624C33.0714 18.4792 31.734 22.2216 31.4759 23.3244L31.4055 23.6998C31.3468 24.0049 31.3234 24.2864 31.3234 24.5328C31.3234 25.225 31.4759 25.8937 31.7692 26.5272L31.8161 26.6445C31.8513 26.7501 31.8865 26.8557 31.9334 26.9495C32.4261 28.0054 33.5524 28.8501 34.9367 29.2255C35.8166 29.4601 36.8372 29.5423 38.1159 29.4719H38.1394C37.2126 28.7562 36.3328 27.5478 36.2741 25.706C36.2389 24.521 36.6495 23.5356 37.459 22.8551C38.7494 21.7758 40.8025 21.7054 41.7879 21.9283L41.9404 21.9635C43.0784 22.1395 44.0521 22.5501 44.8616 23.1484C46.6096 24.4741 47.5951 26.8674 47.4191 29.378C47.3253 30.7976 46.8794 32.0294 46.1521 32.9327C45.4365 33.8126 44.3806 34.4931 43.0198 34.9389C39.7349 36.0182 37.3886 35.0679 34.9132 34.059C34.092 33.7305 33.2473 33.3785 32.3323 33.097C29.1178 32.088 25.3872 31.9003 21.5509 32.5456C17.5387 33.226 13.7377 34.6808 10.1244 36.3115H10.4294C11.1216 36.3115 11.7902 36.3349 12.3886 36.2997L13.5031 36.2294C14.5003 36.1707 15.5092 36.1003 16.5298 36.1003L16.5416 36.1355Z" fill="#7083BC"/>
<path d="M198.463 100.12C196.41 100.12 194.334 99.7451 192.375 98.9942C190.861 98.4077 189.371 97.7155 187.928 97.035C186.521 96.378 185.066 95.6859 183.611 95.1345C178.484 93.1635 172.701 92.0959 165.404 91.7557C164.137 91.6971 162.834 91.7792 161.567 91.8613L160.441 91.9317C159.808 91.9669 159.104 91.9552 158.388 91.9552C157.039 91.9434 155.643 91.92 154.575 92.1898L147.982 93.844L154.106 90.8758C158.787 88.5999 163.832 86.3122 169.299 85.3854C173.346 84.7049 177.3 84.9044 180.737 85.972C181.711 86.277 182.579 86.6289 183.423 86.9809C185.852 87.9664 187.764 88.7524 190.568 87.8256C191.671 87.4619 192.504 86.934 193.043 86.2653C193.735 85.3971 193.947 84.2826 194.005 83.4965C194.146 81.4435 193.384 79.5195 192.011 78.4871C191.354 77.9944 190.545 77.6776 189.571 77.5486L189.407 77.5016C188.726 77.3843 187.213 77.443 186.368 78.1586C185.887 78.5575 185.664 79.1206 185.688 79.8832C185.77 82.4994 187.987 83.0977 188.081 83.1212L193.689 84.8809L188.984 84.8457C188.527 84.8457 187.952 84.9161 187.436 84.9748C187.013 85.0334 186.603 85.0804 186.216 85.1038C184.773 85.186 183.623 85.0921 182.59 84.8105C180.784 84.3178 179.353 83.215 178.672 81.772C178.602 81.6312 178.555 81.4787 178.496 81.3262C178.121 80.5167 177.921 79.6485 177.921 78.7452C177.921 78.4284 177.956 78.0882 178.015 77.7128C178.015 77.4899 178.097 77.2083 178.215 76.8095C178.707 75.167 180.596 71.3072 187.318 70.967C187.823 70.9436 188.257 70.9318 188.703 70.9436L191.037 70.9905L190.65 71.2369C194.087 71.9525 197.548 73.9821 199.871 76.7273C202.1 79.367 203.191 82.3234 203.121 85.491C203.156 85.7139 203.133 86.0189 203.109 86.3943C203.027 87.4384 202.687 89.468 201.267 91.1105C201.936 90.7468 202.522 90.254 202.968 89.6557C203.649 88.7524 204.083 87.5792 204.224 86.277C204.329 85.3619 204.294 84.3882 204.13 83.3088C204.13 83.3088 203.719 81.2441 203.156 80.2117L201.772 77.6659L204.177 79.2966C204.177 79.2966 204.81 79.7306 205.455 80.2351C205.643 80.3759 205.819 80.5167 206.007 80.6809C206.323 80.9508 206.57 81.1971 206.746 81.3966C207.403 82.124 207.978 82.9803 208.412 83.8954C209.163 85.4675 209.597 87.2976 209.69 89.3272C209.737 90.2423 209.714 91.1809 209.62 92.1077C209.585 94.0082 208.635 95.944 207.004 97.3635C206.089 98.1613 204.974 98.8065 203.684 99.2523C202.03 99.8389 200.247 100.12 198.44 100.12H198.463ZM164.524 90.3244C164.841 90.3244 165.157 90.3244 165.486 90.3479C172.935 90.6881 178.86 91.8027 184.127 93.8205C185.641 94.3954 187.107 95.0993 188.538 95.768C189.958 96.4367 191.413 97.1289 192.891 97.692C196.246 98.9825 200.024 99.0646 203.238 97.9266C204.353 97.5278 205.315 96.9881 206.089 96.3077C207.403 95.1579 208.201 93.5624 208.224 92.0256C208.318 91.1105 208.33 90.254 208.294 89.3976C208.201 87.544 207.825 85.9016 207.156 84.4938C206.769 83.696 206.277 82.9569 205.69 82.2999C205.608 82.1943 205.479 82.0653 205.256 81.8658C205.432 82.5111 205.526 83.0155 205.537 83.0625C205.725 84.306 205.76 85.3971 205.643 86.4295C205.467 87.9781 204.939 89.3859 204.118 90.4887C202.734 92.3423 200.27 93.3982 197.971 93.1166L194.944 92.7412L197.83 91.744C201.279 90.5591 201.69 87.1452 201.736 85.9837H201.713V85.491C201.807 82.6519 200.821 80.0005 198.804 77.6072C196.281 74.6156 192.281 72.5508 188.609 72.3514L188.151 72.3279C187.917 72.3279 187.694 72.3279 187.471 72.3514C181.077 72.6681 179.74 76.4106 179.482 77.5134L179.411 77.8888C179.353 78.1938 179.329 78.4754 179.329 78.7217C179.329 79.4139 179.482 80.0826 179.775 80.7161L179.822 80.8334C179.857 80.939 179.892 81.0446 179.939 81.1385C180.432 82.1943 181.558 83.039 182.942 83.4144C183.822 83.6491 184.831 83.7312 186.122 83.6608H186.145C185.218 82.9452 184.339 81.7485 184.28 79.8949C184.245 78.71 184.655 77.7245 185.465 77.0441C186.755 75.9647 188.808 75.9061 189.794 76.1055L189.958 76.1407C191.084 76.3284 192.07 76.7273 192.867 77.3257C194.615 78.6513 195.601 81.0329 195.425 83.5552C195.331 84.9748 194.885 86.2066 194.158 87.11C193.442 88.0016 192.386 88.6703 191.026 89.1278C187.741 90.2071 185.394 89.2569 182.907 88.2479C182.086 87.9077 181.241 87.5675 180.326 87.2859C177.112 86.277 173.381 86.0893 169.545 86.7345C165.533 87.415 161.732 88.8697 158.118 90.5004H158.423C159.116 90.5004 159.784 90.5239 160.383 90.4887L161.497 90.4183C162.494 90.3597 163.503 90.2893 164.524 90.2893V90.3244Z" fill="#7083BC"/>
</g>
</svg>
