<svg width="393" height="451" viewBox="0 0 393 451" fill="none" xmlns="http://www.w3.org/2000/svg">
<g style="mix-blend-mode:multiply" opacity="0.4">
<path d="M220.004 208.402L216.518 209.895C216.438 209.708 207.012 191.683 169.199 179.3C129.405 166.274 122.988 140.056 122.735 138.949L122.337 137.187L124.054 136.7C145.142 130.649 167.624 139.217 189.027 161.445C197.103 169.833 203.641 178.74 208.137 185.513C206.337 177.585 204.4 166.707 203.901 155.075C202.577 124.245 211.896 102.084 230.816 90.9697L232.353 90.063L233.355 91.5668C233.98 92.5138 248.531 115.248 230.505 153.04C213.38 188.955 219.924 208.215 220.004 208.402ZM211.983 198.473C213.134 199.554 214.128 200.591 215.003 201.542C214.918 200.253 214.854 198.817 214.865 197.238L211.983 198.473ZM231.077 95.3037C192.945 119.866 212.215 187.521 214.867 196.216C215.054 186.443 217.537 171.435 227.085 151.412C241.49 121.218 233.868 100.984 231.077 95.3037ZM170.38 175.701C191.429 182.591 204.005 191.148 211.232 197.745C206.781 189.794 171.1 129.223 127.034 139.869C129.21 145.785 138.599 165.263 170.404 175.691L170.38 175.701Z" fill="#7083BC"/>
<path d="M197.497 160.607L195.895 160.078C194.739 159.689 167.768 150.338 160.931 117.618C154.288 85.8637 156.527 69.9658 156.633 69.3131L156.84 67.8712L158.278 67.697C160.171 67.4937 174.573 79.7984 191.584 104.488C210.552 132.013 198.723 158.011 198.196 159.092L197.474 160.617L197.497 160.607ZM160.089 73.2726C159.751 79.3542 159.802 93.6637 164.66 116.821C170.101 142.878 189.635 153.232 195.461 155.79C197.64 149.831 203.632 128.57 188.504 106.608C175.217 87.3372 164.777 77.284 160.112 73.2626L160.089 73.2726Z" fill="#7083BC"/>
<path d="M327.405 311.898L325.688 312.385C304.599 318.436 282.117 309.868 260.714 287.639C252.639 279.252 246.101 270.345 241.605 263.572C243.405 271.499 245.342 282.378 245.841 294.01C247.165 324.839 237.845 347.001 218.926 358.115L217.389 359.022L216.387 357.518C215.761 356.571 201.211 333.837 219.237 296.045C236.362 260.129 229.818 240.869 229.738 240.683L233.224 239.19C233.303 239.376 242.73 257.402 280.543 269.785C320.336 282.811 326.753 309.029 327.007 310.135L327.405 311.898ZM238.543 251.353C243.018 259.294 278.675 319.875 322.741 309.229C320.565 303.313 311.176 283.835 279.371 273.407C258.323 266.518 245.746 257.96 238.52 251.363L238.543 251.353ZM234.895 252.916C234.708 262.688 232.225 277.696 222.677 297.719C208.272 327.913 215.894 348.147 218.684 353.828C256.817 329.265 237.556 261.634 234.905 252.939L234.895 252.916ZM234.91 251.86L237.792 250.625C236.641 249.544 235.647 248.507 234.772 247.556C234.857 248.845 234.921 250.281 234.91 251.86Z" fill="#7083BC"/>
<path d="M292.656 382.837L290.163 381.061C289.608 380.664 276.535 371.269 258.163 344.622C239.038 316.861 251.448 290.228 251.564 289.985L252.306 288.507L253.875 289.022C255.031 289.411 282.002 298.762 288.839 331.482C295.526 363.466 293.23 379.168 293.148 379.81L292.68 382.827L292.656 382.837ZM254.309 293.31C252.131 299.269 246.128 320.506 261.266 342.492C274.7 361.976 285 371.896 289.635 375.847C289.953 369.719 289.888 355.25 285.086 332.289C279.636 306.209 260.112 295.878 254.286 293.32L254.309 293.31Z" fill="#7083BC"/>
<path d="M353.173 234.892C344.992 238.396 324.933 243.702 295.937 229.751C260.071 212.475 240.883 218.982 240.697 219.061L239.198 215.561C239.384 215.482 257.332 206.082 269.572 168.2C282.447 128.334 308.574 121.975 309.677 121.724L311.434 121.33L311.924 123.053C318.019 144.218 309.54 166.737 287.434 188.135C279.094 196.208 270.23 202.739 263.489 207.228C271.389 205.445 282.232 203.535 293.831 203.068C324.572 201.829 346.699 211.239 357.837 230.243L358.746 231.787L357.249 232.787C357.037 232.933 355.636 233.837 353.173 234.892ZM252.868 213.959C262.614 214.174 277.588 216.707 297.583 226.34C327.869 240.926 347.893 233.288 353.559 230.529C328.954 192.22 261.531 211.325 252.878 213.982L252.868 213.959ZM247.533 214.09C248.819 214.009 250.25 213.948 251.825 213.964L250.595 211.094C249.521 212.244 248.489 213.239 247.543 214.113L247.533 214.09ZM307.195 126.653C299.968 129.748 282.674 139.972 273.164 169.395C266.355 190.481 257.857 203.068 251.299 210.295C259.229 205.822 319.516 170.251 308.772 126.032C308.321 126.198 307.799 126.394 307.195 126.653Z" fill="#7083BC"/>
<path d="M333.284 196.938C310.253 206.803 290.734 197.767 289.796 197.312L288.307 196.597L288.807 195.003C288.903 194.713 298.083 166.895 331.062 160.031C362.939 153.419 378.594 155.743 379.245 155.851L382.255 156.329L380.514 158.814C380.143 159.36 370.918 172.368 344.244 190.807C340.55 193.356 336.866 195.348 333.287 196.881L333.284 196.938ZM293.071 194.557C299.043 196.748 320.286 202.809 342.098 187.723C361.264 174.487 371.25 164.025 375.246 159.358C369.111 159.032 354.658 159.064 331.844 163.783C305.852 169.173 295.605 188.722 293.071 194.557Z" fill="#7083BC"/>
<path d="M143.872 324.543C141.385 325.608 139.788 325.988 139.535 326.041L137.779 326.435L137.288 324.712C131.193 303.547 139.672 281.028 161.778 259.63C170.119 251.557 178.983 245.026 185.723 240.537C177.823 242.32 166.98 244.23 155.382 244.697C124.641 245.936 102.513 236.526 91.375 217.522L90.4662 215.978L91.9631 214.978C92.9057 214.353 115.535 199.828 153.276 218.014C189.142 235.29 208.33 228.783 208.516 228.704L210.015 232.203C209.829 232.283 191.88 241.683 179.64 279.565C169.756 310.17 152.075 321.029 143.895 324.533L143.872 324.543ZM140.427 321.766C146.343 319.591 165.741 310.233 176.025 278.38C182.835 257.293 191.332 244.707 197.89 237.48C189.96 241.953 129.673 277.524 140.417 321.743L140.427 321.766ZM197.374 233.835L198.604 236.705C199.678 235.554 200.71 234.56 201.656 233.685C200.37 233.766 198.939 233.827 197.364 233.811L197.374 233.835ZM95.673 217.282C120.278 255.591 187.701 236.487 196.355 233.83C186.608 233.614 171.634 231.081 151.639 221.448C121.353 206.863 101.32 214.477 95.663 217.259L95.673 217.282Z" fill="#7083BC"/>
<path d="M130.097 283.97C126.519 285.503 122.534 286.795 118.141 287.71C86.2638 294.323 70.599 291.976 69.9578 291.891L66.971 291.403L68.6786 288.905C69.0499 288.359 78.1453 275.434 104.948 256.911C132.365 237.961 158.303 249.908 159.383 250.439L160.905 251.168L160.382 252.773C160.065 253.765 153.115 274.138 130.107 283.993L130.097 283.97ZM73.9429 288.417C80.0785 288.744 94.5312 288.711 117.345 283.992C143.291 278.622 153.584 259.053 156.118 253.219C150.169 251.017 128.949 244.947 107.091 260.053C87.925 273.288 77.9297 283.727 73.9429 288.417Z" fill="#7083BC"/>
<path d="M229.39 235.06C223.627 237.529 216.913 234.827 214.435 229.04C211.956 223.254 214.632 216.53 220.395 214.061C226.159 211.592 232.872 214.295 235.35 220.081C237.829 225.868 235.153 232.592 229.39 235.06ZM221.884 217.538C218.027 219.19 216.262 223.674 217.911 227.524C219.56 231.374 224.046 233.18 227.881 231.537C231.715 229.895 233.503 225.401 231.854 221.551C230.205 217.701 225.719 215.895 221.884 217.538Z" fill="#7083BC"/>
</g>
</svg>
