<svg width="468" height="555" viewBox="0 0 468 555" fill="none" xmlns="http://www.w3.org/2000/svg">
<g style="mix-blend-mode:multiply" opacity="0.4">
<path d="M479.24 489.926L476.095 491.639C476.095 491.639 475.695 491.909 475.434 492.077L473.603 493.515L471.3 493.103L465.929 493.834L465.109 487.462C465.015 486.806 464.956 486.167 464.844 485.545C464.574 483.973 464.255 482.245 463.818 480.325C463.366 478.267 462.864 476.054 462.259 473.787C460.742 468.008 458.831 461.982 456.543 455.847C453.741 448.275 450.39 440.59 446.657 433.055C442.272 424.184 437.181 415.25 431.537 406.464C425.117 396.494 417.836 386.512 409.879 376.743C401.024 365.945 391.236 355.271 380.684 345.069C369.044 333.782 356.262 322.771 342.68 312.301C327.922 300.916 311.781 289.857 294.786 279.44C283.58 272.589 271.308 265.619 258.19 258.774C252.981 264.886 244.84 268.869 238.456 268.207C236.184 267.985 232.891 269.229 229.218 271.709C225.069 276.113 221.7 279.011 219.991 280.382C221.66 291.144 228.401 357.842 144.126 390.55L135.979 393.706L141.49 386.926C141.736 386.62 165.944 356.586 167.543 331.066C169.231 304.116 176.086 285.619 206.121 270.717L211.393 268.502C210.248 266.693 208.685 263.929 207.219 260.478L146.205 299.471C150.216 311.492 145.626 324.783 134.787 331.708C121.861 339.982 104.613 336.163 96.3751 323.254C88.1028 310.327 91.9238 293.078 104.833 284.838C115.672 277.912 129.663 279.305 138.877 287.989L203.475 246.686C203.398 246.082 203.337 245.53 203.276 244.977L184.306 245.821C174.548 255.434 130.662 292.281 69.4534 248.264L67.4237 246.821L69.02 244.914C69.4584 244.403 112.772 193.759 183.921 232.164L204.754 231.244C204.754 231.244 204.844 230.987 204.863 230.867L129.775 191.939C121.38 201.434 107.536 204.11 96.1441 198.204C82.5291 191.146 77.1924 174.315 84.2518 160.698C91.3112 147.081 108.142 141.742 121.757 148.801C133.148 154.707 138.957 167.529 136.036 179.861L208.9 217.637L199.329 202.778C126.939 166.767 143.364 102.183 143.529 101.53L144.168 99.1267L146.517 99.9538C217.746 124.641 212.926 181.742 210.694 195.257L220.903 211.228C221.39 210.959 221.894 210.656 222.381 210.388L218.887 133.827C206.48 131.302 197.244 120.653 196.691 107.822C196.003 92.4888 207.88 79.4595 223.211 78.7697C238.543 78.0799 251.553 89.9901 252.258 105.289C252.845 118.138 244.629 129.549 232.494 133.198L235.79 205.619C239.456 204.828 242.632 204.478 244.771 204.372L243.576 198.89C238.429 165.619 249.595 149.356 270.645 132.445C290.58 116.431 301.172 79.3384 301.281 78.9608L303.645 70.5498L305.761 79.0262C318.114 128.622 304.533 160.258 291.001 178.072C278.611 194.352 264.295 202.209 259.608 204.467L258.989 209.095C258.547 212.208 258.088 221.13 261.173 224.639C265.478 229.562 266.857 238.959 264.656 246.803C282.494 256.181 299.344 265.959 314.743 275.939C331.439 286.765 347.145 298.163 361.45 309.834C374.53 320.521 386.911 331.802 398.218 343.394C408.441 353.816 417.897 364.709 426.456 375.744C434.152 385.681 441.154 395.866 447.296 406.039C452.764 415.081 457.662 424.219 461.855 433.294C465.43 440.965 468.523 448.645 471.085 456.094C473.168 462.123 474.941 468.164 476.353 474.062C477.326 478.213 478.082 481.947 478.649 485.54L479.308 489.962L479.24 489.926ZM472.365 488.62L472.522 488.484C473.045 488.061 473.446 487.791 473.863 487.573L474.158 487.422L473.985 486.247C473.467 482.81 472.745 479.18 471.787 475.167C470.39 469.407 468.684 463.488 466.651 457.615C464.138 450.322 461.095 442.797 457.621 435.266C453.512 426.364 448.681 417.349 443.296 408.48C437.238 398.481 430.337 388.435 422.743 378.638C414.32 367.759 404.93 356.988 394.861 346.689C383.62 335.218 371.41 324.026 358.467 313.496C344.314 301.948 328.728 290.656 312.168 279.9C296.411 269.691 279.117 259.683 260.748 250.073L258.935 249.133L259.67 247.213C262.343 240.048 260.764 231.372 257.646 227.759C255.408 225.21 254.482 221.387 254.155 217.832L252.988 219.831L254.307 208.665C254.542 206.789 254.742 204.896 254.857 202.916L254.947 201.487L256.282 200.92C256.612 200.787 257.722 200.321 259.407 199.414L260.538 197.483L260.344 198.946C274.261 191.358 317.683 161.432 303.091 88.3635C298.722 100.641 288.903 123.766 273.521 136.106C253.308 152.323 243.303 167.017 248.12 198.078L250.494 208.988L247.564 208.945C247.564 208.945 241.482 208.874 234.18 210.818L231.412 211.554L227.72 129.681L229.588 129.26C240.551 126.783 248.176 116.846 247.635 105.583C247.047 92.82 236.18 82.8887 223.418 83.4781C210.622 84.0498 200.724 94.9363 201.312 107.699C201.819 118.945 210.284 128.151 221.447 129.641L223.357 129.893L227.129 213.284L225.741 213.953C224.231 214.689 222.771 215.495 221.431 216.406L219.464 217.688L205.801 196.323L205.969 195.412C207.938 184.582 214.206 129.794 147.438 105.293C146.518 110.416 144.953 123.062 148.525 138.023C154.743 164.122 172.744 184.654 201.97 199.025L202.551 199.326L216.164 220.621L215.059 221.915C214.638 222.392 214.27 222.852 213.883 223.346L212.723 224.915L130.485 182.28L131.047 180.444C134.393 169.72 129.582 158.153 119.559 152.957C108.201 147.069 94.1759 151.518 88.2871 162.877C82.3984 174.236 86.8457 188.261 98.2029 194.149C108.192 199.328 120.417 196.594 127.286 187.697L128.463 186.18L210.666 228.797L209.932 230.717C209.501 231.883 209.122 233.032 208.829 234.182L208.391 235.865L182.919 237.027L182.337 236.726C153.734 221.072 126.596 218.246 101.684 228.207C87.3987 233.91 77.9661 242.477 74.3097 246.181C132.813 286.625 173.974 249.927 181.69 242.077L182.337 241.414L207.792 240.286L207.826 242.648C207.855 244.182 208.021 245.788 208.287 247.618L208.507 249.121L138.201 294.063L136.895 292.648C129.278 284.402 116.841 282.772 107.359 288.839C96.5901 295.714 93.4317 310.094 100.305 320.864C107.213 331.651 121.558 334.79 132.327 327.915C141.809 321.848 145.569 309.907 141.275 299.52L140.543 297.751L209.543 253.652L210.538 256.338C213.122 263.408 216.723 268.183 216.74 268.235L218.515 270.588L208.057 275.02C180.001 288.951 173.793 305.614 172.173 331.426C170.937 351.057 157.732 372.427 150.198 383.106C229.181 348.132 215.853 282.838 215.24 280.003L214.917 278.533L216.119 277.637C216.119 277.637 220.423 274.442 226.043 268.457L226.427 268.135C231.249 264.862 235.459 263.355 238.97 263.699C243.513 264.144 251.232 260.81 255.736 254.55L256.914 252.947L258.693 253.869C272.53 261.086 285.486 268.411 297.255 275.598C314.387 286.086 330.648 297.25 345.524 308.74C359.26 319.333 372.16 330.449 383.919 341.841C394.574 352.183 404.514 362.98 413.471 373.917C421.547 383.791 428.929 393.913 435.433 404.056C441.179 412.982 446.353 422.089 450.805 431.082C454.622 438.79 458.006 446.579 460.891 454.325C463.194 460.598 465.206 466.764 466.74 472.681C467.343 475.033 467.913 477.282 468.33 479.408C468.748 481.448 469.118 483.246 469.404 484.871C469.514 485.579 469.59 486.27 469.701 486.978L469.9 488.687L472.33 488.688L472.365 488.62Z" fill="#7083BC"/>
<path d="M363.955 297.719L358.678 301.451L357.306 299.828C357.136 299.653 341.552 281.156 329.44 258.642C312.645 227.493 309.691 203.388 320.721 186.968C321.234 186.062 323.95 181.828 328.22 180.959C330.64 180.477 333.061 181.082 335.225 182.768C337.355 184.436 338.547 186.574 338.614 189.039C338.754 193.626 334.82 197.447 334.051 198.177C334.015 198.245 317.905 217.935 362.93 295.929L363.972 297.771L363.955 297.719ZM322.705 192.685C315.025 207.499 318.64 228.907 333.488 256.443C339.309 267.231 345.904 277.031 351.157 284.313C313.201 213.109 330.039 195.533 330.826 194.769C331.979 193.717 334.014 191.299 333.942 189.178C333.934 188.523 333.725 187.503 332.327 186.431C331.237 185.605 330.172 185.314 329.118 185.505C326.974 185.957 325.145 188.481 324.667 189.318L324.561 189.524C323.856 190.548 323.238 191.573 322.671 192.668L322.705 192.685Z" fill="#7083BC"/>
<path d="M291.92 313.766C289.455 318.522 283.602 320.349 278.882 317.902C274.161 315.455 272.3 309.585 274.747 304.863C277.195 300.142 283.065 298.28 287.786 300.727C292.507 303.175 294.368 309.045 291.92 313.766ZM278.818 306.974C277.541 309.437 278.513 312.502 280.976 313.779C283.439 315.056 286.504 314.083 287.781 311.62C289.058 309.157 288.086 306.092 285.623 304.815C283.16 303.538 280.095 304.51 278.818 306.974Z" fill="#7083BC"/>
<path d="M374.767 360.667L372.725 360.086C306.972 341.494 295.321 356.767 295.198 356.921C294.775 357.57 292.704 361.314 289.021 362.139C287.015 362.575 285.057 362.081 283.303 360.694C281.514 359.289 280.541 357.483 280.433 355.43C280.278 351.877 283.01 348.952 283.64 348.324C293.907 336.891 312.521 334.474 339.033 341.186C358.299 346.052 374.811 354.135 374.982 354.224L376.864 355.2L374.749 360.701L374.767 360.667ZM285.563 353.488C285.279 354.036 285.08 354.67 285.089 355.239C285.117 355.688 285.228 356.31 286.183 357.065C287.086 357.75 287.707 357.725 288.087 357.662C289.401 357.388 290.718 355.683 291.268 354.623C291.676 353.836 300.958 339.114 354.352 350.734C349.415 348.956 343.822 347.185 337.95 345.704C313.223 339.483 296.115 341.422 287.074 351.494L286.9 351.663C286.585 351.935 285.989 352.667 285.545 353.522L285.563 353.488Z" fill="#7083BC"/>
<path d="M451.673 390.815L446.483 393.29L445.408 391.43C444.533 389.935 436.803 376.464 431.42 360.477C423.693 337.372 424.56 320.631 434.047 310.704C434.521 310.125 437.025 307.386 440.336 307.279C442.233 307.221 443.962 307.987 445.37 309.542C446.777 311.096 447.372 312.88 447.103 314.738C446.641 318.058 443.592 320.254 442.636 320.843C442.636 320.843 430.196 332.365 450.961 388.839L451.673 390.815ZM433.876 318.819C429.229 327.783 429.875 341.271 435.785 359.007C436.989 362.627 438.351 366.111 439.7 369.371C427.599 326.07 439.447 317.367 440.038 316.979C440.961 316.372 442.305 315.202 442.442 314.101C442.481 313.774 442.453 313.326 441.877 312.679C441.232 311.998 440.716 311.904 440.406 311.917C439.216 311.951 437.887 313.259 437.518 313.719L437.43 313.89C435.978 315.351 434.782 316.988 433.824 318.836L433.876 318.819Z" fill="#7083BC"/>
<path d="M303.991 239.414C300.603 245.949 292.499 248.52 285.966 245.132C279.432 241.745 276.844 233.675 280.25 227.106C283.656 220.537 291.689 218.018 298.257 221.423C304.826 224.828 307.379 232.88 303.991 239.414ZM284.389 229.252C282.172 233.529 283.852 238.828 288.128 241.044C292.404 243.261 297.703 241.581 299.92 237.304C302.137 233.027 300.457 227.729 296.181 225.512C291.905 223.295 286.606 224.976 284.389 229.252Z" fill="#7083BC"/>
<path d="M407.867 314.234C404.48 320.769 396.428 323.323 389.86 319.918C383.292 316.513 380.739 308.461 384.127 301.926C387.514 295.391 395.584 292.803 402.152 296.208C408.72 299.613 411.273 307.665 407.867 314.234ZM388.266 304.072C386.049 308.349 387.729 313.647 392.005 315.864C396.281 318.081 401.579 316.4 403.797 312.124C406.014 307.847 404.334 302.548 400.058 300.331C395.781 298.115 390.483 299.795 388.266 304.072Z" fill="#7083BC"/>
</g>
</svg>
