<svg width="129" height="129" viewBox="0 0 129 129" fill="none" xmlns="http://www.w3.org/2000/svg">
<g filter="url(#filter0_dd_469_1838)">
<path d="M21 51C21 34.4315 34.4315 21 51 21L78 21C94.5685 21 108 34.4315 108 51L108 78C108 94.5685 94.5685 108 78 108L51 108C34.4315 108 21 94.5685 21 78L21 51Z" fill="#E1E8EA" fill-opacity="0.6" shape-rendering="crispEdges"/>
<g filter="url(#filter1_i_469_1838)">
<path d="M71.2255 70.972H57.7855V64.924H71.2255V70.972Z" fill="#7083BC"/>
</g>
<path d="M21.5 51C21.5 34.7076 34.7076 21.5 51 21.5L78 21.5C94.2924 21.5 107.5 34.7076 107.5 51L107.5 78C107.5 94.2924 94.2924 107.5 78 107.5L51 107.5C34.7076 107.5 21.5 94.2924 21.5 78L21.5 51Z" stroke="#EBF2F3" shape-rendering="crispEdges"/>
</g>
<defs>
<filter id="filter0_dd_469_1838" x="0" y="0" width="129" height="129" filterUnits="userSpaceOnUse" color-interpolation-filters="sRGB">
<feFlood flood-opacity="0" result="BackgroundImageFix"/>
<feColorMatrix in="SourceAlpha" type="matrix" values="0 0 0 0 0 0 0 0 0 0 0 0 0 0 0 0 0 0 127 0" result="hardAlpha"/>
<feOffset dx="5" dy="5"/>
<feGaussianBlur stdDeviation="8"/>
<feComposite in2="hardAlpha" operator="out"/>
<feColorMatrix type="matrix" values="0 0 0 0 0 0 0 0 0 0 0 0 0 0 0 0 0 0 0.25 0"/>
<feBlend mode="normal" in2="BackgroundImageFix" result="effect1_dropShadow_469_1838"/>
<feColorMatrix in="SourceAlpha" type="matrix" values="0 0 0 0 0 0 0 0 0 0 0 0 0 0 0 0 0 0 127 0" result="hardAlpha"/>
<feOffset dx="-5" dy="-5"/>
<feGaussianBlur stdDeviation="8"/>
<feComposite in2="hardAlpha" operator="out"/>
<feColorMatrix type="matrix" values="0 0 0 0 1 0 0 0 0 1 0 0 0 0 1 0 0 0 0.8 0"/>
<feBlend mode="normal" in2="effect1_dropShadow_469_1838" result="effect2_dropShadow_469_1838"/>
<feBlend mode="normal" in="SourceGraphic" in2="effect2_dropShadow_469_1838" result="shape"/>
</filter>
<filter id="filter1_i_469_1838" x="57.7856" y="64.9238" width="13.4399" height="7.04834" filterUnits="userSpaceOnUse" color-interpolation-filters="sRGB">
<feFlood flood-opacity="0" result="BackgroundImageFix"/>
<feBlend mode="normal" in="SourceGraphic" in2="BackgroundImageFix" result="shape"/>
<feColorMatrix in="SourceAlpha" type="matrix" values="0 0 0 0 0 0 0 0 0 0 0 0 0 0 0 0 0 0 127 0" result="hardAlpha"/>
<feOffset dy="1"/>
<feGaussianBlur stdDeviation="0.5"/>
<feComposite in2="hardAlpha" operator="arithmetic" k2="-1" k3="1"/>
<feColorMatrix type="matrix" values="0 0 0 0 0 0 0 0 0 0 0 0 0 0 0 0 0 0 0.25 0"/>
<feBlend mode="normal" in2="shape" result="effect1_innerShadow_469_1838"/>
</filter>
</defs>
</svg>
