<svg width="270" height="121" viewBox="0 0 270 121" fill="none" xmlns="http://www.w3.org/2000/svg">
<path d="M58.5987 121C48.8739 121.075 40.974 113.407 40.874 103.817C40.774 93.7024 48.2739 85.8104 58.1238 85.6606C68.0486 85.5357 76.3735 93.7274 76.3235 103.542C76.2735 112.933 68.1486 120.925 58.5987 120.975V121Z" fill="#7083BC"/>
<path d="M211.297 120.999C201.647 120.949 193.497 112.757 193.547 103.142C193.597 93.552 201.797 85.66 211.672 85.7349C221.297 85.8098 229.072 93.6768 228.997 103.267C228.922 113.157 221.047 121.049 211.297 120.999Z" fill="#7083BC"/>
<path d="M269.746 59.5866C269.621 55.3409 268.721 51.1701 267.121 47.2491C263.396 38.1584 259.071 29.2924 255.046 20.3265C248.996 6.84026 238.796 0.0221996 223.846 0.0221996C183.797 0.122098 143.748 0.0221996 103.723 0.0221996C78.6737 0.0221996 53.5991 -0.0277495 28.5495 0.0221996C11.2748 0.122098 0 11.4855 0 28.693C0 49.8465 0 71 0.0249996 92.1285C0.0249996 101.669 6.1499 107.738 15.6997 107.812C21.5246 107.862 27.3745 107.887 33.1995 107.812C33.3994 107.812 33.5744 107.812 33.7494 107.812C33.4995 106.364 33.3495 104.89 33.3495 103.367C33.3495 89.5311 44.5743 78.3175 58.424 78.3175C72.2738 78.3175 83.4986 89.5311 83.4986 103.367C83.4986 104.516 83.4236 105.665 83.2736 106.764C83.1986 107.338 83.6486 107.837 84.2236 107.837C118.198 107.837 151.873 107.837 185.547 107.937C186.122 107.937 186.572 107.438 186.497 106.863C186.347 105.715 186.247 104.566 186.247 103.367C186.247 89.5311 197.472 78.3175 211.322 78.3175C225.171 78.3175 236.396 89.5311 236.396 103.367C236.396 104.491 236.321 105.615 236.171 106.714C236.096 107.288 236.521 107.812 237.096 107.812C243.271 107.987 249.446 107.912 255.621 107.862C264.821 107.812 269.896 102.793 269.921 93.7019C269.946 82.3384 270.146 70.95 269.796 59.5866H269.746ZM58.399 48.4729C58.374 52.294 57.0741 53.7925 53.3241 53.8424C43.2743 53.9423 33.1995 53.9423 23.1496 53.8424C19.5997 53.7925 17.9747 52.0443 17.9497 48.4229C17.8997 37.1095 17.8997 25.8209 17.9747 14.5075C17.9997 10.7862 19.7997 9.11295 23.5496 9.11295C33.3745 9.063 43.1993 9.063 53.0241 9.11295C56.9241 9.11295 58.324 10.6114 58.349 14.5824C58.399 20.3016 58.349 25.9958 58.349 31.7149C58.349 37.3092 58.374 42.9036 58.349 48.4979L58.399 48.4729ZM107.848 31.69C107.848 37.1594 107.873 42.6538 107.848 48.1232C107.823 52.3939 106.548 53.7925 102.398 53.8175C92.5735 53.8924 82.7486 53.8924 72.8988 53.8175C69.1489 53.7925 67.4739 52.1192 67.4489 48.323C67.3739 37.0096 67.3489 25.721 67.4489 14.4076C67.4489 10.7613 69.3489 9.063 73.0738 9.03802C82.8986 8.98807 92.7235 8.98807 102.573 9.03802C106.423 9.03802 107.848 10.5864 107.873 14.5324C107.923 20.2516 107.873 25.9458 107.873 31.665L107.848 31.69ZM157.272 48.4729C157.247 52.2191 155.872 53.7925 152.173 53.8424C142.223 53.9423 132.298 53.9423 122.348 53.8424C118.548 53.8174 116.873 52.1192 116.848 48.373C116.773 37.0595 116.798 25.771 116.873 14.4575C116.898 10.7363 118.698 9.08797 122.448 9.063C132.173 9.01305 141.873 9.01305 151.598 9.063C155.922 9.063 157.247 10.4865 157.272 14.8821C157.297 20.4764 157.272 26.0707 157.272 31.665C157.272 37.2593 157.297 42.8536 157.272 48.4479V48.4729ZM206.722 48.4729C206.697 52.294 205.397 53.7675 201.647 53.8175C191.597 53.9174 181.522 53.9174 171.472 53.8175C168.097 53.7925 166.372 52.0942 166.347 48.6977C166.247 37.1594 166.222 25.6461 166.347 14.1079C166.372 10.8112 168.222 9.11295 171.597 9.08797C181.647 9.01305 191.722 9.01305 201.772 9.08797C205.222 9.08797 206.672 10.6614 206.722 14.2327C206.797 19.9519 206.722 25.6461 206.722 31.3653C206.722 37.0845 206.747 42.7787 206.722 48.4979V48.4729ZM252.046 56.5147C242.596 55.7655 233.146 54.9913 223.696 54.3669C216.946 53.9173 215.696 52.6436 215.721 45.7507C215.771 35.8108 215.721 25.8959 215.746 15.956C215.746 10.3617 217.121 9.26279 222.571 9.03802C234.721 8.51356 242.671 13.8831 247.246 25.0967C250.846 33.9627 255.121 42.5539 259.046 51.295C259.671 52.6936 260.071 54.1921 260.621 55.9902C260.821 56.6396 260.296 57.2889 259.621 57.214C256.871 56.9642 254.471 56.7145 252.046 56.5397V56.5147Z" fill="#7083BC"/>
</svg>
