<svg width="628" height="696" viewBox="0 0 628 696" fill="none" xmlns="http://www.w3.org/2000/svg">
<path d="M139.667 175.779C144.043 175.168 148.346 176.317 151.861 178.947C158.097 183.667 160.141 192.035 156.878 199.027L195.567 228.334C196.21 228.004 196.854 227.674 197.553 227.402L192.591 215.611C185.482 212.341 154.289 195.121 166.665 150.214L166.885 149.497L167.572 149.746C167.973 149.871 177.418 153.287 186.102 162.891C194.084 171.698 202.816 187.57 199.118 213.235L204.41 225.728C204.873 225.682 205.336 225.636 205.77 225.618L212.403 172.422C205.074 169.869 200.548 162.564 201.491 154.849C202.609 145.839 210.854 139.406 219.893 140.558C228.903 141.682 235.34 149.93 234.192 158.968C233.22 166.711 227.008 172.676 219.31 173.347L212.673 226.717C212.673 226.717 212.788 226.719 212.844 226.779L220.994 216.041C223.684 190.264 236.053 177.034 245.977 170.47C256.751 163.322 266.766 162.362 267.172 162.315L267.895 162.246L267.906 162.968C268.858 209.57 234.389 218.516 226.701 219.968L218.998 230.168C219.593 230.617 220.101 231.092 220.637 231.596L265.343 212.744C263.915 205.143 267.944 197.535 275.123 194.482C279.18 192.766 283.656 192.734 287.715 194.396C291.774 196.058 294.988 199.201 296.707 203.258C300.224 211.635 296.316 221.325 287.942 224.838C280.762 227.89 272.478 225.457 268.073 219.109L225.38 237.116C227.663 240.523 228.86 243.499 229.133 244.141L233.848 249.632L232.83 249.923L232.771 249.98L233.261 250.021L229.283 250.873C229.283 250.873 222.082 252.481 220.238 255.813C218.665 258.719 214.766 261.075 210.673 261.924C208.836 274.266 205.215 294.503 198.953 316.464C190.482 345.993 179.957 369.809 167.355 387.769C172.897 384.358 178.553 381.007 184.35 377.804C199.487 369.437 215.53 361.787 232.044 354.927C250.161 347.445 269.649 340.632 289.951 334.735C309.322 329.103 329.801 324.222 350.894 320.164C350.73 311.641 354.917 302.362 360.695 298.725C366.27 295.17 368.224 282.774 368.256 282.63L369.117 277.021C365.784 274.049 352.981 261.655 345.045 240.519C343.013 235.125 341.558 229.746 340.564 224.437C334.106 190.286 347.117 158.187 360.286 136.025L362.576 132.156L362.493 136.687C362.483 137.091 361.915 178.601 377.577 201.406C393.603 224.71 399.9 244.419 384.732 276.146L381.104 282.696C383.223 283.442 387.57 285.112 392.409 287.948L418.823 212.614C407.416 205.655 402.421 191.696 406.865 179.017C412.024 164.247 428.273 156.457 443.045 161.624C450.172 164.143 455.936 169.256 459.202 176.125C462.498 182.965 462.942 190.658 460.426 197.784C455.982 210.464 443.345 218.201 430.103 216.537L402.447 295.364C403.351 296.195 404.223 297.112 405.036 298.086L421.707 283.752C423.309 270.394 435.083 210.166 515.297 206.854L516.598 206.8L516.566 208.07C516.547 208.82 515.946 226.073 504.813 245.341C494.584 263.072 473.173 285.747 429.155 293.123L411.571 308.214C411.571 308.214 411.652 308.418 411.679 308.505L502.689 291.374C503.02 278.041 512.598 266.733 525.798 264.266C541.174 261.363 556.024 271.528 558.935 286.906C561.845 302.284 551.688 317.13 536.311 320.032C523.111 322.5 510.09 315.442 504.909 303.125L414.19 320.206C414.227 321.015 414.179 321.794 414.161 322.544L436.174 330.291C479.888 321.175 508.087 334.479 524.055 347.299C541.411 361.224 548.294 377.107 548.595 377.779L549.085 378.946L547.862 379.377C471.993 405.439 439.032 353.609 432.684 341.782L411.9 334.5C411.466 335.701 411.004 336.874 410.486 337.987L464.962 401.363C476.67 395.017 491.274 397.639 500.001 407.822C504.942 413.55 507.358 420.888 506.767 428.438C506.203 436.018 502.712 442.889 496.987 447.827C485.126 458.038 467.171 456.631 456.983 444.793C448.227 434.581 447.843 419.786 455.874 409.161L403.925 348.678C400.198 353.406 396.509 356.634 394.889 357.892L401.539 363.403C427.191 387.413 428.469 408.063 422.04 435.593C415.77 462.52 431.39 500.975 431.553 501.383L433.269 505.556L429.728 502.781C396.217 476.608 383.293 449.34 379.16 427.404C378.036 421.485 377.567 415.958 377.489 410.96C377.152 387.273 385.333 370.645 386.878 367.71L386.766 367.591C386.626 367.386 383.188 362.823 379.117 354.635C375.838 350.653 372.663 348.263 369.962 347.732C363.467 346.471 356.275 339.561 353.233 331.802C337.943 334.736 322.929 338.139 308.455 341.931C287.876 347.359 267.996 353.7 249.397 360.795C232.285 367.322 215.787 374.672 200.43 382.629C186.506 389.842 173.143 397.705 160.808 406.056C149.649 413.57 139.113 421.562 129.494 429.809C120.997 437.101 113.042 444.668 105.776 452.367C99.6355 458.94 93.8638 465.782 88.6101 472.695C84.3409 478.334 80.5348 483.926 77.2244 489.329C75.8692 491.576 74.6337 493.653 73.6053 495.532C72.6684 497.213 71.8485 498.838 70.9384 500.605C70.5439 501.375 70.2057 502.204 69.8689 502.975L67.699 507.8L67.5582 507.652C66.2484 509.236 63.9898 510.652 60.8145 509.445C58.326 508.487 57.3033 506.642 56.9704 504.93C56.7668 503.827 56.8503 502.79 57.042 502.044L57.8917 500.39L59.264 497.451C60.8787 494.055 62.7581 490.465 65.0502 486.538C68.3072 480.96 71.9386 475.421 75.8572 469.947C80.7323 463.169 86.2155 456.32 92.1856 449.627C99.167 441.747 106.955 433.945 115.315 426.389C121.871 420.491 128.888 414.662 136.218 409.043C136.427 408.789 136.693 408.535 136.987 408.312C143.098 404.077 148.688 398.761 153.774 392.797C157.749 387.382 161.618 381.56 165.206 375.442C169.607 367.988 173.676 359.948 177.348 351.609C181.388 342.413 185.068 332.601 188.236 322.43C191.658 311.399 194.634 299.664 197.044 287.51C198.727 279.034 200.159 270.177 201.306 261.196C196.694 259.722 192.431 255.774 191.484 252.054C191.089 250.513 189.574 248.742 187.163 246.978C182.276 244.919 179.521 243.088 179.379 242.998L178.526 242.457L184.404 238.332C184.794 237.735 186.649 235.125 189.691 232.401L152.788 204.439C146.945 209.489 138.332 209.791 132.097 205.071C124.841 199.574 123.394 189.228 128.887 181.975C131.543 178.49 135.411 176.22 139.787 175.609L139.667 175.779Z" fill="url(#paint0_linear_2227_4038)" fill-opacity="0.5"/>
<path d="M237.48 401.152C237.48 401.152 255.689 392.343 276.523 387.124C304.707 380.098 324.367 382.588 334.93 394.464C334.93 394.464 337.892 397.282 337.728 400.425C337.633 401.924 336.907 403.234 335.552 404.297C334.198 405.361 332.803 405.729 331.367 405.404C328.236 404.719 326.252 400.915 326.169 400.768C326.086 400.622 314.022 381.72 238.158 402.931L237.508 401.182L237.48 401.152Z" fill="url(#paint1_linear_2227_4038)" fill-opacity="0.5"/>
<path d="M201.418 469.658C201.418 469.658 203.43 472.366 202.877 474.864C202.616 476.07 201.841 477.032 200.554 477.693C199.325 478.355 198.11 478.44 197.024 478.008C194.594 476.994 193.522 473.674 193.496 473.529C193.441 473.413 186.355 456.427 122.059 462.972L121.75 461.463C121.75 461.463 137.717 456.871 155.276 455.612C179.054 453.903 194.588 458.628 201.446 469.688L201.418 469.658Z" fill="url(#paint2_linear_2227_4038)" fill-opacity="0.5"/>
<path d="M114.946 321.356C124.483 330.376 126.013 346.672 119.49 369.839C114.676 386.928 107.007 401.605 106.916 401.747L105.488 401.133C124.991 338.965 109.687 328.5 109.545 328.409C109.403 328.319 106.326 326.624 105.843 323.984C105.612 322.795 105.959 321.619 106.852 320.545C107.775 319.442 108.858 318.863 110.129 318.837C112.729 318.788 114.891 321.239 114.976 321.328L114.946 321.356Z" fill="url(#paint3_linear_2227_4038)" fill-opacity="0.5"/>
<path d="M145.597 320.832C142.439 315.439 144.286 308.497 149.706 305.371C155.097 302.216 162.039 304.066 165.168 309.487C168.326 314.881 166.479 321.822 161.059 324.948C155.668 328.103 148.725 326.253 145.597 320.832Z" fill="url(#paint4_linear_2227_4038)" fill-opacity="0.5"/>
<path d="M207.785 426.072C210.36 422.791 215.107 422.221 218.389 424.798C221.67 427.374 222.243 432.122 219.668 435.402C217.093 438.683 212.346 439.253 209.064 436.677C205.783 434.1 205.21 429.352 207.785 426.072Z" fill="url(#paint5_linear_2227_4038)" fill-opacity="0.5"/>
<defs>
<linearGradient id="paint0_linear_2227_4038" x1="473.789" y1="161.791" x2="82.8809" y2="533.588" gradientUnits="userSpaceOnUse">
<stop stop-color="#6EB0AF"/>
<stop offset="1" stop-color="#7083BC"/>
</linearGradient>
<linearGradient id="paint1_linear_2227_4038" x1="316.084" y1="374.625" x2="261.035" y2="426.983" gradientUnits="userSpaceOnUse">
<stop stop-color="#6EB0AF"/>
<stop offset="1" stop-color="#7083BC"/>
</linearGradient>
<linearGradient id="paint2_linear_2227_4038" x1="182.689" y1="449.247" x2="144.001" y2="486.043" gradientUnits="userSpaceOnUse">
<stop stop-color="#6EB0AF"/>
<stop offset="1" stop-color="#7083BC"/>
</linearGradient>
<linearGradient id="paint3_linear_2227_4038" x1="131.004" y1="338.177" x2="86.1685" y2="380.821" gradientUnits="userSpaceOnUse">
<stop stop-color="#6EB0AF"/>
<stop offset="1" stop-color="#7083BC"/>
</linearGradient>
<linearGradient id="paint4_linear_2227_4038" x1="163.583" y1="307.359" x2="147.181" y2="322.96" gradientUnits="userSpaceOnUse">
<stop stop-color="#6EB0AF"/>
<stop offset="1" stop-color="#7083BC"/>
</linearGradient>
<linearGradient id="paint5_linear_2227_4038" x1="219.668" y1="435.402" x2="207.784" y2="426.073" gradientUnits="userSpaceOnUse">
<stop stop-color="#6EB0AF"/>
<stop offset="1" stop-color="#7083BC"/>
</linearGradient>
</defs>
</svg>
