<svg width="359" height="862" viewBox="0 0 359 862" fill="none" xmlns="http://www.w3.org/2000/svg">
<path d="M240.121 593.913C222.585 613.094 213.062 639.404 208.136 668.047C207.873 669.732 207.545 671.287 207.151 672.777L186.265 695.976V530.407L212.733 501.051C227.511 498.265 255.096 492.951 267.312 489.711C295.423 482.388 315.652 461.522 328.919 429.898C337.457 409.615 355.125 359.393 357.161 355.635C330.561 364.772 303.37 371.835 277.427 383.305C263.306 389.526 249.645 400.478 238.217 412.92C220.68 432.102 211.157 458.411 206.297 487.054C206.034 488.739 205.706 490.229 205.246 491.785L186.265 512.845V351.488L214.638 320.123C229.416 317.337 257.066 311.958 269.217 308.783C297.328 301.395 317.557 280.594 330.824 248.906C339.296 228.622 357.03 178.401 359 174.642C332.4 183.844 305.209 190.843 279.266 202.378C265.145 208.599 251.484 219.485 240.121 231.992C222.585 251.174 213.062 277.483 208.136 306.126C207.873 307.811 207.545 309.366 207.151 310.857L186.265 334.056V204.646C197.102 190.389 217.856 157.664 221.206 110.488C221.994 99.0827 221.272 87.6128 218.644 76.5316C216.477 67.4593 212.996 58.7757 208.53 50.6754C202.093 38.8814 193.358 28.6426 186.593 17.043C183.9 12.3125 181.799 7.45227 180.354 2.13849C180.157 1.42566 180.025 0.648023 179.697 0C178.318 4.53616 177.004 8.94281 174.902 13.155C172.341 18.4039 168.86 23.0697 165.576 27.8002C161.898 32.9196 158.286 38.039 154.936 43.4176C150.273 50.8699 146.267 58.7109 143.377 67.0056C139.896 76.9204 138.057 87.2887 137.728 97.7867C137.597 101.999 137.728 106.276 137.991 110.553C141.341 157.664 162.029 190.454 172.932 204.71V332.047L153.951 310.986C153.557 309.431 153.163 307.876 152.9 306.191C148.04 277.548 138.516 251.238 120.98 232.057C109.552 219.55 95.9566 208.663 81.77 202.442C55.8269 190.908 28.6359 183.909 2.03602 174.707C4.00639 178.466 21.7396 228.752 30.2122 248.97C43.5449 280.659 63.7083 301.46 91.8188 308.848C103.969 312.023 131.62 317.402 146.398 320.188L172.866 349.479V515.049L151.915 491.914C151.521 490.359 151.127 488.868 150.864 487.183C145.938 458.541 136.48 432.231 118.944 413.05C107.516 400.608 93.8549 389.656 79.734 383.435C53.7909 371.965 26.5999 364.902 0 355.764C2.03604 359.523 19.7036 409.745 28.2419 430.028C41.5747 461.716 61.738 482.518 89.8485 489.84C101.999 493.016 129.584 498.394 144.427 501.181L172.866 532.61V693.968L153.885 672.907C153.491 671.352 153.097 669.796 152.834 668.112C147.974 639.469 138.451 613.159 120.915 593.978C109.486 581.536 95.891 570.649 81.7044 564.428C55.7613 552.893 28.5703 545.894 1.97038 536.693C3.94074 540.451 21.674 590.738 30.1465 610.956C43.4793 642.644 63.6427 663.446 91.7532 670.833C103.904 674.009 131.555 679.387 146.332 682.174L172.801 711.464V855.39C172.801 859.019 175.756 862 179.5 862C183.244 862 186.199 859.084 186.199 855.39V713.538L214.572 682.174C229.35 679.387 257.001 674.009 269.151 670.833C297.262 663.446 317.491 642.644 330.758 610.956C339.231 590.673 356.964 540.451 358.934 536.693C332.334 545.894 305.209 552.893 279.2 564.428C265.014 570.649 251.418 581.536 239.99 593.978L240.121 593.913Z" fill="url(#paint0_linear_2227_4036)" fill-opacity="0.5"/>
<defs>
<linearGradient id="paint0_linear_2227_4036" x1="179.5" y1="0" x2="179.5" y2="862" gradientUnits="userSpaceOnUse">
<stop stop-color="#6EADB0"/>
<stop offset="1" stop-color="#708EB9"/>
</linearGradient>
</defs>
</svg>
